<svg width="39" height="32" viewBox="0 0 39 32" fill="none" xmlns="http://www.w3.org/2000/svg">
<path d="M1.97952 6.25615V3.95787H2.53223C3.02644 3.95787 3.43351 4.01638 3.7248 4.19068C4.0161 4.36498 4.19038 4.65632 4.19038 5.12195C4.19038 5.90755 3.7248 6.25615 2.61937 6.25615H1.97952ZM0.641298 7.36171H2.59074C4.77297 7.36171 5.55847 6.40181 5.55847 5.06343C5.55847 4.16205 5.18004 3.55075 4.51155 3.20091C3.98747 2.90957 3.31898 2.82242 2.50484 2.82242H1.98076V1.07693H4.91862L5.26717 0H0.611422V7.36047H0.640053L0.641298 7.36171ZM6.4585 7.36171H7.73821L9.39635 4.97628C9.71628 4.53929 9.94907 4.10353 10.0947 3.87072H10.1233C10.0947 4.19068 10.0648 4.5978 10.0648 5.00492V7.33183H11.3744V2.09534H10.0947L8.43657 4.48077C8.14528 4.91777 7.88386 5.35352 7.73821 5.58633H7.70958C7.73821 5.26637 7.76809 4.85925 7.76809 4.45214V2.12522H6.4585V7.36171ZM13.6152 7.36171H14.9534V3.20091H16.5244L16.8729 2.09534H12.0155V3.20091H13.6152V7.36171ZM17.3385 10.0098H18.6481V7.36296C18.9095 7.45011 19.1722 7.47874 19.4622 7.47874C21.1204 7.47874 22.1972 6.34454 22.1972 4.71483C22.1972 3.08512 21.2075 1.95092 19.3178 1.95092C18.5908 1.95092 17.8925 2.09659 17.3111 2.27089V10.0098H17.3398H17.3385ZM18.6481 6.22751V3.14364C18.8523 3.08512 19.0265 3.05649 19.2593 3.05649C20.2191 3.05649 20.8303 3.58063 20.8303 4.71483C20.8303 5.73324 20.3361 6.37318 19.3465 6.37318C19.0851 6.37318 18.8809 6.31466 18.6481 6.22751ZM22.9814 7.36171H24.2612L25.9193 4.97628C26.2392 4.53929 26.472 4.10353 26.6177 3.87072H26.6463C26.6177 4.19068 26.5878 4.5978 26.5878 5.00492V7.33183H27.8974V2.09534H26.6177L24.9595 4.48077C24.6682 4.91777 24.4068 5.35352 24.2612 5.58633H24.2325C24.2612 5.26637 24.291 4.85925 24.291 4.45214V2.12522H22.9814V7.36171ZM28.9455 7.36171H30.2838V5.17922H31.0693C31.2149 5.17922 31.3606 5.32488 31.5348 5.67348L32.2033 7.36047H33.6287L32.6689 5.35352C32.4946 5.00492 32.3203 4.80074 32.0577 4.71359V4.68495C32.4946 4.4235 32.5519 3.66654 32.8145 3.28806C32.9017 3.17227 33.0187 3.11376 33.193 3.11376C33.2801 3.11376 33.3971 3.11376 33.4843 3.17227V2.03807C33.3386 1.97956 33.0772 1.95092 32.9316 1.95092C32.466 1.95092 32.1747 2.12522 31.9718 2.41655C31.5348 3.05649 31.5348 4.16205 30.895 4.16205H30.2838V2.09659H28.9455V7.36296V7.36171ZM36.5964 7.47874C37.3234 7.47874 37.9931 7.24592 38.4002 6.95459L38.0218 6.05321C37.6433 6.25739 37.2948 6.40181 36.8006 6.40181C35.8993 6.40181 35.3167 5.82039 35.3167 4.74347C35.3167 3.78357 35.898 3.02661 36.8877 3.02661C37.4118 3.02661 37.789 3.17227 38.1674 3.43372V2.29952C37.8761 2.12522 37.4105 1.95092 36.7421 1.95092C35.1711 1.95092 33.9498 3.115 33.9498 4.77335C33.9498 6.28603 34.881 7.47874 36.5964 7.47874Z" fill="#D2D2D2"/>
<path d="M12.2942 31.7052V28.9812H4.19142C5.3093 24.5104 12.1535 23.533 12.1535 18.5729C12.1535 15.9186 10.3373 13.9627 6.49565 13.9627C4.12046 13.9627 2.02538 14.6611 0.628651 15.3596L1.46644 17.8745C2.72374 17.2458 4.19018 16.6868 6.00642 16.6868C7.40314 16.6868 8.73016 17.3155 8.73016 18.9215C8.73016 22.5545 0.698363 22.8334 0 31.7052H12.2942ZM12.6427 27.3739H20.5351V31.7052H23.6784V27.3739H26.3324V24.7195H23.6784V13.9627H21.3729L12.6427 25.2785V27.3739ZM16.2055 24.8602L20.6758 18.8531C20.6758 19.3424 20.5364 20.8787 20.5364 22.2756V24.7905H18.4413C17.8126 24.7905 16.625 24.8602 16.2067 24.8602H16.2055Z" fill="#D2D2D2"/>
<path d="M32.9225 17.9828H35.9488V18.7858H32.1196V14.9562H32.9225V17.9828Z" fill="#D2D2D2"/>
<path fill-rule="evenodd" clip-rule="evenodd" d="M32.4893 12.1326C29.2684 12.1326 26.6397 14.7616 26.6397 17.9828V17.9864L26.6398 17.99C26.7058 21.1989 29.262 23.833 32.4893 23.833C35.7101 23.833 38.3388 21.2039 38.3388 17.9828C38.3388 14.7616 35.7101 12.1326 32.4893 12.1326ZM32.4893 23.1284C29.6653 23.1284 27.4046 20.8218 27.3443 17.9791C27.3462 15.1487 29.6588 12.8371 32.4893 12.8371C35.3209 12.8371 37.6343 15.1507 37.6343 17.9828C37.6343 20.8149 35.3209 23.1284 32.4893 23.1284Z" fill="#D2D2D2"/>
</svg>
