<svg width="178" height="60" viewBox="0 0 178 60" fill="none" xmlns="http://www.w3.org/2000/svg">
<path d="M91.7287 22.741C94.1257 25.6473 95.005 29.0595 94.3565 33.0251H76.0021C76.8781 35.9314 79.3226 37.8191 82.5039 37.8191C85.2235 37.8191 87.1621 36.7122 88.4048 34.4986L93.5213 36.8039C91.3552 40.6778 87.2945 43.1665 82.3172 43.1665C78.6741 43.1665 75.6762 41.968 73.2316 39.6151C70.7871 37.2623 69.5886 34.3118 69.5886 30.808C69.5886 27.3041 70.7871 24.3537 73.1841 22.0008C75.5811 19.648 78.5349 18.4495 82.0863 18.4495C86.096 18.4495 89.2807 19.8788 91.7219 22.7376M76.0938 28.2752H88.1298C87.2538 25.5556 84.996 23.8037 82.0897 23.8037C79.1834 23.8037 76.9697 25.5556 76.0938 28.2752Z" fill="white"/>
<path d="M119.671 22.0043C121.837 24.3571 122.944 27.3076 122.944 30.8114C122.944 34.3153 121.837 37.2691 119.671 39.6186C117.505 41.9714 114.782 43.1699 111.509 43.1699C108.467 43.1699 105.927 42.0631 103.945 39.897V51.933H97.7177V18.9146H103.945V21.7259C105.927 19.5597 108.464 18.4529 111.509 18.4529C114.782 18.4529 117.505 19.6514 119.671 22.0043ZM110.219 37.4966C112.018 37.4966 113.492 36.8515 114.694 35.5613C115.892 34.3153 116.493 32.7025 116.493 30.8114C116.493 28.9203 115.892 27.3076 114.694 26.0615C113.495 24.8155 112.018 24.1704 110.219 24.1704C108.419 24.1704 106.942 24.8155 105.744 26.0615C104.545 27.3517 103.945 28.9203 103.945 30.8114C103.945 32.7025 104.545 34.3153 105.744 35.5613C106.942 36.8515 108.419 37.4966 110.219 37.4966Z" fill="white"/>
<path d="M132.305 33.6226L143.651 18.9146H149.692V42.7081H143.465V27.9967L132.121 42.7081H126.081V18.9146H132.305V33.6226Z" fill="white"/>
<path d="M160.896 42.7081H154.669V18.9146H177.451V42.7081H171.224V24.4012H160.896V42.7081Z" fill="white"/>
<path d="M0.221191 0L21.7502 26.3196L28.9412 17.5362L14.5965 0H0.221191ZM21.7841 0L36.1254 17.526C36.1254 17.526 41.1639 11.3739 41.1707 11.3603C42.4303 9.80534 42.3862 7.60525 41.1503 6.09778L37.4156 1.53463C36.6245 0.567 35.4396 0.00339593 34.1868 0.00339593H21.7841V0Z" fill="url(#paint0_linear_82_2025)"/>
<mask id="mask0_82_2025" style="mask-type:luminance" maskUnits="userSpaceOnUse" x="0" y="0" width="43" height="27">
<path d="M0.221191 0L21.7502 26.3196L28.9412 17.5362L14.5965 0H0.221191ZM21.7841 0L36.1254 17.526C36.1254 17.526 41.1639 11.3739 41.1707 11.3603C42.4303 9.80534 42.3862 7.60525 41.1503 6.09778L37.4156 1.53463C36.6245 0.567 35.4396 0.00339593 34.1868 0.00339593H21.7841V0Z" fill="white"/>
</mask>
<g mask="url(#mask0_82_2025)">
<path d="M21.8506 -21.0988L-12.9323 12.8326L20.8047 47.4163L55.5876 13.4849L21.8506 -21.0988Z" fill="url(#paint1_linear_82_2025)"/>
</g>
<path d="M22.9623 59.9966H35.3616C36.6144 59.9966 37.7993 59.4364 38.5904 58.4688L59.1348 33.3681C60.3944 31.83 60.3944 29.6164 59.1348 28.0817L54.1098 21.9398L22.9623 60V59.9966Z" fill="url(#paint2_linear_82_2025)"/>
<mask id="mask1_82_2025" style="mask-type:luminance" maskUnits="userSpaceOnUse" x="22" y="21" width="39" height="39">
<path d="M22.9623 59.9966H35.3616C36.6144 59.9966 37.7993 59.4364 38.5904 58.4688L59.1348 33.3681C60.3944 31.83 60.3944 29.6164 59.1348 28.0817L54.1098 21.9398L22.9623 60V59.9966Z" fill="white"/>
</mask>
<g mask="url(#mask1_82_2025)">
<path d="M36.6126 3.92466L4.64319 46.1193L46.7431 78.0169L78.7125 35.8223L36.6126 3.92466Z" fill="url(#paint3_linear_82_2025)"/>
</g>
<path d="M41.1707 11.3603L36.1254 17.526L1.36877 59.9966H15.7542L48.3448 20.1777C49.6044 18.6397 49.6044 16.426 48.3448 14.8913L41.1537 6.09778C42.3896 7.60864 42.4337 9.80873 41.1741 11.3603" fill="url(#paint4_linear_82_2025)"/>
<mask id="mask2_82_2025" style="mask-type:luminance" maskUnits="userSpaceOnUse" x="1" y="6" width="49" height="54">
<path d="M41.1707 11.3603L36.1254 17.526L1.36877 59.9966H15.7542L48.3448 20.1777C49.6044 18.6397 49.6044 16.426 48.3448 14.8913L41.1537 6.09778C42.3896 7.60864 42.4337 9.80873 41.1741 11.3603" fill="white"/>
</mask>
<g mask="url(#mask2_82_2025)">
<path d="M18.9594 -17.117L-24.5762 40.3431L32.0098 83.2165L75.5454 25.7564L18.9594 -17.117Z" fill="url(#paint5_linear_82_2025)"/>
</g>
<defs>
<linearGradient id="paint0_linear_82_2025" x1="6.35972" y1="13.1598" x2="42.2402" y2="13.1598" gradientUnits="userSpaceOnUse">
<stop stop-color="#FAAC65"/>
<stop offset="0.41" stop-color="#F58557"/>
<stop offset="1" stop-color="#F05345"/>
</linearGradient>
<linearGradient id="paint1_linear_82_2025" x1="-2.63169" y1="-3.21369" x2="26.2859" y2="26.4296" gradientUnits="userSpaceOnUse">
<stop stop-color="#FAAC65"/>
<stop offset="0.41" stop-color="#F58557"/>
<stop offset="1" stop-color="#F05345"/>
</linearGradient>
<linearGradient id="paint2_linear_82_2025" x1="26.826" y1="40.9665" x2="60.0413" y2="40.9665" gradientUnits="userSpaceOnUse">
<stop stop-color="#FAAC65"/>
<stop offset="0.41" stop-color="#F58557"/>
<stop offset="1" stop-color="#F05345"/>
</linearGradient>
<linearGradient id="paint3_linear_82_2025" x1="56.3008" y1="15.0723" x2="27.6823" y2="52.8442" gradientUnits="userSpaceOnUse">
<stop stop-color="#FAAC65"/>
<stop offset="0.41" stop-color="#F58557"/>
<stop offset="1" stop-color="#F05345"/>
</linearGradient>
<linearGradient id="paint4_linear_82_2025" x1="4.75719" y1="33.0455" x2="49.2852" y2="33.0455" gradientUnits="userSpaceOnUse">
<stop stop-color="#FAAC65"/>
<stop offset="0.41" stop-color="#F58557"/>
<stop offset="1" stop-color="#F05345"/>
</linearGradient>
<linearGradient id="paint5_linear_82_2025" x1="45.8034" y1="0.143847" x2="5.33922" y2="53.5502" gradientUnits="userSpaceOnUse">
<stop stop-color="#FAAC65"/>
<stop offset="0.41" stop-color="#F58557"/>
<stop offset="1" stop-color="#F05345"/>
</linearGradient>
</defs>
</svg>
