<svg width="670" height="581" viewBox="0 0 670 581" fill="none" xmlns="http://www.w3.org/2000/svg">
<g opacity="0.15">
<path d="M432.701 117.886L550.707 185.318L668.714 117.886L550.707 50.4534L432.701 117.886Z" fill="#D2D2D2"/>
<path d="M432.701 252.75V117.886L550.707 185.318V320.182L432.701 252.75Z" fill="#D2D2D2"/>
<path d="M550.707 185.318V320.182L668.714 252.75V117.886L550.707 185.318Z" fill="#D2D2D2"/>
<path d="M550.707 185.318V320.182L668.714 252.75V117.886L550.707 185.318Z" fill="#D2D2D2"/>
<path d="M550.707 185.318V320.182L668.714 252.75V117.886L550.707 185.318Z" fill="#D2D2D2"/>
<path d="M550.707 185.318V320.182L668.714 252.75V117.886L550.707 185.318Z" fill="#D2D2D2"/>
<path d="M432.701 117.978L550.87 185.503L669.038 117.978L550.87 50.4534L432.701 117.978Z" fill="#D2D2D2"/>
<path d="M432.701 253.028V117.978L550.87 185.503V320.553L432.701 253.028Z" fill="#D2D2D2"/>
<path d="M550.87 185.503V320.553L669.038 253.028V117.978L550.87 185.503Z" fill="#D2D2D2"/>
<path d="M550.87 185.503V320.553L669.038 253.028V117.978L550.87 185.503Z" fill="#D2D2D2"/>
<path d="M550.87 185.503V320.553L669.038 253.028V117.978L550.87 185.503Z" fill="#D2D2D2"/>
<path d="M550.87 185.503V320.553L669.038 253.028V117.978L550.87 185.503Z" fill="#D2D2D2"/>
<path d="M432.701 117.978L550.87 185.503L669.038 117.978L550.87 50.4534L432.701 117.978Z" fill="#E2E2E2"/>
<path d="M432.701 253.028V117.978L550.87 185.503V320.553L432.701 253.028Z" fill="#E2E2E2"/>
<path d="M432.701 117.978L550.87 185.503L669.038 117.978L550.87 50.4534L432.701 117.978Z" fill="#F8F8F8"/>
<rect width="104.879" height="104.879" rx="31.6074" transform="matrix(0.866025 0.5 -0.866025 0.5 551.545 64.1016)" fill="#999999"/>
<g clip-path="url(#clip0_1173_42018)">
<path d="M568.823 117.287C568.901 116.255 567.414 115.33 565.356 115.33L545.199 115.33C544.678 115.33 544.346 115.522 544.346 115.823C544.346 116.124 544.678 116.316 545.199 116.316L561.872 116.316C562.844 116.316 563.631 116.77 563.631 117.331C563.631 117.893 562.844 118.347 561.872 118.347L545.199 118.347C542.734 118.347 540.827 117.246 540.827 115.823C540.827 114.4 542.734 113.298 545.199 113.298L565.356 113.298C569.256 113.298 572.489 115.092 572.341 117.353C572.321 119.595 569.224 121.449 565.32 121.364H541.715C536.264 121.364 531.993 118.898 531.993 115.751C531.993 112.604 536.264 110.138 541.715 110.138L561.872 110.138C562.844 110.138 563.631 110.593 563.631 111.154C563.631 111.715 562.844 112.17 561.872 112.17L541.715 112.17C538.208 112.17 535.512 113.726 535.512 115.751C535.512 117.776 538.208 119.333 541.715 119.333L565.356 119.333C565.381 119.333 565.407 119.333 565.432 119.334C567.22 119.378 568.822 118.52 568.822 117.331C568.822 117.317 568.822 117.302 568.823 117.287Z" fill="white"/>
</g>
<rect y="0.359175" width="104.161" height="104.161" rx="31.2482" transform="matrix(0.866025 0.5 -0.866025 0.5 551.856 64.2812)" fill="#D2D2D2"/>
<rect y="0.359175" width="104.161" height="104.161" rx="31.2482" transform="matrix(0.866025 0.5 -0.866025 0.5 551.856 64.2812)" stroke="#999999" stroke-width="0.71835"/>
<g clip-path="url(#clip1_1173_42018)">
<path d="M568.823 117.287C568.901 116.255 567.414 115.33 565.356 115.33L545.199 115.33C544.678 115.33 544.346 115.522 544.346 115.823C544.346 116.124 544.678 116.316 545.199 116.316L561.872 116.316C562.844 116.316 563.631 116.77 563.631 117.331C563.631 117.893 562.844 118.347 561.872 118.347L545.199 118.347C542.734 118.347 540.827 117.246 540.827 115.823C540.827 114.4 542.734 113.298 545.199 113.298L565.356 113.298C569.256 113.298 572.489 115.092 572.341 117.353C572.321 119.595 569.224 121.449 565.32 121.364H541.715C536.264 121.364 531.993 118.898 531.993 115.751C531.993 112.604 536.264 110.138 541.715 110.138L561.872 110.138C562.844 110.138 563.631 110.593 563.631 111.154C563.631 111.715 562.844 112.17 561.872 112.17L541.715 112.17C538.208 112.17 535.512 113.726 535.512 115.751C535.512 117.776 538.208 119.333 541.715 119.333L565.356 119.333C565.381 119.333 565.407 119.333 565.432 119.334C567.22 119.378 568.822 118.52 568.822 117.331C568.822 117.317 568.822 117.302 568.823 117.287Z" fill="white"/>
</g>
<rect y="0.359175" width="104.161" height="104.161" rx="31.2482" transform="matrix(0.866025 0.5 -0.866025 0.5 551.856 42.7294)" fill="white"/>
<rect y="0.359175" width="104.161" height="104.161" rx="31.2482" transform="matrix(0.866025 0.5 -0.866025 0.5 551.856 42.7294)" stroke="#999999" stroke-width="0.71835"/>
<g clip-path="url(#clip2_1173_42018)">
<path d="M568.823 95.7356C568.901 94.7033 567.414 93.7785 565.356 93.7785L545.199 93.7785C544.678 93.7785 544.346 93.9702 544.346 94.2712C544.346 94.5721 544.678 94.7638 545.199 94.7638L561.872 94.7638C562.844 94.7638 563.631 95.2186 563.631 95.7797C563.631 96.3408 562.844 96.7956 561.872 96.7956L545.199 96.7956C542.734 96.7956 540.827 95.6942 540.827 94.2712C540.827 92.8481 542.734 91.7467 545.199 91.7467L565.356 91.7467C569.256 91.7467 572.489 93.54 572.341 95.8016C572.321 98.0434 569.224 99.8972 565.32 99.8127H541.715C536.264 99.8127 531.993 97.3464 531.993 94.1993C531.993 91.0522 536.264 88.586 541.715 88.586L561.872 88.586C562.844 88.586 563.631 89.0408 563.631 89.6019C563.631 90.1629 562.844 90.6178 561.872 90.6178L541.715 90.6178C538.208 90.6178 535.512 92.1743 535.512 94.1993C535.512 96.2243 538.208 97.7809 541.715 97.7809L565.356 97.7809C565.381 97.7809 565.407 97.7812 565.432 97.7818C567.22 97.8267 568.822 96.9683 568.822 95.7797C568.822 95.765 568.822 95.7503 568.823 95.7356Z" fill="white"/>
</g>
<rect y="0.359175" width="104.161" height="104.161" rx="31.2482" transform="matrix(0.866025 0.5 -0.866025 0.5 551.856 21.7294)" fill="white"/>
<rect y="0.359175" width="104.161" height="104.161" rx="31.2482" transform="matrix(0.866025 0.5 -0.866025 0.5 551.856 21.7294)" stroke="#999999" stroke-width="0.71835"/>
<g clip-path="url(#clip3_1173_42018)">
<path d="M568.823 74.7356C568.901 73.7033 567.414 72.7785 565.356 72.7785L545.199 72.7785C544.678 72.7785 544.346 72.9702 544.346 73.2712C544.346 73.5721 544.678 73.7638 545.199 73.7638L561.872 73.7638C562.844 73.7638 563.631 74.2186 563.631 74.7797C563.631 75.3408 562.844 75.7956 561.872 75.7956L545.199 75.7956C542.734 75.7956 540.827 74.6942 540.827 73.2712C540.827 71.8481 542.734 70.7467 545.199 70.7467L565.356 70.7467C569.256 70.7467 572.489 72.54 572.341 74.8016C572.321 77.0434 569.224 78.8972 565.32 78.8127H541.715C536.264 78.8127 531.993 76.3464 531.993 73.1993C531.993 70.0522 536.264 67.586 541.715 67.586L561.872 67.586C562.844 67.586 563.631 68.0408 563.631 68.6019C563.631 69.1629 562.844 69.6178 561.872 69.6178L541.715 69.6178C538.208 69.6178 535.512 71.1743 535.512 73.1993C535.512 75.2243 538.208 76.7809 541.715 76.7809L565.356 76.7809C565.381 76.7809 565.407 76.7812 565.432 76.7818C567.22 76.8267 568.822 75.9683 568.822 74.7797C568.822 74.765 568.822 74.7503 568.823 74.7356Z" fill="white"/>
</g>
<rect width="104.879" height="104.879" rx="31.6074" transform="matrix(0.866025 0.5 -0.866025 0.5 551.545 0)" fill="#D2D2D2"/>
<path d="M542.596 40.3659L541.972 52.6352L580.61 51.9799" stroke="#222222" stroke-width="3.59175" stroke-linecap="round"/>
<path d="M216.48 243.689L334.649 311.214L452.818 243.689L334.649 176.164L216.48 243.689Z" fill="#D2D2D2"/>
<path d="M216.48 378.739V243.689L334.649 311.214V446.264L216.48 378.739Z" fill="#D2D2D2"/>
<path d="M334.649 311.214V446.264L452.818 378.739V243.689L334.649 311.214Z" fill="#D2D2D2"/>
<path d="M334.649 311.214V446.264L452.818 378.739V243.689L334.649 311.214Z" fill="#D2D2D2"/>
<path d="M334.649 311.214V446.264L452.818 378.739V243.689L334.649 311.214Z" fill="#D2D2D2"/>
<path d="M334.649 311.214V446.264L452.818 378.739V243.689L334.649 311.214Z" fill="#D2D2D2"/>
<path d="M216.48 243.689L334.649 311.214L452.818 243.689L334.649 176.164L216.48 243.689Z" fill="#E2E2E2"/>
<path d="M216.48 378.739V243.689L334.649 311.214V446.264L216.48 378.739Z" fill="#E2E2E2"/>
<g filter="url(#filter0_i_1173_42018)">
<path d="M216.48 243.689L334.649 311.214L452.818 243.689L334.649 176.164L216.48 243.689Z" fill="#F8F8F8"/>
</g>
<rect width="104.879" height="104.879" rx="31.6074" transform="matrix(0.866025 0.5 -0.866025 0.5 335.65 191.621)" fill="#D2D2D2"/>
<g clip-path="url(#clip4_1173_42018)">
<path d="M341.871 234.722C342.558 234.325 343.673 234.325 344.36 234.722L351.825 239.032C352.512 239.429 352.512 240.072 351.825 240.469L354.314 241.906C355.688 242.699 355.688 243.986 354.314 244.779L335.65 255.554C334.276 256.348 332.048 256.348 330.673 255.554L315.743 246.934C314.368 246.141 314.368 244.854 315.743 244.061L334.406 233.285C335.78 232.492 338.009 232.492 339.383 233.285L341.871 234.722ZM339.383 236.159L336.894 234.722L318.231 245.497L333.162 254.118L351.825 243.342L349.337 241.906L348.092 242.624C347.405 243.021 346.291 243.021 345.604 242.624L338.139 238.314C337.452 237.917 337.452 237.274 338.139 236.877L339.383 236.159ZM348.092 239.751L343.116 236.877L341.871 237.596L346.848 240.469L348.092 239.751ZM341.765 245.857C341.765 246.418 340.977 246.872 340.005 246.872L330.051 246.872C329.079 246.872 328.292 246.418 328.292 245.857L328.292 242.983C328.292 242.422 329.079 241.967 330.051 241.967C331.023 241.967 331.811 242.422 331.811 242.983L331.811 244.841L340.005 244.841C340.977 244.841 341.765 245.295 341.765 245.857Z" fill="#999999"/>
</g>
<rect x="-2.14085e-08" y="0.359175" width="104.161" height="104.161" rx="31.2482" transform="matrix(0.866025 0.5 -0.866025 0.5 335.961 169.16)" fill="white"/>
<rect x="-2.14085e-08" y="0.359175" width="104.161" height="104.161" rx="31.2482" transform="matrix(0.866025 0.5 -0.866025 0.5 335.961 169.16)" stroke="#999999" stroke-width="0.71835"/>
<g clip-path="url(#clip5_1173_42018)">
<path d="M341.871 212.081C342.558 211.685 343.673 211.685 344.36 212.081L351.825 216.392C352.512 216.788 352.512 217.432 351.825 217.828L354.314 219.265C355.688 220.058 355.688 221.345 354.314 222.138L335.65 232.914C334.276 233.707 332.048 233.707 330.673 232.914L315.743 224.293C314.368 223.5 314.368 222.214 315.743 221.42L334.406 210.645C335.78 209.851 338.009 209.851 339.383 210.645L341.871 212.081ZM339.383 213.518L336.894 212.081L318.231 222.857L333.162 231.477L351.825 220.702L349.337 219.265L348.092 219.983C347.405 220.38 346.291 220.38 345.604 219.983L338.139 215.673C337.452 215.277 337.452 214.633 338.139 214.237L339.383 213.518ZM348.092 217.11L343.116 214.237L341.871 214.955L346.848 217.828L348.092 217.11ZM341.765 223.216C341.765 223.777 340.977 224.232 340.005 224.232L330.051 224.232C329.079 224.232 328.292 223.777 328.292 223.216L328.292 220.343C328.292 219.781 329.079 219.327 330.051 219.327C331.023 219.327 331.811 219.781 331.811 220.343L331.811 222.2L340.005 222.2C340.977 222.2 341.765 222.655 341.765 223.216Z" fill="#999999"/>
</g>
<rect x="-2.14085e-08" y="0.359175" width="104.161" height="104.161" rx="31.2482" transform="matrix(0.866025 0.5 -0.866025 0.5 335.961 139.709)" fill="white"/>
<rect x="-2.14085e-08" y="0.359175" width="104.161" height="104.161" rx="31.2482" transform="matrix(0.866025 0.5 -0.866025 0.5 335.961 139.709)" stroke="#999999" stroke-width="0.71835"/>
<g clip-path="url(#clip6_1173_42018)">
<path d="M341.871 182.63C342.558 182.234 343.673 182.234 344.36 182.63L351.825 186.94C352.512 187.337 352.512 187.98 351.825 188.377L354.314 189.814C355.688 190.607 355.688 191.894 354.314 192.687L335.65 203.462C334.276 204.256 332.048 204.256 330.673 203.462L315.743 194.842C314.368 194.049 314.368 192.762 315.743 191.969L334.406 181.194C335.78 180.4 338.009 180.4 339.383 181.194L341.871 182.63ZM339.383 184.067L336.894 182.63L318.231 193.406L333.162 202.026L351.825 191.251L349.337 189.814L348.092 190.532C347.405 190.929 346.291 190.929 345.604 190.532L338.139 186.222C337.452 185.825 337.452 185.182 338.139 184.785L339.383 184.067ZM348.092 187.659L343.116 184.785L341.871 185.504L346.848 188.377L348.092 187.659ZM341.765 193.765C341.765 194.326 340.977 194.781 340.005 194.781L330.051 194.781C329.079 194.781 328.292 194.326 328.292 193.765L328.292 190.891C328.292 190.33 329.079 189.875 330.051 189.875C331.023 189.875 331.811 190.33 331.811 190.891L331.811 192.749L340.005 192.749C340.977 192.749 341.765 193.204 341.765 193.765Z" fill="#999999"/>
</g>
<path d="M0.257812 378.019L118.426 445.544L236.595 378.019L118.426 310.494L0.257812 378.019Z" fill="#D2D2D2"/>
<path d="M0.257812 513.069V378.019L118.426 445.544V580.594L0.257812 513.069Z" fill="#D2D2D2"/>
<path d="M118.426 445.544V580.594L236.595 513.069V378.019L118.426 445.544Z" fill="#D2D2D2"/>
<path d="M118.426 445.544V580.594L236.595 513.069V378.019L118.426 445.544Z" fill="#D2D2D2"/>
<path d="M118.426 445.544V580.594L236.595 513.069V378.019L118.426 445.544Z" fill="#D2D2D2"/>
<path d="M118.426 445.544V580.594L236.595 513.069V378.019L118.426 445.544Z" fill="#D2D2D2"/>
<path d="M0.257812 378.019L118.426 445.544L236.595 378.019L118.426 310.494L0.257812 378.019Z" fill="#E2E2E2"/>
<path d="M0.257812 513.069V378.019L118.426 445.544V580.594L0.257812 513.069Z" fill="#E2E2E2"/>
<g filter="url(#filter1_i_1173_42018)">
<path d="M0.257812 378.019L118.426 445.544L236.595 378.019L118.426 310.494L0.257812 378.019Z" fill="#F8F8F8"/>
</g>
<rect width="104.879" height="104.879" rx="31.6074" transform="matrix(0.866025 0.5 -0.866025 0.5 119.102 327.017)" fill="#D2D2D2"/>
<path d="M111.12 374.428C111.12 373.866 111.908 373.412 112.88 373.412L127.81 373.412C128.277 373.412 128.725 373.519 129.055 373.709C129.385 373.9 129.57 374.158 129.57 374.428L129.57 383.048C129.57 383.609 128.782 384.064 127.81 384.064C126.839 384.064 126.051 383.609 126.051 383.048L126.051 376.88L111.635 385.203C110.948 385.6 109.834 385.6 109.147 385.203C108.46 384.806 108.46 384.163 109.147 383.766L123.562 375.443L112.88 375.443C111.908 375.443 111.12 374.989 111.12 374.428Z" fill="#999999"/>
<rect x="-2.14085e-08" y="0.359175" width="104.161" height="104.161" rx="31.2482" transform="matrix(0.866025 0.5 -0.866025 0.5 119.413 302.772)" fill="white"/>
<rect x="-2.14085e-08" y="0.359175" width="104.161" height="104.161" rx="31.2482" transform="matrix(0.866025 0.5 -0.866025 0.5 119.413 302.772)" stroke="#999999" stroke-width="0.71835"/>
<path d="M111.12 350.004C111.12 349.443 111.908 348.988 112.88 348.988L127.81 348.988C128.277 348.988 128.725 349.095 129.055 349.285C129.385 349.476 129.57 349.734 129.57 350.004L129.57 358.624C129.57 359.185 128.782 359.64 127.81 359.64C126.839 359.64 126.051 359.185 126.051 358.624L126.051 352.456L111.635 360.779C110.948 361.176 109.834 361.176 109.147 360.779C108.46 360.382 108.46 359.739 109.147 359.342L123.562 351.02L112.88 351.02C111.908 351.02 111.12 350.565 111.12 350.004Z" fill="#999999"/>
</g>
<defs>
<filter id="filter0_i_1173_42018" x="216.48" y="176.164" width="236.338" height="137.923" filterUnits="userSpaceOnUse" color-interpolation-filters="sRGB">
<feFlood flood-opacity="0" result="BackgroundImageFix"/>
<feBlend mode="normal" in="SourceGraphic" in2="BackgroundImageFix" result="shape"/>
<feColorMatrix in="SourceAlpha" type="matrix" values="0 0 0 0 0 0 0 0 0 0 0 0 0 0 0 0 0 0 127 0" result="hardAlpha"/>
<feOffset dy="2.8734"/>
<feGaussianBlur stdDeviation="7.90185"/>
<feComposite in2="hardAlpha" operator="arithmetic" k2="-1" k3="1"/>
<feColorMatrix type="matrix" values="0 0 0 0 1 0 0 0 0 1 0 0 0 0 1 0 0 0 0.25 0"/>
<feBlend mode="normal" in2="shape" result="effect1_innerShadow_1173_42018"/>
</filter>
<filter id="filter1_i_1173_42018" x="0.257812" y="310.494" width="236.338" height="137.923" filterUnits="userSpaceOnUse" color-interpolation-filters="sRGB">
<feFlood flood-opacity="0" result="BackgroundImageFix"/>
<feBlend mode="normal" in="SourceGraphic" in2="BackgroundImageFix" result="shape"/>
<feColorMatrix in="SourceAlpha" type="matrix" values="0 0 0 0 0 0 0 0 0 0 0 0 0 0 0 0 0 0 127 0" result="hardAlpha"/>
<feOffset dy="2.8734"/>
<feGaussianBlur stdDeviation="7.90185"/>
<feComposite in2="hardAlpha" operator="arithmetic" k2="-1" k3="1"/>
<feColorMatrix type="matrix" values="0 0 0 0 1 0 0 0 0 1 0 0 0 0 1 0 0 0 0.25 0"/>
<feBlend mode="normal" in2="shape" result="effect1_innerShadow_1173_42018"/>
</filter>
<clipPath id="clip0_1173_42018">
<rect width="34.4808" height="34.4808" fill="white" transform="matrix(0.866025 0.5 -0.866025 0.5 551.545 99.3008)"/>
</clipPath>
<clipPath id="clip1_1173_42018">
<rect width="34.4808" height="34.4808" fill="white" transform="matrix(0.866025 0.5 -0.866025 0.5 551.545 99.3008)"/>
</clipPath>
<clipPath id="clip2_1173_42018">
<rect width="34.4808" height="34.4808" fill="white" transform="matrix(0.866025 0.5 -0.866025 0.5 551.545 77.749)"/>
</clipPath>
<clipPath id="clip3_1173_42018">
<rect width="34.4808" height="34.4808" fill="white" transform="matrix(0.866025 0.5 -0.866025 0.5 551.545 56.749)"/>
</clipPath>
<clipPath id="clip4_1173_42018">
<rect width="34.4808" height="34.4808" fill="white" transform="matrix(0.866025 0.5 -0.866025 0.5 335.65 226.82)"/>
</clipPath>
<clipPath id="clip5_1173_42018">
<rect width="34.4808" height="34.4808" fill="white" transform="matrix(0.866025 0.5 -0.866025 0.5 335.65 204.18)"/>
</clipPath>
<clipPath id="clip6_1173_42018">
<rect width="34.4808" height="34.4808" fill="white" transform="matrix(0.866025 0.5 -0.866025 0.5 335.65 174.729)"/>
</clipPath>
</defs>
</svg>
