<svg width="264" height="80" viewBox="0 0 264 80" fill="none" xmlns="http://www.w3.org/2000/svg">
<path fill-rule="evenodd" clip-rule="evenodd" d="M95.4643 31.5226C100.953 30.5691 108.549 26.5388 110.953 18.7617C112.353 14.2281 111.063 10.5168 106.751 10.2013C98.8471 9.61646 90.5781 20.4136 86.2805 37.9349C84.7061 44.3615 84.0075 48.4095 83.9827 52.532C83.9543 57.7178 86.0358 60.2417 89.3477 61.1349C95.0211 62.6662 102.574 58.7387 105.464 48.0408C108.559 36.5702 104.4 32.0898 99.6166 32.7774L95.9182 35.4749L95.209 38.5624C96.2941 37.8534 97.599 37.6195 98.5174 38.0413C100.429 38.9097 100.45 42.6742 98.9996 48.3563C97.4323 54.5028 94.2162 58.2283 92.1383 57.5193C90.2412 56.8742 90.0427 53.7017 92.0071 44.6769C92.8475 40.8097 94.4502 34.6916 95.4714 31.5226H95.4643ZM107.084 13.9658C108.932 14.2777 109.045 17.3226 107.265 20.8637C106.195 22.971 104.656 24.8047 102.765 26.2236C100.875 27.6426 98.6842 28.609 96.3615 29.0484C99.3861 21.1083 103.276 13.3171 107.084 13.9658Z" fill="#E8473A"/>
<path fill-rule="evenodd" clip-rule="evenodd" d="M68.363 33.2046C68.899 33.2038 69.2423 33.2033 69.316 33.2033C70.0181 33.2033 69.972 34.0717 69.3656 34.4794C67.8444 35.518 67.4083 36.6345 66.7807 39.0626C66.2736 41.0228 63.5007 52.2418 63.217 53.3938L63.2062 53.4382C62.7812 55.1756 62.5943 55.9397 63.1709 56.4564C63.8163 57.0342 65.5361 56.1835 66.6246 55.0102C66.5601 55.2329 66.2449 56.5372 65.9828 57.6221L65.9824 57.6235C65.7983 58.3856 65.6404 59.0391 65.6141 59.1327C63.9042 60.5285 61.7378 61.242 59.5328 61.1354C56.1501 60.9546 55.104 58.0834 55.8132 55.315L60.3768 37.2371H59.3626C57.7989 43.5608 56.3203 47.5415 53.753 51.7703C50.4802 57.1689 45.7925 61.5111 40.2538 61.5111C35.1264 61.5111 32.5734 57.2327 33.2825 53.5462C33.4811 52.5041 33.7045 51.4584 33.9669 50.356C34.2648 49.0976 35.4136 44.4718 36.7682 39.0378C34.5114 38.2179 32.2027 37.5488 29.8572 37.0351C23.4178 48.137 19.4819 53.0783 14.4963 57.1654C10.0994 60.7774 3.81964 61.8408 0.961641 56.8782C-0.637561 54.0886 -1.07371 46.0031 6.42942 38.9953C12.7234 33.1076 19.8577 31.835 26.5737 32.3986C27.5685 31.0177 32.0218 24.7888 34.9178 20.738L34.9559 20.6848C35.8415 19.446 36.578 18.4159 37.0199 17.7981C37.2401 17.4907 37.4651 17.1669 37.6955 16.8352C39.3648 14.4325 41.3215 11.6161 43.8422 11.6161C44.3143 11.6161 46.6621 11.6064 49.0077 11.5966C51.3488 11.5869 53.6879 11.5771 54.1573 11.5771C55.2459 11.5771 55.3593 12.6654 54.3523 13.2219C51.8134 14.6327 50.9518 17.6563 50.2426 20.6834C49.849 22.3884 47.3279 32.3703 45.4698 39.7078C47.2484 41.0626 48.8791 42.6012 50.3348 44.2981C50.285 44.4029 49.7376 46.484 49.448 47.5848L49.4474 47.5872C49.3454 47.9747 49.2756 48.2402 49.271 48.254C47.8876 46.4673 46.2894 44.8577 44.5124 43.4616C43.9983 45.4856 43.6224 46.9744 43.4912 47.4954C42.2218 52.5076 42.0728 54.6486 43.4912 55.2087C45.2783 55.9141 48.8916 53.688 51.434 49.2572C53.6821 45.3403 54.5509 42.6002 55.4196 39.0768C56.0082 36.7125 55.7104 35.4719 54.2601 34.5857C53.5757 34.1639 53.6325 33.1785 54.5757 33.2033C55.3803 33.2244 65.1712 33.2095 68.3448 33.2046L68.363 33.2046ZM11.4008 42.3379C8.06763 45.6806 7.92579 49.0197 9.1314 50.0653V50.076C10.7802 51.4939 13.5744 49.8456 16.8083 45.4679C18.8791 42.6499 20.6024 40.2962 22.7796 37.0634C17.6947 37.2726 14.8758 38.8535 11.4008 42.3379ZM42.0657 16.8445C41.2466 18.1348 32.4067 32.3774 31.9032 33.416C33.1939 33.7243 36.5129 34.7913 37.7114 35.2663C39.415 28.4403 41.3726 21.4059 42.2048 18.4157L42.2051 18.4146L42.2055 18.4133C42.4364 17.5835 42.5805 17.0657 42.6083 16.9509C42.7749 16.2065 42.4558 16.2278 42.0657 16.8445Z" fill="#E8473A"/>
<path d="M71.4191 35.3975C72.458 34.4546 75.7663 32.7425 78.5676 32.778L78.5641 32.7744C81.5745 32.8134 82.0568 35.2486 81.5143 37.6448C81.1455 39.2718 77.8123 52.3446 77.5393 53.408C77.0854 55.1733 76.933 56.024 77.5145 56.5486C78.1457 57.1335 79.8938 56.3111 80.9824 55.1307C80.9294 55.315 80.6412 56.4739 80.3808 57.5204L80.3799 57.5242L80.3795 57.5256L80.3786 57.5294C80.1691 58.3717 79.9782 59.1391 79.9434 59.2639C78.3256 60.638 76.2404 61.3362 74.121 61.2134C70.7418 61.0291 69.5114 58.5159 70.2206 55.269C70.5858 53.6384 73.4331 42.1714 73.6884 41.1824C74.1246 39.5058 74.1246 38.5912 73.5431 38.173C72.8445 37.6661 71.3446 38.3041 70.4014 39.2187C70.5283 38.8087 70.9359 37.2447 71.1961 36.2463L71.197 36.2429L71.198 36.2388L71.2 36.2311C71.3158 35.7869 71.4016 35.4575 71.4191 35.3975Z" fill="#E8473A"/>
<path fill-rule="evenodd" clip-rule="evenodd" d="M125.163 61.2062C127.369 61.3111 129.536 60.5951 131.245 59.1963C131.276 59.088 131.478 58.2508 131.694 57.3547L131.695 57.352C131.938 56.3431 132.199 55.2605 132.255 55.0597C131.17 56.2365 129.447 57.0908 128.802 56.5095C128.227 55.9879 128.413 55.2245 128.84 53.4703L128.848 53.4398L129.066 52.5498C129.79 49.5948 131.916 40.9173 132.358 39.2043C132.986 36.7691 133.34 35.493 134.943 34.5962C135.631 34.2169 135.652 33.2351 134.89 33.2351H128.926C127.55 33.2351 126.929 33.6108 126.479 35.4469C125.415 33.7703 123.759 33.0791 121.869 33.0791C116.132 33.0791 111.466 38.2898 109.21 46.7439C107.299 53.8935 107.934 59.1503 111.927 60.8056C115.086 62.1172 119.018 60.2739 121.344 56.9526C121.444 59.1325 122.61 61.0538 125.16 61.2062H125.163ZM116.745 55.6871C115.274 55.1625 114.738 52.901 116.093 47.5698C118.16 39.4524 121.192 36.879 123.341 36.9144C124.809 36.9393 125.621 38.2437 125.231 40.4591L125.113 40.9238C124.578 43.036 123.957 45.4865 123.38 47.7435L123.378 47.7503C123.36 47.8056 123.34 47.8709 123.32 47.9526C122.447 51.3023 119.855 56.8143 116.745 55.7013V55.6871Z" fill="#E8473A"/>
<path d="M75.5853 27.9853C75.0393 26.33 76.4009 24.2882 78.6242 23.4269C80.8475 22.5478 83.0956 23.1929 83.6416 24.8448C84.1877 26.4966 82.8261 28.5241 80.6028 29.4032C78.3795 30.2823 76.1314 29.6407 75.5853 27.9853Z" fill="#E8473A"/>
<path d="M217.659 33.2487H211.698C210.319 33.2487 209.698 33.6245 209.248 35.4606C208.184 33.784 206.528 33.0928 204.638 33.0928C198.901 33.0928 194.217 38.2964 191.98 46.7575C190.249 53.2975 190.646 58.5259 193.997 60.4648C194.199 60.5764 194.431 60.6211 194.66 60.5925C194.888 60.5638 195.102 60.4633 195.27 60.3053C194.354 61.233 193.046 62.3762 191.591 63.648L191.588 63.6507C191.304 63.8991 191.014 64.1525 190.721 64.4101C190.508 64.5968 190.292 64.7875 190.073 64.981C186.67 67.9833 182.518 71.6473 178.704 71.1911C176.3 70.9075 174.317 69.0075 175.566 65.4593C172.229 65.6436 170.757 69.3585 170.814 72.0382C170.906 76.3273 173.786 79.0957 178.643 79.1276C184.865 79.1657 192.187 70.5152 195.207 66.9465C195.564 66.5246 195.861 66.1737 196.089 65.9166C196.4 65.5676 196.744 65.1855 197.105 64.7838L197.107 64.7823L197.108 64.7812C198.265 63.4941 199.605 62.0048 200.642 60.752C200.964 60.3103 201.308 59.8856 201.674 59.4794C201.707 59.3599 201.927 58.4414 202.15 57.5106L202.152 57.5051C202.358 56.6431 202.567 55.7719 202.631 55.5165C202.228 55.9363 201.718 56.2385 201.156 56.3909C200.594 56.5432 200.001 56.5399 199.44 56.3814C197.972 55.839 197.504 52.9005 198.862 47.5693C200.926 39.4519 203.958 36.8572 206.11 36.9139C207.642 36.9529 208.514 38.4311 207.862 40.9584C207.846 41.0191 207.834 41.0806 207.826 41.1428C206.472 46.5165 204.582 53.9497 204.298 55.006C203.475 58.0686 204.546 61.032 207.929 61.2057C210.135 61.3093 212.301 60.5934 214.01 59.1958C214.081 58.8414 214.911 55.4385 215.021 55.0592C213.932 56.236 212.209 57.0903 211.567 56.509C210.988 55.9862 211.176 55.2207 211.609 53.4585L211.613 53.4393C211.893 52.2837 214.613 41.1676 215.12 39.2038C215.748 36.7686 216.106 35.4925 217.705 34.5957C218.393 34.2164 218.414 33.2346 217.652 33.2346L217.659 33.2487Z" fill="#E8473A"/>
<path d="M176.813 52.2736C175.114 58.4485 170.324 62.1562 164.923 61.1353L164.959 61.1637C161.445 60.4973 160.31 56.9597 161.374 52.7982C161.483 52.3638 161.797 51.1376 162.201 49.5598L162.204 49.5488L162.204 49.5477C163.254 45.4475 164.909 38.986 165.164 37.8609C165.59 35.8334 165.43 34.9543 164.526 34.4155C164.402 34.3445 164.307 34.2339 164.254 34.1015C164.201 33.9691 164.195 33.8228 164.236 33.6863C164.277 33.5499 164.363 33.4314 164.48 33.3501C164.597 33.2688 164.738 33.2295 164.881 33.2386C165.189 33.2221 168.623 33.2312 170.482 33.2361L170.484 33.2361C171.022 33.2376 171.427 33.2386 171.586 33.2386C172.55 33.2386 172.987 33.9972 172.671 35.2272C172.228 36.9641 168.111 53.2555 167.636 55.2192C167.029 57.6651 167.671 58.2641 168.345 58.4378C169.614 58.771 171.763 56.9597 173.093 52.0361C174.299 47.5733 173.674 44.2201 172.079 42.2173C177.55 35.8759 182.933 33.1465 186.989 33.1465C189.691 33.1465 190.362 35.3052 189.674 38.1728C189.325 39.5873 188.019 44.6822 187.01 48.6156C186.376 51.0893 185.859 53.1036 185.773 53.454L185.767 53.4782C185.339 55.2369 185.152 56.005 185.727 56.5237C186.372 57.105 188.096 56.2507 189.181 55.0739C189.125 55.274 188.865 56.3501 188.623 57.3561L188.621 57.3637L188.62 57.3654C188.404 58.2629 188.202 59.1021 188.17 59.2106C186.461 60.6093 184.295 61.3253 182.089 61.2204C178.71 61.0467 177.71 57.9274 178.458 55.0207C178.695 54.1062 180.745 45.9286 181.614 42.4548C182.213 40.0515 181.348 38.9739 179.312 39.5482C177.571 40.0374 175.816 41.4127 174.494 42.5718C176.774 44.1421 178.008 47.9136 176.813 52.2736Z" fill="#E8473A"/>
<path d="M146.513 37.2972C148.531 34.2134 151.325 33.0117 153.679 33.0117L153.69 33.0259C159.644 32.9869 160.821 40.1932 158.629 47.7966C156.271 55.9636 151.892 61.0821 147.283 61.1104C144.272 61.1282 141.79 58.4271 143.563 53.0853C143.708 53.0569 146.098 52.2984 146.378 52.192C145.616 53.8438 146.049 55.049 146.825 55.2298C148.612 55.6481 150.424 51.4335 151.396 47.9313C152.445 44.1491 153.406 39.0554 150.853 38.389C148.673 37.8183 145.453 41.6678 143.949 47.7753C143.92 47.9104 143.881 48.0431 143.832 48.1723C141.613 57.1475 139.01 67.7071 138.73 68.8449C137.865 72.3684 137.631 76.0088 140.467 77.4479C140.896 77.6677 140.826 78.1285 140.35 78.1285C138.56 78.1923 132.493 78.1923 126.298 78.0682C125.869 78.0576 125.642 77.5826 126.468 77.2565C130.083 75.8118 131.152 71.3208 131.982 67.8343L132.003 67.7461C132.144 67.16 133.184 63.0525 134.448 58.0584C136.563 49.7014 139.306 38.8619 139.517 37.8857C139.939 35.8581 139.783 34.979 138.875 34.4402C138.752 34.3693 138.656 34.2586 138.603 34.1262C138.55 33.9938 138.544 33.8475 138.585 33.7111C138.626 33.5747 138.712 33.4562 138.829 33.3749C138.947 33.2936 139.088 33.2543 139.23 33.2634C139.541 33.2469 142.974 33.256 144.831 33.2609C145.37 33.2623 145.776 33.2634 145.935 33.2634C146.903 33.2634 147.336 34.0219 147.024 35.252C146.963 35.4824 146.783 36.209 146.513 37.2972Z" fill="#E8473A"/>
<path d="M263.191 0C253.007 11.4812 241.451 19.7439 228.086 22.686C228.579 25.0822 228.519 28.0207 226.838 28.3575C225.002 28.712 226.799 31.9518 230.427 33.9333C224.292 31.6434 225.402 27.2551 217.988 25.6671C217.442 25.5501 216.52 25.8762 216.506 26.5639C215.647 24.4619 215.977 23.6891 218.279 23.6466C218.495 23.0192 219.786 22.9058 221.083 22.9554C221.475 23.01 221.874 22.926 222.211 22.7179C222.512 22.5265 222.374 22.0302 222.374 22.0302C222.175 22.3032 221.587 22.3173 220.995 22.2429C215.499 21.1547 206.276 14.6715 199.244 7.24179C200.202 10.0492 201.549 12.612 203.691 14.6856C203.702 14.6972 203.709 14.7121 203.711 14.7281C203.713 14.7441 203.71 14.7602 203.702 14.7742C203.694 14.7882 203.681 14.7992 203.667 14.8056C203.652 14.812 203.635 14.8134 203.62 14.8097C202.308 14.4552 202.166 14.4552 200.783 13.5088C202.173 16.0255 203.51 17.3477 205.687 18.3969C205.726 18.413 205.758 18.4419 205.778 18.4788C205.798 18.5158 205.805 18.5585 205.798 18.5998C205.79 18.6412 205.769 18.6788 205.737 18.7064C205.705 18.734 205.665 18.7498 205.623 18.7514C204.65 18.7135 203.686 18.5381 202.762 18.2303C208.18 30.4772 218.321 26.3051 224.555 30.9912C224.977 31.3067 224.984 31.4555 224.807 31.9093C224.225 33.4051 223.917 34.9364 223.253 37.2263C228.175 35.8687 232.827 35.4327 239.249 37.0561C242.025 37.7651 234.611 32.9124 233.2 32.0723C232.756 31.8065 231.675 31.0975 232.267 30.7962C239.958 26.8616 251.901 30.9841 260.223 15.9865C257.138 17.3477 255.152 16.6529 253.149 17.1953C258.553 15.7349 261.783 12.7857 263.134 9.0425C260.801 10.79 257.642 10.8751 255.61 12.1795C260.464 9.06021 262.148 4.85267 263.194 0.0283581" fill="#BC965C"/>
<path d="M220.495 22.1953L218.904 24.3254L221.319 26.1282L222.91 23.998L220.495 22.1953Z" fill="#222222"/>
</svg>
