<svg id="bg-error-page" width="1405" height="655" viewBox="0 0 1405 655" fill="none"
  xmlns="http://www.w3.org/2000/svg">
  <path class="triangle-first"
    d="M319.469 131.839C349.346 133.538 366.166 167.003 349.703 191.994L203.583 413.781C187.161 438.705 149.927 436.504 136.513 409.815L17.4661 172.954C4.0524 146.265 24.5024 115.071 54.3019 116.765L319.469 131.839Z"
    fill="#F8F8F8" />
  <path class="triangle-last"
    d="M1282.41 119.936C1296.33 108.059 1317.9 115.732 1321.19 133.727L1350.38 293.439C1353.66 311.387 1336.29 326.151 1319.08 320.032L1166.4 265.726C1149.2 259.607 1145.05 237.187 1158.92 225.341L1282.41 119.936Z"
    fill="#F8F8F8" />
  <path class="num-4-first"
    d="M552.588 447.631L582.561 517.876L555.313 529.502L572.297 569.307L496.002 601.862L479.018 562.057L364.576 610.888L334.603 540.644L340.127 345.465L428.489 307.762L421.797 503.439L449.045 491.812L432.727 453.568L509.022 421.014L525.34 459.258L552.588 447.631Z"
    fill="#F8F8F8" />
  <path class="num-4-last"
    d="M1095.71 535.632L1085.25 611.285L1055.91 607.23L1049.98 650.099L967.814 638.745L973.738 595.875L850.484 578.843L860.938 503.191L966.126 338.689L1061.29 351.84L954.846 516.167L984.192 520.223L989.884 479.034L1072.05 490.388L1066.36 531.577L1095.71 535.632Z"
    fill="#F8F8F8" />
  <path class="num-0"
    d="M682.821 370.435C609.126 336.206 595.487 260.54 634.504 176.539C673.52 92.5373 740.135 54.1466 813.829 88.3756C887.524 122.605 901.163 198.271 862.147 282.272C823.131 366.274 756.516 404.664 682.821 370.435ZM717.542 295.682C742.235 307.151 764.04 291.514 784.98 246.43C805.919 201.347 803.802 174.599 779.109 163.129C754.415 151.66 732.611 167.297 711.671 212.381C690.731 257.464 692.848 284.212 717.542 295.682Z"
    fill="#F8F8F8" />

  <style>
    .num-4-first {
    animation: sway 3s linear infinite;
    }

    .num-0 {
    animation: sway 4s linear infinite;
    }

    .num-4-last {
    animation: sway 5s linear infinite;
    }

    @keyframes sway {
    0% {
    transform: translateX(-10px) translateY(-10px) rotate(0deg);
    }
    25% {
    transform: translateX(5px) translateY(5px) rotate(-5deg);
    }
    50% {
    transform: translateX(-10px) translateY(-10px) rotate(0deg);
    }
    75% {
    transform: translateX(5px) translateY(5px) rotate(-5deg);
    }
    100% {
    transform: translateX(-10px) translateY(-10px) rotate(0deg);
    }
    }
  </style>
</svg>