<svg width="48" height="49" viewBox="0 0 48 49" fill="none" xmlns="http://www.w3.org/2000/svg">
<path fill-rule="evenodd" clip-rule="evenodd" d="M6 15.9714C5.44772 15.9714 5 15.5237 5 14.9714V6C5 5.44772 5.44771 5 6 5H14.9714C15.5237 5 15.9714 5.44771 15.9714 6V14.9714C15.9714 15.5237 15.5237 15.9714 14.9714 15.9714H6ZM12.2286 13.2286C12.7809 13.2286 13.2286 12.7809 13.2286 12.2286V8.74286C13.2286 8.19057 12.7809 7.74286 12.2286 7.74286H8.74286C8.19057 7.74286 7.74286 8.19057 7.74286 8.74286V12.2286C7.74286 12.7809 8.19057 13.2286 8.74286 13.2286H12.2286Z" fill="#D2D2D2"/>
<path fill-rule="evenodd" clip-rule="evenodd" d="M19.7143 20.0857C19.162 20.0857 18.7143 19.638 18.7143 19.0857V10.1143C18.7143 9.562 19.162 9.11429 19.7143 9.11429H28.6857C29.238 9.11429 29.6857 9.562 29.6857 10.1143V19.0857C29.6857 19.638 29.238 20.0857 28.6857 20.0857H19.7143ZM25.9429 17.3429C26.4951 17.3429 26.9429 16.8951 26.9429 16.3429V12.8571C26.9429 12.3049 26.4951 11.8571 25.9429 11.8571H22.4571C21.9049 11.8571 21.4571 12.3049 21.4571 12.8571V16.3429C21.4571 16.8951 21.9049 17.3429 22.4571 17.3429H25.9429Z" fill="#D2D2D2"/>
<path fill-rule="evenodd" clip-rule="evenodd" d="M6 32.4286C5.44772 32.4286 5 31.9809 5 31.4286V22.4571C5 21.9049 5.44771 21.4571 6 21.4571H14.9714C15.5237 21.4571 15.9714 21.9049 15.9714 22.4571V32.4286H6ZM12.2286 29.6857C12.7809 29.6857 13.2286 29.238 13.2286 28.6857V25.2C13.2286 24.6477 12.7809 24.2 12.2286 24.2H8.74286C8.19057 24.2 7.74286 24.6477 7.74286 25.2V28.6857C7.74286 29.238 8.19057 29.6857 8.74286 29.6857H12.2286Z" fill="#D2D2D2"/>
<path fill-rule="evenodd" clip-rule="evenodd" d="M15.9714 32.4286V42.4C15.9714 42.9523 16.4191 43.4 16.9714 43.4H42.4C42.9523 43.4 43.4 42.9523 43.4 42.4V16.9714C43.4 16.4191 42.9523 15.9714 42.4 15.9714H33.4286C32.8763 15.9714 32.4286 16.4191 32.4286 16.9714V23.2C32.4286 23.7523 31.9809 24.2 31.4286 24.2H25.2C24.6477 24.2 24.2 24.6477 24.2 25.2V31.4286C24.2 31.9809 23.7523 32.4286 23.2 32.4286H15.9714ZM19.7143 35.1714C19.162 35.1714 18.7143 35.6191 18.7143 36.1714V39.6571C18.7143 40.2094 19.162 40.6571 19.7143 40.6571H23.2C23.7523 40.6571 24.2 40.2094 24.2 39.6571V36.1714C24.2 35.6191 23.7523 35.1714 23.2 35.1714H19.7143ZM27.9429 35.1714C27.3906 35.1714 26.9429 35.6191 26.9429 36.1714V39.6571C26.9429 40.2094 27.3906 40.6571 27.9429 40.6571H31.4286C31.9809 40.6571 32.4286 40.2094 32.4286 39.6571V36.1714C32.4286 35.6191 31.9809 35.1714 31.4286 35.1714H27.9429ZM32.4286 27.9429C32.4286 27.3906 31.9809 26.9429 31.4286 26.9429H27.9429C27.3906 26.9429 26.9429 27.3906 26.9429 27.9429V31.4286C26.9429 31.9809 27.3906 32.4286 27.9429 32.4286H31.4286C31.9809 32.4286 32.4286 31.9809 32.4286 31.4286V27.9429ZM35.1714 39.6571C35.1714 40.2094 35.6191 40.6571 36.1714 40.6571H39.6571C40.2094 40.6571 40.6571 40.2094 40.6571 39.6571V36.1714C40.6571 35.6191 40.2094 35.1714 39.6571 35.1714H36.1714C35.6191 35.1714 35.1714 35.6191 35.1714 36.1714V39.6571ZM35.1714 31.4286C35.1714 31.9809 35.6191 32.4286 36.1714 32.4286H39.6571C40.2094 32.4286 40.6571 31.9809 40.6571 31.4286V27.9429C40.6571 27.3906 40.2094 26.9429 39.6571 26.9429H36.1714C35.6191 26.9429 35.1714 27.3906 35.1714 27.9429V31.4286ZM36.1714 18.7143C35.6191 18.7143 35.1714 19.162 35.1714 19.7143V23.2C35.1714 23.7523 35.6191 24.2 36.1714 24.2H39.6571C40.2094 24.2 40.6571 23.7523 40.6571 23.2V19.7143C40.6571 19.162 40.2094 18.7143 39.6571 18.7143H36.1714Z" fill="#D2D2D2"/>
</svg>
