<svg width="41" height="41" viewBox="0 0 41 41" fill="none" xmlns="http://www.w3.org/2000/svg">
<path fill-rule="evenodd" clip-rule="evenodd" d="M29.6972 0.0209289C32.6102 -0.161133 35.4828 0.850321 37.6473 2.83277C39.6298 4.99728 40.6412 7.86981 40.4794 10.803V29.697C40.6615 32.6302 39.6298 35.5027 37.6675 37.6672C35.503 39.6497 32.6102 40.6611 29.6972 40.4791H10.8031C7.86987 40.6611 4.99732 39.6497 2.83279 37.6672C0.850328 35.5027 -0.161134 32.6302 0.0209291 29.697V10.803C-0.161134 7.86981 0.850328 4.99728 2.83279 2.83277C4.99732 0.850321 7.86987 -0.161133 10.8031 0.0209289H29.6972ZM18.2116 29.9404L31.6578 16.4544C32.8765 15.2157 32.8765 13.2177 31.6578 11.999L29.0604 9.4017C27.8217 8.16298 25.8238 8.16298 24.585 9.4017L23.2464 10.7603C23.0466 10.9601 23.0466 11.2997 23.2464 11.4995C23.2464 11.4995 26.4231 14.6563 26.4831 14.7362C26.7029 14.9759 26.8427 15.2956 26.8427 15.6552C26.8427 16.3745 26.2633 16.9739 25.5241 16.9739C25.1844 16.9739 24.8647 16.834 24.645 16.6142L21.3084 13.2977C21.1486 13.1378 20.8688 13.1378 20.709 13.2977L11.1788 22.8278C10.5195 23.4871 10.1399 24.3662 10.1199 25.3052L10 30.0403C10 30.3001 10.0799 30.5398 10.2597 30.7196C10.4395 30.8995 10.6793 30.9993 10.939 30.9993H15.6342C16.5932 30.9993 17.5123 30.6197 18.2116 29.9404Z" fill="#D2D2D2"/>
</svg>
