<svg width="39" height="39" viewBox="0 0 39 39" fill="none" xmlns="http://www.w3.org/2000/svg">
<path d="M16.8 5.9999C15.0024 5.9999 13.3392 6.5639 11.9712 7.5239C11.8824 6.1487 11.568 4.9559 10.9896 3.8999C12.8165 2.88888 14.8756 2.37206 16.9635 2.40051C19.0513 2.42895 21.0956 3.00168 22.8943 4.06209C24.693 5.12251 26.1839 6.63391 27.2196 8.44694C28.2554 10.26 28.8001 12.3119 28.8 14.3999H34.2024C35.3159 14.3999 36.3838 14.8421 37.1714 15.6292C37.959 16.4163 38.4018 17.484 38.4024 18.5975V31.7975C38.4027 32.3495 38.2942 32.8961 38.0832 33.4061C37.8721 33.9161 37.5625 34.3795 37.1722 34.7697C36.782 35.16 36.3186 35.4696 35.8086 35.6807C35.2986 35.8917 34.752 36.0002 34.2 35.9999H21C19.8861 35.9999 18.8178 35.5574 18.0301 34.7697C17.2425 33.9821 16.8 32.9138 16.8 31.7999V26.3999C15.1306 26.4008 13.4795 26.0534 11.952 25.3799C11.984 24.5655 12 23.7055 12 22.7999V22.6511C12 22.2503 12 21.7895 11.9928 21.2903C13.403 22.2736 15.0809 22.8005 16.8 22.7999V18.5999C16.8 16.2815 18.6816 14.3999 21 14.3999H25.2C25.2 12.1721 24.315 10.0355 22.7397 8.46021C21.1644 6.8849 19.0278 5.9999 16.8 5.9999ZM28.2504 17.9999C27.6691 19.843 26.6521 21.5188 25.2855 22.8854C23.9189 24.252 22.2431 25.269 20.4 25.8503V31.7999C20.4 32.1311 20.6688 32.3999 21 32.3999H34.2C34.3591 32.3999 34.5117 32.3367 34.6243 32.2242C34.7368 32.1116 34.8 31.959 34.8 31.7999V18.5999C34.8 18.4408 34.7368 18.2882 34.6243 18.1756C34.5117 18.0631 34.3591 17.9999 34.2 17.9999H28.2504ZM24.3912 17.9999H21C20.8409 17.9999 20.6883 18.0631 20.5757 18.1756C20.4632 18.2882 20.4 18.4408 20.4 18.5999V21.9911C22.1509 21.1609 23.561 19.7508 24.3912 17.9999ZM6.1944 0.299904C6.39361 0.474148 6.52962 0.709362 6.58128 0.968933C6.63293 1.2285 6.59732 1.49787 6.48 1.7351C6.45868 1.8051 6.44816 1.87794 6.4488 1.9511C6.4488 2.1023 6.4872 2.3903 6.8496 2.7503C7.0248 2.9255 7.1592 3.0503 7.3056 3.1871C7.4256 3.2975 7.5528 3.4127 7.7136 3.5711C8.0256 3.8687 8.3544 4.2191 8.6496 4.6583C9.2616 5.5775 9.6 6.7271 9.6 8.3999C9.6 10.4471 8.8416 12.1919 7.6584 13.2623L7.812 13.4399C8.484 14.2655 8.8752 15.3359 9.12 16.3919C9.6 18.4799 9.6 20.9903 9.6 22.7399V22.7999C9.6 29.4887 8.6904 33.2831 7.6896 35.4527C7.1856 36.5447 6.6504 37.2407 6.1872 37.6775C5.99863 37.8579 5.79101 38.0172 5.568 38.1527C5.46574 38.2142 5.35905 38.2679 5.2488 38.3135C5.2488 38.3135 4.9776 38.3999 4.8 38.3999C4.6224 38.3999 4.3512 38.3135 4.3512 38.3135C4.24095 38.2679 4.13426 38.2142 4.032 38.1527C3.80899 38.0172 3.60137 37.8579 3.4128 37.6775C2.9496 37.2383 2.4144 36.5447 1.9104 35.4527C0.9096 33.2831 0 29.4887 0 22.7999V22.7399C0 20.9879 1.07288e-07 18.4799 0.48 16.3919C0.7248 15.3359 1.116 14.2655 1.788 13.4399C1.836 13.3791 1.8872 13.3199 1.9416 13.2623C0.7584 12.1919 0 10.4471 0 8.3999C0 7.6175 0.2088 6.6839 0.4968 5.8223C0.7848 4.9607 1.188 4.0655 1.6536 3.3455C2.208 2.4095 2.988 1.6247 3.5928 1.0967C3.9256 0.806554 4.27156 0.531864 4.6296 0.273504L4.7352 0.201504C4.95527 0.054808 5.21764 -0.0150746 5.48152 0.00272013C5.74541 0.0205149 5.99602 0.12499 6.1944 0.299904Z" fill="#D2D2D2"/>
</svg>
