<svg width="28" height="28" viewBox="0 0 28 28" fill="none" xmlns="http://www.w3.org/2000/svg">
<path d="M14.1387 6.7455C16.4475 6.7455 16.721 6.75432 17.6329 6.79592C18.4759 6.83436 18.9338 6.97523 19.2384 7.09363C19.642 7.2505 19.9301 7.43787 20.2326 7.74044C20.5352 8.04303 20.7226 8.33108 20.8795 8.73469C20.9979 9.03941 21.1388 9.49726 21.1772 10.3403C21.2188 11.252 21.2276 11.5255 21.2276 13.8343C21.2276 16.1432 21.2188 16.4167 21.1772 17.3284C21.1388 18.1715 20.9979 18.6294 20.8795 18.9341C20.7226 19.3377 20.5352 19.6257 20.2327 19.9283C19.9301 20.2308 19.642 20.4182 19.2384 20.5751C18.9338 20.6935 18.4759 20.8344 17.6329 20.8729C16.7212 20.9145 16.4477 20.9233 14.1387 20.9233C11.8297 20.9233 11.5563 20.9145 10.6446 20.8729C9.80158 20.8344 9.34373 20.6935 9.03901 20.5751C8.63541 20.4182 8.34737 20.2308 8.0448 19.9283C7.74224 19.6257 7.55483 19.3377 7.39797 18.9341C7.27955 18.6294 7.13868 18.1715 7.10024 17.3284C7.05864 16.4167 7.04982 16.1432 7.04982 13.8343C7.04982 11.5255 7.05864 11.252 7.10024 10.3403C7.13868 9.49726 7.27955 9.03941 7.39797 8.73469C7.55483 8.33108 7.74221 8.04303 8.0448 7.74047C8.34737 7.43787 8.63541 7.2505 9.03901 7.09363C9.34373 6.97523 9.80158 6.83436 10.6446 6.79592C11.5565 6.75432 11.8299 6.7455 14.1387 6.7455ZM14.1387 5.1875C11.7904 5.1875 11.4959 5.19745 10.5737 5.23954C9.65329 5.28152 9.02466 5.4277 8.47468 5.64143C7.90606 5.86241 7.42385 6.15807 6.94311 6.63878C6.4624 7.11952 6.16673 7.60173 5.94579 8.17034C5.73202 8.72034 5.58584 9.34888 5.54386 10.2692C5.50177 11.1915 5.49182 11.486 5.49182 13.8343C5.49182 16.1827 5.50177 16.4772 5.54386 17.3994C5.58584 18.3198 5.73202 18.9484 5.94579 19.4984C6.16673 20.067 6.4624 20.5492 6.94311 21.03C7.42385 21.5107 7.90606 21.8064 8.47468 22.0273C9.02466 22.2411 9.65329 22.3873 10.5737 22.4292C11.4959 22.4713 11.7904 22.4813 14.1387 22.4813C16.4871 22.4813 16.7816 22.4713 17.7038 22.4292C18.6242 22.3873 19.2527 22.2411 19.8028 22.0273C20.3714 21.8064 20.8536 21.5107 21.3344 21.03C21.8151 20.5492 22.1107 20.067 22.3317 19.4984C22.5455 18.9484 22.6916 18.3198 22.7336 17.3994C22.7756 16.4772 22.7857 16.1827 22.7857 13.8343C22.7857 11.486 22.7756 11.1915 22.7336 10.2692C22.6916 9.34888 22.5455 8.72034 22.3317 8.17034C22.1107 7.60173 21.8151 7.11952 21.3344 6.63878C20.8536 6.15807 20.3714 5.86241 19.8028 5.64143C19.2527 5.4277 18.6242 5.28152 17.7038 5.23954C16.7816 5.19745 16.4871 5.1875 14.1387 5.1875Z" fill="#222222"/>
<path d="M14.1405 9.39795C11.6881 9.39795 9.70013 11.3859 9.70013 13.8383C9.70013 16.2906 11.6881 18.2786 14.1405 18.2786C16.5928 18.2786 18.5808 16.2906 18.5808 13.8383C18.5808 11.3859 16.5928 9.39795 14.1405 9.39795ZM14.1405 16.7205C12.5486 16.7205 11.2581 15.4302 11.2581 13.8383C11.2581 12.2464 12.5486 10.9559 14.1405 10.9559C15.7323 10.9559 17.0228 12.2464 17.0228 13.8383C17.0228 15.4302 15.7323 16.7205 14.1405 16.7205Z" fill="#222222"/>
<path d="M19.7938 9.21927C19.7938 9.7923 19.3292 10.2569 18.7562 10.2569C18.1832 10.2569 17.7186 9.7923 17.7186 9.21927C17.7186 8.64624 18.1832 8.18164 18.7562 8.18164C19.3292 8.18164 19.7938 8.64624 19.7938 9.21927Z" fill="#222222"/>
</svg>
