<svg width="18" height="18" viewBox="0 0 18 18" fill="none" xmlns="http://www.w3.org/2000/svg">
<path fill-rule="evenodd" clip-rule="evenodd" d="M0.51825 1.63231C0.51825 1.24913 0.670469 0.881636 0.941426 0.610678C1.21237 0.339721 1.57987 0.187502 1.96306 0.187502H16.3656C16.5555 0.187191 16.7435 0.224338 16.9191 0.296824C17.0946 0.369302 17.254 0.475684 17.3884 0.609892C17.5228 0.744099 17.6293 0.903478 17.702 1.07892C17.7747 1.25437 17.812 1.44242 17.8119 1.63231V16.0348C17.8121 16.2247 17.7749 16.4129 17.7023 16.5884C17.6297 16.7639 17.5233 16.9234 17.389 17.0577C17.2547 17.192 17.0954 17.2986 16.9198 17.3713C16.7444 17.4439 16.5562 17.4813 16.3663 17.4812H1.96306C1.77326 17.4812 1.58531 17.4438 1.40997 17.3711C1.23463 17.2985 1.07532 17.1919 0.941149 17.0577C0.806976 16.9235 0.700569 16.7641 0.628004 16.5887C0.55544 16.4134 0.518146 16.2254 0.51825 16.0356V1.63231ZM7.36343 6.78115H9.70508V7.95712C10.0432 7.28102 10.9079 6.67263 12.2072 6.67263C14.6983 6.67263 15.2886 8.0192 15.2886 10.4898V15.0664H12.7677V11.0527C12.7677 9.64559 12.4297 8.85164 11.5712 8.85164C10.3804 8.85164 9.88511 9.70767 9.88511 11.0527V15.0664H7.36343V6.78115ZM3.03998 14.9586H5.56169V6.67263H3.03998V14.9586ZM5.92252 3.97006C5.92728 4.18597 5.88889 4.40068 5.80951 4.60154C5.73022 4.80241 5.6115 4.98546 5.46052 5.13981C5.30946 5.29415 5.12918 5.41685 4.93004 5.50064C4.73099 5.58434 4.51724 5.62749 4.30124 5.62749C4.08524 5.62749 3.87149 5.58434 3.67242 5.50064C3.47335 5.41685 3.29301 5.29415 3.14199 5.13981C2.99097 4.98546 2.87231 4.80241 2.79296 4.60154C2.71362 4.40068 2.6752 4.18597 2.67996 3.97006C2.68929 3.54629 2.86421 3.14298 3.16723 2.84655C3.47027 2.55012 3.87733 2.38413 4.30124 2.38413C4.7252 2.38413 5.1322 2.55012 5.43527 2.84655C5.73826 3.14298 5.91319 3.54629 5.92252 3.97006Z" fill="#222222"/>
</svg>
