<svg width="88" height="72" viewBox="0 0 88 72" fill="none" xmlns="http://www.w3.org/2000/svg">
<path d="M0 3.00098C0 1.34412 1.34315 0.000976562 3 0.000976562H85C86.6569 0.000976562 88 1.34412 88 3.00098V59.001C88 60.6578 86.6569 62.001 85 62.001H10L0 72.001V3.00098Z" fill="white"/>
<path d="M49.9827 28.2703C52.8596 29.9255 52.8596 34.0764 49.9827 35.7317L24.4503 50.4212C21.581 52.072 18 50.0009 18 46.6906V17.3114C18 14.0011 21.581 11.9299 24.4503 13.5807L49.9827 28.2703Z" fill="url(#paint0_linear_232_8770)"/>
<path d="M22.6777 37.8285V23.0586H25.5485V37.8285H22.6777ZM34.7494 37.2668C34.375 37.4333 33.9105 37.5997 33.3556 37.7661C32.8148 37.9325 32.2531 38.0157 31.6706 38.0157C31.1575 38.0157 30.6861 37.9255 30.256 37.7453C29.8262 37.5651 29.4795 37.2807 29.2159 36.8924C28.9663 36.4901 28.8414 35.9701 28.8414 35.3322V29.0706H27.406V26.9279H28.8414V23.3914H31.629V26.9279H33.9173V29.0706H31.629V34.3961C31.629 34.7705 31.7262 35.041 31.9202 35.2074C32.1283 35.3738 32.3779 35.457 32.6691 35.457C32.9604 35.457 33.2448 35.4084 33.522 35.3114C33.7995 35.2144 34.0213 35.1312 34.1877 35.0618L34.7494 37.2668ZM35.4524 34.6041C35.4524 33.8968 35.6466 33.2797 36.0349 32.7527C36.4371 32.2118 36.9918 31.7957 37.6991 31.5045C38.4064 31.2133 39.2177 31.0676 40.133 31.0676C40.5907 31.0676 41.0553 31.1092 41.5268 31.1925C41.9982 31.2619 42.4075 31.3659 42.7541 31.5045V30.922C42.7541 30.2285 42.5461 29.6947 42.1301 29.3202C41.7278 28.9458 41.1245 28.7585 40.3202 28.7585C39.7239 28.7585 39.1553 28.8625 38.6144 29.0706C38.0735 29.2786 37.5049 29.5837 36.9086 29.9859L36.0141 28.1553C36.7352 27.6838 37.4703 27.3301 38.2191 27.0943C38.9819 26.8585 39.7794 26.7407 40.6115 26.7407C42.1647 26.7407 43.3712 27.1289 44.2311 27.9056C45.1048 28.6823 45.5417 29.7917 45.5417 31.2341V34.7081C45.5417 35.0132 45.5903 35.2282 45.6873 35.353C45.7843 35.464 45.9578 35.5332 46.2074 35.561V37.8285C45.9578 37.8839 45.7289 37.9187 45.5209 37.9325C45.3267 37.9603 45.1603 37.9741 45.0216 37.9741C44.467 37.9741 44.0439 37.8493 43.7527 37.5997C43.4614 37.3501 43.288 37.045 43.2326 36.6844L43.1702 36.1227C42.6847 36.7468 42.0885 37.2252 41.3812 37.5581C40.6877 37.8771 39.9736 38.0365 39.2385 38.0365C38.5034 38.0365 37.8517 37.8909 37.283 37.5997C36.7144 37.2946 36.2637 36.8854 35.9309 36.3723C35.6118 35.8453 35.4524 35.256 35.4524 34.6041ZM42.2341 35.1658C42.5807 34.8329 42.7541 34.5139 42.7541 34.2088V33.1063C42.033 32.8151 41.3049 32.6694 40.5699 32.6694C39.8348 32.6694 39.2385 32.8289 38.7808 33.1479C38.3232 33.453 38.0943 33.8622 38.0943 34.3753C38.0943 34.7913 38.2608 35.1658 38.5936 35.4986C38.9264 35.8315 39.4049 35.9979 40.029 35.9979C40.445 35.9979 40.8473 35.9217 41.2355 35.769C41.6378 35.6164 41.9706 35.4154 42.2341 35.1658Z" fill="white"/>
<path d="M50.5491 47.9797C50.0828 47.9797 49.6452 47.9044 49.2363 47.7537C48.8275 47.5959 48.476 47.3628 48.1819 47.0543L48.5477 46.3872C48.8705 46.6885 49.1933 46.9037 49.5161 47.0328C49.8389 47.1619 50.1689 47.2265 50.506 47.2265C50.8934 47.2265 51.209 47.1547 51.4529 47.0113C51.6968 46.8606 51.8187 46.6419 51.8187 46.3549C51.8187 46.1469 51.7542 45.9927 51.6251 45.8922C51.5031 45.7918 51.3274 45.7093 51.0978 45.6448C50.8683 45.573 50.5957 45.4941 50.2801 45.408C49.699 45.243 49.2543 45.0494 48.9458 44.827C48.6445 44.5974 48.4939 44.2639 48.4939 43.8263C48.4939 43.2955 48.6947 42.8866 49.0965 42.5997C49.5053 42.3056 50.0254 42.1585 50.6567 42.1585C51.5031 42.1585 52.1702 42.4132 52.658 42.9225L52.2276 43.5788C51.79 43.1269 51.2485 42.901 50.6029 42.901C50.4092 42.901 50.2191 42.9261 50.0326 42.9763C49.8461 43.0193 49.6918 43.1018 49.5699 43.2238C49.4479 43.3385 49.387 43.5035 49.387 43.7187C49.387 43.9841 49.4946 44.1742 49.7098 44.289C49.925 44.4038 50.2406 44.5221 50.6567 44.6441C51.0799 44.766 51.4457 44.888 51.7542 45.0099C52.0698 45.1319 52.3137 45.2897 52.4859 45.4834C52.658 45.677 52.7441 45.946 52.7441 46.2904C52.7441 46.8212 52.5433 47.2372 52.1415 47.5385C51.7398 47.8326 51.209 47.9797 50.5491 47.9797ZM57.4062 47.9797C56.8467 47.9797 56.3518 47.847 55.9214 47.5816C55.4981 47.309 55.1682 46.9539 54.9314 46.5163C54.6947 46.0716 54.5764 45.591 54.5764 45.0745C54.5764 44.5508 54.6947 44.0702 54.9314 43.6326C55.1753 43.1879 55.5089 42.8328 55.9321 42.5674C56.3625 42.2948 56.8539 42.1585 57.4062 42.1585C57.9658 42.1585 58.4571 42.2948 58.8804 42.5674C59.3108 42.8328 59.6443 43.1879 59.881 43.6326C60.1249 44.0702 60.2469 44.5508 60.2469 45.0745C60.2469 45.591 60.1249 46.0716 59.881 46.5163C59.6443 46.9539 59.3144 47.309 58.8911 47.5816C58.4679 47.847 57.9729 47.9797 57.4062 47.9797ZM55.5448 45.0852C55.5448 45.4726 55.6273 45.8241 55.7922 46.1397C55.9644 46.4553 56.1904 46.7064 56.4701 46.8929C56.7499 47.0723 57.0619 47.1619 57.4062 47.1619C57.7506 47.1619 58.0626 47.0687 58.3424 46.8822C58.6293 46.6957 58.8553 46.4446 59.0202 46.129C59.1924 45.8062 59.2785 45.4511 59.2785 45.0637C59.2785 44.6764 59.1924 44.3249 59.0202 44.0092C58.8553 43.6936 58.6293 43.4425 58.3424 43.256C58.0626 43.0695 57.7506 42.9763 57.4062 42.9763C57.0619 42.9763 56.7499 43.0731 56.4701 43.2668C56.1904 43.4533 55.9644 43.7044 55.7922 44.02C55.6273 44.3356 55.5448 44.6907 55.5448 45.0852ZM62.677 47.8721V42.9978H61.9131V42.2553H62.677V42.137C62.677 41.4484 62.8313 40.9068 63.1397 40.5122C63.4553 40.1105 63.875 39.9097 64.3986 39.9097C64.8577 39.9097 65.2702 40.0244 65.636 40.254L65.3993 40.9534C65.1698 40.7956 64.9008 40.7167 64.5923 40.7167C64.2839 40.7167 64.0436 40.8386 63.8714 41.0825C63.7064 41.3192 63.6239 41.66 63.6239 42.1047V42.2553H65.1196V42.9978H63.6239V47.8721H62.677ZM70.0451 47.5923C69.9304 47.6425 69.7474 47.7143 69.4964 47.8075C69.2525 47.9008 68.9799 47.9474 68.6786 47.9474C68.3343 47.9474 68.0366 47.8541 67.7855 47.6676C67.5345 47.474 67.4089 47.1763 67.4089 46.7746V42.9978H66.645V42.2553H67.4089V40.3831H68.3558V42.2553H69.6147V42.9978H68.3558V46.484C68.3702 46.6849 68.4383 46.8355 68.5603 46.936C68.6822 47.0292 68.8257 47.0758 68.9907 47.0758C69.1772 47.0758 69.3493 47.0436 69.5071 46.979C69.665 46.9144 69.769 46.8678 69.8192 46.8391L70.0451 47.5923Z" fill="#FF6713"/>
<path d="M53.3072 38.0371C52.1285 38.0371 51.1091 37.7736 50.2492 37.2466C49.3893 36.7195 48.7237 36.0262 48.2522 35.1663C47.7807 34.3064 47.5449 33.3773 47.5449 32.3787C47.5449 31.3664 47.7737 30.4303 48.2314 29.5704C48.7028 28.7105 49.3685 28.024 50.2284 27.5109C51.0883 26.9978 52.1077 26.7412 53.2864 26.7412C54.4792 26.7412 55.4915 26.9978 56.3236 27.5109C57.1696 28.024 57.8006 28.6967 58.2167 29.5288L55.4915 30.3609C55.0061 29.5288 54.2642 29.1127 53.2656 29.1127C52.7248 29.1127 52.2393 29.2513 51.8094 29.5288C51.3796 29.7922 51.0397 30.1736 50.7901 30.6729C50.5405 31.1584 50.4157 31.7269 50.4157 32.3787C50.4157 33.0166 50.5405 33.5853 50.7901 34.0846C51.0536 34.57 51.4004 34.9583 51.8303 35.2495C52.2601 35.5269 52.7386 35.6656 53.2656 35.6656C53.7649 35.6656 54.2226 35.5477 54.6386 35.3119C55.0685 35.0623 55.3667 34.7502 55.5331 34.3758L58.2583 35.2079C57.8838 36.0262 57.2598 36.7057 56.386 37.2466C55.5261 37.7736 54.5 38.0371 53.3072 38.0371ZM70.1045 37.829H67.317V31.713C67.317 30.8671 67.1505 30.2361 66.8177 29.82C66.4987 29.4039 66.0548 29.1959 65.4863 29.1959C65.1395 29.1959 64.779 29.2929 64.4046 29.4872C64.0439 29.6814 63.7111 29.9518 63.4061 30.2985C63.1148 30.6313 62.8998 31.0196 62.7612 31.4634V37.829H59.9736V22.6431H62.7612V28.9463C63.1632 28.2528 63.7111 27.7119 64.4046 27.3237C65.0979 26.9354 65.8538 26.7412 66.6721 26.7412C67.6012 26.7412 68.3155 26.9492 68.8148 27.3653C69.314 27.7813 69.6537 28.3152 69.8341 28.9671C70.0143 29.619 70.1045 30.3055 70.1045 31.0266V37.829Z" fill="#FF6713"/>
<mask id="mask0_232_8770" style="mask-type:alpha" maskUnits="userSpaceOnUse" x="18" y="13" width="35" height="39">
<path d="M49.9827 28.2703C52.8596 29.9255 52.8596 34.0764 49.9827 35.7316L24.4503 50.4212C21.581 52.072 18 50.0008 18 46.6905V17.3114C18 14.0011 21.581 11.9299 24.4503 13.5807L49.9827 28.2703Z" fill="url(#paint1_linear_232_8770)"/>
</mask>
<g mask="url(#mask0_232_8770)">
<path d="M53.3101 38.0371C52.1312 38.0371 51.1118 37.7736 50.2521 37.2466C49.3922 36.7195 48.7265 36.0262 48.255 35.1663C47.7834 34.3064 47.5478 33.3773 47.5478 32.3787C47.5478 31.3664 47.7766 30.4303 48.2342 29.5704C48.7057 28.7105 49.3714 28.024 50.2313 27.5109C51.091 26.9978 52.1104 26.7412 53.2893 26.7412C54.4819 26.7412 55.4944 26.9978 56.3265 27.5109C57.1724 28.024 57.8035 28.6967 58.2195 29.5288L55.4944 30.3609C55.0089 29.5288 54.267 29.1127 53.2685 29.1127C52.7276 29.1127 52.2422 29.2513 51.8123 29.5288C51.3823 29.7922 51.0426 30.1736 50.793 30.6729C50.5433 31.1584 50.4185 31.7269 50.4185 32.3787C50.4185 33.0166 50.5433 33.5853 50.793 34.0846C51.0564 34.57 51.4031 34.9583 51.8331 35.2495C52.263 35.5269 52.7414 35.6656 53.2685 35.6656C53.7678 35.6656 54.2254 35.5477 54.6415 35.3119C55.0713 35.0623 55.3696 34.7502 55.536 34.3758L58.2612 35.2079C57.8867 36.0262 57.2626 36.7057 56.3889 37.2466C55.529 37.7736 54.5027 38.0371 53.3101 38.0371ZM70.1072 37.829H67.3197V31.713C67.3197 30.8671 67.1532 30.2361 66.8204 29.82C66.5015 29.4039 66.0577 29.1959 65.489 29.1959C65.1424 29.1959 64.7817 29.2929 64.4073 29.4872C64.0468 29.6814 63.714 29.9518 63.4087 30.2985C63.1175 30.6313 62.9027 31.0196 62.7639 31.4634V37.829H59.9763V22.6431H62.7639V28.9463C63.1661 28.2528 63.714 27.7119 64.4073 27.3237C65.1008 26.9354 65.8567 26.7412 66.6748 26.7412C67.6041 26.7412 68.3182 26.9492 68.8175 27.3653C69.3167 27.7813 69.6566 28.3152 69.8368 28.9671C70.0172 29.619 70.1072 30.3055 70.1072 31.0266V37.829Z" fill="white"/>
</g>
<defs>
<linearGradient id="paint0_linear_232_8770" x1="30.8224" y1="6.44592" x2="30.8224" y2="57.556" gradientUnits="userSpaceOnUse">
<stop stop-color="#FF6713"/>
<stop offset="1" stop-color="#DC281E"/>
</linearGradient>
<linearGradient id="paint1_linear_232_8770" x1="30.8224" y1="6.44592" x2="30.8224" y2="57.556" gradientUnits="userSpaceOnUse">
<stop stop-color="#F00000"/>
<stop offset="1" stop-color="#DC281E"/>
</linearGradient>
</defs>
</svg>
