<svg width="22" height="71" viewBox="0 0 22 71" fill="none" xmlns="http://www.w3.org/2000/svg">
<path d="M9.61141 12.2962C9.61141 12.6148 9.73799 12.9204 9.9633 13.1457C10.1886 13.371 10.4942 13.4976 10.8128 13.4976C11.1315 13.4976 11.4371 13.371 11.6624 13.1457C11.8877 12.9204 12.0143 12.6148 12.0143 12.2962V7.49049C12.0143 7.17185 11.8877 6.86627 11.6624 6.64095C11.4371 6.41564 11.1315 6.28907 10.8128 6.28907C10.4942 6.28907 10.1886 6.41564 9.9633 6.64095C9.73799 6.86627 9.61141 7.17185 9.61141 7.49049V12.2962Z" fill="#222222"/>
<path fill-rule="evenodd" clip-rule="evenodd" d="M21.6257 10.8128C21.6257 7.94509 20.4865 5.19481 18.4587 3.16701C16.4309 1.13921 13.6806 0 10.8128 0C7.94509 0 5.19481 1.13921 3.16701 3.16701C1.13921 5.19481 0 7.94509 0 10.8128V20.1872C0 23.0549 1.13921 25.8052 3.16701 27.833C5.19481 29.8608 7.94509 31 10.8128 31C13.6806 31 16.4309 29.8608 18.4587 27.833C20.4865 25.8052 21.6257 23.0549 21.6257 20.1872V10.8128ZM12.1248 2.50537C14.1034 2.81787 15.9055 3.82635 17.2068 5.34931C18.508 6.87227 19.2229 8.80968 19.2228 10.8128V20.1872C19.2228 22.4176 18.3368 24.5567 16.7596 26.1339C15.1824 27.7111 13.0433 28.5971 10.8128 28.5971C8.58237 28.5971 6.44326 27.7111 4.86608 26.1339C3.2889 24.5567 2.40285 22.4176 2.40285 20.1872V10.8128C2.40279 9.59743 2.66616 8.39645 3.17484 7.29261C3.68352 6.18878 4.42541 5.20831 5.34941 4.41874C6.27342 3.62917 7.35759 3.04926 8.52725 2.71895C9.69691 2.38863 10.9243 2.31577 12.1248 2.50537Z" fill="#222222"/>
<line x1="11.3125" y1="51" x2="11.3125" y2="71" stroke="#999999" stroke-dasharray="2 2"/>
</svg>
