<svg width="84" height="60" viewBox="0 0 84 60" fill="none" xmlns="http://www.w3.org/2000/svg">
<path d="M60.0012 60.0001C61.7693 60.0001 63.465 59.2977 64.7153 58.0475C65.9655 56.7973 66.6679 55.1016 66.6679 53.3335V37.0535C66.6679 35.2853 65.9655 33.5896 64.7153 32.3394C63.465 31.0892 61.7693 30.3868 60.0012 30.3868H50.7479C50.7479 28.0446 50.8857 25.7023 51.1612 23.3601C51.5745 20.8801 52.2634 18.6757 53.2279 16.7468C54.1923 14.8179 55.4346 13.3001 56.9546 12.1935C58.4657 10.9535 60.3946 10.3335 62.7412 10.3335V0.00012207C58.8834 0.00012207 55.5057 0.826789 52.6079 2.48012C49.7302 4.11262 47.2577 6.37315 45.3745 9.09345C43.4786 12.0878 42.0826 15.3707 41.2412 18.8135C40.3904 22.6117 39.9744 26.4945 40.0012 30.3868V53.3335C40.0012 55.1016 40.7036 56.7973 41.9538 58.0475C43.2041 59.2977 44.8998 60.0001 46.6679 60.0001H60.0012ZM20.0012 60.0001C21.7693 60.0001 23.465 59.2977 24.7153 58.0475C25.9655 56.7973 26.6679 55.1016 26.6679 53.3335V37.0535C26.6679 35.2853 25.9655 33.5896 24.7153 32.3394C23.465 31.0892 21.7693 30.3868 20.0012 30.3868H10.7479C10.7479 28.0446 10.8857 25.7023 11.1612 23.3601C11.579 20.8801 12.2679 18.6757 13.2279 16.7468C14.1923 14.8179 15.4346 13.3001 16.9546 12.1935C18.4657 10.9535 20.3945 10.3335 22.7412 10.3335V0.00012207C18.8834 0.00012207 15.5057 0.826789 12.6079 2.48012C9.73016 4.11262 7.25771 6.37315 5.37455 9.09345C3.47862 12.0878 2.0826 15.3707 1.24122 18.8135C0.390439 22.6117 -0.0255684 26.4945 0.0012153 30.3868V53.3335C0.0012153 55.1016 0.703594 56.7973 1.95384 58.0475C3.20408 59.2977 4.89977 60.0001 6.66788 60.0001H20.0012Z" fill="#D2D2D2"/>
</svg>
