<svg width="22" height="21" viewBox="0 0 22 21" fill="none" xmlns="http://www.w3.org/2000/svg">
<path fill-rule="evenodd" clip-rule="evenodd" d="M6.6973 12.2259L0.858578 18.2574C0.628355 18.4954 0.5 18.8111 0.5 19.1393C0.5 19.4674 0.628355 19.7831 0.858578 20.0211L1.41974 20.6013C1.54166 20.7273 1.68841 20.8276 1.85106 20.8961C2.01372 20.9647 2.18888 21 2.36589 21C2.5429 21 2.71807 20.9647 2.88072 20.8961C3.04338 20.8276 3.19013 20.7273 3.31204 20.6013L12.2372 11.3819C12.4674 11.1438 12.5957 10.8282 12.5957 10.5C12.5957 10.1718 12.4674 9.85615 12.2372 9.61814L3.31335 0.398663C3.19143 0.272709 3.04468 0.172413 2.88202 0.103878C2.71937 0.0353427 2.54421 0 2.3672 0C2.19019 0 2.01502 0.0353427 1.85237 0.103878C1.68971 0.172413 1.54296 0.272709 1.42105 0.398663L0.859882 0.978883C0.62966 1.21689 0.501305 1.53256 0.501305 1.86074C0.501305 2.18892 0.62966 2.50459 0.859882 2.7426L6.6973 8.77535L7.5273 9.60149C7.76799 9.84114 7.90292 10.1641 7.90292 10.5006C7.90292 10.8371 7.76799 11.1601 7.5273 11.3998L6.6973 12.2259ZM15.6029 12.2259L9.76413 18.2574C9.53391 18.4954 9.40556 18.8111 9.40556 19.1393C9.40556 19.4674 9.53391 19.7831 9.76413 20.0211L10.3253 20.6013C10.4472 20.7273 10.594 20.8276 10.7566 20.8961C10.9193 20.9647 11.0944 21 11.2714 21C11.4485 21 11.6236 20.9647 11.7863 20.8961C11.9489 20.8276 12.0957 20.7273 12.2176 20.6013L21.1414 11.3819C21.3716 11.1438 21.5 10.8282 21.5 10.5C21.5 10.1718 21.3716 9.85615 21.1414 9.61814L12.2176 0.398663C12.0957 0.272709 11.9489 0.172413 11.7863 0.103878C11.6236 0.0353427 11.4485 0 11.2714 0C11.0944 0 10.9193 0.0353427 10.7566 0.103878C10.594 0.172413 10.4472 0.272709 10.3253 0.398663L9.76413 0.978883C9.53391 1.21689 9.40556 1.53256 9.40556 1.86074C9.40556 2.18892 9.53391 2.50459 9.76413 2.7426L15.6029 8.77535L16.4329 9.60149C16.6735 9.84114 16.8085 10.1641 16.8085 10.5006C16.8085 10.8371 16.6735 11.1601 16.4329 11.3998L15.6029 12.2259Z" fill="white"/>
</svg>
