<svg width="22" height="22" viewBox="0 0 22 22" fill="none" xmlns="http://www.w3.org/2000/svg">
<mask id="mask0_354_82" style="mask-type:luminance" maskUnits="userSpaceOnUse" x="0" y="0" width="22" height="22">
<path d="M21.5255 0.458008H0.773132V21.2104H21.5255V0.458008Z" fill="white"/>
</mask>
<g mask="url(#mask0_354_82)">
<path d="M17.779 3.67234L2.44809 9.58419C1.40183 10.0044 1.40788 10.5881 2.25613 10.8484L6.1922 12.0762L15.2991 6.33038C15.7297 6.06838 16.1231 6.20933 15.7997 6.4964L8.42136 13.1553L8.14985 17.2133C8.5476 17.2133 8.72313 17.0308 8.94622 16.8155L10.858 14.9565L14.8347 17.8938C15.568 18.2976 16.0946 18.0901 16.277 17.215L18.8875 4.9123C19.1547 3.84096 18.4785 3.35587 17.779 3.67234Z" fill="#222222"/>
</g>
</svg>
