<svg width="18" height="13" viewBox="0 0 18 13" fill="none" xmlns="http://www.w3.org/2000/svg">
<path fill-rule="evenodd" clip-rule="evenodd" d="M15.8918 1.15064C16.6326 1.35007 17.2166 1.93415 17.4161 2.67484C17.7864 4.02816 17.7722 6.84867 17.7722 6.84867C17.7722 6.84867 17.7722 9.655 17.4161 11.0083C17.2166 11.749 16.6326 12.3331 15.8918 12.5325C14.5385 12.8887 9.12542 12.8887 9.12542 12.8887C9.12542 12.8887 3.72647 12.8887 2.35894 12.5182C1.61819 12.3188 1.03414 11.7348 0.834705 10.9941C0.478577 9.655 0.478577 6.83449 0.478577 6.83449C0.478577 6.83449 0.478577 4.02816 0.834705 2.67484C1.03414 1.93415 1.63244 1.33583 2.35894 1.1364C3.71223 0.780274 9.12542 0.780273 9.12542 0.780273C9.12542 0.780273 14.5385 0.780274 15.8918 1.15064ZM11.9032 6.83501L7.40176 9.42759V4.24242L11.9032 6.83501Z" fill="#E8473A"/>
</svg>
