<svg id="svg-history" width="953" height="792" viewBox="0 0 953 792" fill="none" xmlns="http://www.w3.org/2000/svg">
    <g opacity="0.42" class="line-shadow">
        <path
            d="M-19.9146 791.766C-22.0253 791.766 -23.9833 790.443 -24.7208 788.358C-25.6362 785.714 -24.263 782.815 -21.593 781.874L896.129 460.777L394.966 300.775C392.906 300.114 391.482 298.207 391.431 296.045C391.38 293.884 392.728 291.925 394.763 291.163L671.841 189.242C674.486 188.275 677.41 189.623 678.377 192.268C679.343 194.912 677.995 197.837 675.351 198.803L412.182 295.613L913.726 455.742C915.811 456.403 917.235 458.335 917.26 460.522C917.286 462.709 915.913 464.667 913.853 465.405L-18.2363 791.461C-18.7957 791.664 -19.3552 791.74 -19.9146 791.74V791.766Z"
            fill="#D2D2D2" />
    </g>
    <path class="line-top"
        d="M-19.4312 760.919C-21.5419 760.919 -23.4999 759.597 -24.2374 757.512C-25.1528 754.867 -23.7796 751.968 -21.1096 751.027L896.612 429.93L395.449 269.929C393.39 269.268 391.966 267.36 391.915 265.199C391.864 263.037 393.212 261.079 395.246 260.316L672.325 158.395C674.969 157.429 677.894 158.777 678.86 161.421C679.826 164.066 678.479 166.99 675.834 167.957L412.665 264.766L914.209 424.895C916.294 425.557 917.718 427.489 917.744 429.676C917.769 431.863 916.396 433.821 914.336 434.559L-17.7529 760.64C-18.3123 760.843 -18.8718 760.919 -19.4312 760.919Z"
        fill="#999999" />
    <path class="line-base" d="M186.547 585.101V681.733" stroke="#999999" stroke-width="2.54294"
        stroke-miterlimit="10" />
    <path class="line-base" d="M439.29 498.183V594.815" stroke="#999999" stroke-width="2.54294"
        stroke-miterlimit="10" />
    <path class="line-base" d="M881.685 333.299V424.26" stroke="#999999" stroke-width="2.54294"
        stroke-miterlimit="10" />
    <path class="line-base" d="M420.803 169.203V258.206" stroke="#999999" stroke-width="2.54294"
        stroke-miterlimit="10" />
    <g class="year">
        <path
            d="M252.02 568.34C289.211 531.149 289.211 470.851 252.02 433.66C214.829 396.469 154.531 396.469 117.34 433.66C80.1491 470.851 80.1492 531.149 117.34 568.34C154.531 605.531 214.829 605.531 252.02 568.34Z"
            fill="white" />
        <path
            d="M169.841 432.372C170.96 435.779 169.078 439.467 165.671 440.56C162.263 441.679 158.576 439.797 157.482 436.39C156.363 432.982 158.245 429.295 161.653 428.201C165.06 427.082 168.748 428.964 169.841 432.372Z"
            fill="#D2D2D2" />
        <path
            d="M149.522 440.433C151.633 443.332 150.997 447.401 148.073 449.511C145.148 451.622 141.105 450.986 138.994 448.062C136.884 445.163 137.519 441.094 140.444 438.984C143.343 436.873 147.411 437.509 149.522 440.433Z"
            fill="#D2D2D2" />
        <path
            d="M132.689 454.393C135.588 456.504 136.249 460.573 134.138 463.472C132.028 466.371 127.959 467.032 125.06 464.921C122.161 462.811 121.5 458.742 123.611 455.843C125.721 452.944 129.79 452.283 132.689 454.393Z"
            fill="#D2D2D2" />
        <path
            d="M120.99 472.855C124.398 473.974 126.28 477.636 125.161 481.043C124.042 484.451 120.38 486.332 116.973 485.214C113.565 484.095 111.683 480.433 112.802 477.025C113.921 473.618 117.583 471.736 120.99 472.855Z"
            fill="#D2D2D2" />
        <path
            d="M115.574 494.038C119.16 494.038 122.084 496.962 122.084 500.548C122.084 504.134 119.16 507.058 115.574 507.058C111.989 507.058 109.064 504.134 109.064 500.548C109.064 496.962 111.989 494.038 115.574 494.038Z"
            fill="#D2D2D2" />
        <path
            d="M116.973 515.831C120.38 514.712 124.067 516.594 125.161 520.001C126.28 523.409 124.398 527.096 120.99 528.19C117.583 529.283 113.896 527.427 112.802 524.019C111.683 520.612 113.565 516.924 116.973 515.831Z"
            fill="#D2D2D2" />
        <path
            d="M125.034 536.149C127.933 534.038 132.001 534.674 134.112 537.599C136.223 540.498 135.587 544.566 132.662 546.677C129.764 548.788 125.695 548.152 123.584 545.227C121.474 542.328 122.109 538.26 125.034 536.149Z"
            fill="#D2D2D2" />
        <path
            d="M138.995 552.983C141.106 550.084 145.174 549.423 148.073 551.534C150.972 553.644 151.633 557.713 149.523 560.612C147.412 563.511 143.343 564.172 140.444 562.061C137.545 559.951 136.884 555.882 138.995 552.983Z"
            fill="#D2D2D2" />
        <path
            d="M157.456 564.681C158.575 561.273 162.237 559.391 165.645 560.51C169.052 561.629 170.934 565.291 169.815 568.698C168.696 572.106 165.034 573.988 161.627 572.869C158.219 571.75 156.338 568.088 157.456 564.681Z"
            fill="#D2D2D2" />
        <path
            d="M178.639 570.097C178.639 566.512 181.563 563.587 185.149 563.587C188.734 563.587 191.659 566.512 191.659 570.097C191.659 573.683 188.734 576.607 185.149 576.607C181.563 576.607 178.639 573.683 178.639 570.097Z"
            fill="#D2D2D2" />
        <path
            d="M200.432 568.699C199.313 565.291 201.194 561.604 204.602 560.51C208.01 559.417 211.697 561.273 212.79 564.681C213.909 568.088 212.027 571.776 208.62 572.869C205.212 573.988 201.525 572.106 200.432 568.699Z"
            fill="#D2D2D2" />
        <path class="red"
            d="M220.75 560.638C218.639 557.739 219.275 553.67 222.199 551.56C225.098 549.449 229.167 550.085 231.277 553.009C233.388 555.908 232.752 559.977 229.828 562.087C226.929 564.198 222.86 563.562 220.75 560.638Z"
            fill="#E8473A" />
        <path class="red"
            d="M237.585 546.677C234.686 544.566 234.025 540.497 236.136 537.598C238.246 534.699 242.315 534.038 245.214 536.149C248.113 538.259 248.774 542.328 246.663 545.227C244.553 548.126 240.484 548.787 237.585 546.677Z"
            fill="#E8473A" />
        <path class="red"
            d="M249.282 528.215C245.875 527.096 243.993 523.435 245.112 520.027C246.231 516.619 249.892 514.738 253.3 515.857C256.708 516.976 258.589 520.637 257.47 524.045C256.352 527.452 252.69 529.334 249.282 528.215Z"
            fill="#E8473A" />
        <path class="red"
            d="M254.698 507.033C251.113 507.033 248.188 504.108 248.188 500.523C248.188 496.937 251.113 494.013 254.698 494.013C258.284 494.013 261.208 496.937 261.208 500.523C261.208 504.108 258.284 507.033 254.698 507.033Z"
            fill="#E8473A" />
        <path class="red"
            d="M253.3 485.214C249.892 486.332 246.205 484.451 245.112 481.043C243.993 477.636 245.875 473.948 249.282 472.855C252.69 471.736 256.377 473.618 257.47 477.025C258.564 480.433 256.708 484.12 253.3 485.214Z"
            fill="#E8473A" />
        <path class="red"
            d="M245.238 464.921C242.339 467.032 238.271 466.396 236.16 463.472C234.049 460.573 234.685 456.504 237.609 454.393C240.508 452.283 244.577 452.918 246.688 455.843C248.798 458.742 248.163 462.81 245.238 464.921Z"
            fill="#E8473A" />
        <path class="red"
            d="M231.278 448.087C229.167 450.986 225.098 451.647 222.199 449.536C219.3 447.426 218.639 443.357 220.75 440.458C222.86 437.559 226.929 436.898 229.828 439.009C232.727 441.119 233.388 445.188 231.278 448.087Z"
            fill="#E8473A" />
        <path class="red"
            d="M212.817 436.39C211.698 439.797 208.036 441.679 204.628 440.56C201.221 439.441 199.339 435.779 200.458 432.372C201.577 428.964 205.239 427.082 208.646 428.201C212.054 429.32 213.936 432.982 212.817 436.39Z"
            fill="#E8473A" />
        <path class="red"
            d="M191.634 430.973C191.634 434.559 188.709 437.483 185.124 437.483C181.538 437.483 178.614 434.559 178.614 430.973C178.614 427.388 181.538 424.463 185.124 424.463C188.709 424.463 191.634 427.388 191.634 430.973Z"
            fill="#E8473A" />
    </g>
    <g class="year">
        <path
            d="M491.944 491.648C523.782 459.81 523.782 408.19 491.944 376.352C460.106 344.514 408.486 344.514 376.648 376.352C344.81 408.19 344.81 459.81 376.648 491.648C408.486 523.486 460.106 523.486 491.944 491.648Z"
            fill="white" />
        <path
            d="M421.005 376.046C421.946 378.97 420.344 382.123 417.42 383.064C414.495 384.005 411.342 382.403 410.401 379.479C409.46 376.554 411.062 373.401 413.987 372.46C416.911 371.519 420.064 373.121 421.005 376.046Z"
            fill="#D2D2D2" />
        <path
            d="M403.638 382.937C405.444 385.429 404.884 388.913 402.418 390.719C399.926 392.524 396.442 391.965 394.636 389.498C392.831 387.031 393.39 383.522 395.857 381.717C398.349 379.911 401.833 380.47 403.638 382.937Z"
            fill="#D2D2D2" />
        <path
            d="M389.22 394.889C391.712 396.695 392.271 400.178 390.44 402.67C388.635 405.163 385.151 405.722 382.659 403.891C380.167 402.086 379.608 398.602 381.438 396.11C383.244 393.618 386.728 393.058 389.22 394.889Z"
            fill="#D2D2D2" />
        <path
            d="M379.225 410.681C382.149 411.621 383.751 414.775 382.81 417.699C381.87 420.623 378.716 422.226 375.792 421.285C372.868 420.344 371.266 417.19 372.206 414.266C373.147 411.342 376.301 409.74 379.225 410.681Z"
            fill="#D2D2D2" />
        <path
            d="M374.572 428.812C377.649 428.812 380.141 431.304 380.141 434.381C380.141 437.458 377.649 439.95 374.572 439.95C371.495 439.95 369.003 437.458 369.003 434.381C369.003 431.304 371.495 428.812 374.572 428.812Z"
            fill="#D2D2D2" />
        <path
            d="M375.767 447.477C378.691 446.536 381.845 448.138 382.786 451.062C383.726 453.987 382.124 457.14 379.2 458.081C376.276 459.022 373.122 457.42 372.181 454.495C371.241 451.571 372.843 448.418 375.767 447.477Z"
            fill="#D2D2D2" />
        <path
            d="M382.684 464.871C385.176 463.065 388.66 463.625 390.466 466.091C392.271 468.583 391.712 472.067 389.245 473.873C386.753 475.678 383.269 475.119 381.464 472.652C379.658 470.16 380.218 466.676 382.684 464.871Z"
            fill="#D2D2D2" />
        <path
            d="M394.61 479.289C396.415 476.797 399.899 476.238 402.391 478.069C404.883 479.899 405.443 483.358 403.612 485.85C401.806 488.342 398.323 488.901 395.83 487.071C393.338 485.265 392.779 481.781 394.61 479.289Z"
            fill="#D2D2D2" />
        <path
            d="M410.428 489.283C411.368 486.358 414.522 484.756 417.446 485.697C420.371 486.638 421.973 489.791 421.032 492.716C420.091 495.64 416.938 497.242 414.013 496.301C411.089 495.36 409.487 492.207 410.428 489.283Z"
            fill="#D2D2D2" />
        <path
            d="M434.128 499.48C437.203 499.48 439.697 496.987 439.697 493.911C439.697 490.835 437.203 488.342 434.128 488.342C431.052 488.342 428.559 490.835 428.559 493.911C428.559 496.987 431.052 499.48 434.128 499.48Z"
            fill="#D2D2D2" />
        <path
            d="M447.223 492.716C446.282 489.791 447.884 486.638 450.809 485.697C453.733 484.756 456.886 486.358 457.827 489.283C458.768 492.207 457.166 495.36 454.242 496.301C451.317 497.242 448.164 495.64 447.223 492.716Z"
            fill="#D2D2D2" />
        <path
            d="M464.617 485.824C462.811 483.332 463.371 479.848 465.838 478.043C468.33 476.237 471.813 476.797 473.619 479.263C475.424 481.755 474.865 485.239 472.398 487.045C469.906 488.85 466.422 488.291 464.617 485.824Z"
            fill="#D2D2D2" />
        <path
            d="M479.01 473.873C476.518 472.067 475.959 468.584 477.789 466.091C479.595 463.599 483.079 463.04 485.571 464.871C488.063 466.676 488.622 470.16 486.791 472.652C484.986 475.144 481.502 475.704 479.01 473.873Z"
            fill="#D2D2D2" />
        <path class="red"
            d="M489.03 458.081C486.105 457.14 484.503 453.987 485.444 451.062C486.385 448.138 489.538 446.536 492.463 447.477C495.387 448.418 496.989 451.571 496.048 454.495C495.107 457.42 491.954 459.022 489.03 458.081Z"
            fill="#E8473A" />
        <path class="red"
            d="M493.658 439.95C490.581 439.95 488.089 437.458 488.089 434.381C488.089 431.304 490.581 428.812 493.658 428.812C496.735 428.812 499.227 431.304 499.227 434.381C499.227 437.458 496.735 439.95 493.658 439.95Z"
            fill="#E8473A" />
        <path class="red"
            d="M492.463 421.285C489.538 422.226 486.385 420.623 485.444 417.699C484.503 414.775 486.105 411.621 489.03 410.681C491.954 409.74 495.107 411.342 496.048 414.266C496.989 417.19 495.387 420.344 492.463 421.285Z"
            fill="#E8473A" />
        <path class="red"
            d="M485.571 403.891C483.079 405.696 479.595 405.137 477.79 402.67C475.984 400.178 476.544 396.694 479.01 394.889C481.502 393.083 484.986 393.643 486.792 396.109C488.597 398.601 488.038 402.085 485.571 403.891Z"
            fill="#E8473A" />
        <path class="red"
            d="M473.62 389.498C471.814 391.99 468.33 392.549 465.838 390.718C463.346 388.913 462.787 385.429 464.618 382.937C466.423 380.445 469.907 379.885 472.399 381.716C474.891 383.522 475.451 387.006 473.62 389.498Z"
            fill="#E8473A" />
        <path class="red"
            d="M457.802 379.479C456.861 382.403 453.708 384.005 450.784 383.064C447.859 382.123 446.257 378.97 447.198 376.046C448.139 373.121 451.292 371.519 454.217 372.46C457.141 373.401 458.743 376.554 457.802 379.479Z"
            fill="#E8473A" />
        <path class="red"
            d="M439.697 374.851C439.697 377.927 437.205 380.42 434.128 380.42C431.051 380.42 428.559 377.927 428.559 374.851C428.559 371.774 431.051 369.281 434.128 369.281C437.205 369.281 439.697 371.774 439.697 374.851Z"
            fill="#E8473A" />
    </g>

    <g class="year">
        <path
            d="M942.273 285.142C947.736 251.227 924.671 219.305 890.755 213.842C856.84 208.38 824.918 231.445 819.456 265.36C813.993 299.275 837.058 331.197 870.973 336.66C904.888 342.123 936.81 319.058 942.273 285.142Z"
            fill="white" />
        <path
            d="M870.853 230.717C871.591 232.955 870.345 235.345 868.132 236.082C865.895 236.82 863.504 235.574 862.792 233.361C862.08 231.149 863.275 228.733 865.513 228.021C867.751 227.284 870.141 228.504 870.853 230.742V230.717Z"
            fill="#D2D2D2" />
        <path
            d="M857.579 235.98C858.952 237.887 858.545 240.532 856.638 241.905C854.731 243.278 852.086 242.872 850.713 240.964C849.34 239.057 849.746 236.413 851.654 235.039C853.561 233.666 856.205 234.073 857.579 235.98Z"
            fill="#D2D2D2" />
        <path
            d="M846.593 245.084C848.501 246.457 848.907 249.127 847.534 251.009C846.161 252.916 843.491 253.323 841.609 251.95C839.727 250.577 839.295 247.907 840.668 246.025C842.042 244.143 844.712 243.711 846.593 245.084Z"
            fill="#D2D2D2" />
        <path
            d="M838.938 257.138C841.176 257.875 842.396 260.266 841.659 262.504C840.922 264.741 838.531 265.962 836.293 265.225C834.056 264.487 832.835 262.097 833.572 259.884C834.31 257.672 836.7 256.426 838.938 257.163V257.138Z"
            fill="#D2D2D2" />
        <path
            d="M835.404 270.971C837.743 270.971 839.651 272.878 839.651 275.218C839.651 277.557 837.743 279.464 835.404 279.464C833.064 279.464 831.157 277.557 831.157 275.218C831.157 272.878 833.064 270.971 835.404 270.971Z"
            fill="#D2D2D2" />
        <path
            d="M836.319 285.212C838.557 284.474 840.948 285.695 841.685 287.933C842.397 290.171 841.176 292.561 838.964 293.298C836.726 294.036 834.336 292.79 833.598 290.578C832.861 288.365 834.107 285.949 836.319 285.237V285.212Z"
            fill="#D2D2D2" />
        <path
            d="M841.584 298.486C843.491 297.112 846.136 297.519 847.509 299.427C848.882 301.334 848.476 303.978 846.568 305.352C844.661 306.725 842.017 306.318 840.643 304.411C839.27 302.504 839.677 299.859 841.584 298.486Z"
            fill="#D2D2D2" />
        <path
            d="M850.713 309.472C852.086 307.564 854.757 307.158 856.638 308.531C858.52 309.904 858.952 312.574 857.579 314.456C856.206 316.363 853.536 316.77 851.654 315.397C849.772 314.024 849.34 311.353 850.713 309.472Z"
            fill="#D2D2D2" />
        <path
            d="M862.766 317.1C863.503 314.863 865.894 313.642 868.106 314.379C870.318 315.117 871.564 317.507 870.827 319.72C870.09 321.932 867.699 323.178 865.487 322.441C863.249 321.703 862.028 319.313 862.766 317.1Z"
            fill="#D2D2D2" />
        <path class="red"
            d="M876.6 320.635C876.6 318.295 878.507 316.388 880.846 316.388C883.186 316.388 885.093 318.295 885.093 320.635C885.093 322.974 883.186 324.882 880.846 324.882C878.507 324.882 876.6 322.974 876.6 320.635Z"
            fill="#E8473A" />
        <path class="red"
            d="M890.84 319.719C890.102 317.481 891.348 315.091 893.561 314.379C895.773 313.667 898.189 314.888 898.901 317.1C899.638 319.338 898.392 321.728 896.18 322.44C893.942 323.178 891.552 321.932 890.814 319.719H890.84Z"
            fill="#E8473A" />
        <path class="red"
            d="M904.089 314.456C902.715 312.549 903.122 309.904 905.03 308.531C906.937 307.158 909.581 307.564 910.955 309.472C912.328 311.379 911.921 314.024 910.014 315.397C908.107 316.77 905.462 316.363 904.089 314.456Z"
            fill="#E8473A" />
        <path class="red"
            d="M915.074 305.352C913.167 303.978 912.76 301.308 914.134 299.427C915.507 297.519 918.177 297.112 920.059 298.486C921.94 299.859 922.373 302.529 921 304.411C919.626 306.318 916.956 306.725 915.074 305.352Z"
            fill="#E8473A" />
        <path class="red"
            d="M922.729 293.298C920.491 292.561 919.271 290.171 920.008 287.933C920.745 285.695 923.136 284.474 925.374 285.212C927.611 285.949 928.832 288.34 928.095 290.552C927.357 292.764 924.967 294.01 922.754 293.273L922.729 293.298Z"
            fill="#E8473A" />
        <path class="red"
            d="M926.263 279.464C923.924 279.464 922.017 277.557 922.017 275.218C922.017 272.878 923.924 270.971 926.263 270.971C928.603 270.971 930.51 272.878 930.51 275.218C930.51 277.557 928.603 279.464 926.263 279.464Z"
            fill="#E8473A" />
        <path class="red"
            d="M925.348 265.225C923.11 265.962 920.72 264.716 919.982 262.504C919.27 260.266 920.491 257.875 922.703 257.138C924.941 256.401 927.331 257.647 928.044 259.859C928.756 262.071 927.535 264.487 925.323 265.199L925.348 265.225Z"
            fill="#E8473A" />
        <path class="red"
            d="M920.084 251.95C918.177 253.323 915.532 252.916 914.159 251.009C912.786 249.102 913.193 246.457 915.1 245.084C917.007 243.711 919.652 244.118 921.025 246.025C922.398 247.932 921.991 250.577 920.084 251.95Z"
            fill="#E8473A" />
        <path class="red"
            d="M910.981 240.964C909.607 242.872 906.937 243.278 905.055 241.905C903.174 240.532 902.741 237.862 904.115 235.98C905.488 234.073 908.158 233.666 910.04 235.039C911.921 236.413 912.354 239.083 910.981 240.964Z"
            fill="#E8473A" />
        <path class="red"
            d="M898.901 233.336C898.164 235.574 895.773 236.794 893.561 236.057C891.323 235.32 890.103 232.929 890.84 230.691C891.578 228.454 893.968 227.233 896.206 227.97C898.443 228.708 899.664 231.098 898.927 233.311L898.901 233.336Z"
            fill="#E8473A" />
        <path class="red"
            d="M885.093 229.801C885.093 232.141 883.186 234.048 880.846 234.048C878.507 234.048 876.6 232.141 876.6 229.801C876.6 227.462 878.507 225.554 880.846 225.554C883.186 225.554 885.093 227.462 885.093 229.801Z"
            fill="#E8473A" />
    </g>
    <g class="year">
        <path
            d="M421.286 195.421C451.608 195.421 476.188 170.84 476.188 140.519C476.188 110.197 451.608 85.6165 421.286 85.6165C390.965 85.6165 366.384 110.197 366.384 140.519C366.384 170.84 390.965 195.421 421.286 195.421Z"
            fill="white" />
        <path
            d="M412.462 101.23C413.098 103.188 412.03 105.324 410.046 105.96C408.088 106.596 405.952 105.528 405.316 103.544C404.68 101.586 405.748 99.45 407.732 98.8143C409.69 98.1785 411.826 99.2465 412.462 101.23Z"
            fill="#D2D2D2" />
        <path
            d="M400.765 105.884C401.985 107.562 401.604 109.902 399.926 111.123C398.247 112.343 395.908 111.962 394.687 110.283C393.466 108.605 393.848 106.266 395.526 105.045C397.205 103.824 399.544 104.206 400.765 105.884Z"
            fill="#D2D2D2" />
        <path
            d="M391.05 113.919C392.729 115.14 393.085 117.479 391.889 119.158C390.694 120.836 388.329 121.192 386.651 119.997C384.973 118.776 384.617 116.437 385.812 114.758C387.032 113.08 389.372 112.724 391.05 113.919Z"
            fill="#D2D2D2" />
        <path
            d="M384.311 124.574C386.269 125.21 387.363 127.321 386.727 129.304C386.091 131.262 383.981 132.356 381.997 131.72C380.014 131.084 378.946 128.973 379.581 126.99C380.217 125.032 382.328 123.938 384.311 124.574Z"
            fill="#D2D2D2" />
        <path
            d="M381.209 144.257C383.274 144.257 384.947 142.583 384.947 140.519C384.947 138.454 383.274 136.781 381.209 136.781C379.145 136.781 377.471 138.454 377.471 140.519C377.471 142.583 379.145 144.257 381.209 144.257Z"
            fill="#D2D2D2" />
        <path
            d="M381.997 149.343C383.955 148.707 386.091 149.775 386.727 151.759C387.363 153.717 386.295 155.853 384.311 156.488C382.353 157.124 380.217 156.056 379.581 154.073C378.946 152.115 380.014 149.979 381.997 149.343Z"
            fill="#D2D2D2" />
        <path
            d="M386.651 161.041C388.329 159.82 390.669 160.201 391.889 161.88C393.11 163.558 392.728 165.898 391.05 167.118C389.372 168.339 387.032 167.957 385.812 166.279C384.591 164.601 384.972 162.261 386.651 161.041Z"
            fill="#D2D2D2" />
        <path class="red"
            d="M394.687 170.754C395.908 169.076 398.247 168.72 399.926 169.915C401.604 171.11 401.96 173.475 400.765 175.153C399.544 176.832 397.205 177.188 395.526 175.992C393.848 174.772 393.492 172.432 394.687 170.754Z"
            fill="#E8473A" />
        <path class="red"
            d="M405.341 177.493C405.977 175.535 408.088 174.442 410.071 175.077C412.055 175.713 413.123 177.824 412.487 179.807C411.851 181.791 409.741 182.859 407.757 182.223C405.799 181.587 404.705 179.477 405.341 177.493Z"
            fill="#E8473A" />
        <path class="red"
            d="M417.547 180.596C417.547 178.536 419.226 176.857 421.285 176.857C423.345 176.857 425.024 178.536 425.024 180.596C425.024 182.655 423.345 184.334 421.285 184.334C419.226 184.334 417.547 182.655 417.547 180.596Z"
            fill="#E8473A" />
        <path class="red"
            d="M430.11 179.807C429.474 177.849 430.542 175.713 432.526 175.077C434.484 174.441 436.62 175.509 437.256 177.493C437.892 179.451 436.824 181.587 434.84 182.223C432.882 182.858 430.746 181.79 430.11 179.807Z"
            fill="#E8473A" />
        <path class="red"
            d="M441.807 175.154C440.587 173.475 440.968 171.136 442.646 169.915C444.325 168.695 446.664 169.076 447.885 170.754C449.105 172.433 448.724 174.772 447.046 175.993C445.367 177.214 443.028 176.832 441.807 175.154Z"
            fill="#E8473A" />
        <path class="red"
            d="M451.522 167.118C449.844 165.897 449.488 163.558 450.683 161.879C451.903 160.201 454.243 159.845 455.921 161.04C457.6 162.261 457.956 164.6 456.76 166.278C455.54 167.957 453.2 168.313 451.522 167.118Z"
            fill="#E8473A" />
        <path class="red"
            d="M458.259 156.463C456.301 155.827 455.208 153.717 455.844 151.733C456.479 149.775 458.59 148.682 460.574 149.318C462.532 149.953 463.625 152.064 462.989 154.047C462.354 156.005 460.243 157.099 458.259 156.463Z"
            fill="#E8473A" />
        <path class="red"
            d="M461.388 144.257C463.452 144.257 465.126 142.583 465.126 140.519C465.126 138.454 463.452 136.781 461.388 136.781C459.323 136.781 457.649 138.454 457.649 140.519C457.649 142.583 459.323 144.257 461.388 144.257Z"
            fill="#E8473A" />
        <path class="red"
            d="M460.575 131.695C458.617 132.331 456.481 131.262 455.845 129.279C455.209 127.321 456.277 125.185 458.261 124.549C460.244 123.913 462.355 124.981 462.991 126.965C463.626 128.923 462.558 131.059 460.575 131.695Z"
            fill="#E8473A" />
        <path class="red"
            d="M455.921 119.997C454.243 121.218 451.903 120.837 450.683 119.158C449.462 117.48 449.843 115.14 451.522 113.92C453.2 112.699 455.54 113.081 456.76 114.759C457.981 116.437 457.599 118.777 455.921 119.997Z"
            fill="#E8473A" />
        <path class="red"
            d="M447.885 110.283C446.664 111.961 444.325 112.317 442.647 111.122C440.968 109.901 440.612 107.562 441.807 105.884C443.028 104.205 445.367 103.849 447.046 105.044C448.724 106.265 449.08 108.605 447.885 110.283Z"
            fill="#E8473A" />
        <path class="red"
            d="M437.23 103.544C436.594 105.502 434.484 106.596 432.5 105.96C430.542 105.324 429.449 103.214 430.084 101.23C430.72 99.2465 432.831 98.1785 434.814 98.8143C436.772 99.45 437.866 101.561 437.23 103.544Z"
            fill="#E8473A" />
        <path class="red"
            d="M425.049 100.442C425.049 102.502 423.371 104.18 421.311 104.18C419.252 104.18 417.573 102.502 417.573 100.442C417.573 98.3822 419.252 96.7039 421.311 96.7039C423.371 96.7039 425.049 98.3822 425.049 100.442Z"
            fill="#E8473A" />
    </g>

    <path class="line-base" d="M674.257 80.0984V164.092" stroke="#999999" stroke-width="2.54294"
        stroke-miterlimit="10" />
    <g class="year">
        <path
            d="M723.839 66.3942C728.301 38.7193 709.484 12.6667 681.809 8.20421C654.134 3.74169 628.082 22.5591 623.619 50.234C619.157 77.9088 637.974 103.961 665.649 108.424C693.324 112.886 719.376 94.0691 723.839 66.3942Z"
            fill="white" />
        <path
            d="M665.587 21.9925C666.172 23.8234 665.18 25.7815 663.349 26.3663C661.518 26.9512 659.56 25.9595 658.975 24.1285C658.391 22.2976 659.382 20.3396 661.213 19.7547C663.044 19.1698 665.002 20.1616 665.587 21.9925Z"
            fill="#D2D2D2" />
        <path
            d="M654.754 26.2897C655.873 27.8409 655.542 30.0024 653.991 31.1213C652.44 32.2402 650.279 31.9096 649.16 30.3584C648.041 28.8072 648.371 26.6457 649.923 25.5268C651.474 24.4079 653.635 24.7385 654.754 26.2897Z"
            fill="#D2D2D2" />
        <path
            d="M645.777 33.715C647.329 34.8339 647.659 37.0209 646.54 38.5466C645.421 40.0978 643.234 40.4284 641.709 39.3095C640.157 38.1906 639.827 36.0037 640.946 34.4779C642.065 32.9267 644.252 32.5962 645.777 33.715Z"
            fill="#D2D2D2" />
        <path
            d="M639.546 43.5562C641.377 44.1411 642.369 46.0991 641.784 47.9301C641.199 49.761 639.241 50.7527 637.41 50.1679C635.579 49.583 634.587 47.6249 635.172 45.794C635.757 43.9631 637.715 42.9713 639.546 43.5562Z"
            fill="#D2D2D2" />
        <path class="red"
            d="M636.648 54.8472C638.555 54.8472 640.106 56.3984 640.106 58.3056C640.106 60.2128 638.555 61.764 636.648 61.764C634.741 61.764 633.189 60.2128 633.189 58.3056C633.189 56.3984 634.741 54.8472 636.648 54.8472Z"
            fill="#E8473A" />
        <path class="red"
            d="M637.41 66.4681C639.241 65.8832 641.199 66.8749 641.784 68.7058C642.369 70.5367 641.377 72.4948 639.546 73.0797C637.715 73.6646 635.757 72.6728 635.172 70.8419C634.587 69.011 635.579 67.0529 637.41 66.4681Z"
            fill="#E8473A" />
        <path class="red"
            d="M641.709 77.3012C643.26 76.1823 645.421 76.5129 646.54 78.0641C647.659 79.6153 647.329 81.7768 645.777 82.8957C644.226 84.0146 642.065 83.684 640.946 82.1328C639.827 80.5816 640.157 78.4201 641.709 77.3012Z"
            fill="#E8473A" />
        <path class="red"
            d="M649.133 86.2777C650.252 84.7265 652.439 84.396 653.965 85.5148C655.516 86.6337 655.847 88.8207 654.728 90.3465C653.609 91.8977 651.422 92.2282 649.896 91.1093C648.345 89.9905 648.014 87.8035 649.133 86.2777Z"
            fill="#E8473A" />
        <path class="red"
            d="M658.975 92.5081C659.56 90.6772 661.518 89.6854 663.349 90.2703C665.18 90.8552 666.172 92.8133 665.587 94.6442C665.002 96.4751 663.044 97.4668 661.213 96.8819C659.382 96.2971 658.391 94.339 658.975 92.5081Z"
            fill="#E8473A" />
        <path class="red"
            d="M670.266 95.3813C670.266 93.474 671.817 91.9229 673.724 91.9229C675.631 91.9229 677.182 93.474 677.182 95.3813C677.182 97.2885 675.631 98.8397 673.724 98.8397C671.817 98.8397 670.266 97.2885 670.266 95.3813Z"
            fill="#E8473A" />
        <path class="red"
            d="M681.887 94.6442C681.302 92.8133 682.293 90.8552 684.124 90.2703C685.955 89.6854 687.913 90.6772 688.498 92.5081C689.083 94.339 688.091 96.2971 686.26 96.8819C684.429 97.4668 682.471 96.4751 681.887 94.6442Z"
            fill="#E8473A" />
        <path class="red"
            d="M692.72 90.3465C691.601 88.7953 691.931 86.6337 693.483 85.5148C695.034 84.396 697.195 84.7265 698.314 86.2777C699.433 87.8289 699.103 89.9905 697.551 91.1093C696 92.2282 693.839 91.8977 692.72 90.3465Z"
            fill="#E8473A" />
        <path class="red"
            d="M701.696 82.9214C700.145 81.8025 699.815 79.6155 700.934 78.0898C702.052 76.5386 704.239 76.208 705.765 77.3269C707.316 78.4458 707.647 80.6327 706.528 82.1585C705.409 83.7097 703.222 84.0403 701.696 82.9214Z"
            fill="#E8473A" />
        <path class="red"
            d="M707.926 73.0797C706.095 72.4948 705.103 70.5367 705.688 68.7058C706.273 66.8749 708.231 65.8832 710.062 66.4681C711.893 67.0529 712.885 69.011 712.3 70.8419C711.715 72.6728 709.757 73.6646 707.926 73.0797Z"
            fill="#E8473A" />
        <path class="red"
            d="M710.8 61.7893C708.893 61.7893 707.342 60.2381 707.342 58.3309C707.342 56.4237 708.893 54.8726 710.8 54.8726C712.707 54.8726 714.259 56.4237 714.259 58.3309C714.259 60.2381 712.707 61.7893 710.8 61.7893Z"
            fill="#E8473A" />
        <path class="red"
            d="M710.062 50.1679C708.231 50.7527 706.273 49.761 705.688 47.9301C705.103 46.0991 706.095 44.1411 707.926 43.5562C709.757 42.9713 711.715 43.9631 712.3 45.794C712.885 47.6249 711.893 49.583 710.062 50.1679Z"
            fill="#E8473A" />
        <path class="red"
            d="M705.765 39.3349C704.214 40.4538 702.052 40.1232 700.934 38.572C699.815 37.0209 700.145 34.8593 701.696 33.7404C703.248 32.6215 705.409 32.9521 706.528 34.5033C707.647 36.0545 707.316 38.216 705.765 39.3349Z"
            fill="#E8473A" />
        <path class="red"
            d="M698.339 30.3584C697.22 31.9096 695.033 32.2402 693.507 31.1213C691.956 30.0024 691.626 27.8155 692.745 26.2897C693.863 24.7385 696.05 24.4079 697.576 25.5268C699.127 26.6457 699.458 28.8326 698.339 30.3584Z"
            fill="#E8473A" />
        <path class="red"
            d="M688.498 24.1285C687.913 25.9595 685.955 26.9512 684.124 26.3663C682.293 25.7815 681.302 23.8234 681.887 21.9925C682.471 20.1616 684.429 19.1698 686.26 19.7547C688.091 20.3396 689.083 22.2976 688.498 24.1285Z"
            fill="#E8473A" />
        <path class="red"
            d="M673.724 24.7132C675.634 24.7132 677.182 23.1648 677.182 21.2548C677.182 19.3448 675.634 17.7964 673.724 17.7964C671.814 17.7964 670.266 19.3448 670.266 21.2548C670.266 23.1648 671.814 24.7132 673.724 24.7132Z"
            fill="#E8473A" />
    </g>
    <path class="circle"
        d="M674.105 171.763C678.894 171.763 682.776 167.881 682.776 163.092C682.776 158.303 678.894 154.42 674.105 154.42C669.315 154.42 665.433 158.303 665.433 163.092C665.433 167.881 669.315 171.763 674.105 171.763Z"
        fill="#999999" />
    <path class="circle"
        d="M429.957 255.739C429.957 260.52 426.066 264.41 421.286 264.41C416.505 264.41 412.614 260.52 412.614 255.739C412.614 250.958 416.505 247.068 421.286 247.068C426.066 247.068 429.957 250.958 429.957 255.739Z"
        fill="#999999" />
    <path class="circle"
        d="M889.518 419.021C889.518 423.802 885.627 427.692 880.846 427.692C876.066 427.692 872.175 423.802 872.175 419.021C872.175 414.24 876.066 410.35 880.846 410.35C885.627 410.35 889.518 414.24 889.518 419.021Z"
        fill="#999999" />
    <path class="circle"
        d="M447.961 594.815C447.961 599.596 444.07 603.486 439.29 603.486C434.509 603.486 430.618 599.596 430.618 594.815C430.618 590.034 434.509 586.144 439.29 586.144C444.07 586.144 447.961 590.034 447.961 594.815Z"
        fill="#999999" />
    <path class="circle"
        d="M195.244 684.072C195.244 688.853 191.354 692.744 186.573 692.744C181.792 692.744 177.901 688.853 177.901 684.072C177.901 679.292 181.792 675.401 186.573 675.401C191.354 675.401 195.244 679.292 195.244 684.072Z"
        fill="#999999" />
    <path class="year-num"
        d="M165.224 484.216C165.224 483.339 165.075 482.751 164.776 482.452C164.496 482.135 164.113 481.976 163.628 481.976C163.143 481.976 162.751 482.125 162.452 482.424C162.172 482.704 162.032 483.199 162.032 483.908V486.008H159.12V484.104C159.12 482.517 159.503 481.304 160.268 480.464C161.052 479.605 162.2 479.176 163.712 479.176C165.224 479.176 166.363 479.605 167.128 480.464C167.912 481.304 168.304 482.517 168.304 484.104C168.304 485.131 168.155 486.064 167.856 486.904C167.557 487.725 167.175 488.481 166.708 489.172C166.26 489.844 165.765 490.469 165.224 491.048C164.701 491.627 164.207 492.177 163.74 492.7C163.292 493.223 162.919 493.736 162.62 494.24C162.321 494.725 162.172 495.239 162.172 495.78C162.172 495.967 162.181 496.107 162.2 496.2H168.024V499H159.12V496.592C159.12 495.64 159.269 494.8 159.568 494.072C159.867 493.344 160.24 492.681 160.688 492.084C161.155 491.468 161.649 490.899 162.172 490.376C162.695 489.835 163.18 489.265 163.628 488.668C164.095 488.071 164.477 487.417 164.776 486.708C165.075 485.999 165.224 485.168 165.224 484.216ZM173.05 494.492C173.05 495.201 173.19 495.705 173.47 496.004C173.768 496.284 174.16 496.424 174.646 496.424C175.131 496.424 175.514 496.284 175.794 496.004C176.092 495.705 176.242 495.201 176.242 494.492V483.908C176.242 483.199 176.092 482.704 175.794 482.424C175.514 482.125 175.131 481.976 174.646 481.976C174.16 481.976 173.768 482.125 173.47 482.424C173.19 482.704 173.05 483.199 173.05 483.908V494.492ZM169.97 484.104C169.97 482.517 170.371 481.304 171.174 480.464C171.976 479.605 173.134 479.176 174.646 479.176C176.158 479.176 177.315 479.605 178.118 480.464C178.92 481.304 179.322 482.517 179.322 484.104V494.296C179.322 495.883 178.92 497.105 178.118 497.964C177.315 498.804 176.158 499.224 174.646 499.224C173.134 499.224 171.976 498.804 171.174 497.964C170.371 497.105 169.97 495.883 169.97 494.296V484.104ZM183.227 481.864C183.824 481.864 184.31 481.799 184.683 481.668C185.075 481.537 185.392 481.36 185.635 481.136C185.878 480.912 186.074 480.651 186.223 480.352C186.372 480.053 186.503 479.736 186.615 479.4H188.687V499H185.607V484.048H183.227V481.864ZM198.361 484.216C198.361 483.339 198.211 482.751 197.913 482.452C197.633 482.135 197.25 481.976 196.765 481.976C196.279 481.976 195.887 482.125 195.589 482.424C195.309 482.704 195.169 483.199 195.169 483.908V485.168H192.257V484.104C192.257 482.517 192.639 481.304 193.405 480.464C194.189 479.605 195.337 479.176 196.849 479.176C198.361 479.176 199.499 479.605 200.265 480.464C201.049 481.304 201.441 482.517 201.441 484.104V484.608C201.441 486.699 200.722 488.043 199.285 488.64C200.069 488.976 200.619 489.499 200.937 490.208C201.273 490.899 201.441 491.748 201.441 492.756V494.296C201.441 495.883 201.049 497.105 200.265 497.964C199.499 498.804 198.361 499.224 196.849 499.224C195.337 499.224 194.189 498.804 193.405 497.964C192.639 497.105 192.257 495.883 192.257 494.296V492.672H195.169V494.492C195.169 495.201 195.309 495.705 195.589 496.004C195.887 496.284 196.279 496.424 196.765 496.424C197.25 496.424 197.633 496.275 197.913 495.976C198.211 495.677 198.361 495.089 198.361 494.212V492.672C198.361 491.757 198.202 491.113 197.885 490.74C197.567 490.367 197.054 490.18 196.345 490.18H195.309V487.38H196.513C197.091 487.38 197.539 487.231 197.857 486.932C198.193 486.633 198.361 486.092 198.361 485.308V484.216ZM207.734 487.8H213.334V490.6H207.734V487.8ZM165.224 514.216C165.224 513.339 165.075 512.751 164.776 512.452C164.496 512.135 164.113 511.976 163.628 511.976C163.143 511.976 162.751 512.125 162.452 512.424C162.172 512.704 162.032 513.199 162.032 513.908V516.008H159.12V514.104C159.12 512.517 159.503 511.304 160.268 510.464C161.052 509.605 162.2 509.176 163.712 509.176C165.224 509.176 166.363 509.605 167.128 510.464C167.912 511.304 168.304 512.517 168.304 514.104C168.304 515.131 168.155 516.064 167.856 516.904C167.557 517.725 167.175 518.481 166.708 519.172C166.26 519.844 165.765 520.469 165.224 521.048C164.701 521.627 164.207 522.177 163.74 522.7C163.292 523.223 162.919 523.736 162.62 524.24C162.321 524.725 162.172 525.239 162.172 525.78C162.172 525.967 162.181 526.107 162.2 526.2H168.024V529H159.12V526.592C159.12 525.64 159.269 524.8 159.568 524.072C159.867 523.344 160.24 522.681 160.688 522.084C161.155 521.468 161.649 520.899 162.172 520.376C162.695 519.835 163.18 519.265 163.628 518.668C164.095 518.071 164.477 517.417 164.776 516.708C165.075 515.999 165.224 515.168 165.224 514.216ZM173.05 524.492C173.05 525.201 173.19 525.705 173.47 526.004C173.768 526.284 174.16 526.424 174.646 526.424C175.131 526.424 175.514 526.284 175.794 526.004C176.092 525.705 176.242 525.201 176.242 524.492V513.908C176.242 513.199 176.092 512.704 175.794 512.424C175.514 512.125 175.131 511.976 174.646 511.976C174.16 511.976 173.768 512.125 173.47 512.424C173.19 512.704 173.05 513.199 173.05 513.908V524.492ZM169.97 514.104C169.97 512.517 170.371 511.304 171.174 510.464C171.976 509.605 173.134 509.176 174.646 509.176C176.158 509.176 177.315 509.605 178.118 510.464C178.92 511.304 179.322 512.517 179.322 514.104V524.296C179.322 525.883 178.92 527.105 178.118 527.964C177.315 528.804 176.158 529.224 174.646 529.224C173.134 529.224 171.976 528.804 171.174 527.964C170.371 527.105 169.97 525.883 169.97 524.296V514.104ZM183.227 511.864C183.824 511.864 184.31 511.799 184.683 511.668C185.075 511.537 185.392 511.36 185.635 511.136C185.878 510.912 186.074 510.651 186.223 510.352C186.372 510.053 186.503 509.736 186.615 509.4H188.687V529H185.607V514.048H183.227V511.864ZM191.697 522.644L197.297 509.4H200.657V522.644H202.113V525.444H200.657V529H197.633V525.444H191.697V522.644ZM197.633 522.644V515.28L194.525 522.644H197.633Z"
        fill="#E8473A" />
    <path class="year-num"
        d="M419.224 429.216C419.224 428.339 419.075 427.751 418.776 427.452C418.496 427.135 418.113 426.976 417.628 426.976C417.143 426.976 416.751 427.125 416.452 427.424C416.172 427.704 416.032 428.199 416.032 428.908V431.008H413.12V429.104C413.12 427.517 413.503 426.304 414.268 425.464C415.052 424.605 416.2 424.176 417.712 424.176C419.224 424.176 420.363 424.605 421.128 425.464C421.912 426.304 422.304 427.517 422.304 429.104C422.304 430.131 422.155 431.064 421.856 431.904C421.557 432.725 421.175 433.481 420.708 434.172C420.26 434.844 419.765 435.469 419.224 436.048C418.701 436.627 418.207 437.177 417.74 437.7C417.292 438.223 416.919 438.736 416.62 439.24C416.321 439.725 416.172 440.239 416.172 440.78C416.172 440.967 416.181 441.107 416.2 441.2H422.024V444H413.12V441.592C413.12 440.64 413.269 439.8 413.568 439.072C413.867 438.344 414.24 437.681 414.688 437.084C415.155 436.468 415.649 435.899 416.172 435.376C416.695 434.835 417.18 434.265 417.628 433.668C418.095 433.071 418.477 432.417 418.776 431.708C419.075 430.999 419.224 430.168 419.224 429.216ZM427.05 439.492C427.05 440.201 427.19 440.705 427.47 441.004C427.768 441.284 428.16 441.424 428.646 441.424C429.131 441.424 429.514 441.284 429.794 441.004C430.092 440.705 430.242 440.201 430.242 439.492V428.908C430.242 428.199 430.092 427.704 429.794 427.424C429.514 427.125 429.131 426.976 428.646 426.976C428.16 426.976 427.768 427.125 427.47 427.424C427.19 427.704 427.05 428.199 427.05 428.908V439.492ZM423.97 429.104C423.97 427.517 424.371 426.304 425.174 425.464C425.976 424.605 427.134 424.176 428.646 424.176C430.158 424.176 431.315 424.605 432.118 425.464C432.92 426.304 433.322 427.517 433.322 429.104V439.296C433.322 440.883 432.92 442.105 432.118 442.964C431.315 443.804 430.158 444.224 428.646 444.224C427.134 444.224 425.976 443.804 425.174 442.964C424.371 442.105 423.97 440.883 423.97 439.296V429.104ZM437.227 426.864C437.824 426.864 438.31 426.799 438.683 426.668C439.075 426.537 439.392 426.36 439.635 426.136C439.878 425.912 440.074 425.651 440.223 425.352C440.372 425.053 440.503 424.736 440.615 424.4H442.687V444H439.607V429.048H437.227V426.864ZM449.197 437.672V439.492C449.197 440.201 449.337 440.696 449.617 440.976C449.915 441.256 450.307 441.396 450.793 441.396C451.278 441.396 451.661 441.256 451.941 440.976C452.239 440.696 452.389 440.201 452.389 439.492V435.18C452.389 434.471 452.239 433.976 451.941 433.696C451.661 433.397 451.278 433.248 450.793 433.248C450.307 433.248 449.915 433.397 449.617 433.696C449.337 433.976 449.197 434.471 449.197 435.18V435.768H446.285L446.845 424.4H454.965V427.2H449.617L449.365 431.876C449.943 430.924 450.839 430.448 452.053 430.448C453.191 430.448 454.041 430.831 454.601 431.596C455.179 432.361 455.469 433.472 455.469 434.928V439.296C455.469 440.883 455.077 442.105 454.293 442.964C453.527 443.804 452.389 444.224 450.877 444.224C449.365 444.224 448.217 443.804 447.433 442.964C446.667 442.105 446.285 440.883 446.285 439.296V437.672H449.197Z"
        fill="#E8473A" />
    <path class="year-num"
        d="M865.224 270.216C865.224 269.339 865.075 268.751 864.776 268.452C864.496 268.135 864.113 267.976 863.628 267.976C863.143 267.976 862.751 268.125 862.452 268.424C862.172 268.704 862.032 269.199 862.032 269.908V272.008H859.12V270.104C859.12 268.517 859.503 267.304 860.268 266.464C861.052 265.605 862.2 265.176 863.712 265.176C865.224 265.176 866.363 265.605 867.128 266.464C867.912 267.304 868.304 268.517 868.304 270.104C868.304 271.131 868.155 272.064 867.856 272.904C867.557 273.725 867.175 274.481 866.708 275.172C866.26 275.844 865.765 276.469 865.224 277.048C864.701 277.627 864.207 278.177 863.74 278.7C863.292 279.223 862.919 279.736 862.62 280.24C862.321 280.725 862.172 281.239 862.172 281.78C862.172 281.967 862.181 282.107 862.2 282.2H868.024V285H859.12V282.592C859.12 281.64 859.269 280.8 859.568 280.072C859.867 279.344 860.24 278.681 860.688 278.084C861.155 277.468 861.649 276.899 862.172 276.376C862.695 275.835 863.18 275.265 863.628 274.668C864.095 274.071 864.477 273.417 864.776 272.708C865.075 271.999 865.224 271.168 865.224 270.216ZM873.05 280.492C873.05 281.201 873.19 281.705 873.47 282.004C873.768 282.284 874.16 282.424 874.646 282.424C875.131 282.424 875.514 282.284 875.794 282.004C876.092 281.705 876.242 281.201 876.242 280.492V269.908C876.242 269.199 876.092 268.704 875.794 268.424C875.514 268.125 875.131 267.976 874.646 267.976C874.16 267.976 873.768 268.125 873.47 268.424C873.19 268.704 873.05 269.199 873.05 269.908V280.492ZM869.97 270.104C869.97 268.517 870.371 267.304 871.174 266.464C871.976 265.605 873.134 265.176 874.646 265.176C876.158 265.176 877.315 265.605 878.118 266.464C878.92 267.304 879.322 268.517 879.322 270.104V280.296C879.322 281.883 878.92 283.105 878.118 283.964C877.315 284.804 876.158 285.224 874.646 285.224C873.134 285.224 871.976 284.804 871.174 283.964C870.371 283.105 869.97 281.883 869.97 280.296V270.104ZM883.227 267.864C883.824 267.864 884.31 267.799 884.683 267.668C885.075 267.537 885.392 267.36 885.635 267.136C885.878 266.912 886.074 266.651 886.223 266.352C886.372 266.053 886.503 265.736 886.615 265.4H888.687V285H885.607V270.048H883.227V267.864ZM901.665 280.296C901.665 281.883 901.254 283.105 900.433 283.964C899.611 284.804 898.417 285.224 896.849 285.224C895.281 285.224 894.086 284.804 893.265 283.964C892.443 283.105 892.033 281.883 892.033 280.296V278.756C892.033 277.804 892.182 276.983 892.481 276.292C892.779 275.583 893.265 275.041 893.937 274.668C892.667 273.977 892.033 272.661 892.033 270.72V270.104C892.033 268.517 892.443 267.304 893.265 266.464C894.086 265.605 895.281 265.176 896.849 265.176C898.417 265.176 899.611 265.605 900.433 266.464C901.254 267.304 901.665 268.517 901.665 270.104V270.72C901.665 272.643 901.03 273.959 899.761 274.668C900.433 275.041 900.918 275.583 901.217 276.292C901.515 276.983 901.665 277.804 901.665 278.756V280.296ZM895.113 280.212C895.113 281.089 895.281 281.677 895.617 281.976C895.953 282.275 896.363 282.424 896.849 282.424C897.334 282.424 897.735 282.275 898.053 281.976C898.389 281.677 898.566 281.089 898.585 280.212V278.392C898.585 277.608 898.426 277.048 898.109 276.712C897.81 276.357 897.39 276.18 896.849 276.18C896.307 276.18 895.878 276.357 895.561 276.712C895.262 277.048 895.113 277.608 895.113 278.392V280.212ZM895.113 271.308C895.113 272.092 895.271 272.633 895.589 272.932C895.925 273.231 896.345 273.38 896.849 273.38C897.334 273.38 897.745 273.231 898.081 272.932C898.417 272.633 898.585 272.092 898.585 271.308V270.216C898.585 269.339 898.417 268.751 898.081 268.452C897.745 268.135 897.334 267.976 896.849 267.976C896.363 267.976 895.953 268.135 895.617 268.452C895.281 268.751 895.113 269.339 895.113 270.216V271.308Z"
        fill="#E8473A" />
    <path class="year-num"
        d="M405.224 136.216C405.224 135.339 405.075 134.751 404.776 134.452C404.496 134.135 404.113 133.976 403.628 133.976C403.143 133.976 402.751 134.125 402.452 134.424C402.172 134.704 402.032 135.199 402.032 135.908V138.008H399.12V136.104C399.12 134.517 399.503 133.304 400.268 132.464C401.052 131.605 402.2 131.176 403.712 131.176C405.224 131.176 406.363 131.605 407.128 132.464C407.912 133.304 408.304 134.517 408.304 136.104C408.304 137.131 408.155 138.064 407.856 138.904C407.557 139.725 407.175 140.481 406.708 141.172C406.26 141.844 405.765 142.469 405.224 143.048C404.701 143.627 404.207 144.177 403.74 144.7C403.292 145.223 402.919 145.736 402.62 146.24C402.321 146.725 402.172 147.239 402.172 147.78C402.172 147.967 402.181 148.107 402.2 148.2H408.024V151H399.12V148.592C399.12 147.64 399.269 146.8 399.568 146.072C399.867 145.344 400.24 144.681 400.688 144.084C401.155 143.468 401.649 142.899 402.172 142.376C402.695 141.835 403.18 141.265 403.628 140.668C404.095 140.071 404.477 139.417 404.776 138.708C405.075 137.999 405.224 137.168 405.224 136.216ZM413.05 146.492C413.05 147.201 413.19 147.705 413.47 148.004C413.768 148.284 414.16 148.424 414.646 148.424C415.131 148.424 415.514 148.284 415.794 148.004C416.092 147.705 416.242 147.201 416.242 146.492V135.908C416.242 135.199 416.092 134.704 415.794 134.424C415.514 134.125 415.131 133.976 414.646 133.976C414.16 133.976 413.768 134.125 413.47 134.424C413.19 134.704 413.05 135.199 413.05 135.908V146.492ZM409.97 136.104C409.97 134.517 410.371 133.304 411.174 132.464C411.976 131.605 413.134 131.176 414.646 131.176C416.158 131.176 417.315 131.605 418.118 132.464C418.92 133.304 419.322 134.517 419.322 136.104V146.296C419.322 147.883 418.92 149.105 418.118 149.964C417.315 150.804 416.158 151.224 414.646 151.224C413.134 151.224 411.976 150.804 411.174 149.964C410.371 149.105 409.97 147.883 409.97 146.296V136.104ZM423.227 133.864C423.824 133.864 424.31 133.799 424.683 133.668C425.075 133.537 425.392 133.36 425.635 133.136C425.878 132.912 426.074 132.651 426.223 132.352C426.372 132.053 426.503 131.736 426.615 131.4H428.687V151H425.607V136.048H423.227V133.864ZM441.469 146.128C441.469 147.789 441.086 149.059 440.321 149.936C439.555 150.795 438.37 151.224 436.765 151.224C435.253 151.224 434.105 150.804 433.321 149.964C432.555 149.105 432.173 147.883 432.173 146.296V145.792H435.085V146.492C435.085 147.201 435.225 147.705 435.505 148.004C435.803 148.284 436.195 148.424 436.681 148.424C437.222 148.424 437.642 148.256 437.941 147.92C438.239 147.584 438.389 146.949 438.389 146.016V142.432C437.847 143.589 436.895 144.168 435.533 144.168C434.394 144.168 433.535 143.785 432.957 143.02C432.397 142.255 432.117 141.144 432.117 139.688V136.104C432.117 134.517 432.518 133.304 433.321 132.464C434.123 131.605 435.281 131.176 436.793 131.176C438.305 131.176 439.462 131.605 440.265 132.464C441.067 133.304 441.469 134.517 441.469 136.104V146.128ZM436.793 141.368C437.278 141.368 437.661 141.228 437.941 140.948C438.239 140.649 438.389 140.145 438.389 139.436V135.908C438.389 135.199 438.239 134.704 437.941 134.424C437.661 134.144 437.278 134.004 436.793 134.004C436.307 134.004 435.915 134.144 435.617 134.424C435.337 134.704 435.197 135.199 435.197 135.908V139.436C435.197 140.145 435.337 140.649 435.617 140.948C435.915 141.228 436.307 141.368 436.793 141.368Z"
        fill="#E8473A" />
    <path class="year-num"
        d="M661.779 43.1728C661.779 42.4709 661.66 42.0005 661.421 41.7616C661.197 41.5077 660.891 41.3808 660.502 41.3808C660.114 41.3808 659.801 41.5003 659.562 41.7392C659.338 41.9632 659.226 42.3589 659.226 42.9264V44.6064H656.896V43.0832C656.896 41.8139 657.202 40.8432 657.814 40.1712C658.442 39.4843 659.36 39.1408 660.57 39.1408C661.779 39.1408 662.69 39.4843 663.302 40.1712C663.93 40.8432 664.243 41.8139 664.243 43.0832C664.243 43.9045 664.124 44.6512 663.885 45.3232C663.646 45.9803 663.34 46.5851 662.966 47.1376C662.608 47.6752 662.212 48.1755 661.779 48.6384C661.361 49.1013 660.965 49.5419 660.592 49.96C660.234 50.3781 659.935 50.7888 659.696 51.192C659.457 51.5803 659.338 51.9909 659.338 52.424C659.338 52.5733 659.345 52.6853 659.36 52.76H664.019V55H656.896V53.0736C656.896 52.312 657.015 51.64 657.254 51.0576C657.493 50.4752 657.792 49.9451 658.15 49.4672C658.524 48.9744 658.919 48.5189 659.338 48.1008C659.756 47.6677 660.144 47.2123 660.502 46.7344C660.876 46.2565 661.182 45.7339 661.421 45.1664C661.66 44.5989 661.779 43.9344 661.779 43.1728ZM668.04 51.3936C668.04 51.9611 668.152 52.3643 668.376 52.6032C668.615 52.8272 668.928 52.9392 669.316 52.9392C669.705 52.9392 670.011 52.8272 670.235 52.6032C670.474 52.3643 670.593 51.9611 670.593 51.3936V42.9264C670.593 42.3589 670.474 41.9632 670.235 41.7392C670.011 41.5003 669.705 41.3808 669.316 41.3808C668.928 41.3808 668.615 41.5003 668.376 41.7392C668.152 41.9632 668.04 42.3589 668.04 42.9264V51.3936ZM665.576 43.0832C665.576 41.8139 665.897 40.8432 666.539 40.1712C667.181 39.4843 668.107 39.1408 669.316 39.1408C670.526 39.1408 671.452 39.4843 672.094 40.1712C672.736 40.8432 673.057 41.8139 673.057 43.0832V51.2368C673.057 52.5061 672.736 53.4843 672.094 54.1712C671.452 54.8432 670.526 55.1792 669.316 55.1792C668.107 55.1792 667.181 54.8432 666.539 54.1712C665.897 53.4843 665.576 52.5061 665.576 51.2368V43.0832ZM679.542 43.1728C679.542 42.4709 679.422 42.0005 679.183 41.7616C678.959 41.5077 678.653 41.3808 678.265 41.3808C677.877 41.3808 677.563 41.5003 677.324 41.7392C677.1 41.9632 676.988 42.3589 676.988 42.9264V44.6064H674.658V43.0832C674.658 41.8139 674.965 40.8432 675.577 40.1712C676.204 39.4843 677.122 39.1408 678.332 39.1408C679.542 39.1408 680.453 39.4843 681.065 40.1712C681.692 40.8432 682.006 41.8139 682.006 43.0832C682.006 43.9045 681.886 44.6512 681.647 45.3232C681.408 45.9803 681.102 46.5851 680.729 47.1376C680.37 47.6752 679.975 48.1755 679.542 48.6384C679.124 49.1013 678.728 49.5419 678.354 49.96C677.996 50.3781 677.697 50.7888 677.458 51.192C677.22 51.5803 677.1 51.9909 677.1 52.424C677.1 52.5733 677.108 52.6853 677.122 52.76H681.782V55H674.658V53.0736C674.658 52.312 674.778 51.64 675.017 51.0576C675.256 50.4752 675.554 49.9451 675.913 49.4672C676.286 48.9744 676.682 48.5189 677.1 48.1008C677.518 47.6677 677.906 47.2123 678.265 46.7344C678.638 46.2565 678.944 45.7339 679.183 45.1664C679.422 44.5989 679.542 43.9344 679.542 43.1728ZM685.802 51.3936C685.802 51.9611 685.914 52.3643 686.138 52.6032C686.377 52.8272 686.691 52.9392 687.079 52.9392C687.467 52.9392 687.773 52.8272 687.997 52.6032C688.236 52.3643 688.356 51.9611 688.356 51.3936V42.9264C688.356 42.3589 688.236 41.9632 687.997 41.7392C687.773 41.5003 687.467 41.3808 687.079 41.3808C686.691 41.3808 686.377 41.5003 686.138 41.7392C685.914 41.9632 685.802 42.3589 685.802 42.9264V51.3936ZM683.338 43.0832C683.338 41.8139 683.659 40.8432 684.301 40.1712C684.943 39.4843 685.869 39.1408 687.079 39.1408C688.289 39.1408 689.214 39.4843 689.857 40.1712C690.499 40.8432 690.82 41.8139 690.82 43.0832V51.2368C690.82 52.5061 690.499 53.4843 689.857 54.1712C689.214 54.8432 688.289 55.1792 687.079 55.1792C685.869 55.1792 684.943 54.8432 684.301 54.1712C683.659 53.4843 683.338 52.5061 683.338 51.2368V43.0832ZM695.787 46.04H700.267V48.28H695.787V46.04ZM661.779 67.1728C661.779 66.4709 661.66 66.0005 661.421 65.7616C661.197 65.5077 660.891 65.3808 660.502 65.3808C660.114 65.3808 659.801 65.5003 659.562 65.7392C659.338 65.9632 659.226 66.3589 659.226 66.9264V68.6064H656.896V67.0832C656.896 65.8139 657.202 64.8432 657.814 64.1712C658.442 63.4843 659.36 63.1408 660.57 63.1408C661.779 63.1408 662.69 63.4843 663.302 64.1712C663.93 64.8432 664.243 65.8139 664.243 67.0832C664.243 67.9045 664.124 68.6512 663.885 69.3232C663.646 69.9803 663.34 70.5851 662.966 71.1376C662.608 71.6752 662.212 72.1755 661.779 72.6384C661.361 73.1013 660.965 73.5419 660.592 73.96C660.234 74.3781 659.935 74.7888 659.696 75.192C659.457 75.5803 659.338 75.9909 659.338 76.424C659.338 76.5733 659.345 76.6853 659.36 76.76H664.019V79H656.896V77.0736C656.896 76.312 657.015 75.64 657.254 75.0576C657.493 74.4752 657.792 73.9451 658.15 73.4672C658.524 72.9744 658.919 72.5189 659.338 72.1008C659.756 71.6677 660.144 71.2123 660.502 70.7344C660.876 70.2565 661.182 69.7339 661.421 69.1664C661.66 68.5989 661.779 67.9344 661.779 67.1728ZM668.04 75.3936C668.04 75.9611 668.152 76.3643 668.376 76.6032C668.615 76.8272 668.928 76.9392 669.316 76.9392C669.705 76.9392 670.011 76.8272 670.235 76.6032C670.474 76.3643 670.593 75.9611 670.593 75.3936V66.9264C670.593 66.3589 670.474 65.9632 670.235 65.7392C670.011 65.5003 669.705 65.3808 669.316 65.3808C668.928 65.3808 668.615 65.5003 668.376 65.7392C668.152 65.9632 668.04 66.3589 668.04 66.9264V75.3936ZM665.576 67.0832C665.576 65.8139 665.897 64.8432 666.539 64.1712C667.181 63.4843 668.107 63.1408 669.316 63.1408C670.526 63.1408 671.452 63.4843 672.094 64.1712C672.736 64.8432 673.057 65.8139 673.057 67.0832V75.2368C673.057 76.5061 672.736 77.4843 672.094 78.1712C671.452 78.8432 670.526 79.1792 669.316 79.1792C668.107 79.1792 667.181 78.8432 666.539 78.1712C665.897 77.4843 665.576 76.5061 665.576 75.2368V67.0832ZM679.542 67.1728C679.542 66.4709 679.422 66.0005 679.183 65.7616C678.959 65.5077 678.653 65.3808 678.265 65.3808C677.877 65.3808 677.563 65.5003 677.324 65.7392C677.1 65.9632 676.988 66.3589 676.988 66.9264V68.6064H674.658V67.0832C674.658 65.8139 674.965 64.8432 675.577 64.1712C676.204 63.4843 677.122 63.1408 678.332 63.1408C679.542 63.1408 680.453 63.4843 681.065 64.1712C681.692 64.8432 682.006 65.8139 682.006 67.0832C682.006 67.9045 681.886 68.6512 681.647 69.3232C681.408 69.9803 681.102 70.5851 680.729 71.1376C680.37 71.6752 679.975 72.1755 679.542 72.6384C679.124 73.1013 678.728 73.5419 678.354 73.96C677.996 74.3781 677.697 74.7888 677.458 75.192C677.22 75.5803 677.1 75.9909 677.1 76.424C677.1 76.5733 677.108 76.6853 677.122 76.76H681.782V79H674.658V77.0736C674.658 76.312 674.778 75.64 675.017 75.0576C675.256 74.4752 675.554 73.9451 675.913 73.4672C676.286 72.9744 676.682 72.5189 677.1 72.1008C677.518 71.6677 677.906 71.2123 678.265 70.7344C678.638 70.2565 678.944 69.7339 679.183 69.1664C679.422 68.5989 679.542 67.9344 679.542 67.1728ZM688.423 67.1728C688.423 66.4709 688.303 66.0005 688.065 65.7616C687.841 65.5077 687.534 65.3808 687.146 65.3808C686.758 65.3808 686.444 65.5003 686.205 65.7392C685.981 65.9632 685.869 66.3589 685.869 66.9264V68.6064H683.54V67.0832C683.54 65.8139 683.846 64.8432 684.458 64.1712C685.085 63.4843 686.004 63.1408 687.213 63.1408C688.423 63.1408 689.334 63.4843 689.946 64.1712C690.573 64.8432 690.887 65.8139 690.887 67.0832C690.887 67.9045 690.767 68.6512 690.529 69.3232C690.29 69.9803 689.983 70.5851 689.61 71.1376C689.252 71.6752 688.856 72.1755 688.423 72.6384C688.005 73.1013 687.609 73.5419 687.236 73.96C686.877 74.3781 686.579 74.7888 686.34 75.192C686.101 75.5803 685.981 75.9909 685.981 76.424C685.981 76.5733 685.989 76.6853 686.004 76.76H690.663V79H683.54V77.0736C683.54 76.312 683.659 75.64 683.898 75.0576C684.137 74.4752 684.436 73.9451 684.794 73.4672C685.167 72.9744 685.563 72.5189 685.981 72.1008C686.399 71.6677 686.788 71.2123 687.146 70.7344C687.519 70.2565 687.826 69.7339 688.065 69.1664C688.303 68.5989 688.423 67.9344 688.423 67.1728Z"
        fill="#E8473A" />


    <style>
        .line-top,
        .line-shadow {
        animation-name: step-1;
        animation-duration: 2s;
        animation-iteration-count: forward;
        }

        @keyframes step-1 {
        0% {
        opacity: 0;
        transform: translateX(-100%)
        }

        100% {
        opacity: 1;
        }
        }

        .line-base,
        .circle {
        fill: none;
        stroke: none;
        animation-name: step-2;
        animation-delay: 1s;
        animation-duration: 2s;
        animation-iteration-count: 1;
        animation-fill-mode: forwards;
        }

        @keyframes step-2 {
        0% {
        opacity: 0;
        }

        100% {
        opacity: 1;
        fill: #999999;
        stroke: #999999;
        }
        }

        .year path,
        .year-num {
        opacity: 0;
        visability: hidden;
        animation-name: step-3;
        animation-delay: 2s;
        animation-duration: 1s;
        animation-iteration-count: 1;
        animation-fill-mode: forwards;
        }

        @keyframes step-3 {
        0% {
        opacity: 0;
        visability: hidden;
        }

        100% {
        opacity: 1;
        visability: visible;
        }
        }
        .year path.red {
        fill: #d2d2d2; /* init color */
        transition: fill 0.3s;
        }

        .year path.red.animated {
        fill: #e8473a; /* final color */
        }
    </style>
    <script>
        const yearBlocks = document.querySelectorAll('.year');

        yearBlocks.forEach((yearBlock) => {
        setTimeout(() => {
        const yearPaths = yearBlock.querySelectorAll('path.red');
        yearPaths.forEach((path, index) => {
        setTimeout(() => {
        path.classList.add('animated');
        }, (yearPaths.length - 1 - index) * 300); // 300ms delay between each animation
        });
        }, 2000); // 2 second delay before animation starts
        });
        
    </script>
</svg>