<svg fill="none" height="792" viewBox="0 0 953 792" width="953" xmlns="http://www.w3.org/2000/svg">
    <path class="line-shadow"
        d="m-19.9146 791.766c-2.1107 0-4.0687-1.323-4.8062-3.408-.9154-2.645.4578-5.544 3.1278-6.484l917.722-321.097-501.163-160.002c-2.06-.661-3.484-2.568-3.535-4.73-.051-2.161 1.297-4.12 3.332-4.882l277.078-101.921c2.645-.967 5.569.381 6.536 3.026.966 2.644-.382 5.569-3.026 6.535l-263.169 96.81 501.544 160.129c2.085.661 3.509 2.593 3.534 4.78.026 2.187-1.347 4.145-3.407 4.883l-932.0893 326.056c-.5594.203-1.1189.279-1.6783.279z"
        fill="#d2d2d2" opacity=".42" />
    <path class="line-top"
        d="m-19.4312 760.919c-2.1107 0-4.0687-1.322-4.8062-3.407-.9154-2.645.4578-5.544 3.1278-6.485l917.7216-321.097-501.163-160.001c-2.059-.661-3.483-2.569-3.534-4.73-.051-2.162 1.297-4.12 3.331-4.883l277.079-101.921c2.644-.966 5.569.382 6.535 3.026.966 2.645-.381 5.569-3.026 6.536l-263.169 96.809 501.544 160.129c2.085.662 3.509 2.594 3.535 4.781.025 2.187-1.348 4.145-3.408 4.883l-932.0889 326.081c-.5594.203-1.1189.279-1.6783.279z"
        fill="#999" />
    <path class="line-base" d="m186.547 585.101v96.632" stroke="#999" stroke-miterlimit="10"
        stroke-width="2.54294" />
    <path class="line-base" d="m439.29 498.183v96.632" stroke="#999" stroke-miterlimit="10"
        stroke-width="2.54294" />
    <path class="line-base" d="m881.685 333.299v90.961" stroke="#999" stroke-miterlimit="10"
        stroke-width="2.54294" />
    <path class="line-base" d="m420.803 169.203v89.003" stroke="#999" stroke-miterlimit="10"
        stroke-width="2.54294" />
    <g class="year">
        <path
            d="m252.02 568.34c37.191-37.191 37.191-97.489 0-134.68s-97.489-37.191-134.68 0c-37.1909 37.191-37.1908 97.489 0 134.68 37.191 37.191 97.489 37.191 134.68 0z"
            fill="#fff" />
        <path
            d="m169.841 432.372c1.119 3.407-.763 7.095-4.17 8.188-3.408 1.119-7.095-.763-8.189-4.17-1.119-3.408.763-7.095 4.171-8.189 3.407-1.119 7.095.763 8.188 4.171z"
            fill="#d2d2d2" />
        <path
            d="m149.522 440.433c2.111 2.899 1.475 6.968-1.449 9.078-2.925 2.111-6.968 1.475-9.079-1.449-2.11-2.899-1.475-6.968 1.45-9.078 2.899-2.111 6.967-1.475 9.078 1.449z"
            fill="#d2d2d2" />
        <path
            d="m132.689 454.393c2.899 2.111 3.56 6.18 1.449 9.079-2.11 2.899-6.179 3.56-9.078 1.449-2.899-2.11-3.56-6.179-1.449-9.078 2.11-2.899 6.179-3.56 9.078-1.45z"
            fill="#d2d2d2" />
        <path
            d="m120.99 472.855c3.408 1.119 5.29 4.781 4.171 8.188-1.119 3.408-4.781 5.289-8.188 4.171-3.408-1.119-5.29-4.781-4.171-8.189 1.119-3.407 4.781-5.289 8.188-4.17z"
            fill="#d2d2d2" />
        <path
            d="m115.574 494.038c3.586 0 6.51 2.924 6.51 6.51s-2.924 6.51-6.51 6.51c-3.585 0-6.51-2.924-6.51-6.51s2.925-6.51 6.51-6.51z"
            fill="#d2d2d2" />
        <path
            d="m116.973 515.831c3.407-1.119 7.094.763 8.188 4.17 1.119 3.408-.763 7.095-4.171 8.189-3.407 1.093-7.094-.763-8.188-4.171-1.119-3.407.763-7.095 4.171-8.188z"
            fill="#d2d2d2" />
        <path
            d="m125.034 536.149c2.899-2.111 6.967-1.475 9.078 1.45 2.111 2.899 1.475 6.967-1.45 9.078-2.898 2.111-6.967 1.475-9.078-1.45-2.11-2.899-1.475-6.967 1.45-9.078z"
            fill="#d2d2d2" />
        <path
            d="m138.995 552.983c2.111-2.899 6.179-3.56 9.078-1.449 2.899 2.11 3.56 6.179 1.45 9.078-2.111 2.899-6.18 3.56-9.079 1.449-2.899-2.11-3.56-6.179-1.449-9.078z"
            fill="#d2d2d2" />
        <path
            d="m157.456 564.681c1.119-3.408 4.781-5.29 8.189-4.171 3.407 1.119 5.289 4.781 4.17 8.188-1.119 3.408-4.781 5.29-8.188 4.171-3.408-1.119-5.289-4.781-4.171-8.188z"
            fill="#d2d2d2" />
        <path
            d="m178.639 570.097c0-3.585 2.924-6.51 6.51-6.51 3.585 0 6.51 2.925 6.51 6.51 0 3.586-2.925 6.51-6.51 6.51-3.586 0-6.51-2.924-6.51-6.51z"
            fill="#d2d2d2" />
        <path
            d="m200.432 568.699c-1.119-3.408.762-7.095 4.17-8.189 3.408-1.093 7.095.763 8.188 4.171 1.119 3.407-.763 7.095-4.17 8.188-3.408 1.119-7.095-.763-8.188-4.17z"
            fill="#d2d2d2" />
        <path class="red"
            d="m220.75 560.638c-2.111-2.899-1.475-6.968 1.449-9.078 2.899-2.111 6.968-1.475 9.078 1.449 2.111 2.899 1.475 6.968-1.449 9.078-2.899 2.111-6.968 1.475-9.078-1.449z"
            fill="#e8473a" />
        <path class="red"
            d="m237.585 546.677c-2.899-2.111-3.56-6.18-1.449-9.079 2.11-2.899 6.179-3.56 9.078-1.449 2.899 2.11 3.56 6.179 1.449 9.078-2.11 2.899-6.179 3.56-9.078 1.45z"
            fill="#e8473a" />
        <path class="red"
            d="m249.282 528.215c-3.407-1.119-5.289-4.78-4.17-8.188s4.78-5.289 8.188-4.17 5.289 4.78 4.17 8.188c-1.118 3.407-4.78 5.289-8.188 4.17z"
            fill="#e8473a" />
        <path class="red"
            d="m254.698 507.033c-3.585 0-6.51-2.925-6.51-6.51 0-3.586 2.925-6.51 6.51-6.51 3.586 0 6.51 2.924 6.51 6.51 0 3.585-2.924 6.51-6.51 6.51z"
            fill="#e8473a" />
        <path class="red"
            d="m253.3 485.214c-3.408 1.118-7.095-.763-8.188-4.171-1.119-3.407.763-7.095 4.17-8.188 3.408-1.119 7.095.763 8.188 4.17 1.094 3.408-.762 7.095-4.17 8.189z"
            fill="#e8473a" />
        <path class="red"
            d="m245.238 464.921c-2.899 2.111-6.967 1.475-9.078-1.449-2.111-2.899-1.475-6.968 1.449-9.079 2.899-2.11 6.968-1.475 9.079 1.45 2.11 2.899 1.475 6.967-1.45 9.078z"
            fill="#e8473a" />
        <path class="red"
            d="m231.278 448.087c-2.111 2.899-6.18 3.56-9.079 1.449-2.899-2.11-3.56-6.179-1.449-9.078 2.11-2.899 6.179-3.56 9.078-1.449 2.899 2.11 3.56 6.179 1.45 9.078z"
            fill="#e8473a" />
        <path class="red"
            d="m212.817 436.39c-1.119 3.407-4.781 5.289-8.189 4.17-3.407-1.119-5.289-4.781-4.17-8.188 1.119-3.408 4.781-5.29 8.188-4.171 3.408 1.119 5.29 4.781 4.171 8.189z"
            fill="#e8473a" />
        <path class="red"
            d="m191.634 430.973c0 3.586-2.925 6.51-6.51 6.51-3.586 0-6.51-2.924-6.51-6.51 0-3.585 2.924-6.51 6.51-6.51 3.585 0 6.51 2.925 6.51 6.51z"
            fill="#e8473a" />
    </g>
    <g class="year">
        <path
            d="m491.944 491.648c31.838-31.838 31.838-83.458 0-115.296s-83.458-31.838-115.296 0-31.838 83.458 0 115.296 83.458 31.838 115.296 0z"
            fill="#fff" />
        <path
            d="m421.005 376.046c.941 2.924-.661 6.077-3.585 7.018-2.925.941-6.078-.661-7.019-3.585-.941-2.925.661-6.078 3.586-7.019 2.924-.941 6.077.661 7.018 3.586z"
            fill="#d2d2d2" />
        <path
            d="m403.638 382.937c1.806 2.492 1.246 5.976-1.22 7.782-2.492 1.805-5.976 1.246-7.782-1.221-1.805-2.467-1.246-5.976 1.221-7.781 2.492-1.806 5.976-1.247 7.781 1.22z"
            fill="#d2d2d2" />
        <path
            d="m389.22 394.889c2.492 1.806 3.051 5.289 1.22 7.781-1.805 2.493-5.289 3.052-7.781 1.221-2.492-1.805-3.051-5.289-1.221-7.781 1.806-2.492 5.29-3.052 7.782-1.221z"
            fill="#d2d2d2" />
        <path
            d="m379.225 410.681c2.924.94 4.526 4.094 3.585 7.018-.94 2.924-4.094 4.527-7.018 3.586s-4.526-4.095-3.586-7.019c.941-2.924 4.095-4.526 7.019-3.585z"
            fill="#d2d2d2" />
        <path
            d="m374.572 428.812c3.077 0 5.569 2.492 5.569 5.569s-2.492 5.569-5.569 5.569-5.569-2.492-5.569-5.569 2.492-5.569 5.569-5.569z"
            fill="#d2d2d2" />
        <path
            d="m375.767 447.477c2.924-.941 6.078.661 7.019 3.585.94 2.925-.662 6.078-3.586 7.019s-6.078-.661-7.019-3.586c-.94-2.924.662-6.077 3.586-7.018z"
            fill="#d2d2d2" />
        <path
            d="m382.684 464.871c2.492-1.806 5.976-1.246 7.782 1.22 1.805 2.492 1.246 5.976-1.221 7.782-2.492 1.805-5.976 1.246-7.781-1.221-1.806-2.492-1.246-5.976 1.22-7.781z"
            fill="#d2d2d2" />
        <path
            d="m394.61 479.289c1.805-2.492 5.289-3.051 7.781-1.22 2.492 1.83 3.052 5.289 1.221 7.781-1.806 2.492-5.289 3.051-7.782 1.221-2.492-1.806-3.051-5.29-1.22-7.782z"
            fill="#d2d2d2" />
        <path
            d="m410.428 489.283c.94-2.925 4.094-4.527 7.018-3.586 2.925.941 4.527 4.094 3.586 7.019-.941 2.924-4.094 4.526-7.019 3.585-2.924-.941-4.526-4.094-3.585-7.018z"
            fill="#d2d2d2" />
        <path
            d="m434.128 499.48c3.075 0 5.569-2.493 5.569-5.569s-2.494-5.569-5.569-5.569c-3.076 0-5.569 2.493-5.569 5.569s2.493 5.569 5.569 5.569z"
            fill="#d2d2d2" />
        <path
            d="m447.223 492.716c-.941-2.925.661-6.078 3.586-7.019 2.924-.941 6.077.661 7.018 3.586.941 2.924-.661 6.077-3.585 7.018-2.925.941-6.078-.661-7.019-3.585z"
            fill="#d2d2d2" />
        <path
            d="m464.617 485.824c-1.806-2.492-1.246-5.976 1.221-7.781 2.492-1.806 5.975-1.246 7.781 1.22 1.805 2.492 1.246 5.976-1.221 7.782-2.492 1.805-5.976 1.246-7.781-1.221z"
            fill="#d2d2d2" />
        <path
            d="m479.01 473.873c-2.492-1.806-3.051-5.289-1.221-7.782 1.806-2.492 5.29-3.051 7.782-1.22 2.492 1.805 3.051 5.289 1.22 7.781-1.805 2.492-5.289 3.052-7.781 1.221z"
            fill="#d2d2d2" />
        <path class="red"
            d="m489.03 458.081c-2.925-.941-4.527-4.094-3.586-7.019.941-2.924 4.094-4.526 7.019-3.585 2.924.941 4.526 4.094 3.585 7.018-.941 2.925-4.094 4.527-7.018 3.586z"
            fill="#e8473a" />
        <path class="red"
            d="m493.658 439.95c-3.077 0-5.569-2.492-5.569-5.569s2.492-5.569 5.569-5.569 5.569 2.492 5.569 5.569-2.492 5.569-5.569 5.569z"
            fill="#e8473a" />
        <path class="red"
            d="m492.463 421.285c-2.925.941-6.078-.662-7.019-3.586s.661-6.078 3.586-7.018c2.924-.941 6.077.661 7.018 3.585s-.661 6.078-3.585 7.019z"
            fill="#e8473a" />
        <path class="red"
            d="m485.571 403.891c-2.492 1.805-5.976 1.246-7.781-1.221-1.806-2.492-1.246-5.976 1.22-7.781 2.492-1.806 5.976-1.246 7.782 1.22 1.805 2.492 1.246 5.976-1.221 7.782z"
            fill="#e8473a" />
        <path class="red"
            d="m473.62 389.498c-1.806 2.492-5.29 3.051-7.782 1.22-2.492-1.805-3.051-5.289-1.22-7.781 1.805-2.492 5.289-3.052 7.781-1.221 2.492 1.806 3.052 5.29 1.221 7.782z"
            fill="#e8473a" />
        <path class="red"
            d="m457.802 379.479c-.941 2.924-4.094 4.526-7.018 3.585-2.925-.941-4.527-4.094-3.586-7.018.941-2.925 4.094-4.527 7.019-3.586 2.924.941 4.526 4.094 3.585 7.019z"
            fill="#e8473a" />
        <path class="red"
            d="m439.697 374.851c0 3.076-2.492 5.569-5.569 5.569s-5.569-2.493-5.569-5.569c0-3.077 2.492-5.57 5.569-5.57s5.569 2.493 5.569 5.57z"
            fill="#e8473a" />
    </g>
    <g class="year">
        <path
            d="m942.273 285.142c5.463-33.915-17.602-65.837-51.518-71.3-33.915-5.462-65.837 17.603-71.299 51.518-5.463 33.915 17.602 65.837 51.517 71.3s65.837-17.602 71.3-51.518z"
            fill="#fff" />
        <path
            d="m870.853 230.717c.738 2.238-.508 4.628-2.721 5.365-2.237.738-4.628-.508-5.34-2.721-.712-2.212.483-4.628 2.721-5.34 2.238-.737 4.628.483 5.34 2.721z"
            fill="#d2d2d2" />
        <path
            d="m857.579 235.98c1.373 1.907.966 4.552-.941 5.925s-4.552.967-5.925-.941c-1.373-1.907-.967-4.551.941-5.925 1.907-1.373 4.551-.966 5.925.941z"
            fill="#d2d2d2" />
        <path
            d="m846.593 245.084c1.908 1.373 2.314 4.043.941 5.925-1.373 1.907-4.043 2.314-5.925.941s-2.314-4.043-.941-5.925c1.374-1.882 4.044-2.314 5.925-.941z"
            fill="#d2d2d2" />
        <path
            d="m838.938 257.138c2.238.737 3.458 3.128 2.721 5.366-.737 2.237-3.128 3.458-5.366 2.721-2.237-.738-3.458-3.128-2.721-5.341.738-2.212 3.128-3.458 5.366-2.721z"
            fill="#d2d2d2" />
        <path
            d="m835.404 270.971c2.339 0 4.247 1.907 4.247 4.247 0 2.339-1.908 4.246-4.247 4.246-2.34 0-4.247-1.907-4.247-4.246 0-2.34 1.907-4.247 4.247-4.247z"
            fill="#d2d2d2" />
        <path
            d="m836.319 285.212c2.238-.738 4.629.483 5.366 2.721.712 2.238-.509 4.628-2.721 5.365-2.238.738-4.628-.508-5.366-2.72-.737-2.213.509-4.629 2.721-5.341z"
            fill="#d2d2d2" />
        <path
            d="m841.584 298.486c1.907-1.374 4.552-.967 5.925.941 1.373 1.907.967 4.551-.941 5.925-1.907 1.373-4.551.966-5.925-.941-1.373-1.907-.966-4.552.941-5.925z"
            fill="#d2d2d2" />
        <path
            d="m850.713 309.472c1.373-1.908 4.044-2.314 5.925-.941 1.882 1.373 2.314 4.043.941 5.925-1.373 1.907-4.043 2.314-5.925.941s-2.314-4.044-.941-5.925z"
            fill="#d2d2d2" />
        <path
            d="m862.766 317.1c.737-2.237 3.128-3.458 5.34-2.721 2.212.738 3.458 3.128 2.721 5.341-.737 2.212-3.128 3.458-5.34 2.721-2.238-.738-3.459-3.128-2.721-5.341z"
            fill="#d2d2d2" />
        <path class="red"
            d="m876.6 320.635c0-2.34 1.907-4.247 4.246-4.247 2.34 0 4.247 1.907 4.247 4.247 0 2.339-1.907 4.247-4.247 4.247-2.339 0-4.246-1.908-4.246-4.247z"
            fill="#e8473a" />
        <path class="red"
            d="m890.84 319.719c-.738-2.238.508-4.628 2.721-5.34 2.212-.712 4.628.509 5.34 2.721.737 2.238-.509 4.628-2.721 5.34-2.238.738-4.628-.508-5.366-2.721z"
            fill="#e8473a" />
        <path class="red"
            d="m904.089 314.456c-1.374-1.907-.967-4.552.941-5.925 1.907-1.373 4.551-.967 5.925.941 1.373 1.907.966 4.552-.941 5.925s-4.552.966-5.925-.941z"
            fill="#e8473a" />
        <path class="red"
            d="m915.074 305.352c-1.907-1.374-2.314-4.044-.94-5.925 1.373-1.908 4.043-2.315 5.925-.941 1.881 1.373 2.314 4.043.941 5.925-1.374 1.907-4.044 2.314-5.926.941z"
            fill="#e8473a" />
        <path class="red"
            d="m922.729 293.298c-2.238-.737-3.458-3.127-2.721-5.365s3.128-3.459 5.366-2.721c2.237.737 3.458 3.128 2.721 5.34-.738 2.212-3.128 3.458-5.341 2.721z"
            fill="#e8473a" />
        <path class="red"
            d="m926.263 279.464c-2.339 0-4.246-1.907-4.246-4.246 0-2.34 1.907-4.247 4.246-4.247 2.34 0 4.247 1.907 4.247 4.247 0 2.339-1.907 4.246-4.247 4.246z"
            fill="#e8473a" />
        <path class="red"
            d="m925.348 265.225c-2.238.737-4.628-.509-5.366-2.721-.712-2.238.509-4.629 2.721-5.366 2.238-.737 4.628.509 5.341 2.721.712 2.212-.509 4.628-2.721 5.34z"
            fill="#e8473a" />
        <path class="red"
            d="m920.084 251.95c-1.907 1.373-4.552.966-5.925-.941s-.966-4.552.941-5.925 4.552-.966 5.925.941.966 4.552-.941 5.925z"
            fill="#e8473a" />
        <path class="red"
            d="m910.981 240.964c-1.374 1.908-4.044 2.314-5.926.941-1.881-1.373-2.314-4.043-.94-5.925 1.373-1.907 4.043-2.314 5.925-.941 1.881 1.374 2.314 4.044.941 5.925z"
            fill="#e8473a" />
        <path class="red"
            d="m898.901 233.336c-.737 2.238-3.128 3.458-5.34 2.721-2.238-.737-3.458-3.128-2.721-5.366.738-2.237 3.128-3.458 5.366-2.721 2.237.738 3.458 3.128 2.721 5.341z"
            fill="#e8473a" />
        <path class="red"
            d="m885.093 229.801c0 2.34-1.907 4.247-4.247 4.247-2.339 0-4.246-1.907-4.246-4.247 0-2.339 1.907-4.247 4.246-4.247 2.34 0 4.247 1.908 4.247 4.247z"
            fill="#e8473a" />
    </g>
    <g class="year">
        <path
            d="m421.286 195.421c30.322 0 54.902-24.581 54.902-54.902 0-30.322-24.58-54.9025-54.902-54.9025-30.321 0-54.902 24.5805-54.902 54.9025 0 30.321 24.581 54.902 54.902 54.902z"
            fill="#fff" />
        <path
            d="m412.462 101.23c.636 1.958-.432 4.094-2.416 4.73-1.958.636-4.094-.432-4.73-2.416-.636-1.958.432-4.094 2.416-4.7297 1.958-.6358 4.094.4322 4.73 2.4157z"
            fill="#d2d2d2" />
        <path
            d="m400.765 105.884c1.22 1.678.839 4.018-.839 5.239-1.679 1.22-4.018.839-5.239-.84-1.221-1.678-.839-4.017.839-5.238 1.679-1.221 4.018-.839 5.239.839z"
            fill="#d2d2d2" />
        <path
            d="m391.05 113.919c1.679 1.221 2.035 3.56.839 5.239-1.195 1.678-3.56 2.034-5.238.839-1.678-1.221-2.034-3.56-.839-5.239 1.22-1.678 3.56-2.034 5.238-.839z"
            fill="#d2d2d2" />
        <path
            d="m384.311 124.574c1.958.636 3.052 2.747 2.416 4.73-.636 1.958-2.746 3.052-4.73 2.416-1.983-.636-3.051-2.747-2.416-4.73.636-1.958 2.747-3.052 4.73-2.416z"
            fill="#d2d2d2" />
        <path
            d="m381.209 144.257c2.065 0 3.738-1.674 3.738-3.738 0-2.065-1.673-3.738-3.738-3.738-2.064 0-3.738 1.673-3.738 3.738 0 2.064 1.674 3.738 3.738 3.738z"
            fill="#d2d2d2" />
        <path
            d="m381.997 149.343c1.958-.636 4.094.432 4.73 2.416.636 1.958-.432 4.094-2.416 4.729-1.958.636-4.094-.432-4.73-2.415-.635-1.958.433-4.094 2.416-4.73z"
            fill="#d2d2d2" />
        <path
            d="m386.651 161.041c1.678-1.221 4.018-.84 5.238.839 1.221 1.678.839 4.018-.839 5.238-1.678 1.221-4.018.839-5.238-.839-1.221-1.678-.84-4.018.839-5.238z"
            fill="#d2d2d2" />
        <path class="red"
            d="m394.687 170.754c1.221-1.678 3.56-2.034 5.239-.839 1.678 1.195 2.034 3.56.839 5.238-1.221 1.679-3.56 2.035-5.239.839-1.678-1.22-2.034-3.56-.839-5.238z"
            fill="#e8473a" />
        <path class="red"
            d="m405.341 177.493c.636-1.958 2.747-3.051 4.73-2.416 1.984.636 3.052 2.747 2.416 4.73-.636 1.984-2.746 3.052-4.73 2.416-1.958-.636-3.052-2.746-2.416-4.73z"
            fill="#e8473a" />
        <path class="red"
            d="m417.547 180.596c0-2.06 1.679-3.739 3.738-3.739 2.06 0 3.739 1.679 3.739 3.739 0 2.059-1.679 3.738-3.739 3.738-2.059 0-3.738-1.679-3.738-3.738z"
            fill="#e8473a" />
        <path class="red"
            d="m430.11 179.807c-.636-1.958.432-4.094 2.416-4.73 1.958-.636 4.094.432 4.73 2.416.636 1.958-.432 4.094-2.416 4.73-1.958.635-4.094-.433-4.73-2.416z"
            fill="#e8473a" />
        <path class="red"
            d="m441.807 175.154c-1.22-1.679-.839-4.018.839-5.239 1.679-1.22 4.018-.839 5.239.839 1.22 1.679.839 4.018-.839 5.239-1.679 1.221-4.018.839-5.239-.839z"
            fill="#e8473a" />
        <path class="red"
            d="m451.522 167.118c-1.678-1.221-2.034-3.56-.839-5.239 1.22-1.678 3.56-2.034 5.238-.839 1.679 1.221 2.035 3.56.839 5.238-1.22 1.679-3.56 2.035-5.238.84z"
            fill="#e8473a" />
        <path class="red"
            d="m458.259 156.463c-1.958-.636-3.051-2.746-2.415-4.73.635-1.958 2.746-3.051 4.73-2.415 1.958.635 3.051 2.746 2.415 4.729-.635 1.958-2.746 3.052-4.73 2.416z"
            fill="#e8473a" />
        <path class="red"
            d="m461.388 144.257c2.064 0 3.738-1.674 3.738-3.738 0-2.065-1.674-3.738-3.738-3.738-2.065 0-3.739 1.673-3.739 3.738 0 2.064 1.674 3.738 3.739 3.738z"
            fill="#e8473a" />
        <path class="red"
            d="m460.575 131.695c-1.958.636-4.094-.433-4.73-2.416-.636-1.958.432-4.094 2.416-4.73 1.983-.636 4.094.432 4.73 2.416.635 1.958-.433 4.094-2.416 4.73z"
            fill="#e8473a" />
        <path class="red"
            d="m455.921 119.997c-1.678 1.221-4.018.84-5.238-.839-1.221-1.678-.84-4.018.839-5.238 1.678-1.221 4.018-.839 5.238.839 1.221 1.678.839 4.018-.839 5.238z"
            fill="#e8473a" />
        <path class="red"
            d="m447.885 110.283c-1.221 1.678-3.56 2.034-5.238.839-1.679-1.221-2.035-3.56-.84-5.238 1.221-1.679 3.56-2.035 5.239-.84 1.678 1.221 2.034 3.561.839 5.239z"
            fill="#e8473a" />
        <path class="red"
            d="m437.23 103.544c-.636 1.958-2.746 3.052-4.73 2.416-1.958-.636-3.051-2.746-2.416-4.73.636-1.9835 2.747-3.0515 4.73-2.4157 1.958.6357 3.052 2.7467 2.416 4.7297z"
            fill="#e8473a" />
        <path class="red"
            d="m425.049 100.442c0 2.06-1.678 3.738-3.738 3.738-2.059 0-3.738-1.678-3.738-3.738 0-2.0598 1.679-3.7381 3.738-3.7381 2.06 0 3.738 1.6783 3.738 3.7381z"
            fill="#e8473a" />
    </g>
    <path class="line-base" d="m674.257 80.0984v83.9936" stroke="#999" stroke-miterlimit="10"
        stroke-width="2.54294" />
    <g class="year">
        <path
            d="m723.839 66.3942c4.462-27.6749-14.355-53.7275-42.03-58.18999-27.675-4.46252-53.727 14.35489-58.19 42.02979-4.462 27.6748 14.355 53.727 42.03 58.19 27.675 4.462 53.727-14.3549 58.19-42.0298z"
            fill="#fff" />
        <path class="red"
            d="m673.724 24.7132c1.91 0 3.458-1.5484 3.458-3.4584s-1.548-3.4584-3.458-3.4584-3.458 1.5484-3.458 3.4584 1.548 3.4584 3.458 3.4584z"
            fill="#e8473a" />
        <path
            d="m665.587 21.9925c.585 1.8309-.407 3.789-2.238 4.3738-1.831.5849-3.789-.4068-4.374-2.2378-.584-1.8309.407-3.7889 2.238-4.3738s3.789.4069 4.374 2.2378z"
            fill="#d2d2d2" />
        <path
            d="m654.754 26.2897c1.119 1.5512.788 3.7127-.763 4.8316s-3.712.7883-4.831-.7629-.789-3.7127.763-4.8316c1.551-1.1189 3.712-.7883 4.831.7629z"
            fill="#d2d2d2" />
        <path
            d="m645.777 33.715c1.552 1.1189 1.882 3.3059.763 4.8316-1.119 1.5512-3.306 1.8818-4.831.7629-1.552-1.1189-1.882-3.3058-.763-4.8316 1.119-1.5512 3.306-1.8817 4.831-.7629z"
            fill="#d2d2d2" />
        <path
            d="m639.546 43.5562c1.831.5849 2.823 2.5429 2.238 4.3739-.585 1.8309-2.543 2.8226-4.374 2.2378-1.831-.5849-2.823-2.543-2.238-4.3739s2.543-2.8227 4.374-2.2378z"
            fill="#d2d2d2" />
        <g fill="#e8473a">
            <path class="red"
                d="m636.648 54.8472c1.907 0 3.458 1.5512 3.458 3.4584s-1.551 3.4584-3.458 3.4584-3.459-1.5512-3.459-3.4584 1.552-3.4584 3.459-3.4584z" />
            <path class="red"
                d="m637.41 66.4681c1.831-.5849 3.789.4068 4.374 2.2377s-.407 3.789-2.238 4.3739-3.789-.4069-4.374-2.2378.407-3.789 2.238-4.3738z" />
            <path class="red"
                d="m641.709 77.3012c1.551-1.1189 3.712-.7883 4.831.7629s.789 3.7127-.763 4.8316c-1.551 1.1189-3.712.7883-4.831-.7629s-.789-3.7127.763-4.8316z" />
            <path class="red"
                d="m649.133 86.2777c1.119-1.5512 3.306-1.8817 4.832-.7629 1.551 1.1189 1.882 3.3059.763 4.8317-1.119 1.5512-3.306 1.8817-4.832.7628-1.551-1.1188-1.882-3.3058-.763-4.8316z" />
            <path class="red"
                d="m658.975 92.5081c.585-1.8309 2.543-2.8227 4.374-2.2378s2.823 2.543 2.238 4.3739-2.543 2.8226-4.374 2.2377c-1.831-.5848-2.822-2.5429-2.238-4.3738z" />
            <path class="red"
                d="m670.266 95.3813c0-1.9073 1.551-3.4584 3.458-3.4584s3.458 1.5511 3.458 3.4584c0 1.9072-1.551 3.4584-3.458 3.4584s-3.458-1.5512-3.458-3.4584z" />
            <path class="red"
                d="m681.887 94.6442c-.585-1.8309.406-3.789 2.237-4.3739s3.789.4069 4.374 2.2378-.407 3.789-2.238 4.3738c-1.831.5849-3.789-.4068-4.373-2.2377z" />
            <path class="red"
                d="m692.72 90.3465c-1.119-1.5512-.789-3.7128.763-4.8317 1.551-1.1188 3.712-.7883 4.831.7629s.789 3.7128-.763 4.8316c-1.551 1.1189-3.712.7884-4.831-.7628z" />
            <path class="red"
                d="m701.696 82.9214c-1.551-1.1189-1.881-3.3059-.762-4.8316 1.118-1.5512 3.305-1.8818 4.831-.7629 1.551 1.1189 1.882 3.3058.763 4.8316-1.119 1.5512-3.306 1.8818-4.832.7629z" />
            <path class="red"
                d="m707.926 73.0797c-1.831-.5849-2.823-2.543-2.238-4.3739s2.543-2.8226 4.374-2.2377c1.831.5848 2.823 2.5429 2.238 4.3738s-2.543 2.8227-4.374 2.2378z" />
            <path class="red"
                d="m710.8 61.7893c-1.907 0-3.458-1.5512-3.458-3.4584s1.551-3.4583 3.458-3.4583 3.459 1.5511 3.459 3.4583-1.552 3.4584-3.459 3.4584z" />
            <path class="red"
                d="m710.062 50.1679c-1.831.5848-3.789-.4069-4.374-2.2378-.585-1.831.407-3.789 2.238-4.3739s3.789.4069 4.374 2.2378-.407 3.789-2.238 4.3739z" />
            <path class="red"
                d="m705.765 39.3349c-1.551 1.1189-3.713.7883-4.831-.7629-1.119-1.5511-.789-3.7127.762-4.8316 1.552-1.1189 3.713-.7883 4.832.7629s.788 3.7127-.763 4.8316z" />
            <path class="red"
                d="m698.339 30.3584c-1.119 1.5512-3.306 1.8818-4.832.7629-1.551-1.1189-1.881-3.3058-.762-4.8316 1.118-1.5512 3.305-1.8818 4.831-.7629 1.551 1.1189 1.882 3.3058.763 4.8316z" />
            <path class="red"
                d="m688.498 24.1285c-.585 1.831-2.543 2.8227-4.374 2.2378-1.831-.5848-2.822-2.5429-2.237-4.3738.584-1.8309 2.542-2.8227 4.373-2.2378s2.823 2.5429 2.238 4.3738z" />
        </g>
    </g>
    <path class="circle"
        d="m674.105 171.763c4.789 0 8.671-3.882 8.671-8.671s-3.882-8.672-8.671-8.672c-4.79 0-8.672 3.883-8.672 8.672s3.882 8.671 8.672 8.671z"
        fill="#999" />
    <path class="circle"
        d="m429.957 255.739c0 4.781-3.891 8.671-8.671 8.671-4.781 0-8.672-3.89-8.672-8.671s3.891-8.671 8.672-8.671c4.78 0 8.671 3.89 8.671 8.671z"
        fill="#999" />
    <path class="circle"
        d="m889.518 419.021c0 4.781-3.891 8.671-8.672 8.671-4.78 0-8.671-3.89-8.671-8.671s3.891-8.671 8.671-8.671c4.781 0 8.672 3.89 8.672 8.671z"
        fill="#999" />
    <path class="circle"
        d="m447.961 594.815c0 4.781-3.891 8.671-8.671 8.671-4.781 0-8.672-3.89-8.672-8.671s3.891-8.671 8.672-8.671c4.78 0 8.671 3.89 8.671 8.671z"
        fill="#999" />
    <path class="circle"
        d="m195.244 684.072c0 4.781-3.89 8.672-8.671 8.672s-8.672-3.891-8.672-8.672c0-4.78 3.891-8.671 8.672-8.671s8.671 3.891 8.671 8.671z"
        fill="#999" />
    <path class="year-num"
        d="m170.224 496.216c0-.877-.149-1.465-.448-1.764-.28-.317-.663-.476-1.148-.476s-.877.149-1.176.448c-.28.28-.42.775-.42 1.484v2.1h-2.912v-1.904c0-1.587.383-2.8 1.148-3.64.784-.859 1.932-1.288 3.444-1.288s2.651.429 3.416 1.288c.784.84 1.176 2.053 1.176 3.64 0 1.027-.149 1.96-.448 2.8-.299.821-.681 1.577-1.148 2.268-.448.672-.943 1.297-1.484 1.876-.523.579-1.017 1.129-1.484 1.652-.448.523-.821 1.036-1.12 1.54-.299.485-.448.999-.448 1.54 0 .187.009.327.028.42h5.824v2.8h-8.904v-2.408c0-.952.149-1.792.448-2.52s.672-1.391 1.12-1.988c.467-.616.961-1.185 1.484-1.708.523-.541 1.008-1.111 1.456-1.708.467-.597.849-1.251 1.148-1.96s.448-1.54.448-2.492zm7.826 10.276c0 .709.14 1.213.42 1.512.298.28.69.42 1.176.42.485 0 .868-.14 1.148-.42.298-.299.448-.803.448-1.512v-10.584c0-.709-.15-1.204-.448-1.484-.28-.299-.663-.448-1.148-.448-.486 0-.878.149-1.176.448-.28.28-.42.775-.42 1.484zm-3.08-10.388c0-1.587.401-2.8 1.204-3.64.802-.859 1.96-1.288 3.472-1.288s2.669.429 3.472 1.288c.802.84 1.204 2.053 1.204 3.64v10.192c0 1.587-.402 2.809-1.204 3.668-.803.84-1.96 1.26-3.472 1.26s-2.67-.42-3.472-1.26c-.803-.859-1.204-2.081-1.204-3.668zm13.257-2.24c.597 0 1.083-.065 1.456-.196.392-.131.709-.308.952-.532s.439-.485.588-.784.28-.616.392-.952h2.072v19.6h-3.08v-14.952h-2.38zm15.302 2.352c0-.877-.15-1.465-.448-1.764-.28-.317-.663-.476-1.148-.476-.486 0-.878.149-1.176.448-.28.28-.42.775-.42 1.484v2.1h-2.912v-1.904c0-1.587.382-2.8 1.148-3.64.784-.859 1.932-1.288 3.444-1.288s2.65.429 3.416 1.288c.784.84 1.176 2.053 1.176 3.64 0 1.027-.15 1.96-.448 2.8-.299.821-.682 1.577-1.148 2.268-.448.672-.943 1.297-1.484 1.876-.523.579-1.018 1.129-1.484 1.652-.448.523-.822 1.036-1.12 1.54-.299.485-.448.999-.448 1.54 0 .187.009.327.028.42h5.824v2.8h-8.904v-2.408c0-.952.149-1.792.448-2.52.298-.728.672-1.391 1.12-1.988.466-.616.961-1.185 1.484-1.708.522-.541 1.008-1.111 1.456-1.708.466-.597.849-1.251 1.148-1.96.298-.709.448-1.54.448-2.492z"
        fill="#e8473a" />
    <path class="year-num"
        d="m419.224 429.216c0-.877-.149-1.465-.448-1.764-.28-.317-.663-.476-1.148-.476s-.877.149-1.176.448c-.28.28-.42.775-.42 1.484v2.1h-2.912v-1.904c0-1.587.383-2.8 1.148-3.64.784-.859 1.932-1.288 3.444-1.288s2.651.429 3.416 1.288c.784.84 1.176 2.053 1.176 3.64 0 1.027-.149 1.96-.448 2.8-.299.821-.681 1.577-1.148 2.268-.448.672-.943 1.297-1.484 1.876-.523.579-1.017 1.129-1.484 1.652-.448.523-.821 1.036-1.12 1.54-.299.485-.448.999-.448 1.54 0 .187.009.327.028.42h5.824v2.8h-8.904v-2.408c0-.952.149-1.792.448-2.52s.672-1.391 1.12-1.988c.467-.616.961-1.185 1.484-1.708.523-.541 1.008-1.111 1.456-1.708.467-.597.849-1.251 1.148-1.96s.448-1.54.448-2.492zm7.826 10.276c0 .709.14 1.213.42 1.512.298.28.69.42 1.176.42.485 0 .868-.14 1.148-.42.298-.299.448-.803.448-1.512v-10.584c0-.709-.15-1.204-.448-1.484-.28-.299-.663-.448-1.148-.448-.486 0-.878.149-1.176.448-.28.28-.42.775-.42 1.484zm-3.08-10.388c0-1.587.401-2.8 1.204-3.64.802-.859 1.96-1.288 3.472-1.288s2.669.429 3.472 1.288c.802.84 1.204 2.053 1.204 3.64v10.192c0 1.587-.402 2.809-1.204 3.668-.803.84-1.96 1.26-3.472 1.26s-2.67-.42-3.472-1.26c-.803-.859-1.204-2.081-1.204-3.668zm13.257-2.24c.597 0 1.083-.065 1.456-.196.392-.131.709-.308.952-.532s.439-.485.588-.784.28-.616.392-.952h2.072v19.6h-3.08v-14.952h-2.38zm11.97 10.808v1.82c0 .709.14 1.204.42 1.484.298.28.69.42 1.176.42.485 0 .868-.14 1.148-.42.298-.28.448-.775.448-1.484v-4.312c0-.709-.15-1.204-.448-1.484-.28-.299-.663-.448-1.148-.448-.486 0-.878.149-1.176.448-.28.28-.42.775-.42 1.484v.588h-2.912l.56-11.368h8.12v2.8h-5.348l-.252 4.676c.578-.952 1.474-1.428 2.688-1.428 1.138 0 1.988.383 2.548 1.148.578.765.868 1.876.868 3.332v4.368c0 1.587-.392 2.809-1.176 3.668-.766.84-1.904 1.26-3.416 1.26s-2.66-.42-3.444-1.26c-.766-.859-1.148-2.081-1.148-3.668v-1.624z"
        fill="#e8473a" />
    <path class="year-num"
        d="m865.224 270.216c0-.877-.149-1.465-.448-1.764-.28-.317-.663-.476-1.148-.476s-.877.149-1.176.448c-.28.28-.42.775-.42 1.484v2.1h-2.912v-1.904c0-1.587.383-2.8 1.148-3.64.784-.859 1.932-1.288 3.444-1.288s2.651.429 3.416 1.288c.784.84 1.176 2.053 1.176 3.64 0 1.027-.149 1.96-.448 2.8-.299.821-.681 1.577-1.148 2.268-.448.672-.943 1.297-1.484 1.876-.523.579-1.017 1.129-1.484 1.652-.448.523-.821 1.036-1.12 1.54-.299.485-.448.999-.448 1.54 0 .187.009.327.028.42h5.824v2.8h-8.904v-2.408c0-.952.149-1.792.448-2.52s.672-1.391 1.12-1.988c.467-.616.961-1.185 1.484-1.708.523-.541 1.008-1.111 1.456-1.708.467-.597.849-1.251 1.148-1.96s.448-1.54.448-2.492zm7.826 10.276c0 .709.14 1.213.42 1.512.298.28.69.42 1.176.42.485 0 .868-.14 1.148-.42.298-.299.448-.803.448-1.512v-10.584c0-.709-.15-1.204-.448-1.484-.28-.299-.663-.448-1.148-.448-.486 0-.878.149-1.176.448-.28.28-.42.775-.42 1.484zm-3.08-10.388c0-1.587.401-2.8 1.204-3.64.802-.859 1.96-1.288 3.472-1.288s2.669.429 3.472 1.288c.802.84 1.204 2.053 1.204 3.64v10.192c0 1.587-.402 2.809-1.204 3.668-.803.84-1.96 1.26-3.472 1.26s-2.67-.42-3.472-1.26c-.803-.859-1.204-2.081-1.204-3.668zm13.257-2.24c.597 0 1.083-.065 1.456-.196.392-.131.709-.308.952-.532s.439-.485.588-.784.28-.616.392-.952h2.072v19.6h-3.08v-14.952h-2.38zm18.438 12.432c0 1.587-.411 2.809-1.232 3.668-.822.84-2.016 1.26-3.584 1.26s-2.763-.42-3.584-1.26c-.822-.859-1.232-2.081-1.232-3.668v-1.54c0-.952.149-1.773.448-2.464.298-.709.784-1.251 1.456-1.624-1.27-.691-1.904-2.007-1.904-3.948v-.616c0-1.587.41-2.8 1.232-3.64.821-.859 2.016-1.288 3.584-1.288s2.762.429 3.584 1.288c.821.84 1.232 2.053 1.232 3.64v.616c0 1.923-.635 3.239-1.904 3.948.672.373 1.157.915 1.456 1.624.298.691.448 1.512.448 2.464zm-6.552-.084c0 .877.168 1.465.504 1.764s.746.448 1.232.448c.485 0 .886-.149 1.204-.448.336-.299.513-.887.532-1.764v-1.82c0-.784-.159-1.344-.476-1.68-.299-.355-.719-.532-1.26-.532-.542 0-.971.177-1.288.532-.299.336-.448.896-.448 1.68zm0-8.904c0 .784.158 1.325.476 1.624.336.299.756.448 1.26.448.485 0 .896-.149 1.232-.448s.504-.84.504-1.624v-1.092c0-.877-.168-1.465-.504-1.764-.336-.317-.747-.476-1.232-.476-.486 0-.896.159-1.232.476-.336.299-.504.887-.504 1.764z"
        fill="#e8473a" />
    <path class="year-num"
        d="m405.224 136.216c0-.877-.149-1.465-.448-1.764-.28-.317-.663-.476-1.148-.476s-.877.149-1.176.448c-.28.28-.42.775-.42 1.484v2.1h-2.912v-1.904c0-1.587.383-2.8 1.148-3.64.784-.859 1.932-1.288 3.444-1.288s2.651.429 3.416 1.288c.784.84 1.176 2.053 1.176 3.64 0 1.027-.149 1.96-.448 2.8-.299.821-.681 1.577-1.148 2.268-.448.672-.943 1.297-1.484 1.876-.523.579-1.017 1.129-1.484 1.652-.448.523-.821 1.036-1.12 1.54-.299.485-.448.999-.448 1.54 0 .187.009.327.028.42h5.824v2.8h-8.904v-2.408c0-.952.149-1.792.448-2.52s.672-1.391 1.12-1.988c.467-.616.961-1.185 1.484-1.708.523-.541 1.008-1.111 1.456-1.708.467-.597.849-1.251 1.148-1.96s.448-1.54.448-2.492zm7.826 10.276c0 .709.14 1.213.42 1.512.298.28.69.42 1.176.42.485 0 .868-.14 1.148-.42.298-.299.448-.803.448-1.512v-10.584c0-.709-.15-1.204-.448-1.484-.28-.299-.663-.448-1.148-.448-.486 0-.878.149-1.176.448-.28.28-.42.775-.42 1.484zm-3.08-10.388c0-1.587.401-2.8 1.204-3.64.802-.859 1.96-1.288 3.472-1.288s2.669.429 3.472 1.288c.802.84 1.204 2.053 1.204 3.64v10.192c0 1.587-.402 2.809-1.204 3.668-.803.84-1.96 1.26-3.472 1.26s-2.67-.42-3.472-1.26c-.803-.859-1.204-2.081-1.204-3.668zm17.457.112c0-.877-.149-1.465-.448-1.764-.28-.317-.663-.476-1.148-.476s-.877.149-1.176.448c-.28.28-.42.775-.42 1.484v2.1h-2.912v-1.904c0-1.587.383-2.8 1.148-3.64.784-.859 1.932-1.288 3.444-1.288s2.651.429 3.416 1.288c.784.84 1.176 2.053 1.176 3.64 0 1.027-.149 1.96-.448 2.8-.299.821-.681 1.577-1.148 2.268-.448.672-.943 1.297-1.484 1.876-.523.579-1.017 1.129-1.484 1.652-.448.523-.821 1.036-1.12 1.54-.299.485-.448.999-.448 1.54 0 .187.009.327.028.42h5.824v2.8h-8.904v-2.408c0-.952.149-1.792.448-2.52s.672-1.391 1.12-1.988c.467-.616.961-1.185 1.484-1.708.523-.541 1.008-1.111 1.456-1.708.467-.597.849-1.251 1.148-1.96s.448-1.54.448-2.492zm6.902-2.352c.597 0 1.082-.065 1.456-.196.392-.131.709-.308.952-.532.242-.224.438-.485.588-.784.149-.299.28-.616.392-.952h2.072v19.6h-3.08v-14.952h-2.38z"
        fill="#e8473a" />
    <path class="year-num"
        d="m658.224 55.216c0-.8773-.149-1.4653-.448-1.764-.28-.3173-.663-.476-1.148-.476s-.877.1493-1.176.448c-.28.28-.42.7747-.42 1.484v2.1h-2.912v-1.904c0-1.5867.383-2.8 1.148-3.64.784-.8587 1.932-1.288 3.444-1.288s2.651.4293 3.416 1.288c.784.84 1.176 2.0533 1.176 3.64 0 1.0267-.149 1.96-.448 2.8-.299.8213-.681 1.5773-1.148 2.268-.448.672-.943 1.2973-1.484 1.876-.523.5787-1.017 1.1293-1.484 1.652-.448.5227-.821 1.036-1.12 1.54-.299.4853-.448.9987-.448 1.54 0 .1867.009.3267.028.42h5.824v2.8h-8.904v-2.408c0-.952.149-1.792.448-2.52s.672-1.3907 1.12-1.988c.467-.616.961-1.1853 1.484-1.708.523-.5413 1.008-1.1107 1.456-1.708.467-.5973.849-1.2507 1.148-1.96s.448-1.54.448-2.492zm7.826 10.276c0 .7093.14 1.2133.42 1.512.298.28.69.42 1.176.42.485 0 .868-.14 1.148-.42.298-.2987.448-.8027.448-1.512v-10.584c0-.7093-.15-1.204-.448-1.484-.28-.2987-.663-.448-1.148-.448-.486 0-.878.1493-1.176.448-.28.28-.42.7747-.42 1.484zm-3.08-10.388c0-1.5867.401-2.8 1.204-3.64.802-.8587 1.96-1.288 3.472-1.288s2.669.4293 3.472 1.288c.802.84 1.204 2.0533 1.204 3.64v10.192c0 1.5867-.402 2.8093-1.204 3.668-.803.84-1.96 1.26-3.472 1.26s-2.67-.42-3.472-1.26c-.803-.8587-1.204-2.0813-1.204-3.668zm17.457.112c0-.8773-.149-1.4653-.448-1.764-.28-.3173-.663-.476-1.148-.476s-.877.1493-1.176.448c-.28.28-.42.7747-.42 1.484v2.1h-2.912v-1.904c0-1.5867.383-2.8 1.148-3.64.784-.8587 1.932-1.288 3.444-1.288s2.651.4293 3.416 1.288c.784.84 1.176 2.0533 1.176 3.64 0 1.0267-.149 1.96-.448 2.8-.299.8213-.681 1.5773-1.148 2.268-.448.672-.943 1.2973-1.484 1.876-.523.5787-1.017 1.1293-1.484 1.652-.448.5227-.821 1.036-1.12 1.54-.299.4853-.448.9987-.448 1.54 0 .1867.009.3267.028.42h5.824v2.8h-8.904v-2.408c0-.952.149-1.792.448-2.52s.672-1.3907 1.12-1.988c.467-.616.961-1.1853 1.484-1.708.523-.5413 1.008-1.1107 1.456-1.708.467-.5973.849-1.2507 1.148-1.96s.448-1.54.448-2.492zm4.27 8.428 5.6-13.244h3.36v13.244h1.456v2.8h-1.456v3.556h-3.024v-3.556h-5.936zm5.936 0v-7.364l-3.108 7.364z"
        fill="#e8473a" />

    <style>
        .line-top,
        .line-shadow {
        animation-name: step-1;
        animation-duration: 2s;
        animation-iteration-count: forward;
        }

        @keyframes step-1 {
        0% {
        opacity: 0;
        transform: translateX(-100%)
        }

        100% {
        opacity: 1;
        }
        }

        .line-base,
        .circle {
        fill: none;
        stroke: none;
        animation-name: step-2;
        animation-delay: 1s;
        animation-duration: 2s;
        animation-iteration-count: 1;
        animation-fill-mode: forwards;
        }

        @keyframes step-2 {
        0% {
        opacity: 0;
        }

        100% {
        opacity: 1;
        fill: #999999;
        stroke: #999999;
        }
        }

        .year path,
        .year-num {
        opacity: 0;
        visability: hidden;
        animation-name: step-3;
        animation-delay: 2s;
        animation-duration: 1s;
        animation-iteration-count: 1;
        animation-fill-mode: forwards;
        }

        @keyframes step-3 {
        0% {
        opacity: 0;
        visability: hidden;
        }

        100% {
        opacity: 1;
        visability: visible;
        }
        }
        .year path.red {
        fill: #d2d2d2; /* init color */
        transition: fill 0.3s;
        }

        .year path.red.animated {
        fill: #e8473a; /* final color */
        }
    </style>
    <script>
        const yearBlocks = document.querySelectorAll('.year');

        yearBlocks.forEach((yearBlock) => {
        setTimeout(() => {
        const yearPaths = yearBlock.querySelectorAll('path.red');
        yearPaths.forEach((path, index) => {
        setTimeout(() => {
        path.classList.add('animated');
        }, (yearPaths.length - 1 - index) * 300); // 300ms delay between each animation
        });
        }, 2000); // 2 second delay before animation starts
        });
</script>
</svg>