<svg width="1306" height="1039" viewBox="0 0 1306 1039" fill="none" xmlns="http://www.w3.org/2000/svg">
<g opacity="0.42">
<path class="line-shadow" d="M-19.9146 996.766C-22.0253 996.766 -23.9833 995.443 -24.7208 993.358C-25.6362 990.714 -24.263 987.815 -21.593 986.874L896.129 665.777L394.966 505.775C392.906 505.114 391.482 503.207 391.431 501.045C391.38 498.884 392.728 496.925 394.763 496.163L671.841 394.242C674.486 393.275 677.41 394.623 678.377 397.268C679.343 399.912 677.995 402.837 675.351 403.803L412.182 500.613L913.726 660.742C915.811 661.403 917.235 663.335 917.26 665.522C917.286 667.709 915.913 669.667 913.853 670.405L-18.2363 996.461C-18.7957 996.664 -19.3552 996.74 -19.9146 996.74V996.766Z" fill="#D2D2D2"/>
</g>
<path class="line-top" d="M-19.4312 965.919C-21.5419 965.919 -23.4999 964.597 -24.2374 962.512C-25.1528 959.867 -23.7796 956.968 -21.1096 956.027L896.612 634.93L395.449 474.929C393.39 474.268 391.966 472.36 391.915 470.199C391.864 468.037 393.212 466.079 395.246 465.316L672.325 363.395C674.969 362.429 677.894 363.777 678.86 366.421C679.826 369.066 678.479 371.99 675.834 372.957L412.665 469.766L914.209 629.895C916.294 630.557 917.718 632.489 917.744 634.676C917.769 636.863 916.396 638.821 914.336 639.559L-17.7529 965.64C-18.3123 965.843 -18.8718 965.919 -19.4312 965.919Z" fill="#999999"/>
<path class="line-base" d="M186.547 790.101V886.733" stroke="#999999" stroke-width="2.54294" stroke-miterlimit="10"/>
<path class="line-base" d="M439.29 703.183V799.815" stroke="#999999" stroke-width="2.54294" stroke-miterlimit="10"/>
<path class="line-base" d="M881.685 538.299V629.26" stroke="#999999" stroke-width="2.54294" stroke-miterlimit="10"/>
<path class="line-base" d="M420.803 374.203V463.206" stroke="#999999" stroke-width="2.54294" stroke-miterlimit="10"/>
<g class="year">
    <path d="M252.02 773.34C289.211 736.149 289.211 675.851 252.02 638.66C214.829 601.469 154.531 601.469 117.34 638.66C80.1491 675.851 80.1492 736.149 117.34 773.34C154.531 810.531 214.829 810.531 252.02 773.34Z" fill="white"/>
    <path d="M191.634 635.973C191.634 639.559 188.709 642.483 185.124 642.483C181.538 642.483 178.614 639.559 178.614 635.973C178.614 632.388 181.538 629.463 185.124 629.463C188.709 629.463 191.634 632.388 191.634 635.973Z" fill="#E8473A"/>
    <path d="M169.841 637.372C170.96 640.779 169.078 644.467 165.671 645.56C162.263 646.679 158.576 644.797 157.482 641.39C156.363 637.982 158.245 634.295 161.653 633.201C165.06 632.082 168.748 633.964 169.841 637.372Z" fill="#D2D2D2"/>
    <path d="M149.522 645.433C151.633 648.332 150.997 652.401 148.073 654.511C145.148 656.622 141.105 655.986 138.994 653.062C136.884 650.163 137.519 646.094 140.444 643.984C143.343 641.873 147.411 642.509 149.522 645.433Z" fill="#D2D2D2"/>
    <path d="M132.689 659.393C135.588 661.504 136.249 665.573 134.138 668.472C132.028 671.371 127.959 672.032 125.06 669.921C122.161 667.811 121.5 663.742 123.611 660.843C125.721 657.944 129.79 657.283 132.689 659.393Z" fill="#D2D2D2"/>
    <path d="M120.99 677.855C124.398 678.974 126.28 682.636 125.161 686.043C124.042 689.451 120.38 691.332 116.973 690.214C113.565 689.095 111.683 685.433 112.802 682.025C113.921 678.618 117.583 676.736 120.99 677.855Z" fill="#D2D2D2"/>
    <path d="M115.574 699.038C119.16 699.038 122.084 701.962 122.084 705.548C122.084 709.134 119.16 712.058 115.574 712.058C111.989 712.058 109.064 709.134 109.064 705.548C109.064 701.962 111.989 699.038 115.574 699.038Z" fill="#D2D2D2"/>
    <path d="M116.973 720.831C120.38 719.712 124.067 721.594 125.161 725.001C126.28 728.409 124.398 732.096 120.99 733.19C117.583 734.283 113.896 732.427 112.802 729.019C111.683 725.612 113.565 721.924 116.973 720.831Z" fill="#D2D2D2"/>
    <path d="M125.034 741.149C127.933 739.038 132.001 739.674 134.112 742.599C136.223 745.498 135.587 749.566 132.662 751.677C129.764 753.788 125.695 753.152 123.584 750.227C121.474 747.328 122.109 743.26 125.034 741.149Z" fill="#D2D2D2"/>
    <path d="M138.995 757.983C141.106 755.084 145.174 754.423 148.073 756.534C150.972 758.644 151.633 762.713 149.523 765.612C147.412 768.511 143.343 769.172 140.444 767.061C137.545 764.951 136.884 760.882 138.995 757.983Z" fill="#D2D2D2"/>
    <path d="M157.456 769.681C158.575 766.273 162.237 764.391 165.645 765.51C169.052 766.629 170.934 770.291 169.815 773.698C168.696 777.106 165.034 778.988 161.627 777.869C158.219 776.75 156.338 773.088 157.456 769.681Z" fill="#D2D2D2"/>
    <path d="M178.639 775.097C178.639 771.512 181.563 768.587 185.149 768.587C188.734 768.587 191.659 771.512 191.659 775.097C191.659 778.683 188.734 781.607 185.149 781.607C181.563 781.607 178.639 778.683 178.639 775.097Z" fill="#D2D2D2"/>
    <path d="M200.432 773.699C199.313 770.291 201.194 766.604 204.602 765.51C208.01 764.417 211.697 766.273 212.79 769.681C213.909 773.088 212.027 776.776 208.62 777.869C205.212 778.988 201.525 777.106 200.432 773.699Z" fill="#D2D2D2"/>
    <path d="M220.75 765.638C218.639 762.739 219.275 758.67 222.199 756.56C225.098 754.449 229.167 755.085 231.277 758.009C233.388 760.908 232.752 764.977 229.828 767.087C226.929 769.198 222.86 768.562 220.75 765.638Z" fill="#E8473A"/>
    <path d="M237.585 751.677C234.686 749.566 234.025 745.497 236.136 742.598C238.246 739.699 242.315 739.038 245.214 741.149C248.113 743.259 248.774 747.328 246.663 750.227C244.553 753.126 240.484 753.787 237.585 751.677Z" fill="#E8473A"/>
    <path d="M249.282 733.215C245.875 732.096 243.993 728.435 245.112 725.027C246.231 721.619 249.892 719.738 253.3 720.857C256.708 721.976 258.589 725.637 257.47 729.045C256.352 732.452 252.69 734.334 249.282 733.215Z" fill="#E8473A"/>
    <path d="M254.698 712.033C251.113 712.033 248.188 709.108 248.188 705.523C248.188 701.937 251.113 699.013 254.698 699.013C258.284 699.013 261.208 701.937 261.208 705.523C261.208 709.108 258.284 712.033 254.698 712.033Z" fill="#E8473A"/>
    <path d="M253.3 690.214C249.892 691.332 246.205 689.451 245.112 686.043C243.993 682.636 245.875 678.948 249.282 677.855C252.69 676.736 256.377 678.618 257.47 682.025C258.564 685.433 256.708 689.12 253.3 690.214Z" fill="#E8473A"/>
    <path d="M245.238 669.921C242.339 672.032 238.271 671.396 236.16 668.472C234.049 665.573 234.685 661.504 237.609 659.393C240.508 657.283 244.577 657.918 246.688 660.843C248.798 663.742 248.163 667.81 245.238 669.921Z" fill="#E8473A"/>
    <path d="M231.278 653.087C229.167 655.986 225.098 656.647 222.199 654.536C219.3 652.426 218.639 648.357 220.75 645.458C222.86 642.559 226.929 641.898 229.828 644.009C232.727 646.119 233.388 650.188 231.278 653.087Z" fill="#E8473A"/>
    <path d="M212.817 641.39C211.698 644.797 208.036 646.679 204.628 645.56C201.221 644.441 199.339 640.779 200.458 637.372C201.577 633.964 205.239 632.082 208.646 633.201C212.054 634.32 213.936 637.982 212.817 641.39Z" fill="#E8473A"/>
    
</g>
<g class="year">
    <path d="M491.944 696.648C523.782 664.81 523.782 613.19 491.944 581.352C460.106 549.514 408.486 549.514 376.648 581.352C344.81 613.19 344.81 664.81 376.648 696.648C408.486 728.486 460.106 728.486 491.944 696.648Z" fill="white"/>
    <path d="M439.697 579.851C439.697 582.927 437.205 585.42 434.128 585.42C431.051 585.42 428.559 582.927 428.559 579.851C428.559 576.774 431.051 574.281 434.128 574.281C437.205 574.281 439.697 576.774 439.697 579.851Z" fill="#E8473A"/>
    <path d="M421.005 581.046C421.946 583.97 420.344 587.123 417.42 588.064C414.495 589.005 411.342 587.403 410.401 584.479C409.46 581.554 411.062 578.401 413.987 577.46C416.911 576.519 420.064 578.121 421.005 581.046Z" fill="#D2D2D2"/>
    <path d="M403.638 587.937C405.444 590.429 404.884 593.913 402.418 595.719C399.926 597.524 396.442 596.965 394.636 594.498C392.831 592.031 393.39 588.522 395.857 586.717C398.349 584.911 401.833 585.47 403.638 587.937Z" fill="#D2D2D2"/>
    <path d="M389.22 599.889C391.712 601.695 392.271 605.178 390.44 607.67C388.635 610.163 385.151 610.722 382.659 608.891C380.167 607.086 379.608 603.602 381.438 601.11C383.244 598.618 386.728 598.058 389.22 599.889Z" fill="#D2D2D2"/>
    <path d="M379.225 615.681C382.149 616.621 383.751 619.775 382.81 622.699C381.87 625.623 378.716 627.226 375.792 626.285C372.868 625.344 371.266 622.19 372.206 619.266C373.147 616.342 376.301 614.74 379.225 615.681Z" fill="#D2D2D2"/>
    <path d="M374.572 633.812C377.649 633.812 380.141 636.304 380.141 639.381C380.141 642.458 377.649 644.95 374.572 644.95C371.495 644.95 369.003 642.458 369.003 639.381C369.003 636.304 371.495 633.812 374.572 633.812Z" fill="#D2D2D2"/>
    <path d="M375.767 652.477C378.691 651.536 381.845 653.138 382.786 656.062C383.726 658.987 382.124 662.14 379.2 663.081C376.276 664.022 373.122 662.42 372.181 659.495C371.241 656.571 372.843 653.418 375.767 652.477Z" fill="#D2D2D2"/>
    <path d="M382.684 669.871C385.176 668.065 388.66 668.625 390.466 671.091C392.271 673.583 391.712 677.067 389.245 678.873C386.753 680.678 383.269 680.119 381.464 677.652C379.658 675.16 380.218 671.676 382.684 669.871Z" fill="#D2D2D2"/>
    <path d="M394.61 684.289C396.415 681.797 399.899 681.238 402.391 683.069C404.883 684.899 405.443 688.358 403.612 690.85C401.806 693.342 398.323 693.901 395.83 692.071C393.338 690.265 392.779 686.781 394.61 684.289Z" fill="#D2D2D2"/>
    <path d="M410.428 694.283C411.368 691.358 414.522 689.756 417.446 690.697C420.371 691.638 421.973 694.791 421.032 697.716C420.091 700.64 416.938 702.242 414.013 701.301C411.089 700.36 409.487 697.207 410.428 694.283Z" fill="#D2D2D2"/>
    <path d="M434.128 704.48C437.203 704.48 439.697 701.987 439.697 698.911C439.697 695.835 437.203 693.342 434.128 693.342C431.052 693.342 428.559 695.835 428.559 698.911C428.559 701.987 431.052 704.48 434.128 704.48Z" fill="#D2D2D2"/>
    <path d="M447.223 697.716C446.282 694.791 447.884 691.638 450.809 690.697C453.733 689.756 456.886 691.358 457.827 694.283C458.768 697.207 457.166 700.36 454.242 701.301C451.317 702.242 448.164 700.64 447.223 697.716Z" fill="#D2D2D2"/>
    <path d="M464.617 690.824C462.811 688.332 463.371 684.848 465.838 683.043C468.33 681.237 471.813 681.797 473.619 684.263C475.424 686.755 474.865 690.239 472.398 692.045C469.906 693.85 466.422 693.291 464.617 690.824Z" fill="#D2D2D2"/>
    <path d="M479.01 678.873C476.518 677.067 475.959 673.584 477.789 671.091C479.595 668.599 483.079 668.04 485.571 669.871C488.063 671.676 488.622 675.16 486.791 677.652C484.986 680.144 481.502 680.704 479.01 678.873Z" fill="#D2D2D2"/>
    <path d="M489.03 663.081C486.105 662.14 484.503 658.987 485.444 656.062C486.385 653.138 489.538 651.536 492.463 652.477C495.387 653.418 496.989 656.571 496.048 659.495C495.107 662.42 491.954 664.022 489.03 663.081Z" fill="#E8473A"/>
    <path d="M493.658 644.95C490.581 644.95 488.089 642.458 488.089 639.381C488.089 636.304 490.581 633.812 493.658 633.812C496.735 633.812 499.227 636.304 499.227 639.381C499.227 642.458 496.735 644.95 493.658 644.95Z" fill="#E8473A"/>
    <path d="M492.463 626.285C489.538 627.226 486.385 625.623 485.444 622.699C484.503 619.775 486.105 616.621 489.03 615.681C491.954 614.74 495.107 616.342 496.048 619.266C496.989 622.19 495.387 625.344 492.463 626.285Z" fill="#E8473A"/>
    <path d="M485.571 608.891C483.079 610.696 479.595 610.137 477.79 607.67C475.984 605.178 476.544 601.694 479.01 599.889C481.502 598.083 484.986 598.643 486.792 601.109C488.597 603.601 488.038 607.085 485.571 608.891Z" fill="#E8473A"/>
    <path d="M473.62 594.498C471.814 596.99 468.33 597.549 465.838 595.718C463.346 593.913 462.787 590.429 464.618 587.937C466.423 585.445 469.907 584.885 472.399 586.716C474.891 588.522 475.451 592.006 473.62 594.498Z" fill="#E8473A"/>
    <path d="M457.802 584.479C456.861 587.403 453.708 589.005 450.784 588.064C447.859 587.123 446.257 583.97 447.198 581.046C448.139 578.121 451.292 576.519 454.217 577.46C457.141 578.401 458.743 581.554 457.802 584.479Z" fill="#E8473A"/>
    
</g>
<g class="year">
    <path d="M942.273 490.142C947.736 456.227 924.671 424.305 890.755 418.842C856.84 413.38 824.918 436.445 819.456 470.36C813.993 504.275 837.058 536.197 870.973 541.66C904.888 547.123 936.81 524.058 942.273 490.142Z" fill="white"/>
    <path d="M885.093 434.801C885.093 437.141 883.186 439.048 880.846 439.048C878.507 439.048 876.6 437.141 876.6 434.801C876.6 432.462 878.507 430.554 880.846 430.554C883.186 430.554 885.093 432.462 885.093 434.801Z" fill="#E8473A"/>
    <path d="M870.853 435.717C871.591 437.955 870.345 440.345 868.132 441.082C865.895 441.82 863.504 440.574 862.792 438.361C862.08 436.149 863.275 433.733 865.513 433.021C867.751 432.284 870.141 433.504 870.853 435.742V435.717Z" fill="#D2D2D2"/>
    <path d="M857.579 440.98C858.952 442.887 858.545 445.532 856.638 446.905C854.731 448.278 852.086 447.872 850.713 445.964C849.34 444.057 849.746 441.413 851.654 440.039C853.561 438.666 856.205 439.073 857.579 440.98Z" fill="#D2D2D2"/>
    <path d="M846.593 450.084C848.501 451.457 848.907 454.127 847.534 456.009C846.161 457.916 843.491 458.323 841.609 456.95C839.727 455.577 839.295 452.907 840.668 451.025C842.042 449.143 844.712 448.711 846.593 450.084Z" fill="#D2D2D2"/>
    <path d="M838.938 462.138C841.176 462.875 842.396 465.266 841.659 467.504C840.922 469.741 838.531 470.962 836.293 470.225C834.056 469.487 832.835 467.097 833.572 464.884C834.31 462.672 836.7 461.426 838.938 462.163V462.138Z" fill="#D2D2D2"/>
    <path d="M835.404 475.971C837.743 475.971 839.651 477.878 839.651 480.218C839.651 482.557 837.743 484.464 835.404 484.464C833.064 484.464 831.157 482.557 831.157 480.218C831.157 477.878 833.064 475.971 835.404 475.971Z" fill="#D2D2D2"/>
    <path d="M836.319 490.212C838.557 489.474 840.948 490.695 841.685 492.933C842.397 495.171 841.176 497.561 838.964 498.298C836.726 499.036 834.336 497.79 833.598 495.578C832.861 493.365 834.107 490.949 836.319 490.237V490.212Z" fill="#D2D2D2"/>
    <path d="M841.584 503.486C843.491 502.112 846.136 502.519 847.509 504.427C848.882 506.334 848.476 508.978 846.568 510.352C844.661 511.725 842.017 511.318 840.643 509.411C839.27 507.504 839.677 504.859 841.584 503.486Z" fill="#D2D2D2"/>
    <path d="M850.713 514.472C852.086 512.564 854.757 512.158 856.638 513.531C858.52 514.904 858.952 517.574 857.579 519.456C856.206 521.363 853.536 521.77 851.654 520.397C849.772 519.024 849.34 516.353 850.713 514.472Z" fill="#D2D2D2"/>
    <path d="M862.766 522.1C863.503 519.863 865.894 518.642 868.106 519.379C870.318 520.117 871.564 522.507 870.827 524.72C870.09 526.932 867.699 528.178 865.487 527.441C863.249 526.703 862.028 524.313 862.766 522.1Z" fill="#D2D2D2"/>
    <path d="M876.6 525.635C876.6 523.295 878.507 521.388 880.846 521.388C883.186 521.388 885.093 523.295 885.093 525.635C885.093 527.974 883.186 529.882 880.846 529.882C878.507 529.882 876.6 527.974 876.6 525.635Z" fill="#E8473A"/>
    <path d="M890.84 524.719C890.102 522.481 891.348 520.091 893.561 519.379C895.773 518.667 898.189 519.888 898.901 522.1C899.638 524.338 898.392 526.728 896.18 527.44C893.942 528.178 891.552 526.932 890.814 524.719H890.84Z" fill="#E8473A"/>
    <path d="M904.089 519.456C902.715 517.549 903.122 514.904 905.03 513.531C906.937 512.158 909.581 512.564 910.955 514.472C912.328 516.379 911.921 519.024 910.014 520.397C908.107 521.77 905.462 521.363 904.089 519.456Z" fill="#E8473A"/>
    <path d="M915.074 510.352C913.167 508.978 912.76 506.308 914.134 504.427C915.507 502.519 918.177 502.112 920.059 503.486C921.94 504.859 922.373 507.529 921 509.411C919.626 511.318 916.956 511.725 915.074 510.352Z" fill="#E8473A"/>
    <path d="M922.729 498.298C920.491 497.561 919.271 495.171 920.008 492.933C920.745 490.695 923.136 489.474 925.374 490.212C927.611 490.949 928.832 493.34 928.095 495.552C927.357 497.764 924.967 499.01 922.754 498.273L922.729 498.298Z" fill="#E8473A"/>
    <path d="M926.263 484.464C923.924 484.464 922.017 482.557 922.017 480.218C922.017 477.878 923.924 475.971 926.263 475.971C928.603 475.971 930.51 477.878 930.51 480.218C930.51 482.557 928.603 484.464 926.263 484.464Z" fill="#E8473A"/>
    <path d="M925.348 470.225C923.11 470.962 920.72 469.716 919.982 467.504C919.27 465.266 920.491 462.875 922.703 462.138C924.941 461.401 927.331 462.647 928.044 464.859C928.756 467.071 927.535 469.487 925.323 470.199L925.348 470.225Z" fill="#E8473A"/>
    <path d="M920.084 456.95C918.177 458.323 915.532 457.916 914.159 456.009C912.786 454.102 913.193 451.457 915.1 450.084C917.007 448.711 919.652 449.118 921.025 451.025C922.398 452.932 921.991 455.577 920.084 456.95Z" fill="#E8473A"/>
    <path d="M910.981 445.964C909.607 447.872 906.937 448.278 905.055 446.905C903.174 445.532 902.741 442.862 904.115 440.98C905.488 439.073 908.158 438.666 910.04 440.039C911.921 441.413 912.354 444.083 910.981 445.964Z" fill="#E8473A"/>
    <path d="M898.901 438.336C898.164 440.574 895.773 441.794 893.561 441.057C891.323 440.32 890.103 437.929 890.84 435.691C891.578 433.454 893.968 432.233 896.206 432.97C898.443 433.708 899.664 436.098 898.927 438.311L898.901 438.336Z" fill="#E8473A"/>
    
</g>
<g class="year">
    <path d="M421.286 400.421C451.608 400.421 476.188 375.84 476.188 345.519C476.188 315.197 451.608 290.616 421.286 290.616C390.965 290.616 366.384 315.197 366.384 345.519C366.384 375.84 390.965 400.421 421.286 400.421Z" fill="white"/>
    <path d="M425.049 305.442C425.049 307.502 423.371 309.18 421.311 309.18C419.252 309.18 417.573 307.502 417.573 305.442C417.573 303.382 419.252 301.704 421.311 301.704C423.371 301.704 425.049 303.382 425.049 305.442Z" fill="#E8473A"/>
    <path d="M412.462 306.23C413.098 308.188 412.03 310.324 410.046 310.96C408.088 311.596 405.952 310.528 405.316 308.544C404.68 306.586 405.748 304.45 407.732 303.814C409.69 303.179 411.826 304.247 412.462 306.23Z" fill="#D2D2D2"/>
    <path d="M400.765 310.884C401.985 312.562 401.604 314.902 399.926 316.123C398.247 317.343 395.908 316.962 394.687 315.283C393.466 313.605 393.848 311.266 395.526 310.045C397.205 308.824 399.544 309.206 400.765 310.884Z" fill="#D2D2D2"/>
    <path d="M391.05 318.919C392.729 320.14 393.085 322.479 391.889 324.158C390.694 325.836 388.329 326.192 386.651 324.997C384.973 323.776 384.617 321.437 385.812 319.758C387.032 318.08 389.372 317.724 391.05 318.919Z" fill="#D2D2D2"/>
    <path d="M384.311 329.574C386.269 330.21 387.363 332.321 386.727 334.304C386.091 336.262 383.981 337.356 381.997 336.72C380.014 336.084 378.946 333.973 379.581 331.99C380.217 330.032 382.328 328.938 384.311 329.574Z" fill="#D2D2D2"/>
    <path d="M381.209 349.257C383.274 349.257 384.947 347.583 384.947 345.519C384.947 343.454 383.274 341.781 381.209 341.781C379.145 341.781 377.471 343.454 377.471 345.519C377.471 347.583 379.145 349.257 381.209 349.257Z" fill="#D2D2D2"/>
    <path d="M381.997 354.343C383.955 353.707 386.091 354.775 386.727 356.759C387.363 358.717 386.295 360.853 384.311 361.488C382.353 362.124 380.217 361.056 379.581 359.073C378.946 357.115 380.014 354.979 381.997 354.343Z" fill="#D2D2D2"/>
    <path d="M386.651 366.041C388.329 364.82 390.669 365.201 391.889 366.88C393.11 368.558 392.728 370.898 391.05 372.118C389.372 373.339 387.032 372.957 385.812 371.279C384.591 369.601 384.972 367.261 386.651 366.041Z" fill="#D2D2D2"/>
    <path d="M394.687 375.754C395.908 374.076 398.247 373.72 399.926 374.915C401.604 376.11 401.96 378.475 400.765 380.153C399.544 381.832 397.205 382.188 395.526 380.992C393.848 379.772 393.492 377.432 394.687 375.754Z" fill="#E8473A"/>
    <path d="M405.341 382.493C405.977 380.535 408.088 379.442 410.071 380.077C412.055 380.713 413.123 382.824 412.487 384.807C411.851 386.791 409.741 387.859 407.757 387.223C405.799 386.587 404.705 384.477 405.341 382.493Z" fill="#E8473A"/>
    <path d="M417.547 385.596C417.547 383.536 419.226 381.857 421.285 381.857C423.345 381.857 425.024 383.536 425.024 385.596C425.024 387.655 423.345 389.334 421.285 389.334C419.226 389.334 417.547 387.655 417.547 385.596Z" fill="#E8473A"/>
    <path d="M430.11 384.807C429.474 382.849 430.542 380.713 432.526 380.077C434.484 379.441 436.62 380.509 437.256 382.493C437.892 384.451 436.824 386.587 434.84 387.223C432.882 387.858 430.746 386.79 430.11 384.807Z" fill="#E8473A"/>
    <path d="M441.807 380.154C440.587 378.475 440.968 376.136 442.646 374.915C444.325 373.695 446.664 374.076 447.885 375.754C449.105 377.433 448.724 379.772 447.046 380.993C445.367 382.214 443.028 381.832 441.807 380.154Z" fill="#E8473A"/>
    <path d="M451.522 372.118C449.844 370.897 449.488 368.558 450.683 366.879C451.903 365.201 454.243 364.845 455.921 366.04C457.6 367.261 457.956 369.6 456.76 371.278C455.54 372.957 453.2 373.313 451.522 372.118Z" fill="#E8473A"/>
    <path d="M458.259 361.463C456.301 360.827 455.208 358.717 455.844 356.733C456.479 354.775 458.59 353.682 460.574 354.318C462.532 354.953 463.625 357.064 462.989 359.047C462.354 361.005 460.243 362.099 458.259 361.463Z" fill="#E8473A"/>
    <path d="M461.388 349.257C463.452 349.257 465.126 347.583 465.126 345.519C465.126 343.454 463.452 341.781 461.388 341.781C459.323 341.781 457.649 343.454 457.649 345.519C457.649 347.583 459.323 349.257 461.388 349.257Z" fill="#E8473A"/>
    <path d="M460.575 336.695C458.617 337.331 456.481 336.262 455.845 334.279C455.209 332.321 456.277 330.185 458.261 329.549C460.244 328.913 462.355 329.981 462.991 331.965C463.626 333.923 462.558 336.059 460.575 336.695Z" fill="#E8473A"/>
    <path d="M455.921 324.997C454.243 326.218 451.903 325.837 450.683 324.158C449.462 322.48 449.843 320.14 451.522 318.92C453.2 317.699 455.54 318.081 456.76 319.759C457.981 321.437 457.599 323.777 455.921 324.997Z" fill="#E8473A"/>
    <path d="M447.885 315.283C446.664 316.961 444.325 317.317 442.647 316.122C440.968 314.901 440.612 312.562 441.807 310.884C443.028 309.205 445.367 308.849 447.046 310.044C448.724 311.265 449.08 313.605 447.885 315.283Z" fill="#E8473A"/>
    <path d="M437.23 308.544C436.594 310.502 434.484 311.596 432.5 310.96C430.542 310.324 429.449 308.214 430.084 306.23C430.72 304.247 432.831 303.179 434.814 303.814C436.772 304.45 437.866 306.561 437.23 308.544Z" fill="#E8473A"/>
    
</g>
<path class="line-base" d="M674.257 285.098V369.092" stroke="#999999" stroke-width="2.54294" stroke-miterlimit="10"/>
<g class="year">
    <path d="M723.839 271.394C728.301 243.719 709.484 217.667 681.809 213.204C654.134 208.742 628.082 227.559 623.619 255.234C619.157 282.909 637.974 308.961 665.649 313.424C693.324 317.886 719.376 299.069 723.839 271.394Z" fill="white"/>
    <path d="M673.724 229.713C675.634 229.713 677.182 228.165 677.182 226.255C677.182 224.345 675.634 222.796 673.724 222.796C671.814 222.796 670.266 224.345 670.266 226.255C670.266 228.165 671.814 229.713 673.724 229.713Z" fill="#E8473A"/>
    <path d="M665.587 226.992C666.172 228.823 665.18 230.781 663.349 231.366C661.518 231.951 659.56 230.959 658.975 229.129C658.391 227.298 659.382 225.34 661.213 224.755C663.044 224.17 665.002 225.162 665.587 226.992Z" fill="#D2D2D2"/>
    <path d="M654.754 231.29C655.873 232.841 655.542 235.002 653.991 236.121C652.44 237.24 650.279 236.91 649.16 235.358C648.041 233.807 648.371 231.646 649.923 230.527C651.474 229.408 653.635 229.739 654.754 231.29Z" fill="#D2D2D2"/>
    <path d="M645.777 238.715C647.329 239.834 647.659 242.021 646.54 243.547C645.421 245.098 643.234 245.428 641.709 244.31C640.157 243.191 639.827 241.004 640.946 239.478C642.065 237.927 644.252 237.596 645.777 238.715Z" fill="#D2D2D2"/>
    <path d="M639.546 248.556C641.377 249.141 642.369 251.099 641.784 252.93C641.199 254.761 639.241 255.753 637.41 255.168C635.579 254.583 634.587 252.625 635.172 250.794C635.757 248.963 637.715 247.971 639.546 248.556Z" fill="#D2D2D2"/>
    <path d="M636.648 259.847C638.555 259.847 640.106 261.398 640.106 263.306C640.106 265.213 638.555 266.764 636.648 266.764C634.741 266.764 633.189 265.213 633.189 263.306C633.189 261.398 634.741 259.847 636.648 259.847Z" fill="#E8473A"/>
    <path d="M637.41 271.468C639.241 270.883 641.199 271.875 641.784 273.706C642.369 275.537 641.377 277.495 639.546 278.08C637.715 278.665 635.757 277.673 635.172 275.842C634.587 274.011 635.579 272.053 637.41 271.468Z" fill="#E8473A"/>
    <path d="M641.709 282.301C643.26 281.182 645.421 281.513 646.54 283.064C647.659 284.615 647.329 286.777 645.777 287.896C644.226 289.015 642.065 288.684 640.946 287.133C639.827 285.582 640.157 283.42 641.709 282.301Z" fill="#E8473A"/>
    <path d="M649.133 291.278C650.252 289.727 652.439 289.396 653.965 290.515C655.516 291.634 655.847 293.821 654.728 295.346C653.609 296.898 651.422 297.228 649.896 296.109C648.345 294.99 648.014 292.804 649.133 291.278Z" fill="#E8473A"/>
    <path d="M658.975 297.508C659.56 295.677 661.518 294.685 663.349 295.27C665.18 295.855 666.172 297.813 665.587 299.644C665.002 301.475 663.044 302.467 661.213 301.882C659.382 301.297 658.391 299.339 658.975 297.508Z" fill="#E8473A"/>
    <path d="M670.266 300.381C670.266 298.474 671.817 296.923 673.724 296.923C675.631 296.923 677.182 298.474 677.182 300.381C677.182 302.288 675.631 303.84 673.724 303.84C671.817 303.84 670.266 302.288 670.266 300.381Z" fill="#E8473A"/>
    <path d="M681.887 299.644C681.302 297.813 682.293 295.855 684.124 295.27C685.955 294.685 687.913 295.677 688.498 297.508C689.083 299.339 688.091 301.297 686.26 301.882C684.429 302.467 682.471 301.475 681.887 299.644Z" fill="#E8473A"/>
    <path d="M692.72 295.346C691.601 293.795 691.931 291.634 693.483 290.515C695.034 289.396 697.195 289.727 698.314 291.278C699.433 292.829 699.103 294.99 697.551 296.109C696 297.228 693.839 296.898 692.72 295.346Z" fill="#E8473A"/>
    <path d="M701.696 287.921C700.145 286.802 699.815 284.616 700.934 283.09C702.052 281.539 704.239 281.208 705.765 282.327C707.316 283.446 707.647 285.633 706.528 287.158C705.409 288.71 703.222 289.04 701.696 287.921Z" fill="#E8473A"/>
    <path d="M707.926 278.08C706.095 277.495 705.103 275.537 705.688 273.706C706.273 271.875 708.231 270.883 710.062 271.468C711.893 272.053 712.885 274.011 712.3 275.842C711.715 277.673 709.757 278.665 707.926 278.08Z" fill="#E8473A"/>
    <path d="M710.8 266.789C708.893 266.789 707.342 265.238 707.342 263.331C707.342 261.424 708.893 259.873 710.8 259.873C712.707 259.873 714.259 261.424 714.259 263.331C714.259 265.238 712.707 266.789 710.8 266.789Z" fill="#E8473A"/>
    <path d="M710.062 255.168C708.231 255.753 706.273 254.761 705.688 252.93C705.103 251.099 706.095 249.141 707.926 248.556C709.757 247.971 711.715 248.963 712.3 250.794C712.885 252.625 711.893 254.583 710.062 255.168Z" fill="#E8473A"/>
    <path d="M705.765 244.335C704.214 245.454 702.052 245.123 700.934 243.572C699.815 242.021 700.145 239.859 701.696 238.74C703.248 237.622 705.409 237.952 706.528 239.503C707.647 241.055 707.316 243.216 705.765 244.335Z" fill="#E8473A"/>
    <path d="M698.339 235.358C697.22 236.91 695.033 237.24 693.507 236.121C691.956 235.002 691.626 232.815 692.745 231.29C693.863 229.739 696.05 229.408 697.576 230.527C699.127 231.646 699.458 233.833 698.339 235.358Z" fill="#E8473A"/>
    <path d="M688.498 229.129C687.913 230.959 685.955 231.951 684.124 231.366C682.293 230.781 681.302 228.823 681.887 226.992C682.471 225.162 684.429 224.17 686.26 224.755C688.091 225.34 689.083 227.298 688.498 229.129Z" fill="#E8473A"/>
    
</g>
<path class="circle" d="M674.105 376.763C678.894 376.763 682.776 372.881 682.776 368.092C682.776 363.303 678.894 359.42 674.105 359.42C669.315 359.42 665.433 363.303 665.433 368.092C665.433 372.881 669.315 376.763 674.105 376.763Z" fill="#999999"/>
<path class="circle" d="M429.957 460.739C429.957 465.52 426.066 469.41 421.286 469.41C416.505 469.41 412.614 465.52 412.614 460.739C412.614 455.958 416.505 452.068 421.286 452.068C426.066 452.068 429.957 455.958 429.957 460.739Z" fill="#999999"/>
<path class="circle" d="M889.518 624.021C889.518 628.802 885.627 632.692 880.846 632.692C876.066 632.692 872.175 628.802 872.175 624.021C872.175 619.24 876.066 615.35 880.846 615.35C885.627 615.35 889.518 619.24 889.518 624.021Z" fill="#999999"/>
<path class="circle" d="M447.961 799.815C447.961 804.596 444.07 808.486 439.29 808.486C434.509 808.486 430.618 804.596 430.618 799.815C430.618 795.034 434.509 791.144 439.29 791.144C444.07 791.144 447.961 795.034 447.961 799.815Z" fill="#999999"/>
<path class="circle" d="M195.244 889.072C195.244 893.853 191.354 897.744 186.573 897.744C181.792 897.744 177.901 893.853 177.901 889.072C177.901 884.292 181.792 880.401 186.573 880.401C191.354 880.401 195.244 884.292 195.244 889.072Z" fill="#999999"/>
<path class="year-num" d="M170.224 701.216C170.224 700.339 170.075 699.751 169.776 699.452C169.496 699.135 169.113 698.976 168.628 698.976C168.143 698.976 167.751 699.125 167.452 699.424C167.172 699.704 167.032 700.199 167.032 700.908V703.008H164.12V701.104C164.12 699.517 164.503 698.304 165.268 697.464C166.052 696.605 167.2 696.176 168.712 696.176C170.224 696.176 171.363 696.605 172.128 697.464C172.912 698.304 173.304 699.517 173.304 701.104C173.304 702.131 173.155 703.064 172.856 703.904C172.557 704.725 172.175 705.481 171.708 706.172C171.26 706.844 170.765 707.469 170.224 708.048C169.701 708.627 169.207 709.177 168.74 709.7C168.292 710.223 167.919 710.736 167.62 711.24C167.321 711.725 167.172 712.239 167.172 712.78C167.172 712.967 167.181 713.107 167.2 713.2H173.024V716H164.12V713.592C164.12 712.64 164.269 711.8 164.568 711.072C164.867 710.344 165.24 709.681 165.688 709.084C166.155 708.468 166.649 707.899 167.172 707.376C167.695 706.835 168.18 706.265 168.628 705.668C169.095 705.071 169.477 704.417 169.776 703.708C170.075 702.999 170.224 702.168 170.224 701.216ZM178.05 711.492C178.05 712.201 178.19 712.705 178.47 713.004C178.768 713.284 179.16 713.424 179.646 713.424C180.131 713.424 180.514 713.284 180.794 713.004C181.092 712.705 181.242 712.201 181.242 711.492V700.908C181.242 700.199 181.092 699.704 180.794 699.424C180.514 699.125 180.131 698.976 179.646 698.976C179.16 698.976 178.768 699.125 178.47 699.424C178.19 699.704 178.05 700.199 178.05 700.908V711.492ZM174.97 701.104C174.97 699.517 175.371 698.304 176.174 697.464C176.976 696.605 178.134 696.176 179.646 696.176C181.158 696.176 182.315 696.605 183.118 697.464C183.92 698.304 184.322 699.517 184.322 701.104V711.296C184.322 712.883 183.92 714.105 183.118 714.964C182.315 715.804 181.158 716.224 179.646 716.224C178.134 716.224 176.976 715.804 176.174 714.964C175.371 714.105 174.97 712.883 174.97 711.296V701.104ZM188.227 698.864C188.824 698.864 189.31 698.799 189.683 698.668C190.075 698.537 190.392 698.36 190.635 698.136C190.878 697.912 191.074 697.651 191.223 697.352C191.372 697.053 191.503 696.736 191.615 696.4H193.687V716H190.607V701.048H188.227V698.864ZM203.529 701.216C203.529 700.339 203.379 699.751 203.081 699.452C202.801 699.135 202.418 698.976 201.933 698.976C201.447 698.976 201.055 699.125 200.757 699.424C200.477 699.704 200.337 700.199 200.337 700.908V703.008H197.425V701.104C197.425 699.517 197.807 698.304 198.573 697.464C199.357 696.605 200.505 696.176 202.017 696.176C203.529 696.176 204.667 696.605 205.433 697.464C206.217 698.304 206.609 699.517 206.609 701.104C206.609 702.131 206.459 703.064 206.161 703.904C205.862 704.725 205.479 705.481 205.013 706.172C204.565 706.844 204.07 707.469 203.529 708.048C203.006 708.627 202.511 709.177 202.045 709.7C201.597 710.223 201.223 710.736 200.925 711.24C200.626 711.725 200.477 712.239 200.477 712.78C200.477 712.967 200.486 713.107 200.505 713.2H206.329V716H197.425V713.592C197.425 712.64 197.574 711.8 197.873 711.072C198.171 710.344 198.545 709.681 198.993 709.084C199.459 708.468 199.954 707.899 200.477 707.376C200.999 706.835 201.485 706.265 201.933 705.668C202.399 705.071 202.782 704.417 203.081 703.708C203.379 702.999 203.529 702.168 203.529 701.216Z" fill="#E8473A"/>
<path class="year-num" d="M419.224 634.216C419.224 633.339 419.075 632.751 418.776 632.452C418.496 632.135 418.113 631.976 417.628 631.976C417.143 631.976 416.751 632.125 416.452 632.424C416.172 632.704 416.032 633.199 416.032 633.908V636.008H413.12V634.104C413.12 632.517 413.503 631.304 414.268 630.464C415.052 629.605 416.2 629.176 417.712 629.176C419.224 629.176 420.363 629.605 421.128 630.464C421.912 631.304 422.304 632.517 422.304 634.104C422.304 635.131 422.155 636.064 421.856 636.904C421.557 637.725 421.175 638.481 420.708 639.172C420.26 639.844 419.765 640.469 419.224 641.048C418.701 641.627 418.207 642.177 417.74 642.7C417.292 643.223 416.919 643.736 416.62 644.24C416.321 644.725 416.172 645.239 416.172 645.78C416.172 645.967 416.181 646.107 416.2 646.2H422.024V649H413.12V646.592C413.12 645.64 413.269 644.8 413.568 644.072C413.867 643.344 414.24 642.681 414.688 642.084C415.155 641.468 415.649 640.899 416.172 640.376C416.695 639.835 417.18 639.265 417.628 638.668C418.095 638.071 418.477 637.417 418.776 636.708C419.075 635.999 419.224 635.168 419.224 634.216ZM427.05 644.492C427.05 645.201 427.19 645.705 427.47 646.004C427.768 646.284 428.16 646.424 428.646 646.424C429.131 646.424 429.514 646.284 429.794 646.004C430.092 645.705 430.242 645.201 430.242 644.492V633.908C430.242 633.199 430.092 632.704 429.794 632.424C429.514 632.125 429.131 631.976 428.646 631.976C428.16 631.976 427.768 632.125 427.47 632.424C427.19 632.704 427.05 633.199 427.05 633.908V644.492ZM423.97 634.104C423.97 632.517 424.371 631.304 425.174 630.464C425.976 629.605 427.134 629.176 428.646 629.176C430.158 629.176 431.315 629.605 432.118 630.464C432.92 631.304 433.322 632.517 433.322 634.104V644.296C433.322 645.883 432.92 647.105 432.118 647.964C431.315 648.804 430.158 649.224 428.646 649.224C427.134 649.224 425.976 648.804 425.174 647.964C424.371 647.105 423.97 645.883 423.97 644.296V634.104ZM437.227 631.864C437.824 631.864 438.31 631.799 438.683 631.668C439.075 631.537 439.392 631.36 439.635 631.136C439.878 630.912 440.074 630.651 440.223 630.352C440.372 630.053 440.503 629.736 440.615 629.4H442.687V649H439.607V634.048H437.227V631.864ZM449.197 642.672V644.492C449.197 645.201 449.337 645.696 449.617 645.976C449.915 646.256 450.307 646.396 450.793 646.396C451.278 646.396 451.661 646.256 451.941 645.976C452.239 645.696 452.389 645.201 452.389 644.492V640.18C452.389 639.471 452.239 638.976 451.941 638.696C451.661 638.397 451.278 638.248 450.793 638.248C450.307 638.248 449.915 638.397 449.617 638.696C449.337 638.976 449.197 639.471 449.197 640.18V640.768H446.285L446.845 629.4H454.965V632.2H449.617L449.365 636.876C449.943 635.924 450.839 635.448 452.053 635.448C453.191 635.448 454.041 635.831 454.601 636.596C455.179 637.361 455.469 638.472 455.469 639.928V644.296C455.469 645.883 455.077 647.105 454.293 647.964C453.527 648.804 452.389 649.224 450.877 649.224C449.365 649.224 448.217 648.804 447.433 647.964C446.667 647.105 446.285 645.883 446.285 644.296V642.672H449.197Z" fill="#E8473A"/>
<path class="year-num" d="M865.224 475.216C865.224 474.339 865.075 473.751 864.776 473.452C864.496 473.135 864.113 472.976 863.628 472.976C863.143 472.976 862.751 473.125 862.452 473.424C862.172 473.704 862.032 474.199 862.032 474.908V477.008H859.12V475.104C859.12 473.517 859.503 472.304 860.268 471.464C861.052 470.605 862.2 470.176 863.712 470.176C865.224 470.176 866.363 470.605 867.128 471.464C867.912 472.304 868.304 473.517 868.304 475.104C868.304 476.131 868.155 477.064 867.856 477.904C867.557 478.725 867.175 479.481 866.708 480.172C866.26 480.844 865.765 481.469 865.224 482.048C864.701 482.627 864.207 483.177 863.74 483.7C863.292 484.223 862.919 484.736 862.62 485.24C862.321 485.725 862.172 486.239 862.172 486.78C862.172 486.967 862.181 487.107 862.2 487.2H868.024V490H859.12V487.592C859.12 486.64 859.269 485.8 859.568 485.072C859.867 484.344 860.24 483.681 860.688 483.084C861.155 482.468 861.649 481.899 862.172 481.376C862.695 480.835 863.18 480.265 863.628 479.668C864.095 479.071 864.477 478.417 864.776 477.708C865.075 476.999 865.224 476.168 865.224 475.216ZM873.05 485.492C873.05 486.201 873.19 486.705 873.47 487.004C873.768 487.284 874.16 487.424 874.646 487.424C875.131 487.424 875.514 487.284 875.794 487.004C876.092 486.705 876.242 486.201 876.242 485.492V474.908C876.242 474.199 876.092 473.704 875.794 473.424C875.514 473.125 875.131 472.976 874.646 472.976C874.16 472.976 873.768 473.125 873.47 473.424C873.19 473.704 873.05 474.199 873.05 474.908V485.492ZM869.97 475.104C869.97 473.517 870.371 472.304 871.174 471.464C871.976 470.605 873.134 470.176 874.646 470.176C876.158 470.176 877.315 470.605 878.118 471.464C878.92 472.304 879.322 473.517 879.322 475.104V485.296C879.322 486.883 878.92 488.105 878.118 488.964C877.315 489.804 876.158 490.224 874.646 490.224C873.134 490.224 871.976 489.804 871.174 488.964C870.371 488.105 869.97 486.883 869.97 485.296V475.104ZM883.227 472.864C883.824 472.864 884.31 472.799 884.683 472.668C885.075 472.537 885.392 472.36 885.635 472.136C885.878 471.912 886.074 471.651 886.223 471.352C886.372 471.053 886.503 470.736 886.615 470.4H888.687V490H885.607V475.048H883.227V472.864ZM901.665 485.296C901.665 486.883 901.254 488.105 900.433 488.964C899.611 489.804 898.417 490.224 896.849 490.224C895.281 490.224 894.086 489.804 893.265 488.964C892.443 488.105 892.033 486.883 892.033 485.296V483.756C892.033 482.804 892.182 481.983 892.481 481.292C892.779 480.583 893.265 480.041 893.937 479.668C892.667 478.977 892.033 477.661 892.033 475.72V475.104C892.033 473.517 892.443 472.304 893.265 471.464C894.086 470.605 895.281 470.176 896.849 470.176C898.417 470.176 899.611 470.605 900.433 471.464C901.254 472.304 901.665 473.517 901.665 475.104V475.72C901.665 477.643 901.03 478.959 899.761 479.668C900.433 480.041 900.918 480.583 901.217 481.292C901.515 481.983 901.665 482.804 901.665 483.756V485.296ZM895.113 485.212C895.113 486.089 895.281 486.677 895.617 486.976C895.953 487.275 896.363 487.424 896.849 487.424C897.334 487.424 897.735 487.275 898.053 486.976C898.389 486.677 898.566 486.089 898.585 485.212V483.392C898.585 482.608 898.426 482.048 898.109 481.712C897.81 481.357 897.39 481.18 896.849 481.18C896.307 481.18 895.878 481.357 895.561 481.712C895.262 482.048 895.113 482.608 895.113 483.392V485.212ZM895.113 476.308C895.113 477.092 895.271 477.633 895.589 477.932C895.925 478.231 896.345 478.38 896.849 478.38C897.334 478.38 897.745 478.231 898.081 477.932C898.417 477.633 898.585 477.092 898.585 476.308V475.216C898.585 474.339 898.417 473.751 898.081 473.452C897.745 473.135 897.334 472.976 896.849 472.976C896.363 472.976 895.953 473.135 895.617 473.452C895.281 473.751 895.113 474.339 895.113 475.216V476.308Z" fill="#E8473A"/>
<path class="year-num" d="M405.224 341.216C405.224 340.339 405.075 339.751 404.776 339.452C404.496 339.135 404.113 338.976 403.628 338.976C403.143 338.976 402.751 339.125 402.452 339.424C402.172 339.704 402.032 340.199 402.032 340.908V343.008H399.12V341.104C399.12 339.517 399.503 338.304 400.268 337.464C401.052 336.605 402.2 336.176 403.712 336.176C405.224 336.176 406.363 336.605 407.128 337.464C407.912 338.304 408.304 339.517 408.304 341.104C408.304 342.131 408.155 343.064 407.856 343.904C407.557 344.725 407.175 345.481 406.708 346.172C406.26 346.844 405.765 347.469 405.224 348.048C404.701 348.627 404.207 349.177 403.74 349.7C403.292 350.223 402.919 350.736 402.62 351.24C402.321 351.725 402.172 352.239 402.172 352.78C402.172 352.967 402.181 353.107 402.2 353.2H408.024V356H399.12V353.592C399.12 352.64 399.269 351.8 399.568 351.072C399.867 350.344 400.24 349.681 400.688 349.084C401.155 348.468 401.649 347.899 402.172 347.376C402.695 346.835 403.18 346.265 403.628 345.668C404.095 345.071 404.477 344.417 404.776 343.708C405.075 342.999 405.224 342.168 405.224 341.216ZM413.05 351.492C413.05 352.201 413.19 352.705 413.47 353.004C413.768 353.284 414.16 353.424 414.646 353.424C415.131 353.424 415.514 353.284 415.794 353.004C416.092 352.705 416.242 352.201 416.242 351.492V340.908C416.242 340.199 416.092 339.704 415.794 339.424C415.514 339.125 415.131 338.976 414.646 338.976C414.16 338.976 413.768 339.125 413.47 339.424C413.19 339.704 413.05 340.199 413.05 340.908V351.492ZM409.97 341.104C409.97 339.517 410.371 338.304 411.174 337.464C411.976 336.605 413.134 336.176 414.646 336.176C416.158 336.176 417.315 336.605 418.118 337.464C418.92 338.304 419.322 339.517 419.322 341.104V351.296C419.322 352.883 418.92 354.105 418.118 354.964C417.315 355.804 416.158 356.224 414.646 356.224C413.134 356.224 411.976 355.804 411.174 354.964C410.371 354.105 409.97 352.883 409.97 351.296V341.104ZM427.427 341.216C427.427 340.339 427.278 339.751 426.979 339.452C426.699 339.135 426.316 338.976 425.831 338.976C425.346 338.976 424.954 339.125 424.655 339.424C424.375 339.704 424.235 340.199 424.235 340.908V343.008H421.323V341.104C421.323 339.517 421.706 338.304 422.471 337.464C423.255 336.605 424.403 336.176 425.915 336.176C427.427 336.176 428.566 336.605 429.331 337.464C430.115 338.304 430.507 339.517 430.507 341.104C430.507 342.131 430.358 343.064 430.059 343.904C429.76 344.725 429.378 345.481 428.911 346.172C428.463 346.844 427.968 347.469 427.427 348.048C426.904 348.627 426.41 349.177 425.943 349.7C425.495 350.223 425.122 350.736 424.823 351.24C424.524 351.725 424.375 352.239 424.375 352.78C424.375 352.967 424.384 353.107 424.403 353.2H430.227V356H421.323V353.592C421.323 352.64 421.472 351.8 421.771 351.072C422.07 350.344 422.443 349.681 422.891 349.084C423.358 348.468 423.852 347.899 424.375 347.376C424.898 346.835 425.383 346.265 425.831 345.668C426.298 345.071 426.68 344.417 426.979 343.708C427.278 342.999 427.427 342.168 427.427 341.216ZM434.329 338.864C434.926 338.864 435.411 338.799 435.785 338.668C436.177 338.537 436.494 338.36 436.737 338.136C436.979 337.912 437.175 337.651 437.325 337.352C437.474 337.053 437.605 336.736 437.717 336.4H439.789V356H436.709V341.048H434.329V338.864Z" fill="#E8473A"/>
<path class="year-num" d="M658.224 260.216C658.224 259.339 658.075 258.751 657.776 258.452C657.496 258.135 657.113 257.976 656.628 257.976C656.143 257.976 655.751 258.125 655.452 258.424C655.172 258.704 655.032 259.199 655.032 259.908V262.008H652.12V260.104C652.12 258.517 652.503 257.304 653.268 256.464C654.052 255.605 655.2 255.176 656.712 255.176C658.224 255.176 659.363 255.605 660.128 256.464C660.912 257.304 661.304 258.517 661.304 260.104C661.304 261.131 661.155 262.064 660.856 262.904C660.557 263.725 660.175 264.481 659.708 265.172C659.26 265.844 658.765 266.469 658.224 267.048C657.701 267.627 657.207 268.177 656.74 268.7C656.292 269.223 655.919 269.736 655.62 270.24C655.321 270.725 655.172 271.239 655.172 271.78C655.172 271.967 655.181 272.107 655.2 272.2H661.024V275H652.12V272.592C652.12 271.64 652.269 270.8 652.568 270.072C652.867 269.344 653.24 268.681 653.688 268.084C654.155 267.468 654.649 266.899 655.172 266.376C655.695 265.835 656.18 265.265 656.628 264.668C657.095 264.071 657.477 263.417 657.776 262.708C658.075 261.999 658.224 261.168 658.224 260.216ZM666.05 270.492C666.05 271.201 666.19 271.705 666.47 272.004C666.768 272.284 667.16 272.424 667.646 272.424C668.131 272.424 668.514 272.284 668.794 272.004C669.092 271.705 669.242 271.201 669.242 270.492V259.908C669.242 259.199 669.092 258.704 668.794 258.424C668.514 258.125 668.131 257.976 667.646 257.976C667.16 257.976 666.768 258.125 666.47 258.424C666.19 258.704 666.05 259.199 666.05 259.908V270.492ZM662.97 260.104C662.97 258.517 663.371 257.304 664.174 256.464C664.976 255.605 666.134 255.176 667.646 255.176C669.158 255.176 670.315 255.605 671.118 256.464C671.92 257.304 672.322 258.517 672.322 260.104V270.296C672.322 271.883 671.92 273.105 671.118 273.964C670.315 274.804 669.158 275.224 667.646 275.224C666.134 275.224 664.976 274.804 664.174 273.964C663.371 273.105 662.97 271.883 662.97 270.296V260.104ZM680.427 260.216C680.427 259.339 680.278 258.751 679.979 258.452C679.699 258.135 679.316 257.976 678.831 257.976C678.346 257.976 677.954 258.125 677.655 258.424C677.375 258.704 677.235 259.199 677.235 259.908V262.008H674.323V260.104C674.323 258.517 674.706 257.304 675.471 256.464C676.255 255.605 677.403 255.176 678.915 255.176C680.427 255.176 681.566 255.605 682.331 256.464C683.115 257.304 683.507 258.517 683.507 260.104C683.507 261.131 683.358 262.064 683.059 262.904C682.76 263.725 682.378 264.481 681.911 265.172C681.463 265.844 680.968 266.469 680.427 267.048C679.904 267.627 679.41 268.177 678.943 268.7C678.495 269.223 678.122 269.736 677.823 270.24C677.524 270.725 677.375 271.239 677.375 271.78C677.375 271.967 677.384 272.107 677.403 272.2H683.227V275H674.323V272.592C674.323 271.64 674.472 270.8 674.771 270.072C675.07 269.344 675.443 268.681 675.891 268.084C676.358 267.468 676.852 266.899 677.375 266.376C677.898 265.835 678.383 265.265 678.831 264.668C679.298 264.071 679.68 263.417 679.979 262.708C680.278 261.999 680.427 261.168 680.427 260.216ZM684.697 268.644L690.297 255.4H693.657V268.644H695.113V271.444H693.657V275H690.633V271.444H684.697V268.644ZM690.633 268.644V261.28L687.525 268.644H690.633Z" fill="#E8473A"/>

<style>
.line-top,
.line-shadow {
    animation-name: step-1;
    animation-duration: 2s;
    animation-iteration-count: forward;
}

@keyframes step-1 {
    0% {
        opacity: 0;
        transform: translateX(-100%)
    }

    100% {
        opacity: 1;
    }
}

.line-base,
.circle {
    fill: none;
    stroke: none;
    animation-name: step-2;
    animation-delay: 1s;
    animation-duration: 2s;
    animation-iteration-count: 1;
    animation-fill-mode: forwards;
}

@keyframes step-2 {
    0% {
        opacity: 0;
    }

    100% {
        opacity: 1;
        fill: #999999;
        stroke: #999999;
    }
}

.year path,
.year-num {
    opacity: 0;
    visability: hidden;
    animation-name: step-3;
    animation-delay: 2s;
    animation-duration: 1s;
    animation-iteration-count: 1;
    animation-fill-mode: forwards;
}

@keyframes step-3 {
    0% {
        opacity: 0;
        visability: hidden;
    }

    100% {
        opacity: 1;
        visability: visible;
    }
}

</style>
</svg>
