<svg width="41" height="41" viewBox="0 0 41 41" fill="none" xmlns="http://www.w3.org/2000/svg">
<mask id="mask0_354_170" style="mask-type:luminance" maskUnits="userSpaceOnUse" x="0" y="0" width="41" height="41">
<path d="M40.5938 0.441406H0.59375V40.4414H40.5938V0.441406Z" fill="white"/>
</mask>
<g mask="url(#mask0_354_170)">
<path d="M4.54714 37.953C4.44522 37.916 4.4011 37.873 4.36364 37.774C4.3358 37.7005 4.33298 37.4245 4.33792 35.2515L4.34346 32.8115L4.39325 32.7245C4.42392 32.671 4.47767 32.6172 4.53325 32.5845L4.62346 32.5315L6.27802 32.526C7.91567 32.5206 7.93298 32.521 7.97302 32.561C8.0112 32.5992 8.01346 32.6265 8.01346 33.049C8.01346 33.4409 8.00935 33.5 7.9804 33.524C7.95349 33.5464 7.72364 33.5534 6.7454 33.5615L5.54346 33.5715V34.0315V34.4915L6.33346 34.504C7.16362 34.517 7.25286 34.5258 7.55289 34.6238C7.97467 34.7616 8.32089 35.062 8.48456 35.4321C8.59235 35.6758 8.62195 35.8451 8.62259 36.2215C8.62327 36.6204 8.60312 36.7241 8.47296 36.9915C8.30233 37.3421 8.0539 37.5878 7.68346 37.7725C7.27528 37.9759 7.33334 37.9694 5.88346 37.9755C4.84945 37.9798 4.60977 37.9758 4.54714 37.953ZM6.92483 36.8796C7.03717 36.8449 7.08008 36.8181 7.17506 36.7231C7.27005 36.6281 7.29689 36.5852 7.33159 36.4729C7.42442 36.1723 7.37077 35.8962 7.18309 35.7085C7.09803 35.6234 7.05354 35.5966 6.94116 35.5625C6.81216 35.5234 6.76369 35.5211 6.17346 35.5261L5.54346 35.5315L5.53819 36.2013C5.53529 36.5698 5.53725 36.8825 5.54256 36.8963C5.55002 36.9158 5.6925 36.9215 6.17073 36.9215C6.74199 36.9215 6.79961 36.9183 6.92483 36.8796ZM9.95346 37.9512C9.54307 37.8673 9.25244 37.6589 9.09378 37.3348C8.9193 36.9783 8.9082 36.8354 8.91918 35.0864C8.92842 33.6142 8.92821 33.6174 9.03425 33.334C9.09199 33.1797 9.25419 32.9413 9.36941 32.8415C9.42114 32.7967 9.53546 32.7244 9.62346 32.681C9.93327 32.5279 9.86759 32.5337 11.3476 32.5263C12.6594 32.5197 12.672 32.52 12.7126 32.5606C12.7513 32.5993 12.7535 32.6248 12.7535 33.0415C12.7535 33.4548 12.7511 33.4839 12.7135 33.5215C12.6745 33.5605 12.6468 33.5615 11.6372 33.5615C10.9773 33.5615 10.5577 33.5694 10.4822 33.5832C10.3287 33.6113 10.2429 33.6655 10.1884 33.7685C10.1488 33.8434 10.1437 33.8875 10.137 34.2191C10.1311 34.5118 10.1351 34.5902 10.1565 34.6038C10.1714 34.6132 10.6875 34.6212 11.3035 34.6215C11.9195 34.6218 12.4342 34.6289 12.4472 34.6372C12.4991 34.6702 12.5135 34.7756 12.5135 35.1238C12.5135 35.5128 12.498 35.5849 12.4093 35.6087C12.3841 35.6154 11.8617 35.6211 11.2485 35.6212L10.1335 35.6215L10.134 36.0965C10.1342 36.3577 10.1426 36.6068 10.1526 36.6499C10.1784 36.7609 10.2306 36.8239 10.3445 36.8815L10.4435 36.9315L11.6032 36.9377C12.6312 36.9432 12.767 36.9475 12.7982 36.9758C12.8299 37.0044 12.8335 37.0531 12.8335 37.4546C12.8335 37.8748 12.8311 37.9039 12.7935 37.9415C12.7543 37.9807 12.7281 37.9815 11.4185 37.9796C10.3933 37.9782 10.0533 37.9716 9.95346 37.9512ZM13.0216 37.9394C12.9877 37.902 12.9828 37.8577 12.9768 37.5355C12.9696 37.1448 12.9802 37.0176 13.0237 36.9742C13.039 36.9589 13.1036 36.9398 13.1673 36.9319C13.3775 36.9056 13.4977 36.811 13.6143 36.5798C13.7847 36.2424 13.8504 35.725 13.9632 33.8315C13.9907 33.3695 14.0189 32.9555 14.0258 32.9115C14.0564 32.7156 14.1591 32.5831 14.3121 32.5419C14.3658 32.5274 14.8951 32.5223 15.9574 32.526L17.5235 32.5315L17.6137 32.5845C17.6693 32.6172 17.723 32.671 17.7537 32.7245L17.8035 32.8115L17.809 35.3615L17.8145 37.9115L17.7718 37.9465C17.7336 37.9778 17.675 37.9815 17.2151 37.9815C16.8028 37.9815 16.6935 37.9759 16.6623 37.9531C16.6244 37.9254 16.6233 37.8737 16.6135 35.7581L16.6035 33.5915L15.8698 33.5862L15.136 33.581L15.1255 33.6662C15.1197 33.7131 15.1097 33.855 15.1033 33.9815C15.0798 34.4446 14.9916 35.5114 14.9522 35.8073C14.8523 36.56 14.7181 36.9897 14.4638 37.3719C14.1769 37.803 13.8288 37.9815 13.2748 37.9815C13.0816 37.9815 13.0558 37.9772 13.0216 37.9394ZM18.5246 37.937C18.4968 37.8974 18.4935 37.6118 18.4938 35.272C18.494 33.1999 18.4994 32.641 18.5194 32.6015L18.5447 32.5515L19.1041 32.5462C19.6123 32.5413 19.6658 32.5439 19.6885 32.575C19.7077 32.6012 19.7135 32.8423 19.7135 33.617V34.6248L20.1585 34.6182C20.5999 34.6115 20.6045 34.611 20.7279 34.554C20.8803 34.4836 21.0363 34.3255 21.1037 34.1728C21.1302 34.113 21.2292 33.7732 21.3238 33.4178C21.4183 33.0623 21.5094 32.7287 21.5262 32.6765C21.576 32.5214 21.5755 32.5215 22.1263 32.5215C22.3925 32.5215 22.6247 32.527 22.6424 32.5338C22.7268 32.5662 22.7223 32.5959 22.5029 33.4466C22.3628 33.99 22.2672 34.321 22.2224 34.418C22.1058 34.6703 21.9766 34.8292 21.7342 35.0183L21.685 35.0568L21.8529 35.1412C22.1282 35.2796 22.3021 35.4863 22.4 35.7915C22.4578 35.9717 22.9535 37.8407 22.9535 37.8784C22.9535 37.8987 22.937 37.9302 22.9169 37.9484C22.8849 37.9774 22.8161 37.9815 22.3604 37.9815C21.8467 37.9815 21.84 37.981 21.7981 37.9364C21.7679 37.9043 21.6831 37.6347 21.504 37.0014C21.3656 36.5119 21.226 36.0575 21.1937 35.9915C21.1088 35.8174 21.0287 35.7314 20.8878 35.6629C20.7189 35.5809 20.5718 35.5618 20.1085 35.5616L19.7135 35.5615V36.727C19.7135 37.7496 19.7097 37.898 19.6824 37.937C19.6515 37.9811 19.6468 37.9815 19.1035 37.9815C18.5602 37.9815 18.5555 37.9811 18.5246 37.937ZM23.1249 37.9501C23.1076 37.9328 23.0935 37.8998 23.0935 37.8767C23.0935 37.8227 24.725 32.8975 24.778 32.7915C24.8311 32.6854 24.8867 32.6266 24.9835 32.5745C25.0592 32.5338 25.09 32.5315 25.5535 32.5315C26.0361 32.5315 26.0448 32.5322 26.1285 32.5802C26.1753 32.607 26.2406 32.67 26.2735 32.7202C26.3417 32.8241 27.9935 37.7747 27.9935 37.8752C27.9935 37.9073 27.9827 37.9443 27.9695 37.9575C27.952 37.975 27.7935 37.9815 27.3817 37.9815C26.8727 37.9815 26.8137 37.9781 26.7743 37.9462C26.7418 37.9198 26.6911 37.779 26.5746 37.3912L26.4184 36.8715L25.5467 36.8663C24.7319 36.8614 24.6739 36.8634 24.6567 36.8963C24.6466 36.9156 24.5785 37.1295 24.5052 37.3715C24.346 37.8979 24.3395 37.915 24.2863 37.9523C24.222 37.9973 23.1702 37.9953 23.1249 37.9501ZM26.1135 35.8407C26.1135 35.8293 26.0505 35.6104 25.9735 35.3542C25.8965 35.0981 25.772 34.6507 25.6969 34.36C25.6217 34.0693 25.5521 33.8332 25.5421 33.8352C25.532 33.8372 25.4555 34.0937 25.372 34.4052C25.2885 34.7167 25.1646 35.1562 25.0968 35.382C25.029 35.6078 24.9735 35.808 24.9735 35.827C24.9735 35.8589 25.0171 35.8615 25.5435 35.8615C25.9245 35.8615 26.1135 35.8546 26.1135 35.8407ZM28.3349 37.9288C28.2935 37.8761 28.2935 37.8749 28.2935 35.3877C28.2935 33.5678 28.2997 32.8745 28.3167 32.8072C28.3475 32.6847 28.4567 32.5755 28.5792 32.5447C28.6434 32.5285 29.0056 32.5215 29.7788 32.5215C31.0104 32.5215 31.1135 32.5295 31.437 32.6501C31.6933 32.7457 31.822 32.83 32.0344 33.0414C32.1975 33.2038 32.239 33.2592 32.319 33.4215C32.4737 33.7356 32.5361 34.0979 32.4948 34.4424C32.3943 35.2807 31.9181 35.7934 31.0729 35.9737C30.9589 35.998 30.7565 36.0079 30.2185 36.0156L29.5135 36.0257V36.9323C29.5135 37.8252 29.5069 37.9278 29.4472 37.9658C29.4342 37.9741 29.1879 37.981 28.8999 37.9812L28.3764 37.9815L28.3349 37.9288ZM30.6102 35.022C31.0098 34.9761 31.2244 34.7575 31.2485 34.372C31.2628 34.1425 31.2092 33.9655 31.0827 33.8248C30.9498 33.677 30.8233 33.6219 30.5699 33.6015C30.3424 33.5832 29.6039 33.5777 29.5485 33.5939C29.516 33.6034 29.5135 33.6551 29.5135 34.3112C29.5135 34.858 29.5192 35.0204 29.5385 35.0282C29.5839 35.0465 30.4401 35.0416 30.6102 35.022ZM34.1262 37.956C34.107 37.9419 34.083 37.8947 34.0729 37.851C34.0623 37.8053 34.0542 36.877 34.054 35.6665L34.0535 33.5615H33.3546H32.6557L32.5996 33.5132L32.5435 33.465V33.0353C32.5435 32.6409 32.5466 32.6022 32.5816 32.5636L32.6197 32.5215H34.6951H36.7706L36.812 32.5742C36.8508 32.6235 36.8535 32.6525 36.8535 33.0232C36.8535 33.445 36.8433 33.5015 36.7603 33.5393C36.7276 33.5542 36.4797 33.5615 36.0028 33.5615H35.294L35.2888 35.7431C35.2836 37.8764 35.2826 37.9253 35.2447 37.9531C35.1909 37.9924 34.1796 37.995 34.1262 37.956ZM18.2285 30.9132C18.1765 30.8945 18.0139 30.751 17.6985 30.4454C16.8601 29.6332 13.9786 26.7323 13.9459 26.6675C13.9281 26.6323 13.9135 26.5598 13.9135 26.5064C13.9135 26.404 13.9589 26.3171 14.0968 26.1559C14.1596 26.0825 14.1608 26.0777 14.1377 25.9914C14.0904 25.8147 13.9906 25.6379 13.8755 25.5269C13.6743 25.3329 13.959 25.353 11.2235 25.3397C8.66849 25.3272 8.73841 25.33 8.63656 25.2352C8.51516 25.1221 8.52398 25.352 8.51807 22.1451C8.51441 20.1551 8.51938 19.1938 8.5336 19.141C8.55821 19.0496 8.63518 18.952 8.71529 18.9105C8.74668 18.8943 8.84953 18.8732 8.94385 18.8637C9.03818 18.8541 9.11782 18.8429 9.12085 18.8389C9.20008 18.7324 9.30472 18.4599 9.3216 18.3162C9.33512 18.201 9.29297 18.0255 9.23024 17.9359C9.20544 17.9005 8.4434 17.1249 7.53683 16.2123C6.63026 15.2998 5.86609 14.5193 5.83869 14.4779C5.77686 14.3844 5.77026 14.2427 5.82301 14.1415C5.86739 14.0563 9.93473 9.98115 10.0335 9.92295C10.1102 9.87775 10.2376 9.86888 10.3263 9.90259C10.3567 9.91417 10.4271 9.96219 10.4826 10.0093C10.6786 10.1756 10.6663 10.1727 10.8523 10.0974C10.942 10.0612 11.0577 9.9999 11.1094 9.96125C11.2287 9.87212 11.3686 9.66273 11.382 9.55332C11.3875 9.50834 11.3957 8.41798 11.4001 7.1303C11.4081 4.84023 11.4092 4.78708 11.4484 4.69845C11.4704 4.64862 11.5188 4.58618 11.556 4.55969C11.6212 4.51318 11.6403 4.511 12.1135 4.49588C12.383 4.48727 13.7285 4.48277 15.1035 4.48588C17.4204 4.49112 17.6081 4.49404 17.6661 4.52581C17.7976 4.59781 17.8729 4.73774 17.8736 4.91153C17.8738 4.95553 17.8796 5.0258 17.8865 5.06768C17.8985 5.13993 17.9075 5.14786 18.0624 5.22213C18.2882 5.33044 18.3982 5.35329 18.5627 5.32603C18.6601 5.3099 18.7164 5.28707 18.7789 5.23836C18.8254 5.20214 19.6094 4.43107 20.5211 3.52487C21.7046 2.34849 22.2023 1.86654 22.2611 1.83983C22.3619 1.79404 22.4319 1.79207 22.5291 1.83229C22.6219 1.87067 26.7162 5.95316 26.7749 6.06574C26.8222 6.15671 26.8245 6.28212 26.7804 6.36753C26.7623 6.40273 26.6993 6.48829 26.6404 6.55767C26.5816 6.62705 26.5335 6.69659 26.5335 6.71221C26.5335 6.7631 26.6266 6.98932 26.6857 7.08224C26.7517 7.18589 26.8713 7.29874 26.9735 7.35381C27.0407 7.39003 27.1413 7.39193 29.4935 7.40153C31.7582 7.41078 31.9482 7.41413 32.0061 7.44581C32.0942 7.49405 32.1692 7.5898 32.1873 7.67712C32.1958 7.71805 32.2029 9.06553 32.2031 10.6715L32.2035 13.5915L32.1591 13.6745C32.0918 13.8004 32.0043 13.844 31.7765 13.8652C31.6703 13.8751 31.5733 13.8866 31.5608 13.8908C31.5303 13.9011 31.4236 14.1007 31.3825 14.2244C31.3319 14.3769 31.339 14.6232 31.3968 14.7174C31.4218 14.7582 32.2105 15.5638 33.1494 16.5078C34.875 18.2426 34.9326 18.3051 34.9326 18.4415C34.9326 18.5838 34.8948 18.6243 32.7886 20.7325C31.3356 22.1868 30.7015 22.8087 30.6491 22.8305C30.4966 22.8941 30.3883 22.8634 30.2035 22.7042C30.1375 22.6473 30.0619 22.5951 30.0354 22.5882C29.8949 22.5514 29.492 22.7758 29.3836 22.9512L29.3235 23.0483L29.311 25.4913C29.3041 26.8349 29.2918 27.9561 29.2837 27.9829C29.2609 28.0577 29.1783 28.1578 29.1075 28.1965C29.0474 28.2294 28.8631 28.2315 26.062 28.2315H23.0806L23.0002 28.1783C22.9029 28.1139 22.8535 28.0168 22.8409 27.8651C22.8195 27.6086 22.832 27.6277 22.6203 27.5275C22.3218 27.386 22.1136 27.3746 21.953 27.4909C21.9148 27.5186 21.402 28.021 20.8135 28.6074C19.1586 30.2565 18.5488 30.8528 18.4835 30.8861C18.3894 30.934 18.3098 30.9425 18.2285 30.9132ZM18.014 23.7088C18.0791 23.2153 18.1548 22.654 18.1823 22.4615L18.2323 22.1115L18.4779 21.8743C18.7805 21.582 18.9532 21.4404 19.0835 21.3777C19.1385 21.3512 19.2498 21.2895 19.3308 21.2405C19.5925 21.0824 19.7599 20.9982 19.9335 20.9376C20.0762 20.8878 20.134 20.8784 20.2935 20.8785C20.6624 20.879 20.8143 20.9377 21.3629 21.2917C21.4616 21.3553 21.6596 21.4641 21.8029 21.5335L22.0635 21.6595L22.4435 22.0172C22.6525 22.2139 23.1815 22.7286 23.6191 23.1609C24.0567 23.5932 24.4192 23.9424 24.4246 23.9371C24.4352 23.9264 24.3891 23.8652 23.7119 22.9915C23.4647 22.6725 23.1779 22.301 23.0748 22.1659L22.8871 21.9203L22.9006 21.4109C22.9137 20.9165 22.9161 20.8936 22.9828 20.6365C23.1253 20.0875 23.2181 19.8947 23.4524 19.6605C23.7039 19.4091 23.9639 19.2817 24.3853 19.2031C24.6597 19.152 24.9212 19.0801 25.128 18.999C25.2684 18.9439 25.2887 18.9417 25.828 18.9221C26.1335 18.9111 26.838 18.9008 27.3935 18.8994C27.949 18.8979 28.4305 18.8906 28.4635 18.883C28.5213 18.8698 28.5202 18.8688 28.4335 18.8552C28.384 18.8474 28.096 18.814 27.7935 18.781C26.9808 18.6922 26.2081 18.6013 26.1701 18.5899C26.1188 18.5745 25.3942 17.7948 25.3013 17.6551C25.0737 17.3126 24.9257 17.0317 24.8677 16.8324C24.8158 16.6538 24.8134 16.3493 24.8624 16.1615C24.9047 15.9996 25.0744 15.6772 25.2624 15.4015C25.3412 15.286 25.4563 15.088 25.518 14.9615C25.6266 14.7392 25.642 14.7191 25.9787 14.3615C26.1703 14.158 26.684 13.63 27.1203 13.1881C27.5565 12.7462 27.9135 12.3795 27.9135 12.3731C27.9135 12.3494 27.8896 12.3663 27.6096 12.5877C27.4522 12.7122 27.0369 13.0407 26.6865 13.3177L26.0496 13.8215L25.9065 13.8211C25.8279 13.8209 25.5324 13.812 25.25 13.8014C24.7604 13.7829 24.7234 13.7787 24.4526 13.7106C23.9334 13.58 23.6293 13.409 23.4251 13.1327C23.2986 12.9618 23.2843 12.936 23.2202 12.7644C23.1477 12.5703 23.14 12.5424 23.0616 12.1923C23.0223 12.0168 22.9727 11.8278 22.9513 11.7723C22.8986 11.6359 22.8797 11.1552 22.8613 9.48153C22.8534 8.76103 22.8398 8.19853 22.8312 8.23153C22.8226 8.26453 22.7699 8.70103 22.7142 9.20153C22.6585 9.70203 22.6004 10.215 22.585 10.3415L22.557 10.5715L22.3002 10.819C21.8593 11.244 21.6746 11.4004 21.5248 11.4758C21.4471 11.5149 21.334 11.5787 21.2735 11.6176C20.8268 11.9049 20.4379 11.9915 20.0435 11.8916C19.9176 11.8597 19.5695 11.691 19.4586 11.6081C19.4229 11.5814 19.2744 11.4886 19.1286 11.4017C18.9828 11.3149 18.822 11.2114 18.7713 11.1717C18.6655 11.0888 17.8829 10.3367 16.9529 9.42412C16.6012 9.07905 16.3135 8.80493 16.3135 8.81498C16.3135 8.82503 16.4549 9.01286 16.6278 9.23239C16.8007 9.45192 17.1382 9.88296 17.3778 10.1902L17.8135 10.749L17.813 11.0602C17.8122 11.6028 17.7894 11.7883 17.6741 12.192C17.5079 12.774 17.4373 12.9239 17.2153 13.1661C16.9972 13.4039 16.6994 13.5411 16.1581 13.6529C15.9671 13.6923 15.7802 13.7374 15.7428 13.7531C15.6604 13.7875 14.901 13.8207 14.1835 13.8212C13.3494 13.8218 12.2188 13.848 12.2935 13.865C12.332 13.8737 12.728 13.9173 13.1735 13.9618C13.619 14.0063 14.1005 14.0563 14.2435 14.0729L14.5035 14.103L14.5909 14.1873C14.639 14.2336 14.8027 14.4055 14.9548 14.5694C15.171 14.8023 15.2467 14.899 15.3024 15.0131C15.3415 15.0934 15.3735 15.1638 15.3735 15.1696C15.3735 15.1753 15.4259 15.2682 15.4899 15.3758C15.7834 15.8694 15.8302 15.9905 15.8472 16.3015C15.8559 16.4609 15.8508 16.5428 15.8258 16.6415C15.781 16.819 15.6247 17.1327 15.4671 17.3615C15.3951 17.466 15.2883 17.64 15.2298 17.7482C15.0762 18.0324 14.8325 18.298 13.4095 19.7323C13.0817 20.0627 12.8135 20.34 12.8135 20.3486C12.8135 20.3724 12.8601 20.3362 13.7733 19.6034L14.6231 18.9215L14.8533 18.9222C15.3044 18.9236 15.7149 18.9564 15.8435 19.0013C15.9095 19.0244 16.067 19.0705 16.1935 19.1039C16.8929 19.2883 17.1541 19.4656 17.3977 19.9215C17.4905 20.0949 17.5194 20.1901 17.6019 20.5915C17.6404 20.7785 17.7036 21.0252 17.7424 21.1396L17.813 21.3478L17.833 21.8996C17.844 22.2032 17.8532 22.906 17.8535 23.4615C17.8539 24.3701 17.8618 24.6399 17.8872 24.6144C17.8918 24.6098 17.9488 24.2023 18.014 23.7088Z" fill="#E8473A"/>
<path d="M4.63331 37.9403C4.51826 37.9169 4.45341 37.869 4.40328 37.7703C4.36394 37.6929 4.36328 37.652 4.36328 35.2916C4.36328 33.3668 4.36845 32.877 4.38942 32.8178C4.42708 32.7116 4.48848 32.6419 4.58171 32.5995C4.65897 32.5644 4.75021 32.5625 6.30891 32.562C7.8576 32.5616 7.95538 32.5637 7.96891 32.5966C7.97681 32.6158 7.98328 32.8161 7.98328 33.0416C7.98328 33.2671 7.97681 33.4673 7.96891 33.4866C7.95544 33.5194 7.87805 33.5216 6.74341 33.5216H5.53229L5.51278 33.5729C5.49227 33.6268 5.48568 34.4013 5.50511 34.4737C5.51625 34.5152 5.5263 34.5159 6.24984 34.5278C6.65323 34.5345 7.04628 34.5494 7.12328 34.5611C7.60877 34.6344 7.99107 34.8197 8.23723 35.1011C8.62736 35.5471 8.72133 36.4309 8.43823 36.9916C8.24796 37.3684 7.90089 37.674 7.49485 37.8222C7.152 37.9473 7.15139 37.9474 5.88328 37.9533C5.23496 37.9563 4.68359 37.9506 4.63331 37.9403ZM6.99505 36.8892C7.16194 36.8101 7.26176 36.7103 7.34084 36.5434C7.39869 36.4213 7.40322 36.3962 7.40244 36.2016C7.4017 36.0184 7.39499 35.9776 7.34984 35.8816C7.2842 35.7421 7.15673 35.6192 7.00328 35.5476L6.88328 35.4916L6.21408 35.4851C5.5934 35.4791 5.54301 35.4812 5.51908 35.514C5.48544 35.56 5.48144 36.8621 5.51474 36.9243C5.53568 36.9635 5.5527 36.9643 6.19975 36.958L6.86328 36.9516L6.99505 36.8892ZM10.1306 37.9401C9.5445 37.8779 9.15412 37.5707 9.02335 37.0686C8.95701 36.8139 8.95106 36.6399 8.9579 35.1516C8.96463 33.6853 8.96511 33.6701 9.00983 33.5144C9.07729 33.2795 9.17617 33.1005 9.32642 32.9412C9.43385 32.8273 9.49416 32.7833 9.64129 32.7115C9.94678 32.5625 9.9568 32.5616 11.4 32.5616C12.4524 32.5616 12.6722 32.5663 12.6912 32.5891C12.7072 32.6084 12.7124 32.7481 12.7087 33.0536L12.7033 33.4904L12.6533 33.5157C12.6148 33.5352 12.355 33.5411 11.5312 33.5413C10.3981 33.5416 10.383 33.5427 10.2559 33.6372C10.1341 33.7277 10.1065 33.8265 10.097 34.2061C10.0924 34.3901 10.0944 34.5633 10.1013 34.5911L10.114 34.6416H11.2536C12.3666 34.6416 12.3942 34.6425 12.4333 34.6816C12.4706 34.7189 12.4733 34.7483 12.4733 35.1185C12.4733 35.4776 12.4698 35.5186 12.4367 35.5485C12.4036 35.5785 12.2935 35.5816 11.2691 35.5816C10.3022 35.5816 10.1346 35.5858 10.1139 35.6108C10.096 35.6324 10.0915 35.7708 10.0965 36.1464C10.1031 36.6437 10.1042 36.6546 10.1543 36.7522C10.1911 36.8237 10.2304 36.8656 10.2943 36.9016L10.3833 36.9516L11.5673 36.9616C12.5005 36.9695 12.7568 36.9771 12.7773 36.9976C12.7965 37.0168 12.8048 37.1323 12.8094 37.4423L12.8155 37.8612L12.7653 37.9114L12.7151 37.9616L11.4992 37.9589C10.8304 37.9575 10.2146 37.949 10.1306 37.9401ZM13.0871 37.9485C13.0249 37.9308 13.0133 37.8507 13.0133 37.4403C13.0133 37.0683 13.0159 37.0389 13.0533 37.0016C13.0805 36.9744 13.1204 36.9615 13.1783 36.9612C13.2956 36.9606 13.408 36.9042 13.507 36.7964C13.794 36.4838 13.8664 36.0411 14.0034 33.7595C14.0639 32.7528 14.0795 32.6822 14.2598 32.6004C14.3394 32.5642 14.4152 32.5625 15.9133 32.5625C17.3944 32.5625 17.4878 32.5646 17.5633 32.5992C17.6585 32.6429 17.6995 32.6859 17.7475 32.7923C17.7811 32.8669 17.7836 33.0194 17.7888 35.3539C17.7924 36.9763 17.7874 37.8545 17.7743 37.8889L17.7542 37.9416H17.2262C16.7595 37.9416 16.695 37.9378 16.6707 37.9085C16.648 37.8811 16.6415 37.5056 16.6333 35.7135L16.6233 33.5516H15.8633H15.1033L15.0884 33.7316C15.0802 33.8306 15.0504 34.2356 15.0221 34.6316C14.9438 35.7292 14.8879 36.1555 14.7618 36.6154C14.647 37.0344 14.4587 37.3827 14.2207 37.6162C14.0023 37.8305 13.7445 37.928 13.3433 37.9479C13.2223 37.9539 13.107 37.9542 13.0871 37.9485ZM18.5647 37.9302C18.5364 37.9019 18.5333 37.6329 18.5336 35.2652C18.5337 33.6427 18.5411 32.6201 18.5528 32.6016C18.5687 32.5765 18.6547 32.5706 19.082 32.5656C19.4198 32.5617 19.6059 32.567 19.6326 32.5812C19.6721 32.6024 19.673 32.6235 19.6781 33.6272L19.6833 34.6516L20.1333 34.6509C20.5552 34.6503 20.5905 34.6474 20.6989 34.6043C20.9467 34.5056 21.0935 34.3321 21.1917 34.0216C21.2248 33.9171 21.3248 33.5572 21.414 33.2219C21.5032 32.8865 21.5856 32.6008 21.5972 32.5869C21.6131 32.5677 21.7407 32.5616 22.1233 32.5616C22.5523 32.5616 22.6322 32.5662 22.6538 32.5922C22.6748 32.6175 22.6452 32.7552 22.4832 33.3872C22.3755 33.8076 22.2625 34.2207 22.2322 34.3051C22.1381 34.5674 21.9319 34.8425 21.7286 34.9771C21.6508 35.0285 21.6382 35.0738 21.6933 35.1035C21.7098 35.1124 21.7857 35.1494 21.8619 35.1857C22.1107 35.304 22.2637 35.4955 22.37 35.8216C22.4393 36.034 22.9133 37.8256 22.9133 37.8748C22.9133 37.9564 22.8614 37.9639 22.3434 37.9576C21.9331 37.9526 21.8496 37.9466 21.8235 37.9204C21.8064 37.9033 21.6808 37.4983 21.5445 37.0204C21.4082 36.5426 21.278 36.1044 21.2553 36.0468C21.1509 35.7819 20.9995 35.64 20.7433 35.5668C20.6354 35.536 19.8182 35.506 19.7249 35.5294L19.6733 35.5424V36.7313C19.6733 37.8862 19.6722 37.9208 19.6346 37.9409C19.6109 37.9536 19.4023 37.9616 19.096 37.9616C18.6682 37.9616 18.5916 37.9571 18.5647 37.9302ZM23.1683 37.9407C23.1487 37.9289 23.1333 37.8958 23.1334 37.8656C23.1337 37.776 24.7818 32.8508 24.8461 32.7472C24.9469 32.585 24.992 32.5726 25.5072 32.5655C25.7818 32.5618 25.9817 32.5677 26.0313 32.5811C26.1311 32.608 26.2239 32.6845 26.2714 32.7791C26.344 32.9237 27.9762 37.8609 27.964 37.8992C27.9574 37.9201 27.932 37.9426 27.9076 37.9492C27.8279 37.9705 26.9026 37.9628 26.8378 37.9402C26.8041 37.9284 26.7704 37.9037 26.763 37.8852C26.7555 37.8667 26.6836 37.633 26.6031 37.3657C26.5226 37.0985 26.4458 36.8668 26.4325 36.8507C26.412 36.826 26.275 36.8216 25.5315 36.8216C24.7137 36.8216 24.6534 36.824 24.6358 36.8569C24.6254 36.8764 24.549 37.1119 24.4661 37.3803C24.3686 37.6959 24.3007 37.8831 24.2738 37.91C24.2341 37.9497 24.2087 37.9518 23.7177 37.9567C23.384 37.96 23.191 37.9543 23.1683 37.9407ZM26.1323 35.8826C26.1567 35.8672 26.1368 35.7817 26.0077 35.3479C25.9232 35.0639 25.7936 34.5989 25.7197 34.3145C25.5918 33.8222 25.5614 33.7455 25.5128 33.7941C25.503 33.8038 25.4276 34.0638 25.3451 34.3717C25.2626 34.6797 25.1363 35.1273 25.0642 35.3664C24.9353 35.7944 24.9201 35.8618 24.9466 35.8883C24.9672 35.9088 26.0994 35.9034 26.1323 35.8826ZM28.3989 37.9417C28.3744 37.9316 28.3494 37.9027 28.3433 37.8775C28.3371 37.8522 28.3346 36.6976 28.3377 35.3116C28.3432 32.8322 28.3439 32.7905 28.3833 32.7252C28.4053 32.6887 28.4548 32.6392 28.4933 32.6152C28.5629 32.5718 28.57 32.5716 29.7471 32.566C30.8823 32.5606 30.9395 32.5621 31.1366 32.6023C31.7958 32.7366 32.2498 33.1513 32.4167 33.7716C32.4732 33.9814 32.4789 34.459 32.4274 34.6663C32.2575 35.3507 31.8401 35.758 31.1371 35.9252C30.983 35.9618 30.8836 35.9675 30.2633 35.9746C29.8783 35.9791 29.543 35.9872 29.5183 35.9926L29.4733 36.0024V36.9382C29.4733 37.7143 29.4684 37.8806 29.4449 37.9128C29.4183 37.9492 29.3859 37.9519 28.9299 37.9558C28.6622 37.9582 28.4233 37.9518 28.3989 37.9417ZM30.7685 35.0331C30.9907 34.9739 31.1583 34.8273 31.2336 34.626C31.3661 34.2719 31.2539 33.8607 30.9767 33.6843C30.7972 33.5701 30.7232 33.5604 30.0721 33.5663L29.4833 33.5716L29.478 34.2915C29.4751 34.6875 29.4771 35.0227 29.4824 35.0365C29.497 35.0745 30.6241 35.0715 30.7685 35.0331ZM34.1796 37.942C34.1555 37.932 34.1263 37.9059 34.1146 37.884C34.0999 37.8566 34.0933 37.1775 34.0933 35.6951C34.0933 33.7537 34.0902 33.5447 34.0616 33.5337C34.0442 33.5271 33.7162 33.5216 33.3328 33.5216H32.6355L32.6044 33.4771C32.5787 33.4405 32.5733 33.3627 32.5733 33.0358C32.5733 32.8005 32.5817 32.6232 32.594 32.6003C32.6142 32.5624 32.6586 32.5616 34.69 32.5616C36.2774 32.5616 36.7709 32.5672 36.7893 32.5856C36.8064 32.6028 36.8133 32.7302 36.8133 33.0325C36.8133 33.4168 36.8099 33.4584 36.7767 33.4885C36.7441 33.518 36.662 33.5216 36.0207 33.5216C35.4878 33.5216 35.295 33.5278 35.2773 33.5456C35.2589 33.564 35.2533 34.0771 35.2533 35.7332C35.2533 37.7201 35.2506 37.8989 35.2202 37.9242C35.1946 37.9455 35.0795 37.9525 34.7052 37.9558C34.4401 37.9582 34.2036 37.9519 34.1796 37.942ZM18.2019 30.8638C18.1432 30.8371 17.6559 30.356 16.4474 29.1316C15.5272 28.1992 14.7182 27.3685 14.6496 27.2856L14.525 27.1349L14.5941 27.1488C14.6321 27.1565 14.7533 27.1725 14.8633 27.1844C14.9733 27.1963 15.0793 27.2145 15.099 27.2249C15.1187 27.2353 15.152 27.2384 15.173 27.2317C15.1941 27.225 15.25 27.2306 15.2973 27.2441C15.3446 27.2576 15.3904 27.267 15.399 27.2649C15.4077 27.2628 15.5202 27.28 15.649 27.3031C15.7779 27.3262 15.9553 27.3537 16.0433 27.3642C16.1313 27.3747 16.2888 27.3965 16.3933 27.4126C16.4978 27.4288 16.6808 27.4555 16.8 27.472C16.9191 27.4885 17.033 27.5107 17.0529 27.5214C17.0728 27.5321 17.2183 27.5552 17.3762 27.5729C17.6584 27.6045 17.9548 27.6499 18.5375 27.7507C18.6994 27.7787 18.8659 27.8017 18.9075 27.8019C18.9492 27.8021 19.0778 27.8202 19.1933 27.8423C19.3088 27.8643 19.4348 27.8855 19.4733 27.8894C19.6625 27.9088 19.7879 27.9288 19.8333 27.9468C19.8608 27.9578 19.9103 27.9695 19.9433 27.9728C20.4403 28.0232 20.4821 28.0288 20.8233 28.0904C20.9223 28.1082 21.0335 28.1294 21.0704 28.1375L21.1375 28.1521L20.8284 28.4818C20.6584 28.6632 20.0702 29.2653 19.5213 29.8198C18.5378 30.8132 18.4408 30.9007 18.3233 30.9007C18.3013 30.9007 18.2467 30.8841 18.2019 30.8638ZM25.268 28.1811C24.5005 28.1737 23.8667 28.1617 23.8594 28.1544C23.8414 28.1364 23.9503 28.0252 24.0018 28.009C24.0246 28.0018 24.0826 27.9613 24.1307 27.9191C24.1788 27.8768 24.2643 27.8102 24.3207 27.7712C24.3771 27.7321 24.4812 27.6599 24.5521 27.6108C24.623 27.5617 24.686 27.5142 24.6921 27.5052C24.6982 27.4963 24.7467 27.4581 24.7997 27.4203C24.8527 27.3825 24.9472 27.3135 25.0097 27.2669C25.0722 27.2203 25.1529 27.1682 25.1891 27.1512C25.2254 27.1342 25.2602 27.1067 25.2667 27.09C25.2771 27.0627 25.3357 27.0185 25.5502 26.8761C25.587 26.8516 25.65 26.8038 25.6902 26.7698C25.7304 26.7358 25.8308 26.6613 25.9133 26.6043C25.9958 26.5473 26.1008 26.4716 26.1467 26.4361C26.3123 26.308 26.5006 26.1708 26.5613 26.1341C26.5954 26.1135 26.6613 26.0618 26.7078 26.0191C26.7543 25.9765 26.8013 25.9416 26.8121 25.9416C26.823 25.9416 26.8775 25.9011 26.9333 25.8516C26.989 25.8021 27.0439 25.7616 27.0553 25.7616C27.0666 25.7616 27.1242 25.7233 27.1831 25.6766C27.242 25.6298 27.3404 25.5563 27.4017 25.5131C27.4631 25.4699 27.5133 25.4274 27.5133 25.4185C27.5133 25.4097 27.5515 25.3831 27.5983 25.3594C27.645 25.3358 27.7213 25.2816 27.7678 25.239C27.8143 25.1964 27.861 25.1616 27.8715 25.1616C27.882 25.1616 27.9586 25.1076 28.0416 25.0416C28.1247 24.9756 28.2018 24.9216 28.2129 24.9216C28.2241 24.9216 28.2699 24.886 28.3148 24.8425C28.3596 24.7989 28.4158 24.7571 28.4396 24.7496C28.4787 24.7372 28.5205 24.7046 28.6359 24.5966C28.6564 24.5773 28.6817 24.5616 28.6921 24.5616C28.7025 24.5616 28.7678 24.5134 28.8372 24.4545C28.9066 24.3956 29.0013 24.3281 29.0476 24.3045C29.0939 24.2809 29.1488 24.2433 29.1696 24.221C29.207 24.1808 29.2075 24.1821 29.2205 24.336C29.2277 24.4216 29.2388 25.2746 29.2453 26.2316C29.2566 27.9203 29.2558 27.9737 29.2186 28.0416C29.1954 28.084 29.1457 28.1293 29.0925 28.1566L29.0048 28.2016L27.834 28.1981C27.1901 28.1962 26.0354 28.1886 25.268 28.1811ZM22.8866 27.8483C22.8793 27.8409 22.8731 27.7172 22.8728 27.5733C22.8724 27.2771 22.8427 26.7688 22.8229 26.7177C22.8157 26.699 22.7866 26.676 22.7581 26.6666C22.7083 26.6499 22.7199 26.6358 23.0848 26.2691C23.8933 25.4569 24.5933 24.7749 24.6057 24.7874C24.6194 24.8011 24.5799 24.8747 23.9435 26.0216C23.7269 26.4121 23.4091 26.9858 23.2373 27.2966C23.0656 27.6073 22.9194 27.8616 22.9125 27.8616C22.9056 27.8616 22.8939 27.8556 22.8866 27.8483ZM14.0733 26.2825C14.0733 26.2694 14.203 26.1206 14.3615 25.9518C14.52 25.783 14.6871 25.5976 14.7329 25.5397C14.812 25.4397 14.8172 25.4187 14.7834 25.3366C14.7697 25.3035 14.8403 25.3016 16.1028 25.3016C17.0868 25.3016 17.4346 25.3075 17.429 25.3242C17.4249 25.3367 17.3364 25.3718 17.2324 25.4022C16.6956 25.5592 14.157 26.2884 14.1183 26.2967C14.0914 26.3024 14.0733 26.2967 14.0733 26.2825ZM8.69692 25.2424C8.65655 25.2169 8.61437 25.1639 8.58923 25.1071C8.54807 25.0141 8.54796 25.0057 8.56068 22.9826C8.5677 21.8656 8.57909 20.6514 8.586 20.2846L8.59856 19.6176L8.64558 19.6746C8.67144 19.7059 8.72098 19.7811 8.75568 19.8416C8.79037 19.9021 8.84045 19.9786 8.86696 20.0116C8.91529 20.0717 9.07091 20.3019 9.18328 20.4794C9.21628 20.5315 9.27226 20.6106 9.30768 20.655C9.3431 20.6995 9.38159 20.7574 9.39322 20.7837C9.40484 20.8101 9.46851 20.9081 9.53471 21.0016C9.6009 21.0951 9.69 21.2256 9.7327 21.2916C9.77541 21.3576 9.83194 21.4386 9.85832 21.4716C9.8847 21.5046 9.93515 21.5827 9.97044 21.6452C10.0057 21.7077 10.0613 21.7874 10.0939 21.8223C10.1266 21.8572 10.1533 21.8975 10.1533 21.9118C10.1533 21.9338 10.1978 21.9959 10.3146 22.137C10.3262 22.151 10.3489 22.1915 10.3651 22.227C10.3812 22.2625 10.4309 22.3411 10.4753 22.4016C10.5198 22.4621 10.5803 22.5476 10.6098 22.5916C10.6392 22.6356 10.6925 22.7105 10.7283 22.7581C10.764 22.8057 10.7933 22.8538 10.7933 22.865C10.7933 22.8849 10.8323 22.9404 10.9356 23.0673C10.9643 23.1027 10.9943 23.1521 11.0021 23.1771C11.0099 23.2022 11.0516 23.2635 11.0948 23.3134C11.1379 23.3632 11.1733 23.4129 11.1733 23.4237C11.1733 23.4345 11.216 23.5006 11.2683 23.5706C11.3205 23.6406 11.3789 23.7234 11.3981 23.7547C11.4172 23.786 11.4727 23.8701 11.5214 23.9416C11.5701 24.0131 11.6579 24.1422 11.7166 24.2286C11.7753 24.3149 11.8638 24.4432 11.9133 24.5137C12.0159 24.6598 12.1833 24.9122 12.2449 25.0138C12.2679 25.0516 12.3106 25.1075 12.3399 25.1381C12.4096 25.2109 12.4072 25.2343 12.3283 25.2501C12.2925 25.2573 11.4758 25.2679 10.5133 25.2737L8.76328 25.2843L8.69692 25.2424ZM29.9233 22.3792C29.4907 21.9703 29.3898 21.8913 29.3363 21.92C29.3146 21.9316 29.2929 21.9525 29.2881 21.9664C29.2834 21.9802 29.2728 21.8896 29.2646 21.7649C29.2449 21.4657 29.2735 19.2939 29.2968 19.3172C29.3152 19.3355 30.2722 22.5483 30.2886 22.6466C30.2937 22.6768 30.29 22.7014 30.2805 22.7011C30.271 22.7009 30.1103 22.556 29.9233 22.3792ZM31.1593 22.1714C31.1663 22.1385 31.1818 22.0261 31.194 21.9216C31.2061 21.8171 31.2293 21.6506 31.2456 21.5516C31.2618 21.4526 31.2885 21.2861 31.3047 21.1816C31.321 21.0771 31.352 20.8989 31.3738 20.7856C31.3955 20.6723 31.4133 20.5311 31.4133 20.4718C31.4133 20.4126 31.4262 20.3073 31.4421 20.2378C31.458 20.1684 31.4811 20.0175 31.4936 19.9026C31.506 19.7876 31.5252 19.6766 31.5363 19.6559C31.5474 19.6351 31.5599 19.5852 31.5641 19.5449C31.5683 19.5046 31.581 19.4131 31.5924 19.3416C31.6039 19.2701 31.6215 19.1441 31.6315 19.0616C31.6547 18.8722 31.6997 18.5851 31.7743 18.1516C31.8065 17.9646 31.837 17.748 31.8421 17.6702C31.8472 17.5924 31.8616 17.4889 31.874 17.4402C31.8864 17.3915 31.9082 17.2706 31.9225 17.1716C31.9368 17.0726 31.9668 16.8836 31.9891 16.7516C32.0255 16.5369 32.0418 16.4187 32.0633 16.2146C32.069 16.16 32.1018 15.9609 32.1445 15.7211L32.157 15.6506L32.2288 15.7111C32.5432 15.9761 34.8077 18.2122 34.8544 18.3038C34.9091 18.4111 34.9037 18.4977 34.8356 18.6027C34.8038 18.6516 34.5091 18.9571 34.1806 19.2817C31.739 21.6936 31.4677 21.9588 31.275 22.1224C31.1487 22.2295 31.147 22.2303 31.1593 22.1714ZM10.6033 19.891C9.88828 19.5011 9.21103 19.132 9.09828 19.0708C8.98553 19.0096 8.89328 18.9514 8.89328 18.9414C8.89328 18.9128 8.99373 18.9043 9.46328 18.8931C10.0119 18.8801 10.0499 18.8741 10.0827 18.7963L10.1076 18.7369L10.2154 18.836C10.3914 18.9979 11.9533 20.5719 11.9533 20.5874C11.9533 20.5952 11.942 20.6012 11.9283 20.6007C11.9145 20.6002 11.3183 20.2808 10.6033 19.891ZM8.25058 16.8166C8.09296 16.6708 7.48507 16.0746 6.89972 15.4916C5.90687 14.5027 5.83463 14.4261 5.82318 14.35C5.79687 14.1751 5.75735 14.2186 7.53103 12.4671C8.43976 11.5697 9.26428 10.7644 9.36328 10.6776L9.54328 10.5198L9.54958 10.5811C9.55304 10.6149 9.53182 10.7885 9.50243 10.967C9.47303 11.1455 9.44652 11.3141 9.44351 11.3416C9.44051 11.3691 9.43299 11.4051 9.42681 11.4216C9.42063 11.4381 9.40127 11.5641 9.38378 11.7016C9.33739 12.0663 9.29575 12.3449 9.25375 12.5716C9.23337 12.6816 9.20644 12.8436 9.19391 12.9316C9.16894 13.1069 9.11795 13.471 9.10287 13.5816C9.09763 13.6201 9.07981 13.7281 9.06329 13.8216C8.98964 14.2384 8.96719 14.3874 8.94278 14.6216C8.92844 14.7591 8.90715 14.9147 8.89547 14.9673C8.88379 15.0199 8.86505 15.1279 8.85385 15.2073C8.84264 15.2867 8.81575 15.4461 8.79409 15.5616C8.77244 15.6771 8.7544 15.8029 8.754 15.8411C8.7536 15.8794 8.74017 15.9784 8.72415 16.0611C8.70812 16.1439 8.68467 16.2926 8.67202 16.3916C8.65937 16.4906 8.64164 16.5986 8.63261 16.6316C8.62358 16.6646 8.61172 16.7321 8.60625 16.7816C8.58277 16.9942 8.56715 17.0816 8.55265 17.0816C8.54413 17.0816 8.40821 16.9623 8.25058 16.8166ZM29.886 13.3016C29.1466 12.5694 28.7407 12.1475 28.7586 12.1296C28.7679 12.1202 29.2701 12.3902 31.4497 13.5764C31.6622 13.6921 31.8287 13.7935 31.8197 13.8019C31.8107 13.8102 31.5558 13.8263 31.2533 13.8377C30.9508 13.8491 30.6792 13.8677 30.6498 13.8789C30.6174 13.8914 30.5937 13.9176 30.5896 13.9455C30.5839 13.9844 30.4746 13.8844 29.886 13.3016ZM11.1841 12.6866C11.0652 12.2823 10.8432 11.5301 10.6906 11.0149C10.5381 10.4997 10.4133 10.07 10.4133 10.0599C10.4133 10.0242 10.467 10.0423 10.5148 10.0941C10.6043 10.1912 11.1311 10.6789 11.2353 10.7613C11.3314 10.8373 11.3414 10.8408 11.383 10.8136C11.4275 10.7844 11.4275 10.7844 11.4403 10.948C11.457 11.163 11.4569 12.8667 11.4402 13.1785C11.433 13.3122 11.421 13.4216 11.4136 13.4216C11.4062 13.4216 11.303 13.0908 11.1841 12.6866ZM32.0878 12.8616C32.0616 12.8091 32.0071 12.7328 31.8533 12.5332C31.7708 12.4261 31.6853 12.3121 31.6633 12.2798C31.6413 12.2475 31.5693 12.1502 31.5033 12.0636C31.4373 11.977 31.3276 11.8264 31.2596 11.7289C31.1916 11.6314 31.1175 11.5319 31.0949 11.5077C31.0723 11.4836 31.0284 11.4238 30.9974 11.3749C30.9663 11.3259 30.9164 11.2557 30.8863 11.2187C30.7981 11.1103 30.6487 10.911 30.5733 10.8011C30.5348 10.745 30.4652 10.6488 30.4187 10.5874C30.3721 10.5259 30.3288 10.459 30.3223 10.4386C30.3158 10.4183 30.3021 10.4016 30.2917 10.4016C30.2813 10.4016 30.2425 10.3543 30.2054 10.2966C30.1684 10.2388 30.1182 10.1738 30.094 10.152C30.0698 10.1302 30.0377 10.0832 30.0228 10.0474C30.0079 10.0117 29.9564 9.93953 29.9085 9.88705C29.8605 9.83457 29.8046 9.76463 29.7842 9.73163C29.7638 9.69863 29.721 9.64013 29.689 9.60163C29.657 9.56313 29.5301 9.39405 29.407 9.22589C29.284 9.05773 29.1563 8.88369 29.1233 8.83912C29.0469 8.73593 28.8225 8.42359 28.7889 8.37355C28.7748 8.35261 28.7205 8.28325 28.6683 8.21943C28.616 8.1556 28.5733 8.09472 28.5733 8.08413C28.5733 8.07355 28.5403 8.02817 28.5 7.98328C28.4238 7.89842 28.408 7.87687 28.2953 7.70521C28.2579 7.64824 28.2199 7.60163 28.2108 7.60163C28.2017 7.60163 28.1808 7.57563 28.1644 7.54385L28.1345 7.48606L28.5989 7.47305C28.8543 7.46589 29.7113 7.45814 30.5033 7.45583C31.8563 7.45188 31.9472 7.4538 32.0091 7.4876C32.0454 7.50738 32.0933 7.55238 32.1156 7.5876C32.1561 7.65133 32.1562 7.66334 32.1447 10.1716C32.1339 12.5361 32.1254 12.9369 32.0878 12.8616ZM11.486 8.40663C11.4791 8.33238 11.4677 7.47963 11.4609 6.51163L11.4485 4.75163L11.4959 4.68347C11.5219 4.64598 11.5673 4.59752 11.5966 4.57579C11.6489 4.53704 11.6871 4.53631 13.5566 4.53862C15.6637 4.54123 16.9176 4.5585 16.9014 4.58469C16.892 4.5998 16.7312 4.71655 16.6025 4.80163C16.5775 4.81813 16.5315 4.85246 16.5002 4.87792C16.3117 5.03123 16.1874 5.12163 16.165 5.12163C16.151 5.12163 16.1223 5.1407 16.1014 5.16401C16.0804 5.18733 16.0048 5.24519 15.9333 5.2926C15.8618 5.34002 15.7679 5.41094 15.7246 5.45022C15.6814 5.48949 15.639 5.52163 15.6304 5.52163C15.6218 5.52163 15.5665 5.56101 15.5074 5.60914C15.4483 5.65726 15.3804 5.70709 15.3566 5.71985C15.3122 5.74358 15.0071 5.96777 14.8633 6.08231C14.8193 6.11735 14.7068 6.19985 14.6133 6.26564C14.5198 6.33144 14.4073 6.41411 14.3633 6.44935C14.3193 6.48459 14.2315 6.54725 14.1683 6.58859C14.105 6.62994 14.0533 6.67035 14.0533 6.67839C14.0533 6.68643 14.024 6.7098 13.9883 6.73033C13.9525 6.75086 13.8857 6.7978 13.8399 6.83464C13.794 6.87149 13.7495 6.90163 13.741 6.90163C13.7324 6.90163 13.7025 6.92343 13.6744 6.95008C13.6091 7.01197 13.4436 7.13006 13.3533 7.17926C13.3148 7.20022 13.2653 7.2375 13.2433 7.26209C13.2213 7.28669 13.1673 7.32965 13.1234 7.35755C13.0794 7.38546 12.9912 7.45179 12.9273 7.50496C12.8635 7.55813 12.8038 7.60163 12.7948 7.60163C12.7857 7.60163 12.7221 7.64663 12.6533 7.70163C12.5845 7.75663 12.5201 7.80163 12.5103 7.80163C12.5004 7.80163 12.4543 7.83632 12.4078 7.87871C12.3613 7.92111 12.2996 7.96836 12.2706 7.98371C12.2183 8.01148 11.8905 8.25384 11.8333 8.30707C11.8168 8.32242 11.7523 8.3683 11.6901 8.40902C11.6279 8.44973 11.566 8.49623 11.5527 8.51234C11.5104 8.56323 11.4991 8.54522 11.486 8.40663ZM16.0333 8.04323C16.0333 8.03186 16.1623 7.7906 16.3201 7.50709C16.4779 7.22359 16.8706 6.51463 17.1929 5.93163C17.5151 5.34863 17.7825 4.86739 17.7871 4.86221C17.8146 4.83116 17.8327 4.94116 17.8332 5.14163C17.8339 5.41727 17.8675 6.02338 17.8845 6.06773C17.8912 6.08509 17.9161 6.10207 17.9399 6.10546C17.9749 6.11044 17.8029 6.29438 17.0459 7.06139C16.5304 7.58376 16.0916 8.02302 16.0709 8.03753C16.0487 8.0531 16.0333 8.05543 16.0333 8.04323ZM23.2961 7.42382C23.2812 7.41437 23.2767 7.4021 23.2861 7.39657C23.2955 7.39104 23.4833 7.33534 23.7033 7.27279C24.2538 7.11625 26.5975 6.4422 26.6283 6.43154C26.7024 6.40585 26.6257 6.51083 26.3948 6.75078C26.0137 7.14687 25.8687 7.3222 25.8788 7.37482C25.8848 7.40636 25.8754 7.42171 25.8452 7.42982C25.7765 7.44828 23.3256 7.44251 23.2961 7.42382ZM26.0133 5.56163C25.9858 5.55282 25.9258 5.54472 25.8801 5.54362C25.8343 5.54253 25.5328 5.49705 25.2101 5.44257C24.8873 5.38809 24.5603 5.33828 24.4833 5.33187C24.4063 5.32547 24.2983 5.31194 24.2433 5.30182C23.8131 5.22261 23.5923 5.18839 23.0933 5.12358C22.9338 5.10287 22.6998 5.06666 22.5733 5.04313C22.1236 4.95947 22.0219 4.94228 21.9133 4.93151C21.8528 4.92551 21.7448 4.91182 21.6733 4.90108C21.6018 4.89035 21.4494 4.86764 21.3348 4.85063C21.2201 4.83361 21.1181 4.81459 21.108 4.80836C21.0979 4.80213 21.0522 4.79425 21.0065 4.79084C20.9607 4.78744 20.8378 4.7701 20.7333 4.7523C20.6288 4.73451 20.5073 4.71683 20.4633 4.71301C20.2769 4.69682 19.6392 4.59423 19.6228 4.57779C19.6005 4.55549 20.0349 4.09934 21.0827 3.04489C21.7096 2.41401 22.247 1.88519 22.2769 1.86973C22.3469 1.83355 22.4605 1.83382 22.5293 1.87033C22.6139 1.91534 25.739 5.06466 26.0745 5.44307L26.1974 5.58163L26.1303 5.57963C26.0934 5.57854 26.0408 5.57044 26.0133 5.56163Z" fill="#E8473A"/>
</g>
</svg>
