<svg width="60" height="21" viewBox="0 0 60 21" fill="none" xmlns="http://www.w3.org/2000/svg">
<g clip-path="url(#clip0_354_158)">
<mask id="mask0_354_158" style="mask-type:luminance" maskUnits="userSpaceOnUse" x="0" y="0" width="60" height="21">
<path d="M59.5938 0.441406H0.59375V20.4414H59.5938V0.441406Z" fill="white"/>
</mask>
<g mask="url(#mask0_354_158)">
<path d="M12.0447 0.441406C12.5868 0.573624 12.9435 0.937416 13.2825 1.35942C14.3453 2.68216 15.4335 3.98448 16.5101 5.29613C17.0812 5.99194 17.0786 6.62867 16.5078 7.32396C12.9888 11.6109 9.46838 15.8968 5.94666 20.1816C5.85502 20.293 5.70177 20.4248 5.57588 20.4262C4.07739 20.4431 2.57864 20.4371 1.00391 20.4371C1.15585 20.2441 1.26397 20.1024 1.37663 19.9643C5.01589 15.5053 8.65724 11.048 12.3007 6.59247C12.4827 6.37031 12.4999 6.24147 12.3089 6.01193C10.8693 4.28201 9.44515 2.53926 8.01789 0.799149C7.92486 0.685731 7.84574 0.560919 7.76015 0.441406H12.0447Z" fill="white"/>
<path d="M5.39536 0.441406C5.90526 1.0848 6.40948 1.7328 6.92624 2.37064C7.98638 3.67919 9.05324 4.9823 10.1365 6.31117C9.34337 7.27895 8.55883 8.23627 7.7453 9.22895C7.26747 8.64965 6.80866 8.096 6.35261 7.54007C4.49609 5.27691 2.64054 3.01294 0.785986 0.748174C0.715304 0.650189 0.651089 0.547716 0.59375 0.441406H5.39536Z" fill="white"/>
<path d="M8.18555 20.4324L18.499 7.78564C18.5592 7.82906 18.6156 7.87741 18.6677 7.93019C19.1748 8.5483 19.6845 9.16439 20.1829 9.78952C20.6469 10.3715 20.6524 11.0428 20.1844 11.6139C17.9154 14.3825 15.6483 17.1527 13.354 19.9002C13.1395 20.157 12.7445 20.3956 12.4238 20.4086C11.0496 20.4643 9.67193 20.4324 8.18555 20.4324Z" fill="white"/>
<path d="M33.0801 6.64786H35.1355V7.48079C35.2028 7.44141 35.2674 7.39749 35.3288 7.34935C36.99 5.73103 40.6141 6.20527 41.3489 9.56556C41.6845 11.1004 41.3852 12.5237 40.2173 13.6781C39.5853 14.3009 38.7442 14.6675 37.8567 14.7069C36.9693 14.7463 36.0988 14.4557 35.4139 13.8913C35.3495 13.8382 35.2832 13.7874 35.1645 13.6933V17.5872H33.0801V6.64786ZM35.1428 10.5832C35.1415 11.8407 36.0348 12.8099 37.2062 12.8218C38.3833 12.8337 39.3093 11.8471 39.3089 10.5813C39.3085 9.32721 38.4045 8.36825 37.2227 8.36813C36.0407 8.36802 35.1441 9.32288 35.1428 10.5832Z" fill="white"/>
<path d="M44.6536 11.4126C44.7494 11.2935 44.8475 11.1761 44.9409 11.0551C46.0157 9.6636 47.0933 8.27409 48.1601 6.87641C48.3015 6.69113 48.4468 6.60971 48.6819 6.61662C49.2321 6.63277 49.7831 6.62178 50.3543 6.62178V14.5238H48.3182V9.6882C48.1735 9.84772 48.0986 9.91979 48.0357 10.0011C46.9381 11.4217 45.8375 12.84 44.7507 14.2687C44.5915 14.4781 44.4277 14.5614 44.1671 14.5521C43.6286 14.5328 43.0888 14.5463 42.5254 14.5463V6.64918H44.5657V11.386L44.6536 11.4126Z" fill="white"/>
<path d="M25.8208 11.3171C26.1506 12.2305 26.7274 12.7516 27.6026 12.8871C28.5882 13.0397 29.3973 12.7297 29.9611 11.8195C30.5168 12.0687 31.0707 12.3171 31.6531 12.5783C31.392 13.0753 31.023 13.5078 30.5729 13.8443C28.542 15.4126 25.3501 14.7986 24.1749 12.5702C23.4406 11.1779 23.4671 9.73344 24.3007 8.38918C25.1485 7.02192 26.4471 6.40809 28.0498 6.48087C30.546 6.59423 32.1783 8.4772 31.9892 10.9808C31.9678 11.2631 31.8529 11.3223 31.5986 11.3212C29.8397 11.3132 28.0808 11.3171 26.3219 11.3171C26.1776 11.3171 26.0332 11.3171 25.8208 11.3171ZM29.8059 9.72146C29.6276 8.84232 28.7805 8.24302 27.7664 8.26071C26.8943 8.27593 26.0421 8.94459 25.9223 9.72146H29.8059Z" fill="white"/>
<path d="M52.0299 14.5223V14.1636C52.0299 11.7781 52.0291 9.39261 52.0274 7.00711C52.027 6.77878 52.0205 6.61408 52.3425 6.61574C54.6799 6.62784 57.0174 6.62224 59.3548 6.62352C59.4266 6.62356 59.4983 6.63749 59.5937 6.6474V14.5208H57.5722V8.47558C57.4668 8.45793 57.3606 8.44577 57.2539 8.43914C56.319 8.43668 55.3839 8.4467 54.4491 8.43191C54.1729 8.42754 54.0911 8.51498 54.0927 8.78933C54.1033 10.5477 54.0981 12.3061 54.098 14.0645C54.098 14.2091 54.098 14.3537 54.098 14.5223H52.0299Z" fill="white"/>
</g>
</g>
<defs>
<clipPath id="clip0_354_158">
<rect width="60" height="21" fill="white"/>
</clipPath>
</defs>
</svg>
