<svg width="104" height="23" viewBox="0 0 104 23" fill="none" xmlns="http://www.w3.org/2000/svg">
<g clip-path="url(#clip0_354_114)">
<mask id="mask0_354_114" style="mask-type:luminance" maskUnits="userSpaceOnUse" x="46" y="1" width="58" height="21">
<path d="M103.606 1.37598H46.9883V21.6327H103.606V1.37598Z" fill="white"/>
</mask>
<g mask="url(#mask0_354_114)">
<path fill-rule="evenodd" clip-rule="evenodd" d="M48.6994 3.36149H48.6622V3.39836H48.6994V10.3144H49.8499V4.84874H49.8127V4.81146H49.8499V4.73692H49.8867V4.88601H49.9239V4.96015H49.9612V5.07156H49.9984V5.18338H50.0356V5.22065H50.0724V5.36933H50.1096V5.4062H50.1468V5.51802H50.184V5.62943H50.2212V5.70397H50.258V5.81539H50.2952V5.85266H50.3324V5.96407H50.3696V6.07548H50.4068V6.15003H50.4436V6.26144H50.4808V6.33598H50.518V6.4474H50.5548V6.48467H50.592V6.59608H50.6292V6.7079H50.6665V6.78204H50.7037V6.89385H50.7405V6.93072H50.7777V7.0794H50.8149V7.15395H50.8521V7.22849H50.8893V7.33991H50.9261V7.41405H50.9633V7.52586H51.0005V7.6H51.0377V7.71182H51.0749V7.78596H51.1117V7.8605H51.1489V7.97191H51.1861V8.04646H51.2229V8.15787H51.2601V8.26928H51.2973V8.30656H51.3345V8.41797H51.3718V8.49251H51.4086V8.60392H51.4458V8.67847H51.483V8.78988H51.5202V8.9017H51.5574V8.93856H51.5942V9.05038H51.6314V9.12452H51.6686V9.23634H51.7058V9.34775H51.743V9.42189H51.7798V9.53371H51.817V9.57098H51.8542V9.64512H53.042V9.60785H53.0788V9.57098H53.116V9.42189H53.1532V9.38502H53.1904V9.27321H53.2276V9.19907H53.2644V9.08725H53.3016V8.97584H53.3388V8.93856H53.376V8.78988H53.4128V8.75261H53.45V8.6412H53.4873V8.52978H53.5245V8.45524H53.5617V8.34383H53.5985V8.26928H53.6357V8.15787H53.6729V8.08333H53.7101V8.00919H53.7469V7.89778H53.7841V7.82323H53.8213V7.71182H53.8585V7.63727H53.8957V7.52586H53.9325V7.41405H53.9697V7.37718H54.0069V7.22849H54.0441V7.19122H54.0809V7.0794H54.1181V6.96799H54.1553V6.89385H54.1926V6.78204H54.2298V6.74476H54.2666V6.59608H54.3038V6.52194H54.341V6.4474H54.3782V6.33598H54.415V6.26144H54.4522V6.15003H54.4894V6.07548H54.5266V5.96407H54.5638V5.85266H54.6006V5.81539H54.6378V5.70397H54.675V5.62943H54.7122V5.51802H54.749V5.4062H54.7862V5.33206H54.8234V5.22065H54.8606V5.18338H54.8979V5.03469H54.9347V4.96015H54.9719V4.88601H55.0091V4.73692H55.0463V4.77419H55.0831V4.88601H55.0463V10.2771H55.0831V10.3144H56.234V3.32422H54.4522V3.39836H54.415V3.51017H54.3782V3.58431H54.341V3.65886H54.3038V3.77027H54.2666V3.84481H54.2298V3.95623H54.1926V4.03077H54.1553V4.10491H54.1181V4.21673H54.0809V4.29087H54.0441V4.40228H54.0069V4.5141H53.9697V4.55137H53.9325V4.70005H53.8957V4.73692H53.8585V4.84874H53.8213V4.92288H53.7841V5.03469H53.7469V5.1461H53.7101V5.22065H53.6729V5.33206H53.6357V5.36933H53.5985V5.48075H53.5617V5.59216H53.5245V5.6667H53.4873V5.77811H53.45V5.81539H53.4128V5.9268H53.376V6.03861H53.3388V6.11275H53.3016V6.22457H53.2644V6.26144H53.2276V6.41012H53.1904V6.48467H53.1532V6.55921H53.116V6.67062H53.0788V6.74476H53.042V6.85658H53.0048V6.93072H52.9676V7.04254H52.9304V7.11668H52.8936V7.19122H52.8564V7.30263H52.8192V7.37718H52.782V7.48859H52.7447V7.56313H52.7079V7.63727H52.6707V7.78596H52.6335V7.82323H52.5963V7.93464H52.5595V8.00919H52.5223V8.1206H52.4851V8.23242H52.4107V8.08333H52.3739V7.97191H52.3367V7.89778H52.2995V7.78596H52.2623V7.74869H52.2255V7.63727H52.1883V7.52586H52.1511V7.45132H52.1139V7.33991H52.0767V7.26536H52.0398V7.15395H52.0026V7.0794H51.9654V7.00526H51.9282V6.89385H51.8914V6.81931H51.8542V6.7079H51.817V6.63335H51.7798V6.55921H51.743V6.41012H51.7058V6.37326H51.6686V6.26144H51.6314V6.1873H51.5942V6.07548H51.5574V6.00134H51.5202V5.9268H51.483V5.77811H51.4458V5.74084H51.4086V5.62943H51.3718V5.55529H51.3345V5.44347H51.2973V5.33206H51.2601V5.29479H51.2229V5.1461H51.1861V5.10883H51.1489V4.99742H51.1117V4.88601H51.0749V4.81146H51.0377V4.70005H51.0005V4.66278H50.9633V4.55137H50.9261V4.43955H50.8893V4.36541H50.8521V4.25359H50.8149V4.17945H50.7777V4.06764H50.7405V3.9935H50.7037V3.91895H50.6665V3.80754H50.6292V3.733H50.592V3.62159H50.5548V3.54704H50.518V3.4729H50.4808V3.32422H48.6994V3.36149Z" fill="white"/>
<path fill-rule="evenodd" clip-rule="evenodd" d="M50.6666 12.9172H50.481V12.954H50.2213V12.9913H50.0357V13.0286H49.9613V13.0659H49.8129V13.1027H49.7389V13.14H49.6273V13.1773H49.5532V13.2145H49.4788V13.2518H49.4044V13.2887H49.3676V13.326H49.2932V13.3632H49.2188V13.4005H49.182V13.4374H49.1076V13.4746H49.0708V13.5119H49.0336V13.5492H48.9964V13.5865H48.9592V13.6233H48.8851V13.6979H48.8479V13.7351H48.8107V13.772H48.7735V13.8093H48.7363V13.8466H48.6995V13.9211H48.6623V13.958H48.6251V14.0325H48.5879V14.1067H48.5507V14.1812H48.5139V14.2557H48.4767V14.3672H48.4395V14.5158H48.4023V14.6272H48.3655V15.4083H48.4023V15.5198H48.4395V15.6684H48.4767V15.743H48.5139V15.8171H48.5507V15.8917H48.5879V15.9285H48.6251V16.0031H48.6623V16.0404H48.6995V16.1145H48.7363V16.1518H48.7735V16.189H48.8107V16.2263H48.8479V16.2636H48.8851V16.3005H48.9592V16.375H49.0336V16.4123H49.1076V16.4495H49.1448V16.4864H49.2188V16.5237H49.256V16.561H49.3304V16.5982H49.4416V16.6351H49.4788V16.6724H49.59V16.7096H49.7017V16.7469H49.8129V16.7838H50.0357V16.821H50.1097V16.8583H50.3698V16.8956H50.407V16.8583H50.4438V16.8956H50.6294V16.9329H50.9262V16.9697H51.1863V17.007H51.2975V17.0443H51.5203V17.0816H51.5943V17.1188H51.7432V17.1557H51.8544V17.193H51.9284V17.2302H52.0028V17.2675H52.04V17.3044H52.114V17.3416H52.1884V17.3789H52.2256V17.4162H52.2624V17.4903H52.2996V17.5276H52.3368V17.639H52.374V17.825H52.4108V17.8995H52.374V18.0109H52.3368V18.1227H52.2996V18.1969H52.2624V18.2342H52.2256V18.3083H52.1884V18.3456H52.1512V18.3828H52.114V18.4201H52.0768V18.4574H52.0028V18.4943H51.9656V18.5315H51.8916V18.5688H51.8544V18.6061H51.7432V18.6429H51.6687V18.6802H51.5575V18.7175H51.3347V18.7548H51.2231V18.792H50.481V18.7548H50.2953V18.7175H50.0725V18.6802H49.9241V18.6429H49.8129V18.6061H49.6645V18.5688H49.6273V18.5315H49.4788V18.4943H49.4416V18.4574H49.3304V18.4201H49.256V18.3828H49.182V18.3456H49.1076V18.3083H49.0708V18.2714H48.9964V18.2342H48.922V18.1969H48.8851V18.1596H48.8479V18.1227H48.8107V18.0855H48.7363V18.0482H48.6995V18.1227H48.6623V18.1596H48.6251V18.2342H48.5879V18.2714H48.5507V18.3456H48.5139V18.3828H48.4767V18.4201H48.4395V18.4943H48.4023V18.5315H48.3655V18.6061H48.3283V18.6429H48.2911V18.7175H48.2539V18.7548H48.2171V18.792H48.1798V18.8662H48.1426V19.0149H48.2171V19.0521H48.2911V19.0894H48.3283V19.1267H48.3655V19.1635H48.4395V19.2008H48.4767V19.2381H48.5507V19.2754H48.5879V19.3122H48.6995V19.3495H48.7363V19.3868H48.8107V19.424H48.922V19.4613H48.9592V19.4982H49.0708V19.5354H49.1448V19.5727H49.2932V19.61H49.4044V19.6469H49.4788V19.6841H49.6645V19.7214H49.7757V19.7587H49.9613V19.7959H50.2581V19.8328H50.2953V19.8701H51.3347V19.8328H51.3719V19.7959H51.6687V19.7587H51.8544V19.7214H51.9284V19.6841H52.0768V19.6469H52.1512V19.61H52.2624V19.5727H52.374V19.5354H52.4108V19.4982H52.4853V19.4613H52.5597V19.424H52.5965V19.3868H52.6709V19.3495H52.7081V19.3122H52.7821V19.2754H52.8193V19.2381H52.8565V19.2008H52.8937V19.1635H52.9305V19.1267H52.9677V19.0894H53.0049V19.0521H53.0421V19.0149H53.0789V18.9776H53.1161V18.9407H53.1533V18.9034H53.1906V18.8662H53.2278V18.792H53.2646V18.7548H53.3018V18.6802H53.339V18.6061H53.3762V18.5315H53.413V18.4574H53.4502V18.3456H53.4874V18.1596H53.5246V18.0482H53.5618V17.4162H53.5246V17.3044H53.4874V17.1557H53.4502V17.0443H53.413V16.9697H53.3762V16.8956H53.339V16.8583H53.3018V16.7838H53.2646V16.7469H53.2278V16.7096H53.1906V16.6351H53.1533V16.5982H53.1161V16.561H53.0789V16.5237H53.0421V16.4864H53.0049V16.4495H52.9305V16.4123H52.8937V16.375H52.8565V16.3377H52.7821V16.3005H52.7449V16.2636H52.6709V16.2263H52.5597V16.189H52.5225V16.1518H52.4108V16.1145H52.3368V16.0776H52.2256V16.0404H52.0768V16.0031H52.0028V15.9658H51.78V15.9285H51.6687V15.8917H51.4087V15.8544H51.1863V15.8171H50.8894V15.7803H50.6294V15.743H50.481V15.7057H50.2953V15.6684H50.2213V15.6312H50.0725V15.5943H49.9613V15.557H49.9241V15.5198H49.8501V15.4825H49.8129V15.4452H49.7389V15.4083H49.7017V15.3338H49.6645V15.2965H49.6273V15.2593H49.59V15.1478H49.5532V15.0364H49.516V14.8505H49.5532V14.7018H49.59V14.5904H49.6273V14.5158H49.6645V14.4786H49.7017V14.4044H49.7757V14.3299H49.8129V14.2926H49.8869V14.2557H49.9241V14.2185H49.9985V14.1812H50.0357V14.1439H50.1469V14.1067H50.2581V14.0698H50.3326V14.0325H50.555V13.9952H50.7038V13.958H51.3719V13.9952H51.5575V14.0325H51.78V14.0698H51.8916V14.1067H52.04V14.1439H52.1512V14.1812H52.2256V14.2185H52.3368V14.2557H52.4108V14.2926H52.4853V14.3299H52.5965V14.3672H52.6337V14.4044H52.7081V14.4417H52.7449V14.4786H52.8193V14.5158H52.9305V14.4786H52.9677V14.4417H53.0049V14.3672H53.0421V14.2926H53.0789V14.2557H53.1161V14.1812H53.1533V14.1439H53.1906V14.0698H53.2278V14.0325H53.2646V13.958H53.3018V13.8838H53.339V13.8466H53.3762V13.772H53.413V13.7351H53.4502V13.6606H53.4874V13.6233H53.4502V13.5865H53.413V13.5492H53.339V13.5119H53.2646V13.4746H53.2278V13.4374H53.1161V13.4005H53.0789V13.3632H53.0049V13.326H52.8937V13.2887H52.8565V13.2518H52.7449V13.2145H52.6709V13.1773H52.5597V13.14H52.448V13.1027H52.374V13.0659H52.2256V13.0286H52.114V12.9913H51.9284V12.954H51.6315V12.9172H51.4459V12.8799H51.2975V12.9172H51.2603V12.8799H50.6666V12.9172Z" fill="white"/>
<path fill-rule="evenodd" clip-rule="evenodd" d="M100.663 8.38102H100.626V8.45516H100.589V8.56698H100.552V8.67839H100.515V8.71566H100.477V8.7898H100.44V8.82708H100.403V8.90162H100.366V8.93849H100.329V8.97576H100.292V9.01303H100.254V9.0503H100.218V9.08717H100.18V9.12444H100.106V9.16172H100.069V9.19899H99.9949V9.23626H99.9204V9.27313H99.8836V9.3104H99.772V9.34767H99.6236V9.38495H99.364V9.42181H99.2155V9.38495H98.9555V9.34767H98.8071V9.3104H98.6959V9.27313H98.6215V9.23626H98.5475V9.19899H98.5102V9.16172H98.4358V9.12444H98.399V9.08717H98.3618V9.0503H98.3246V9.01303H98.2874V8.97576H98.2502V8.93849H98.2134V8.90162H98.1762V8.86435H98.139V8.7898H98.1018V8.71566H98.0646V8.67839H98.0278V8.60385H97.9906V8.52971H97.9534V8.38102H97.9162V8.19507H97.8794V7.6372H97.9162V7.41397H97.9534V7.30256H97.9906V7.22842H98.0278V7.1166H98.0646V7.07933H98.1018V7.00519H98.139V6.96792H98.1762V6.93064H98.2134V6.8565H98.2502V6.81923H98.2874V6.78196H98.3246V6.74469H98.399V6.70782H98.4358V6.67055H98.473V6.63327H98.5102V6.596H98.5843V6.55914H98.6587V6.52186H98.7327V6.48459H98.8815V6.44732H98.9927V6.41005H99.5496V6.44732H99.6608V6.48459H99.8092V6.52186H99.8836V6.55914H99.9577V6.596H100.032V6.63327H100.069V6.67055H100.143V6.70782H100.18V6.74469H100.218V6.78196H100.254V6.81923H100.292V6.8565H100.329V6.89378H100.366V6.93064H100.403V7.00519H100.44V7.04246H100.477V7.1166H100.515V7.15387H100.552V7.26528H100.589V7.3771H100.626V7.45124H100.663V7.71174H100.7V8.08325H100.663V8.38102ZM100.626 6.00127H100.552V5.92672H100.515V5.88985H100.477V5.85258H100.44V5.81531H100.366V5.77804H100.329V5.74076H100.292V5.7039H100.218V5.66662H100.18V5.62935H100.106V5.59208H100.032V5.55521H99.9949V5.51794H99.8464V5.48067H99.772V5.4434H99.5864V5.40612H98.6959V5.4434H98.5475V5.48067H98.4358V5.51794H98.2874V5.55521H98.2502V5.59208H98.139V5.62935H98.0646V5.66662H97.9906V5.7039H97.9162V5.74076H97.8794V5.77804H97.805V5.81531H97.7677V5.85258H97.6937V5.88985H97.6565V5.92672H97.6193V5.96399H97.5821V6.00127H97.5081V6.03854H97.4709V6.07541H97.4337V6.11268H97.3965V6.18722H97.3597V6.22449H97.3225V6.26136H97.2853V6.29863H97.2481V6.37318H97.2113V6.41005H97.1741V6.44732H97.1369V6.52186H97.0996V6.596H97.0628V6.67055H97.0256V6.74469H96.9884V6.81923H96.9512V6.93064H96.914V6.96792H96.8772V7.1166H96.84V7.22842H96.8028V7.41397H96.7656V8.38102H96.8028V8.56698H96.84V8.67839H96.8772V8.82708H96.914V8.90162H96.9512V9.01303H96.9884V9.08717H97.0256V9.16172H97.0628V9.23626H97.0996V9.27313H97.1369V9.34767H97.1741V9.38495H97.2113V9.45909H97.2481V9.53363H97.2853V9.5709H97.3225V9.60777H97.3597V9.64504H97.3965V9.68231H97.4337V9.71959H97.4709V9.75645H97.5081V9.79373H97.5453V9.831H97.5821V9.86827H97.6193V9.90554H97.6565V9.94241H97.7309V9.97968H97.7677V10.0169H97.8422V10.0542H97.8794V10.0911H97.9534V10.1283H98.0278V10.1656H98.0646V10.2029H98.1762V10.2402H98.2502V10.277H98.3246V10.3143H98.473V10.3516H98.5475V10.3888H98.8443V10.4257H99.5124V10.3888H99.7348V10.3516H99.8092V10.3143H99.9577V10.277H99.9949V10.2402H100.069V10.2029H100.18V10.1656H100.218V10.1283H100.254V10.0911H100.329V10.0542H100.366V10.0169H100.403V9.97968H100.44V9.94241H100.477V9.90554H100.515V9.86827H100.552V9.831H100.626V10.3143H101.702V3.17546H101.739V3.13818H100.626V6.00127Z" fill="white"/>
<path fill-rule="evenodd" clip-rule="evenodd" d="M81.8074 12.9172H81.6589V12.954H81.3989V12.9913H81.2133V13.0286H81.1393V13.0659H80.9909V13.1027H80.9164V13.14H80.8052V13.1773H80.7308V13.2145H80.6568V13.2518H80.5452V13.2887H80.508V13.326H80.434V13.3632H80.3596V13.4005H80.3228V13.4374H80.2483V13.4746H80.2111V13.5119H80.1371V13.5492H80.0999V13.5865H80.0255V13.6233H79.9887V13.6606H79.9515V13.6979H79.8771V13.7351H79.8399V13.772H79.8031V13.8093H79.7659V13.8466H79.7287V13.8838H79.6915V13.9211H79.6547V13.958H79.6175V13.9952H79.5803V14.0698H79.543V14.1067H79.5058V14.1439H79.469V14.1812H79.4318V14.2185H79.3946V14.2926H79.3574V14.3299H79.3206V14.4044H79.2834V14.4417H79.2462V14.5158H79.209V14.5904H79.1718V14.6272H79.135V14.7391H79.0978V14.7759H79.0606V14.8877H79.0234V14.9619H78.9862V15.0364H78.9494V15.1478H78.9122V15.2593H78.875V15.4083H78.8377V15.5198H78.8009V15.743H78.7637V17.007H78.8009V17.2302H78.8377V17.3416H78.875V17.4903H78.9122V17.5649H78.9494V17.7136H78.9862V17.7881H79.0234V17.8622H79.0606V17.9737H79.0978V18.0109H79.135V18.1227H79.1718V18.1596H79.209V18.2342H79.2462V18.3083H79.2834V18.3456H79.3206V18.4201H79.3574V18.4574H79.3946V18.5315H79.4318V18.5688H79.469V18.6061H79.5058V18.6429H79.543V18.6802H79.5803V18.7548H79.6175V18.792H79.6547V18.8289H79.6915V18.8662H79.7287V18.9034H79.7659V18.9407H79.8031V18.9776H79.8399V19.0149H79.9143V19.0521H79.9515V19.0894H79.9887V19.1267H80.0255V19.1635H80.0627V19.2008H80.1371V19.2381H80.2111V19.2754H80.2483V19.3122H80.3228V19.3495H80.3596V19.3868H80.434V19.424H80.508V19.4613H80.5452V19.4982H80.6568V19.5354H80.6936V19.5727H80.8052V19.61H80.9164V19.6469H80.9909V19.6841H81.1393V19.7214H81.2133V19.7587H81.3989V19.7959H81.6957V19.8328H81.733V19.8701H82.8463V19.7959H83.1063V19.7587H83.292V19.7214H83.366V19.6841H83.5144V19.6469H83.5888V19.61H83.7V19.5727H83.8116V19.5354H83.8484V19.4982H83.9601V19.4613H83.9973V19.424H84.0713V19.3868H84.1457V19.3495H84.1825V19.3122H84.2569V19.2754H84.2941V19.2381H84.3681V19.2008H84.4053V19.1635H84.4425V19.1267H84.5165V19.0894H84.5537V19.0521H84.591V19.0149H84.6282V18.9776H84.6654V18.9407H84.7022V18.9034H84.7394V18.8662H84.7766V18.8289H84.8138V18.792H84.8506V18.7548H84.8878V18.6802H84.925V18.6429H84.9622V18.6061H84.9994V18.5688H85.0362V18.4574H84.9994V18.4201H84.9622V18.3828H84.925V18.3456H84.8506V18.3083H84.8138V18.2714H84.7394V18.2342H84.7022V18.1969H84.6654V18.1596H84.591V18.1227H84.5537V18.0855H84.4797V18.0482H84.4425V18.0109H84.4053V17.9737H84.3313V17.9368H84.2941V17.8995H84.2197V17.825H84.1085V17.8995H84.0713V17.9368H84.0341V17.9737H83.9973V18.0109H83.9601V18.0482H83.9229V18.1227H83.8857V18.1596H83.8484V18.1969H83.8116V18.2342H83.7372V18.2714H83.7V18.3083H83.6632V18.3456H83.5888V18.3828H83.5516V18.4201H83.4776V18.4574H83.4404V18.4943H83.366V18.5315H83.292V18.5688H83.2548V18.6061H83.1436V18.6429H83.0691V18.6802H82.9207V18.7175H82.7351V18.7548H82.5127V18.792H82.0298V18.7548H81.8446V18.7175H81.6217V18.6802H81.4733V18.6429H81.3989V18.6061H81.2877V18.5688H81.2505V18.5315H81.1393V18.4943H81.0649V18.4574H81.0277V18.4201H80.9164V18.3828H80.8792V18.3456H80.842V18.3083H80.8052V18.2714H80.7308V18.2342H80.6936V18.1969H80.6568V18.1596H80.6196V18.1227H80.5824V18.0855H80.5452V18.0482H80.508V18.0109H80.4712V17.9737H80.434V17.9368H80.3968V17.8622H80.3596V17.825H80.3228V17.7508H80.2856V17.6763H80.2483V17.639H80.2111V17.5649H80.1739V17.4903H80.1371V17.4162H80.0999V17.2675H80.0627V17.2302H80.0255V17.0443H79.9887V16.9697H79.9515V16.6351H79.9143V16.1145H79.9515V15.7803H79.9887V15.7057H80.0255V15.5198H80.0627V15.4452H80.0999V15.3338H80.1371V15.2593H80.1739V15.1851H80.2111V15.111H80.2483V15.0737H80.2856V14.9992H80.3228V14.9619H80.3596V14.8877H80.3968V14.8505H80.434V14.7759H80.4712V14.7391H80.508V14.7018H80.5452V14.6645H80.5824V14.6272H80.6196V14.5904H80.6568V14.5531H80.6936V14.5158H80.7308V14.4786H80.8052V14.4417H80.842V14.4044H80.8792V14.3672H80.9164V14.3299H80.9909V14.2926H81.0649V14.2557H81.1393V14.2185H81.2133V14.1812H81.2877V14.1439H81.3989V14.1067H81.5101V14.0698H81.5845V14.0325H81.8074V13.9952H81.9926V13.958H82.5495V13.9952H82.7351V14.0325H82.9207V14.0698H83.0319V14.1067H83.1436V14.1439H83.2548V14.1812H83.292V14.2185H83.4032V14.2557H83.4404V14.2926H83.5144V14.3299H83.5516V14.3672H83.626V14.4044H83.6632V14.4417H83.7V14.4786H83.7372V14.5158H83.8116V14.5904H83.8857V14.6272H83.9229V14.6645H83.9601V14.7018H83.9973V14.7759H84.0341V14.8132H84.0713V14.8505H84.1085V14.925H84.2197V14.8877H84.2569V14.8505H84.3313V14.8132H84.3681V14.7759H84.4425V14.7391H84.4797V14.7018H84.5165V14.6645H84.591V14.6272H84.6282V14.5904H84.7022V14.5531H84.7394V14.5158H84.8138V14.4786H84.8878V14.4417H84.925V14.4044H84.9994V14.3672H85.0362V14.3299H85.0734V14.2557H85.0362V14.1812H84.9994V14.1439H84.9622V14.1067H84.925V14.0325H84.8878V13.9952H84.8506V13.958H84.8138V13.8838H84.7766V13.8466H84.7394V13.8093H84.7022V13.772H84.6654V13.7351H84.6282V13.6979H84.5537V13.6606H84.5165V13.6233H84.4797V13.5865H84.4053V13.5492H84.3681V13.5119H84.3313V13.4746H84.2941V13.4374H84.2197V13.4005H84.1457V13.3632H84.1085V13.326H83.9973V13.2887H83.9601V13.2518H83.8484V13.2145H83.8116V13.1773H83.7372V13.14H83.5888V13.1027H83.5516V13.0659H83.4032V13.0286H83.3292V12.9913H83.1436V12.954H82.8835V12.9172H82.7351V12.8799H81.8074V12.9172Z" fill="white"/>
<path fill-rule="evenodd" clip-rule="evenodd" d="M92.4594 17.1191H92.4966V17.0073H92.5334V16.8586H92.5706V16.7841H92.6078V16.7099H92.6451V16.6354H92.6823V16.5612H92.7191V16.4867H92.7563V16.4498H92.7935V16.4126H92.8307V16.3753H92.8675V16.338H92.9047V16.3007H92.9419V16.2639H92.9791V16.2266H93.0531V16.1893H93.1275V16.1521H93.1647V16.1148H93.2759V16.0779H93.3504V16.0406H93.536V16.0034H93.7212V15.9661H93.9068V16.0034H94.0925V16.0406H94.3153V16.0779H94.3525V16.1148H94.4637V16.1521H94.5377V16.1893H94.5749V16.2266H94.6493V16.2639H94.6865V16.3007H94.7233V16.338H94.7606V16.3753H94.7978V16.4126H94.835V16.4498H94.8722V16.4867H94.909V16.5612H94.9462V16.5985H94.9834V16.7099H95.0206V16.7472H95.0578V16.8586H95.0946V16.97H95.1318V17.0818H95.169V17.7884H95.1318V17.8998H95.0946V18.0112H95.0578V18.123H95.0206V18.1599H94.9834V18.2717H94.9462V18.3086H94.909V18.3459H94.8722V18.4204H94.7978V18.4945H94.7606V18.5318H94.6865V18.6064H94.6121V18.6432H94.5749V18.6805H94.5009V18.7178H94.4265V18.755H94.3525V18.7923H94.2041V18.8292H94.1297V18.8665H93.4988V18.8292H93.4244V18.7923H93.2759V18.755H93.2015V18.7178H93.1275V18.6805H93.0531V18.6432H93.0163V18.6064H92.9791V18.5691H92.9419V18.5318H92.8675V18.4945H92.8307V18.4577H92.7935V18.3831H92.7563V18.3459H92.7191V18.3086H92.6823V18.2344H92.6451V18.1599H92.6078V18.0858H92.5706V18.0112H92.5334V17.8625H92.4966V17.7138H92.4594V17.1191ZM95.1318 12.8429H95.0946V12.9175H95.1318V15.4455H95.0946V15.4828H95.1318V15.5946H95.0578V15.52H95.0206V15.4828H94.9834V15.4455H94.909V15.4086H94.8722V15.3714H94.835V15.3341H94.7606V15.2968H94.7233V15.2595H94.6493V15.2227H94.5749V15.1854H94.5377V15.1481H94.4265V15.1113H94.3525V15.074H94.2041V15.0367H93.9812V14.9995H93.3504V15.0367H93.1647V15.074H93.0163V15.1113H92.9419V15.1481H92.7935V15.1854H92.7563V15.2227H92.6451V15.2595H92.5706V15.2968H92.5334V15.3341H92.4594V15.3714H92.4222V15.4086H92.3482V15.4455H92.2738V15.4828H92.2366V15.52H92.1994V15.5573H92.1626V15.5946H92.1254V15.6315H92.0882V15.6687H92.051V15.706H92.0142V15.7433H91.977V15.7805H91.9398V15.8174H91.9025V15.892H91.8653V15.9288H91.8285V16.0034H91.7913V16.0406H91.7541V16.1148H91.7169V16.1521H91.6801V16.2266H91.6429V16.3007H91.6057V16.3753H91.5685V16.4867H91.5313V16.5612H91.4945V16.6727H91.4573V16.8586H91.4201V17.0073H91.3829V17.8625H91.4201V18.0112H91.4573V18.1972H91.4945V18.3086H91.5313V18.3831H91.5685V18.4945H91.6057V18.5318H91.6429V18.6432H91.6801V18.6805H91.7169V18.755H91.7541V18.8292H91.7913V18.8665H91.8285V18.941H91.8653V18.9779H91.9025V19.0524H91.9398V19.0897H91.977V19.127H92.0142V19.1638H92.051V19.2011H92.0882V19.2384H92.1254V19.2756H92.1626V19.3125H92.1994V19.3498H92.2738V19.3871H92.311V19.4243H92.385V19.4616H92.4222V19.4985H92.4594V19.5357H92.5334V19.573H92.6078V19.6103H92.6823V19.6471H92.7563V19.6844H92.8675V19.7217H92.9419V19.759H93.0531V19.7962H93.2759V19.8331H93.3132V19.8704H94.0925V19.7962H94.3153V19.759H94.4265V19.7217H94.5009V19.6844H94.6121V19.6471H94.6493V19.6103H94.7233V19.573H94.7606V19.5357H94.7978V19.4985H94.8722V19.4616H94.909V19.4243H94.9462V19.3871H94.9834V19.3498H95.0206V19.3125H95.0578V19.2756H95.1318V19.4243H95.0946V19.4616H95.1318V19.6103H95.0946V19.7217H95.1318V19.759H96.1339V19.7217H96.1712V12.8802H96.2084V12.8429H96.1712V12.8057H95.1318V12.8429Z" fill="white"/>
<path fill-rule="evenodd" clip-rule="evenodd" d="M61.0962 8.34387H61.0594V8.49256H61.0222V8.5671H60.985V8.64124H60.9478V8.71579H60.911V8.75265H60.8738V8.8272H60.8366V8.90174H60.7994V8.93861H60.7622V8.97588H60.7254V9.01316H60.6882V9.05043H60.651V9.0873H60.6138V9.12457H60.5398V9.16184H60.5025V9.19911H60.4653V9.23638H60.3541V9.27325H60.3169V9.31052H60.2057V9.3478H60.0573V9.38507H59.7972V9.42194H59.6488V9.38507H59.5748V9.42194H59.5376V9.38507H59.3892V9.3478H59.2408V9.31052H59.1292V9.27325H59.0551V9.23638H58.9807V9.19911H58.9435V9.16184H58.8695V9.12457H58.8323V9.0873H58.7951V9.05043H58.7579V9.01316H58.7211V8.97588H58.6839V8.93861H58.6467V8.90174H58.6095V8.86447H58.5727V8.78993H58.5355V8.75265H58.4983V8.64124H58.4611V8.60397H58.4243V8.49256H58.3871V8.38115H58.3498V8.23246H58.3126V7.60005H58.3498V7.41409H58.3871V7.33995H58.4243V7.22854H58.4611V7.154H58.4983V7.07945H58.5355V7.00531H58.5727V6.96804H58.6095V6.8939H58.6839V6.81935H58.7211V6.78208H58.7579V6.74481H58.8323V6.70794H58.8695V6.67067H58.9067V6.6334H58.9435V6.59613H59.0551V6.55926H59.1292V6.52199H59.1664V6.48471H59.352V6.44744H59.426V6.41017H60.0201V6.44744H60.0941V6.48471H60.2429V6.52199H60.3169V6.55926H60.3913V6.59613H60.4653V6.6334H60.5025V6.67067H60.577V6.70794H60.6138V6.74481H60.651V6.78208H60.7254V6.85663H60.7622V6.8939H60.7994V6.93077H60.8366V6.96804H60.8738V7.04258H60.911V7.07945H60.9478V7.19127H60.985V7.26541H61.0222V7.33995H61.0594V7.48864H61.0962V7.60005H61.1334V8.19519H61.0962V8.34387ZM59.1292 5.44352H58.9807V5.48079H58.8695V5.51806H58.7211V5.55534H58.6839V5.5922H58.5727V5.62948H58.4983V5.66675H58.4243V5.70402H58.3498V5.74089H58.3126V5.77816H58.2386V5.81543H58.2014V5.85271H58.127V5.88998H58.0898V5.92684H58.053V5.96412H57.9786V6.03866H57.9414V6.07553H57.9046V6.1128H57.8674V6.15007H57.8302V6.18735H57.793V6.22462H57.7562V6.26149H57.719V6.33603H57.6818V6.3733H57.6445V6.41017H57.6073V6.48471H57.5705V6.52199H57.5333V6.59613H57.4961V6.67067H57.4589V6.74481H57.4217V6.81935H57.3849V6.8939H57.3477V7.00531H57.3105V7.11672H57.2733V7.26541H57.2365V7.41409H57.1993V8.41801H57.2365V8.52983H57.2733V8.71579H57.3105V8.78993H57.3477V8.90174H57.3849V9.01316H57.4217V9.0873H57.4589V9.16184H57.4961V9.19911H57.5333V9.31052H57.5705V9.3478H57.6073V9.38507H57.6445V9.45921H57.6818V9.49648H57.719V9.57103H57.7562V9.60789H57.793V9.64517H57.8302V9.68244H57.8674V9.71971H57.9046V9.75658H57.9414V9.79385H57.9786V9.83112H58.0158V9.86839H58.053V9.90567H58.0898V9.94253H58.1642V9.97981H58.2014V10.0171H58.2754V10.0544H58.3126V10.0912H58.3871V10.1284H58.4611V10.1658H58.4983V10.2031H58.6095V10.2404H58.6839V10.2772H58.7579V10.3144H58.9067V10.3517H59.0179V10.3889H59.2408V10.4259H59.9457V10.3889H60.1685V10.3517H60.2429V10.3144H60.3541V10.2772H60.4281V10.2404H60.5398V10.2031H60.577V10.1658H60.651V10.1284H60.7254V10.0912H60.7622V10.0544H60.7994V10.0171H60.8366V9.97981H60.911V9.94253H60.9478V9.86839H60.985V9.83112H61.0222V9.79385H61.0594V9.83112H61.0962V9.86839H61.0594V10.3144H62.1356V10.2772H62.1728V5.55534H62.1356V5.51806H61.0594V5.96412H61.0962V6.00139H61.0594V6.03866H61.0222V5.96412H60.985V5.92684H60.9478V5.88998H60.911V5.85271H60.8738V5.81543H60.8366V5.77816H60.7622V5.74089H60.7254V5.70402H60.651V5.66675H60.6138V5.62948H60.5398V5.5922H60.4653V5.55534H60.4281V5.51806H60.3169V5.48079H60.2057V5.44352H60.0573V5.40625H59.1292V5.44352Z" fill="white"/>
<path fill-rule="evenodd" clip-rule="evenodd" d="M87.9693 7.63732H88.0065V7.48864H88.0433V7.30268H88.0805V7.26541H88.1177V7.154H88.1549V7.11672H88.1917V7.04258H88.2289V6.96804H88.2661V6.93077H88.3034V6.8939H88.3406V6.81935H88.3774V6.78208H88.4146V6.74481H88.489V6.70794H88.5258V6.67067H88.6002V6.6334H88.6374V6.59613H88.7114V6.55926H88.7858V6.52199H88.8598V6.48471H89.0087V6.44744H89.1199V6.41017H89.6767V6.44744H89.7508V6.48471H89.8992V6.52199H89.9736V6.55926H90.0476V6.59613H90.122V6.6334H90.196V6.67067H90.2332V6.70794H90.2704V6.74481H90.3448V6.78208H90.3816V6.85663H90.4188V6.8939H90.4561V6.93077H90.4933V6.96804H90.5305V7.00531H90.5673V7.07945H90.6045V7.154H90.6417V7.22854H90.6789V7.33995H90.7157V7.41409H90.7529V7.63732H90.7901V8.19519H90.7529V8.41801H90.7157V8.45529H90.6789V8.5671H90.6417V8.67852H90.6045V8.71579H90.5673V8.78993H90.5305V8.8272H90.4933V8.90174H90.4561V8.93861H90.4188V8.97588H90.3816V9.01316H90.3448V9.05043H90.3076V9.0873H90.2704V9.12457H90.2332V9.16184H90.1592V9.19911H90.122V9.23638H90.0108V9.27325H89.9736V9.31052H89.8624V9.3478H89.7135V9.38507H89.4539V9.42194H89.3055V9.38507H89.0455V9.3478H88.897V9.31052H88.7858V9.27325H88.7114V9.23638H88.6374V9.19911H88.6002V9.16184H88.5258V9.12457H88.489V9.0873H88.4518V9.05043H88.4146V9.01316H88.3774V8.97588H88.3406V8.93861H88.3034V8.90174H88.2661V8.86447H88.2289V8.78993H88.1917V8.71579H88.1549V8.67852H88.1177V8.5671H88.0805V8.49256H88.0433V8.34387H88.0065V8.19519H87.9693V7.63732ZM88.7858 5.44352H88.6374V5.48079H88.5258V5.51806H88.3774V5.55534H88.3406V5.5922H88.2289V5.62948H88.1549V5.66675H88.0805V5.70402H88.0065V5.74089H87.9693V5.77816H87.8949V5.81543H87.8577V5.85271H87.8209V5.88998H87.7465V5.92684H87.7093V5.96412H87.6725V6.00139H87.6353V6.03866H87.5981V6.07553H87.5608V6.1128H87.5236V6.15007H87.4868V6.18735H87.4496V6.22462H87.4124V6.26149H87.3752V6.29876H87.3384V6.3733H87.3012V6.41017H87.264V6.48471H87.2268V6.55926H87.1896V6.59613H87.1528V6.70794H87.1156V6.74481H87.0784V6.81935H87.0412V6.93077H87.0044V7.00531H86.9672V7.19127H86.93V7.26541H86.8928V7.52591H86.8555V8.26933H86.8928V8.5671H86.93V8.64124H86.9672V8.78993H87.0044V8.86447H87.0412V8.97588H87.0784V9.0873H87.1156V9.12457H87.1528V9.23638H87.1896V9.27325H87.2268V9.3478H87.264V9.38507H87.3012V9.45921H87.3384V9.49648H87.3752V9.53375H87.4124V9.60789H87.4496V9.64517H87.4868V9.68244H87.5236V9.71971H87.5608V9.75658H87.5981V9.79385H87.6353V9.83112H87.6725V9.86839H87.7465V9.90567H87.7837V9.94253H87.8209V9.97981H87.8577V10.0171H87.9321V10.0544H88.0065V10.0912H88.0433V10.1284H88.1177V10.1658H88.1549V10.2031H88.2661V10.2404H88.3774V10.2772H88.4146V10.3144H88.6002V10.3517H88.6746V10.3889H88.897V10.4259H89.6023V10.3889H89.8252V10.3517H89.8992V10.3144H90.0476V10.2772H90.0848V10.2404H90.196V10.2031H90.2704V10.1658H90.3076V10.1284H90.3816V10.0912H90.4188V10.0544H90.4561V10.0171H90.5305V9.97981H90.5673V9.94253H90.6045V9.90567H90.6417V9.83112H90.7157V9.79385H90.7529V9.90567H90.7157V10.1284H90.7529V10.1658H90.7157V10.2772H90.7529V10.3144H91.8294V5.51806H90.7529V5.55534H90.7157V5.62948H90.7529V5.66675H90.7157V5.92684H90.7529V6.03866H90.7157V6.00139H90.6789V5.96412H90.6417V5.92684H90.6045V5.88998H90.5673V5.85271H90.5305V5.81543H90.4933V5.77816H90.4188V5.74089H90.3816V5.70402H90.3448V5.66675H90.2704V5.62948H90.196V5.5922H90.122V5.55534H90.0848V5.51806H89.9364V5.48079H89.8624V5.44352H89.6767V5.40625H88.7858V5.44352Z" fill="white"/>
<path fill-rule="evenodd" clip-rule="evenodd" d="M73.7897 7.41409H73.8265V7.22854H73.8637V7.154H73.9009V7.04258H73.9381V7.00531H73.9749V6.8939H74.0121V6.85663H74.0493V6.81935H74.0865V6.74481H74.1237V6.70794H74.1605V6.67067H74.1977V6.6334H74.235V6.59613H74.309V6.55926H74.3462V6.52199H74.3834V6.48471H74.4946V6.44744H74.569V6.41017H74.7174V6.3733H75.3115V6.41017H75.4967V6.44744H75.5339V6.48471H75.6083V6.52199H75.6824V6.55926H75.7196V6.59613H75.794V6.67067H75.868V6.74481H75.9052V6.78208H75.9424V6.81935H75.9796V6.8939H76.0164V6.93077H76.0536V7.00531H76.0908V7.11672H76.128V7.19127H76.1648V7.37722H76.202V7.48864H73.7897V7.41409ZM74.569 5.44352H74.3834V5.48079H74.2722V5.51806H74.1237V5.55534H74.0865V5.5922H73.9749V5.62948H73.9009V5.66675H73.8265V5.70402H73.7525V5.74089H73.7153V5.77816H73.6409V5.81543H73.6041V5.85271H73.5669V5.88998H73.4924V5.92684H73.4556V5.96412H73.4184V6.00139H73.3812V6.03866H73.344V6.07553H73.3068V6.1128H73.27V6.15007H73.2328V6.22462H73.1956V6.26149H73.1584V6.29876H73.1216V6.33603H73.0844V6.41017H73.0472V6.44744H73.01V6.52199H72.9728V6.59613H72.936V6.67067H72.8988V6.74481H72.8616V6.85663H72.8244V6.96804H72.7875V7.04258H72.7503V7.19127H72.7131V7.33995H72.6759V7.74873H72.6387V8.08337H72.6759V8.49256H72.7131V8.60397H72.7503V8.78993H72.7875V8.86447H72.8244V8.97588H72.8616V9.0873H72.8988V9.12457H72.936V9.23638H72.9728V9.27325H73.01V9.3478H73.0472V9.42194H73.0844V9.45921H73.1216V9.53375H73.1956V9.60789H73.2328V9.64517H73.27V9.68244H73.3068V9.71971H73.344V9.75658H73.3812V9.79385H73.4184V9.83112H73.4556V9.86839H73.4924V9.90567H73.5297V9.94253H73.6041V9.97981H73.6409V10.0171H73.7153V10.0544H73.7525V10.0912H73.8265V10.1284H73.9009V10.1658H73.9749V10.2031H74.0493V10.2404H74.1605V10.2772H74.235V10.3144H74.3834V10.3517H74.4946V10.3889H74.7546V10.4259H75.4967V10.3889H75.8308V10.3517H75.9424V10.3144H76.128V10.2772H76.202V10.2404H76.3132V10.2031H76.4249V10.1658H76.4989V10.1284H76.5733V10.0912H76.6477V10.0544H76.7217V10.0171H76.7589V9.97981H76.7961V9.94253H76.8701V9.90567H76.9073V9.86839H76.9813V9.83112H77.0185V9.79385H77.0557V9.75658H77.093V9.68244H77.0557V9.64517H77.0185V9.57103H76.9813V9.53375H76.9445V9.45921H76.9073V9.42194H76.8701V9.38507H76.8333V9.31052H76.7961V9.27325H76.7589V9.19911H76.7217V9.16184H76.6845V9.12457H76.6477V9.05043H76.6105V8.97588H76.4989V9.01316H76.4621V9.05043H76.4249V9.0873H76.3877V9.12457H76.3132V9.16184H76.2392V9.19911H76.202V9.23638H76.0908V9.27325H76.0536V9.31052H75.9424V9.3478H75.8308V9.38507H75.7196V9.42194H75.4967V9.45921H75.3115V9.49648H75.0515V9.45921H74.8658V9.42194H74.6802V9.38507H74.6062V9.3478H74.4946V9.31052H74.4206V9.27325H74.3834V9.23638H74.309V9.19911H74.2722V9.16184H74.1977V9.0873H74.1605V9.05043H74.0865V8.97588H74.0493V8.93861H74.0121V8.86447H73.9749V8.78993H73.9381V8.75265H73.9009V8.64124H73.8637V8.5671H73.8265V8.41801H73.7897V8.3066H77.3158V7.37722H77.2786V7.26541H77.2414V7.07945H77.2042V6.96804H77.167V6.85663H77.1302V6.74481H77.093V6.67067H77.0557V6.59613H77.0185V6.52199H76.9813V6.44744H76.9445V6.3733H76.9073V6.33603H76.8701V6.29876H76.8333V6.26149H76.7961V6.18735H76.7589V6.15007H76.7217V6.1128H76.6845V6.07553H76.6477V6.00139H76.6105V5.96412H76.5361V5.92684H76.4989V5.88998H76.4621V5.85271H76.4249V5.81543H76.3877V5.77816H76.3132V5.74089H76.2764V5.70402H76.202V5.66675H76.128V5.62948H76.0536V5.5922H75.9796V5.55534H75.9052V5.51806H75.7568V5.48079H75.6824V5.44352H75.5339V5.40625H74.569V5.44352Z" fill="white"/>
<path fill-rule="evenodd" clip-rule="evenodd" d="M76.8715 17.0441H74.5704V16.9327H74.6076V16.7467H74.6444V16.6722H74.6816V16.598H74.7188V16.4862H74.756V16.4493H74.7932V16.3748H74.83V16.3375H74.8672V16.3003H74.9044V16.2634H74.9416V16.2261H74.9784V16.1888H75.0156V16.1516H75.0528V16.1143H75.1273V16.0774H75.1641V16.0402H75.2757V16.0029H75.3497V15.9656H75.6097V15.9283H75.9066V15.9656H76.1294V16.0029H76.2034V16.0402H76.3146V16.0774H76.3518V16.1143H76.4262V16.1516H76.4634V16.1888H76.5002V16.2261H76.5374V16.2634H76.5747V16.3003H76.6119V16.3375H76.6491V16.4121H76.6859V16.4493H76.7231V16.5235H76.7603V16.598H76.7975V16.7467H76.8347V16.7836H76.8715V16.9695H76.9087V17.0068H76.8715V17.0441ZM75.4241 15.0362H75.2385V15.0735H75.0528V15.1108H74.9784V15.1477H74.83V15.1849H74.756V15.2222H74.6816V15.2591H74.6076V15.2963H74.5704V15.3336H74.496V15.3709H74.422V15.4082H74.3847V15.445H74.3475V15.4823H74.2735V15.5196H74.2363V15.5568H74.1991V15.5941H74.1619V15.631H74.1251V15.6682H74.0879V15.7055H74.0507V15.7428H74.0135V15.8169H73.9763V15.8542H73.9395V15.8915H73.9023V15.9656H73.8651V16.0029H73.8279V16.0774H73.7911V16.1143H73.7539V16.2261H73.7167V16.2634H73.6794V16.3748H73.6422V16.4862H73.6054V16.5235H73.5682V16.7094H73.531V16.8209H73.4938V17.1186H73.457V17.7506H73.4938V18.0107H73.531V18.1226H73.5682V18.3081H73.6054V18.3826H73.6422V18.4941H73.6794V18.5686H73.7167V18.6427H73.7539V18.7173H73.7911V18.7546H73.8279V18.866H73.8651V18.9032H73.9023V18.9405H73.9395V19.0147H73.9763V19.0519H74.0135V19.0892H74.0507V19.1265H74.0879V19.1633H74.1251V19.2006H74.1619V19.2379H74.1991V19.2752H74.2363V19.312H74.2735V19.3493H74.3103V19.3866H74.3475V19.4238H74.422V19.4611H74.4592V19.498H74.5332V19.5353H74.5704V19.5725H74.6816V19.6098H74.756V19.6467H74.7932V19.6839H74.9416V19.7212H75.0156V19.7585H75.1641V19.7958H75.3869V19.8326H75.4241V19.8699H76.3146V19.8326H76.3518V19.7958H76.6119V19.7585H76.7975V19.7212H76.8715V19.6839H77.0199V19.6467H77.0571V19.6098H77.1683V19.5725H77.2427V19.5353H77.3172V19.498H77.3912V19.4611H77.4284V19.4238H77.5028V19.3866H77.5396V19.3493H77.5768V19.312H77.6508V19.2752H77.688V19.2379H77.7624V19.1633H77.7252V19.1265H77.688V19.0519H77.6508V19.0147H77.614V18.9774H77.5768V18.9032H77.5396V18.866H77.5028V18.7918H77.4656V18.7546H77.4284V18.68H77.3912V18.6427H77.354V18.6059H77.3172V18.5313H77.28V18.4941H77.2427V18.4572H77.1683V18.5313H77.0943V18.5686H77.0571V18.6059H76.9827V18.6427H76.9087V18.68H76.8347V18.7173H76.7603V18.7546H76.7231V18.7918H76.5747V18.8287H76.5002V18.866H76.3518V18.9032H76.0922V18.9405H75.7209V18.9032H75.4981V18.866H75.3497V18.8287H75.2757V18.7918H75.2013V18.7546H75.1273V18.7173H75.09V18.68H75.0156V18.6427H74.9784V18.6059H74.9416V18.5686H74.9044V18.5313H74.8672V18.4941H74.83V18.4199H74.7932V18.3826H74.756V18.3454H74.7188V18.2712H74.6816V18.1594H74.6444V18.0853H74.6076V17.9366H74.5704V17.8248H77.948V17.7134H77.9853V17.1928H77.948V16.8581H77.9108V16.7467H77.8736V16.5608H77.8364V16.4493H77.7996V16.3748H77.7624V16.2634H77.7252V16.1888H77.688V16.1143H77.6508V16.0402H77.614V16.0029H77.5768V15.9283H77.5396V15.8915H77.5028V15.8169H77.4656V15.7801H77.4284V15.7428H77.3912V15.6682H77.354V15.631H77.3172V15.5941H77.28V15.5568H77.2427V15.5196H77.1683V15.4823H77.1315V15.445H77.0943V15.4082H77.0571V15.3709H76.9827V15.3336H76.9087V15.2963H76.8715V15.2591H76.7975V15.2222H76.7231V15.1849H76.6491V15.1477H76.5374V15.1108H76.4634V15.0735H76.3146V15.0362H76.1294V14.999H75.4241V15.0362Z" fill="white"/>
<path fill-rule="evenodd" clip-rule="evenodd" d="M55.3439 16.9695H55.3811V16.8209H55.4179V16.7467H55.4551V16.598H55.4923V16.5608H55.5295V16.4862H55.5667V16.4121H55.6035V16.3748H55.6407V16.3003H55.6779V16.2634H55.7152V16.2261H55.752V16.1888H55.8264V16.1516H55.8636V16.1143H55.9376V16.0774H55.9748V16.0402H56.086V16.0029H56.1604V15.9656H56.3832V15.9283H56.7173V15.9656H56.9397V16.0029H56.9769V16.0402H57.0885V16.0774H57.1626V16.1143H57.1998V16.1516H57.2738V16.2261H57.3482V16.3003H57.3854V16.3375H57.4222V16.3748H57.4594V16.4493H57.4966V16.4862H57.5338V16.5608H57.571V16.6349H57.6078V16.7467H57.645V16.9327H57.6822V17.0441H55.3811V17.0068H55.3439V16.9695ZM56.2348 15.0362H56.012V15.0735H55.8264V15.1108H55.752V15.1477H55.6407V15.1849H55.5667V15.2222H55.4923V15.2591H55.4179V15.2963H55.3811V15.3336H55.2695V15.3709H55.2327V15.4082H55.1955V15.445H55.1211V15.4823H55.0839V15.5196H55.0471V15.5568H55.0099V15.5941H54.9726V15.631H54.9354V15.6682H54.8986V15.7055H54.8614V15.7428H54.8242V15.7801H54.787V15.8169H54.7498V15.8915H54.713V15.9283H54.6758V15.9656H54.6386V16.0402H54.6014V16.1143H54.5646V16.1888H54.5274V16.2261H54.4902V16.3375H54.453V16.4121H54.4158V16.5235H54.379V16.6722H54.3418V16.7467H54.3046V17.0068H54.2673V17.3042H54.2305V17.5274H54.2673V17.8248H54.3046V18.1226H54.3418V18.1967H54.379V18.3454H54.4158V18.4572H54.453V18.5313H54.4902V18.6059H54.5274V18.68H54.5646V18.7546H54.6014V18.7918H54.6386V18.866H54.6758V18.9405H54.713V18.9774H54.7498V19.0147H54.787V19.0519H54.8242V19.1265H54.8614V19.1633H54.8986V19.2006H54.9354V19.2379H54.9726V19.2752H55.0099V19.312H55.0839V19.3493H55.1211V19.3866H55.1583V19.4238H55.2327V19.4611H55.2695V19.498H55.3439V19.5353H55.3811V19.5725H55.4551V19.6098H55.5295V19.6467H55.6035V19.6839H55.7152V19.7212H55.7892V19.7585H55.9376V19.7958H56.1604V19.8326H56.1976V19.8699H57.1253V19.8326H57.1626V19.7958H57.4222V19.7585H57.571V19.7212H57.645V19.6839H57.7934V19.6467H57.8679V19.6098H57.9419V19.5725H58.0535V19.5353H58.0903V19.498H58.1647V19.4611H58.2019V19.4238H58.2759V19.3866H58.3503V19.3493H58.3875V19.312H58.4247V19.2752H58.4987V19.2379H58.5359V19.1265H58.4987V19.0892H58.4615V19.0519H58.4247V18.9774H58.3875V18.9405H58.3503V18.866H58.3131V18.8287H58.2759V18.7918H58.2391V18.7173H58.2019V18.68H58.1647V18.6059H58.1275V18.5686H58.0903V18.4941H58.0535V18.4572H57.9791V18.4941H57.9419V18.5313H57.8679V18.5686H57.8306V18.6059H57.7566V18.6427H57.7194V18.68H57.645V18.7173H57.5338V18.7546H57.4966V18.7918H57.3854V18.8287H57.311V18.866H57.1253V18.9032H56.9029V18.9405H56.5317V18.9032H56.2716V18.866H56.1232V18.8287H56.086V18.7918H55.9748V18.7546H55.9376V18.7173H55.8636V18.68H55.8264V18.6427H55.7892V18.6059H55.752V18.5686H55.7152V18.5313H55.6779V18.4941H55.6407V18.4572H55.6035V18.3826H55.5667V18.3454H55.5295V18.2712H55.4923V18.234H55.4551V18.1226H55.4179V18.048H55.3811V17.8621H55.3439V17.8248H58.7216V17.7879H58.7584V16.9327H58.7216V16.7836H58.6844V16.598H58.6472V16.5235H58.61V16.4121H58.5732V16.3003H58.5359V16.2261H58.4987V16.1516H58.4615V16.0774H58.4247V16.0029H58.3875V15.9656H58.3503V15.8915H58.3131V15.8542H58.2759V15.8169H58.2391V15.7428H58.2019V15.7055H58.1647V15.6682H58.1275V15.5941H58.0535V15.5568H58.0163V15.5196H57.9791V15.4823H57.9419V15.445H57.9051V15.4082H57.8306V15.3709H57.7934V15.3336H57.7194V15.2963H57.6822V15.2591H57.6078V15.2222H57.5338V15.1849H57.4594V15.1477H57.3482V15.1108H57.2738V15.0735H57.0885V15.0362H56.9029V14.999H56.2348V15.0362Z" fill="white"/>
<path fill-rule="evenodd" clip-rule="evenodd" d="M100.588 17.0441H98.2872V16.8581H98.3244V16.7836H98.3616V16.6349H98.3988V16.5608H98.4356V16.5235H98.4728V16.4121H98.51V16.3748H98.5472V16.3375H98.584V16.3003H98.6212V16.2261H98.6956V16.1888H98.7324V16.1516H98.7696V16.1143H98.844V16.0774H98.8812V16.0402H98.9925V16.0029H99.0669V15.9656H99.2893V15.9283H99.6606V15.9656H99.8462V16.0029H99.9202V16.0402H100.032V16.0774H100.069V16.1143H100.143V16.1516H100.18V16.1888H100.217V16.2261H100.254V16.2634H100.291V16.3003H100.329V16.3375H100.366V16.4121H100.403V16.4862H100.44V16.5235H100.477V16.6349H100.514V16.7094H100.551V16.8581H100.588V16.9695H100.625V17.0068H100.588V17.0441ZM99.1409 15.0362H98.9553V15.0735H98.7324V15.1108H98.6956V15.1477H98.5472V15.1849H98.4728V15.2222H98.3988V15.2591H98.3244V15.2963H98.2872V15.3336H98.2132V15.3709H98.1387V15.4082H98.1015V15.445H98.0275V15.4823H97.9903V15.5196H97.9531V15.5568H97.9159V15.5941H97.8791V15.631H97.8419V15.6682H97.8047V15.7055H97.7675V15.7428H97.7307V15.7801H97.6935V15.8542H97.6563V15.8915H97.6191V15.9283H97.5819V16.0029H97.5451V16.0402H97.5079V16.1143H97.4706V16.1888H97.4334V16.2634H97.3962V16.3748H97.3594V16.4121H97.3222V16.5608H97.285V16.6349H97.2478V16.8209H97.211V17.23H97.1738V17.6388H97.211V18.0107H97.2478V18.1967H97.285V18.2712H97.3222V18.4199H97.3594V18.4941H97.3962V18.5686H97.4334V18.68H97.4706V18.7173H97.5079V18.7918H97.5451V18.8287H97.5819V18.9032H97.6191V18.9774H97.6563V19.0147H97.6935V19.0519H97.7307V19.0892H97.7675V19.1265H97.8047V19.1633H97.8419V19.2006H97.8791V19.2379H97.9159V19.2752H97.9531V19.312H97.9903V19.3493H98.0275V19.3866H98.0643V19.4238H98.1387V19.4611H98.1759V19.498H98.25V19.5353H98.2872V19.5725H98.3616V19.6098H98.4728V19.6467H98.51V19.6839H98.6584V19.7212H98.6956V19.7585H98.8812V19.7958H99.1037V19.8699H100.032V19.8326H100.069V19.7958H100.329V19.7585H100.514V19.7212H100.588V19.6839H100.737V19.6467H100.774V19.6098H100.886V19.5725H100.96V19.5353H100.997V19.498H101.108V19.4611H101.145V19.4238H101.182V19.3866H101.256V19.3493H101.294V19.312H101.368V19.2752H101.405V19.2379H101.442V19.1265H101.405V19.0892H101.368V19.0147H101.331V18.9405H101.294V18.9032H101.256V18.866H101.22V18.8287H101.182V18.7546H101.145V18.7173H101.108V18.6427H101.071V18.5686H101.034V18.5313H100.997V18.4572H100.886V18.4941H100.848V18.5313H100.811V18.5686H100.774V18.6059H100.7V18.6427H100.625V18.68H100.551V18.7173H100.477V18.7546H100.403V18.7918H100.291V18.8287H100.217V18.866H100.069V18.9032H99.809V18.9405H99.4377V18.9032H99.1781V18.866H99.0669V18.8287H98.9925V18.7918H98.8812V18.7546H98.844V18.7173H98.7696V18.68H98.7324V18.6427H98.6956V18.6059H98.6584V18.5686H98.6212V18.5313H98.584V18.4941H98.5472V18.4572H98.51V18.3826H98.4728V18.3081H98.4356V18.2712H98.3988V18.1967H98.3616V18.0853H98.3244V17.9735H98.2872V17.8248H101.665V17.6388H101.702V17.23H101.665V16.9327H101.628V16.7094H101.59V16.598H101.554V16.4862H101.516V16.3375H101.479V16.3003H101.442V16.1888H101.405V16.1516H101.368V16.0402H101.331V16.0029H101.294V15.9283H101.256V15.8915H101.22V15.8542H101.182V15.7801H101.145V15.7428H101.108V15.7055H101.071V15.6682H101.034V15.631H100.997V15.5941H100.96V15.5568H100.922V15.5196H100.886V15.4823H100.848V15.445H100.811V15.4082H100.737V15.3709H100.7V15.3336H100.625V15.2963H100.588V15.2591H100.514V15.2222H100.44V15.1849H100.366V15.1477H100.254V15.1108H100.18V15.0735H99.9946V15.0362H99.809V14.999H99.1409V15.0362Z" fill="white"/>
<path fill-rule="evenodd" clip-rule="evenodd" d="M86.7816 17.1555H86.8188V17.0814H86.8556V16.8954H86.8928V16.8209H86.93V16.7467H86.9672V16.6349H87.0045V16.598H87.0413V16.5608H87.0785V16.4862H87.1157V16.4493H87.1529V16.4121H87.1897V16.3748H87.2269V16.3375H87.2641V16.3003H87.3385V16.2634H87.3753V16.2261H87.4125V16.1888H87.4869V16.1516H87.5609V16.1143H87.6725V16.0774H87.7093V16.0402H87.895V16.0029H88.1178V15.9656H88.3034V16.0029H88.4891V16.0402H88.7115V16.0774H88.7487V16.1143H88.8599V16.1516H88.9343V16.1888H88.9715V16.2261H89.0455V16.2634H89.0827V16.3003H89.1572V16.3375H89.1944V16.3748H89.2312V16.4121H89.2684V16.4493H89.3056V16.5235H89.3428V16.5608H89.3796V16.598H89.4168V16.6722H89.454V16.7467H89.4912V16.8209H89.528V16.8954H89.5652V17.0441H89.6024V17.7879H89.5652V17.9366H89.528V18.0107H89.4912V18.1226H89.454V18.1594H89.4168V18.234H89.3796V18.3081H89.3428V18.3454H89.3056V18.4199H89.2312V18.4572H89.1944V18.4941H89.1572V18.5313H89.12V18.5686H89.0827V18.6059H89.0087V18.6427H88.9715V18.68H88.8971V18.7173H88.8231V18.7546H88.7487V18.7918H88.6375V18.8287H88.5259V18.866H87.895V18.8287H87.7838V18.7918H87.6353V18.7546H87.5981V18.7173H87.4869V18.68H87.4497V18.6427H87.3753V18.6059H87.3013V18.5313H87.2269V18.4941H87.1897V18.4572H87.1529V18.4199H87.1157V18.3454H87.0785V18.3081H87.0413V18.234H87.0045V18.1967H86.9672V18.1226H86.93V18.0107H86.8928V17.9735H86.8556V17.7879H86.8188V17.6761H86.7816V17.1555ZM87.8578 15.0362H87.6353V15.0735H87.4497V15.1108H87.3753V15.1477H87.2269V15.1849H87.1529V15.2222H87.0785V15.2591H86.9672V15.2963H86.93V15.3336H86.8556V15.3709H86.8188V15.4082H86.7444V15.445H86.7072V15.4823H86.6332V15.5196H86.596V15.5568H86.5588V15.5941H86.5216V15.631H86.4848V15.6682H86.4104V15.7055H86.3732V15.7428H86.3364V15.8169H86.2992V15.8542H86.2619V15.8915H86.2247V15.9283H86.1875V15.9656H86.1507V16.0402H86.1135V16.0774H86.0763V16.1516H86.0391V16.2261H86.0023V16.3003H85.9651V16.3748H85.9279V16.4121H85.8907V16.5235H85.8535V16.6349H85.8167V16.7467H85.7795V16.9327H85.7423V17.1186H85.7051V17.7506H85.7423V17.9366H85.7795V18.0853H85.8167V18.234H85.8535V18.3081H85.8907V18.4199H85.9279V18.4941H85.9651V18.5686H86.0023V18.6427H86.0391V18.7173H86.0763V18.7918H86.1135V18.8287H86.1507V18.866H86.1875V18.9405H86.2247V18.9774H86.2619V19.0147H86.2992V19.0519H86.3364V19.0892H86.3732V19.1265H86.4104V19.1633H86.4476V19.2006H86.4848V19.2379H86.5216V19.2752H86.5588V19.312H86.596V19.3493H86.6704V19.3866H86.7072V19.4238H86.7816V19.4611H86.8188V19.498H86.8928V19.5353H86.93V19.5725H87.0045V19.6098H87.1157V19.6467H87.1529V19.6839H87.3013V19.7212H87.3753V19.7585H87.5237V19.7958H87.7466V19.8699H88.6375V19.8326H88.6747V19.7958H88.8971V19.7585H89.0455V19.7212H89.12V19.6839H89.2312V19.6467H89.3056V19.6098H89.3796V19.5725H89.4912V19.5353H89.528V19.498H89.6024V19.4611H89.6396V19.4238H89.7136V19.3866H89.7508V19.3493H89.788V19.312H89.8625V19.2752H89.8993V19.2379H89.9365V19.2006H89.9737V19.1633H90.0109V19.1265H90.0477V19.0892H90.0849V19.0519H90.1221V19.0147H90.1593V18.9774H90.1961V18.9032H90.2333V18.866H90.2705V18.7918H90.3077V18.7546H90.3449V18.7173H90.3817V18.6059H90.4189V18.5686H90.4561V18.4941H90.4933V18.4199H90.5306V18.3454H90.5673V18.1967H90.6046V18.1226H90.6418V17.8993H90.679V17.7134H90.7158V17.1186H90.679V16.9695H90.6418V16.7467H90.6046V16.6722H90.5673V16.5235H90.5306V16.4493H90.4933V16.3748H90.4561V16.3003H90.4189V16.2261H90.3817V16.1516H90.3449V16.1143H90.3077V16.0402H90.2705V16.0029H90.2333V15.9656H90.1961V15.8915H90.1593V15.8542H90.1221V15.8169H90.0849V15.7801H90.0477V15.7428H90.0109V15.7055H89.9737V15.6682H89.9365V15.631H89.8993V15.5941H89.8625V15.5568H89.8252V15.5196H89.7508V15.4823H89.7136V15.445H89.6768V15.4082H89.6024V15.3709H89.5652V15.3336H89.454V15.2963H89.4168V15.2591H89.3428V15.2222H89.2312V15.1849H89.1572V15.1477H89.0455V15.1108H88.9715V15.0735H88.7487V15.0362H88.5631V14.999H87.8578V15.0362Z" fill="white"/>
<path fill-rule="evenodd" clip-rule="evenodd" d="M64.9202 5.44352H64.7346V5.48079H64.623V5.51806H64.4746V5.55534H64.4005V5.5922H64.2893V5.62948H64.2149V5.66675H64.1777V5.70402H64.1037V5.74089H64.0293V5.77816H63.9921V5.81543H63.9549V5.85271H63.8809V5.88998H63.8437V5.96412H63.7693V6.00139H63.7325V6.07553H63.6952V6.1128H63.658V6.18735H63.6212V6.22462H63.584V6.29876H63.5468V6.3733H63.5096V6.52199H63.4724V6.70794H63.4356V7.154H63.4724V7.33995H63.5096V7.45136H63.5468V7.52591H63.584V7.60005H63.6212V7.63732H63.658V7.71187H63.6952V7.74873H63.7325V7.786H63.7693V7.82328H63.8065V7.86055H63.8437V7.89782H63.8809V7.93469H63.9549V7.97196H63.9921V8.00923H64.0293V8.04651H64.1405V8.08337H64.1777V8.12065H64.2521V8.15792H64.3633V8.19519H64.4374V8.23246H64.5862V8.26933H64.6974V8.3066H64.883V8.34387H65.0686V8.38115H65.4027V8.41801H65.7367V8.45529H65.8107V8.49256H65.9964V8.52983H66.0708V8.5671H66.1448V8.60397H66.2192V8.64124H66.2564V8.67852H66.2936V8.71579H66.3304V8.78993H66.3676V9.0873H66.3304V9.16184H66.2936V9.19911H66.2564V9.23638H66.2192V9.27325H66.1448V9.31052H66.108V9.3478H65.9964V9.38507H65.9224V9.42194H65.6995V9.45921H65.5139V9.49648H65.1054V9.45921H64.883V9.42194H64.623V9.38507H64.5118V9.3478H64.4005V9.31052H64.2521V9.27325H64.1777V9.23638H64.1037V9.19911H64.0665V9.16184H63.9549V9.12457H63.9181V9.0873H63.8809V9.05043H63.8065V9.01316H63.7693V8.97588H63.7325V9.01316H63.6952V9.05043H63.658V9.12457H63.6212V9.19911H63.584V9.27325H63.5468V9.31052H63.5096V9.38507H63.4724V9.45921H63.4356V9.49648H63.3984V9.57103H63.3612V9.60789H63.324V9.68244H63.2868V9.71971H63.25V9.83112H63.2868V9.86839H63.3612V9.90567H63.3984V9.94253H63.4724V9.97981H63.5096V10.0171H63.6212V10.0544H63.6952V10.0912H63.7325V10.1284H63.8437V10.1658H63.9181V10.2031H64.0293V10.2404H64.1777V10.2772H64.2521V10.3144H64.4746V10.3517H64.5862V10.3889H64.9574V10.4259H65.6623V10.3889H65.9964V10.3517H66.108V10.3144H66.2936V10.2772H66.3676V10.2404H66.4788V10.2031H66.5905V10.1658H66.6273V10.1284H66.7389V10.0912H66.7761V10.0544H66.8501V10.0171H66.8873V9.97981H66.9617V9.94253H66.9985V9.90567H67.0357V9.86839H67.0729V9.83112H67.1101V9.79385H67.1469V9.75658H67.1841V9.71971H67.2213V9.68244H67.2586V9.60789H67.2958V9.57103H67.3326V9.49648H67.3698V9.42194H67.407V9.31052H67.4442V9.16184H67.481V8.97588H67.5182V8.67852H67.481V8.52983H67.4442V8.38115H67.407V8.26933H67.3698V8.23246H67.3326V8.15792H67.2958V8.12065H67.2586V8.04651H67.2213V8.00923H67.1841V7.97196H67.1469V7.93469H67.1101V7.89782H67.0357V7.86055H66.9985V7.82328H66.9617V7.786H66.8873V7.74873H66.8129V7.71187H66.7389V7.67459H66.6645V7.63732H66.5905V7.60005H66.4788V7.56318H66.4048V7.52591H66.2192V7.48864H66.0708V7.45136H65.9224V7.41409H65.6255V7.37722H65.4399V7.33995H65.1427V7.30268H64.9942V7.26541H64.883V7.22854H64.7718V7.19127H64.7346V7.154H64.6602V7.11672H64.623V7.04258H64.5862V6.96804H64.549V6.78208H64.5862V6.70794H64.623V6.6334H64.6602V6.59613H64.6974V6.55926H64.7346V6.52199H64.7718V6.48471H64.8458V6.44744H64.883V6.41017H65.0314V6.3733H65.2543V6.33603H65.6623V6.3733H65.9224V6.41017H66.108V6.44744H66.2192V6.48471H66.3676V6.52199H66.442V6.55926H66.5533V6.59613H66.6645V6.6334H66.7017V6.67067H66.8129V6.70794H66.8501V6.74481H66.9245V6.70794H66.9617V6.67067H66.9985V6.59613H67.0357V6.52199H67.0729V6.44744H67.1101V6.41017H67.1469V6.29876H67.1841V6.26149H67.2213V6.18735H67.2586V6.1128H67.2958V6.07553H67.3326V6.00139H67.3698V5.88998H67.3326V5.85271H67.2586V5.81543H67.2213V5.77816H67.1469V5.74089H67.0729V5.70402H66.9617V5.66675H66.8873V5.62948H66.7761V5.5922H66.6645V5.55534H66.5533V5.51806H66.4048V5.48079H66.2192V5.44352H65.9964V5.40625H64.9202V5.44352Z" fill="white"/>
<path fill-rule="evenodd" clip-rule="evenodd" d="M68.965 5.51776H68.0001V6.48441H68.0373V6.52168H68.1117V6.48441H68.8166V6.52168H68.8538V6.48441H68.965V9.05012H69.0022V9.1988H69.0394V9.34749H69.0766V9.49617H69.1138V9.53344H69.1506V9.64486H69.1878V9.7194H69.225V9.75627H69.2622V9.83081H69.299V9.86808H69.3363V9.90536H69.3735V9.94222H69.4107V9.9795H69.4479V10.0167H69.4847V10.054H69.5219V10.0909H69.5591V10.1281H69.6331V10.1654H69.6703V10.2027H69.7447V10.24H69.8187V10.2768H69.8931V10.3141H70.0416V10.3514H70.116V10.3886H70.3384V10.4255H71.0065V10.3886H71.3033V10.3514H71.3777V10.3141H71.5262V10.2768H71.5634V10.24H71.6746V10.2027H71.7862V10.1654H71.823V10.1281H71.9346V10.0909H71.9714V10.054H72.0458V10.0167H72.1202V9.9795H72.157V9.83081H72.1202V9.75627H72.083V9.68213H72.0458V9.64486H72.0086V9.53344H71.9714V9.49617H71.9346V9.38476H71.8974V9.31022H71.8602V9.27294H71.823V9.16153H71.7862V9.12426H71.749V9.08699H71.6746V9.12426H71.6374V9.16153H71.5634V9.1988H71.489V9.23608H71.3777V9.27294H71.3405V9.31022H71.2293V9.34749H71.0809V9.38476H70.8581V9.42163H70.7096V9.38476H70.5612V9.34749H70.4128V9.31022H70.3756V9.27294H70.3012V9.23608H70.2644V9.1988H70.2272V9.12426H70.19V9.08699H70.1528V9.01285H70.116V8.90143H70.0788V8.82689H70.0416V6.52168H70.0788V6.48441H70.1528V6.52168H70.19V6.48441H71.7118V6.52168H71.823V6.48441H71.8602V6.44713H71.8974V5.66644H71.8602V5.62917H71.8974V5.55503H71.8602V5.51776H70.0416V4.06738H68.965V5.51776Z" fill="white"/>
<path fill-rule="evenodd" clip-rule="evenodd" d="M64.4747 15.1482H64.4375V15.2227H64.4747V17.7511H64.4375V17.8253H64.4747V18.2717H64.5119V18.3831H64.5491V18.5318H64.5863V18.6432H64.6231V18.7178H64.6603V18.8292H64.6975V18.8665H64.7347V18.941H64.7719V19.0152H64.8087V19.0524H64.8459V19.0897H64.8832V19.127H64.9204V19.2011H64.9576V19.2384H64.9944V19.2757H65.0316V19.3125H65.0688V19.3498H65.1056V19.3871H65.18V19.4243H65.2172V19.4616H65.2544V19.4985H65.3284V19.5358H65.3656V19.573H65.44V19.6103H65.514V19.6472H65.5885V19.6844H65.6997V19.7217H65.7741V19.759H65.9593V19.7963H66.1821V19.8704H67.0359V19.8331H67.0731V19.7963H67.2959V19.759H67.4443V19.7217H67.5183V19.6844H67.6299V19.6472H67.7039V19.6103H67.7784V19.573H67.8524V19.5358H67.8896V19.4985H67.9636V19.4616H68.0008V19.4243H68.0752V19.3871H68.1124V19.3498H68.1492V19.3125H68.1864V19.2757H68.2236V19.2384H68.2608V19.2011H68.2976V19.1638H68.3348V19.0897H68.372V19.0524H68.4092V19.0152H68.4465V18.941H68.4833V18.9037H68.5205V18.7923H68.5577V18.7551H68.5949V18.6432H68.6317V18.5691H68.6689V18.4204H68.7061V18.3086H68.7433V18.0485H68.7805V15.1482H68.7433V15.1113H67.7412V15.1482H67.7039V18.0485H67.6667V18.1599H67.6299V18.3086H67.5927V18.3459H67.5555V18.4204H67.5183V18.4946H67.4811V18.5318H67.4443V18.5691H67.4071V18.6064H67.3699V18.6432H67.3327V18.6805H67.2959V18.7178H67.1843V18.7551H67.1471V18.7923H67.0359V18.8292H66.9246V18.8665H66.2938V18.8292H66.2193V18.7923H66.0709V18.7551H66.0337V18.7178H65.9593V18.6805H65.8853V18.6432H65.8481V18.6064H65.8109V18.5691H65.7741V18.5318H65.7369V18.4577H65.6997V18.4204H65.6625V18.3459H65.6257V18.2345H65.5885V18.1599H65.5512V17.974H65.514V15.1482H65.4768V15.1113H64.4747V15.1482Z" fill="white"/>
<path fill-rule="evenodd" clip-rule="evenodd" d="M83.9223 5.44352H83.7739V5.48079H83.6627V5.51806H83.5138V5.55534H83.477V5.5922H83.3286V5.62948H83.2914V5.66675H83.217V5.70402H83.1058V5.74089H83.0686V5.77816H82.9946V5.81543H82.9574V5.85271H82.9202V5.88998H82.8458V5.92684H82.8089V5.96412H82.7717V6.00139H82.7345V6.03866H82.6973V6.07553H82.6601V6.1128H82.6233V6.15007H82.5861V6.18735H82.5489V6.22462H82.5121V6.26149H82.4749V6.29876H82.4377V6.3733H82.4005V6.41017H82.3633V6.48471H82.3265V6.52199H82.2893V6.59613H82.2521V6.6334H82.2149V6.74481H82.1777V6.81935H82.1409V6.8939H82.1036V7.00531H82.0664V7.07945H82.0292V7.26541H81.992V7.37722H81.9552V7.74873H81.918V8.08337H81.9552V8.41801H81.992V8.5671H82.0292V8.71579H82.0664V8.78993H82.1036V8.93861H82.1409V9.01316H82.1777V9.0873H82.2149V9.16184H82.2521V9.23638H82.2893V9.31052H82.3265V9.3478H82.3633V9.42194H82.4005V9.45921H82.4377V9.49648H82.4749V9.57103H82.5121V9.60789H82.5489V9.64517H82.5861V9.68244H82.6233V9.71971H82.6601V9.75658H82.6973V9.79385H82.7345V9.83112H82.7717V9.86839H82.8458V9.90567H82.883V9.94253H82.9202V9.97981H82.9574V10.0171H83.0314V10.0544H83.1058V10.0912H83.143V10.1284H83.2542V10.1658H83.2914V10.2031H83.4026V10.2404H83.477V10.2772H83.5883V10.3144H83.7367V10.3517H83.8111V10.3889H84.1079V10.4259H84.85V10.3889H85.0729V10.3517H85.1841V10.3144H85.3329V10.2772H85.4069V10.2404H85.5181V10.2031H85.5925V10.1658H85.667V10.1284H85.741V10.0912H85.7782V10.0544H85.8522V10.0171H85.9266V9.97981H85.9638V9.94253H86.001V9.90567H86.0378V9.86839H86.075V9.83112H86.1122V9.79385H86.1494V9.75658H86.1862V9.71971H86.2234V9.68244H86.2978V9.64517H86.2606V9.60789H86.2234V9.57103H86.1862V9.53375H86.1494V9.49648H86.1122V9.45921H86.075V9.38507H86.0378V9.3478H86.001V9.31052H85.9638V9.27325H85.9266V9.23638H85.8894V9.19911H85.8522V9.16184H85.8154V9.12457H85.7782V9.05043H85.741V9.01316H85.7038V8.97588H85.667V8.93861H85.6297V8.90174H85.5925V8.93861H85.5553V8.97588H85.4813V9.01316H85.4441V9.05043H85.4069V9.0873H85.3697V9.12457H85.2957V9.16184H85.2213V9.19911H85.1841V9.23638H85.0729V9.27325H85.0357V9.31052H84.9244V9.3478H84.776V9.38507H84.516V9.42194H84.3676V9.38507H84.1079V9.3478H83.9595V9.31052H83.8851V9.27325H83.8111V9.23638H83.7367V9.19911H83.6627V9.16184H83.6255V9.12457H83.5883V9.0873H83.5511V9.05043H83.477V9.01316H83.4398V8.93861H83.4026V8.90174H83.3654V8.86447H83.3286V8.8272H83.2914V8.75265H83.2542V8.67852H83.217V8.64124H83.1802V8.52983H83.143V8.41801H83.1058V8.3066H83.0686V7.56318H83.1058V7.37722H83.143V7.30268H83.1802V7.19127H83.217V7.154H83.2542V7.04258H83.2914V7.00531H83.3286V6.96804H83.3654V6.8939H83.4026V6.85663H83.4398V6.81935H83.477V6.78208H83.5138V6.74481H83.5511V6.70794H83.5883V6.67067H83.6627V6.6334H83.6995V6.59613H83.7739V6.55926H83.8479V6.52199H83.9223V6.48471H84.0707V6.44744H84.1819V6.41017H84.7016V6.44744H84.8132V6.48471H84.9617V6.52199H85.0357V6.55926H85.1101V6.59613H85.2213V6.6334H85.2585V6.67067H85.3329V6.70794H85.3697V6.74481H85.4069V6.78208H85.4441V6.81935H85.4813V6.85663H85.5553V6.8939H85.6297V6.85663H85.667V6.81935H85.7038V6.78208H85.741V6.74481H85.7782V6.70794H85.8154V6.6334H85.8522V6.59613H85.8894V6.55926H85.9266V6.52199H85.9638V6.48471H86.001V6.44744H86.0378V6.41017H86.075V6.3733H86.1122V6.33603H86.1494V6.29876H86.1862V6.26149H86.2234V6.22462H86.2606V6.1128H86.2234V6.07553H86.1862V6.03866H86.1494V6.00139H86.1122V5.96412H86.075V5.92684H86.0378V5.88998H85.9638V5.85271H85.9266V5.81543H85.8894V5.77816H85.8154V5.74089H85.7782V5.70402H85.7038V5.66675H85.6297V5.62948H85.5553V5.5922H85.4441V5.55534H85.3697V5.51806H85.2585V5.48079H85.1101V5.44352H84.9617V5.40625H83.9223V5.44352Z" fill="white"/>
<path fill-rule="evenodd" clip-rule="evenodd" d="M61.5417 15.0367H61.3189V15.074H61.0961V15.1113H61.0593V15.1482H60.9109V15.1854H60.8364V15.2227H60.762V15.2596H60.6508V15.2968H60.6136V15.3341H60.5396V15.3714H60.5024V15.4087H60.428V15.4455H60.354V15.4828H60.3168V15.5201H60.2796V15.5573H60.2428V15.5946H60.2056V15.6315H60.1311V15.706H60.0571V15.7806H60.0199V15.8174H59.9827V15.8547H59.9455V15.892H59.9087V15.9661H59.8715V16.0034H59.8343V16.0407H59.7971V16.1148H59.7599V16.1893H59.7231V16.2639H59.6859V16.3753H59.6487V16.4126H59.6115V16.524H59.5747V16.5985H59.5375V16.7472H59.5003V16.97H59.4631V17.156H59.4258V17.7139H59.4631V17.8626H59.5003V18.0858H59.5375V18.2717H59.5747V18.3459H59.6115V18.4577H59.6487V18.4946H59.6859V18.6064H59.7231V18.6805H59.7599V18.7178H59.7971V18.7923H59.8343V18.8292H59.8715V18.9037H59.9087V18.941H59.9455V19.0152H59.9827V19.0524H60.0199V19.0897H60.0571V19.127H60.0939V19.1638H60.1311V19.2011H60.1684V19.2384H60.2056V19.2757H60.2428V19.3125H60.2796V19.3498H60.354V19.3871H60.3912V19.4243H60.4652V19.4616H60.5024V19.4985H60.5768V19.5358H60.6136V19.573H60.688V19.6103H60.762V19.6472H60.8364V19.6844H60.9477V19.7217H61.0221V19.759H61.1705V19.7963H61.4305V19.8331H61.4673V19.8704H62.3211V19.7963H62.5439V19.759H62.6923V19.7217H62.7667V19.6844H62.8779V19.6472H62.9523V19.6103H63.0264V19.573H63.1004V19.5358H63.1376V19.4985H63.212V19.4616H63.2492V19.4243H63.3232V19.3871H63.3604V19.3498H63.3976V19.3125H63.4716V19.2757H63.5088V19.2384H63.546V19.2011H63.5832V19.1638H63.6204V19.0524H63.546V18.9779H63.5088V18.941H63.4716V18.9037H63.4348V18.8665H63.3976V18.8292H63.3604V18.7923H63.3232V18.7551H63.286V18.6805H63.2492V18.6432H63.212V18.6064H63.1748V18.5691H63.1376V18.5318H63.1004V18.4946H63.0636V18.4577H63.0264V18.4204H62.9151V18.4577H62.8779V18.4946H62.8407V18.5318H62.7667V18.5691H62.7295V18.6064H62.6551V18.6432H62.6179V18.6805H62.5439V18.7178H62.4323V18.7551H62.3955V18.7923H62.247V18.8292H62.1354V18.8665H61.579V18.8292H61.4673V18.7923H61.3189V18.7551H61.2817V18.7178H61.1705V18.6805H61.1333V18.6432H61.0961V18.6064H61.0221V18.5691H60.9849V18.5318H60.9477V18.4946H60.9109V18.4577H60.8737V18.4204H60.8364V18.3831H60.7992V18.3459H60.762V18.2717H60.7252V18.1972H60.688V18.1231H60.6508V18.0485H60.6136V17.974H60.5768V17.7511H60.5396V17.6025H60.5024V17.2305H60.5396V17.0819H60.5768V16.8959H60.6136V16.8214H60.6508V16.7099H60.688V16.6727H60.7252V16.5985H60.762V16.524H60.7992V16.4867H60.8364V16.4498H60.8737V16.4126H60.9109V16.3753H60.9477V16.3008H61.0221V16.2639H61.0593V16.2266H61.1333V16.1893H61.1705V16.1521H61.2449V16.1148H61.3561V16.0779H61.3933V16.0407H61.579V16.0034H61.7642V15.9661H61.9498V16.0034H62.1354V16.0407H62.3211V16.0779H62.3955V16.1148H62.5067V16.1521H62.5811V16.1893H62.6179V16.2266H62.6923V16.2639H62.7295V16.3008H62.7667V16.338H62.8407V16.3753H62.8779V16.4126H62.9151V16.4498H62.9891V16.4126H63.0264V16.3753H63.0636V16.338H63.1004V16.3008H63.1376V16.2639H63.1748V16.2266H63.212V16.1893H63.2492V16.1521H63.286V16.1148H63.3232V16.0779H63.3604V16.0407H63.3976V16.0034H63.4348V15.9661H63.4716V15.892H63.5088V15.8547H63.546V15.8174H63.5832V15.7806H63.6204V15.706H63.5832V15.6687H63.546V15.6315H63.5088V15.5946H63.4716V15.5573H63.4348V15.5201H63.3604V15.4828H63.3232V15.4455H63.286V15.4087H63.2492V15.3714H63.1748V15.3341H63.1004V15.2968H63.0636V15.2596H62.9523V15.2227H62.9151V15.1854H62.8407V15.1482H62.6923V15.1113H62.6179V15.074H62.4323V15.0367H62.2098V14.9995H61.5417V15.0367Z" fill="white"/>
<path fill-rule="evenodd" clip-rule="evenodd" d="M80.4711 5.44352H80.3227V5.48079H80.2483V5.51806H80.0999V5.55534H80.0627V5.5922H79.9887V5.62948H79.9143V5.66675H79.8771V5.70402H79.803V5.74089H79.7658V5.77816H79.7286V5.81543H79.6914V5.85271H79.6546V5.88998H79.6174V5.92684H79.5802V5.96412H79.543V5.51806H78.4669V10.2772H78.5037V10.3144H79.543V10.2772H79.5802V7.26541H79.6174V7.19127H79.6546V7.04258H79.6914V7.00531H79.7286V6.93077H79.7658V6.85663H79.803V6.81935H79.8398V6.74481H79.8771V6.70794H79.9143V6.67067H79.9515V6.6334H80.0255V6.59613H80.0627V6.55926H80.1371V6.52199H80.2111V6.48471H80.3595V6.44744H80.4711V6.41017H80.8792V6.44744H81.0276V6.48471H81.2504V6.52199H81.3245V6.55926H81.3989V6.59613H81.4733V6.52199H81.5101V6.44744H81.5473V6.22462H81.5845V6.1128H81.6217V5.96412H81.6589V5.77816H81.6957V5.62948H81.7329V5.51806H81.6589V5.48079H81.5473V5.44352H81.3989V5.40625H80.4711V5.44352Z" fill="white"/>
<path fill-rule="evenodd" clip-rule="evenodd" d="M95.3169 5.44352H95.1685V5.48079H95.0573V5.51806H94.9457V5.55534H94.9085V5.5922H94.7973V5.62948H94.7601V5.66675H94.7228V5.70402H94.6488V5.74089H94.6116V5.77816H94.5744V5.81543H94.5372V5.85271H94.5004V5.88998H94.4632V5.92684H94.426V6.00139H94.352V5.85271H94.3888V5.81543H94.352V5.62948H94.3888V5.55534H94.352V5.51806H93.3127V5.55534H93.2754V5.62948H93.3127V10.1284H93.2754V10.2772H93.3127V10.3144H94.3888V7.48864H94.426V7.22854H94.4632V7.154H94.5004V7.04258H94.5372V6.96804H94.5744V6.8939H94.6116V6.81935H94.6488V6.78208H94.686V6.74481H94.7228V6.70794H94.7601V6.67067H94.7973V6.6334H94.8345V6.59613H94.9085V6.55926H94.9829V6.52199H95.0573V6.48471H95.2053V6.44744H95.3169V6.41017H95.7254V6.44744H95.8734V6.48471H96.059V6.52199H96.1334V6.55926H96.2447V6.59613H96.3191V6.48471H96.3563V6.3733H96.3935V6.18735H96.4303V6.07553H96.4675V5.88998H96.5047V5.70402H96.5415V5.62948H96.5787V5.51806H96.5047V5.48079H96.3563V5.44352H96.2079V5.40625H95.3169V5.44352Z" fill="white"/>
<path fill-rule="evenodd" clip-rule="evenodd" d="M72.1198 15.0367H71.9341V15.074H71.7485V15.1113H71.7113V15.1482H71.6001V15.1854H71.5257V15.2227H71.4885V15.2596H71.4145V15.2968H71.3773V15.3341H71.3029V15.3714H71.2661V15.4087H71.2288V15.4455H71.1916V15.4828H71.1544V15.5201H71.1176V15.5573H71.0804V15.4455H71.1176V15.1482H71.0804V15.1113H70.0783V15.1482H70.0411V19.7217H70.0783V19.759H71.0804V19.7217H71.1176V16.8214H71.1544V16.7472H71.1916V16.6354H71.2288V16.524H71.2661V16.4867H71.3029V16.4126H71.3401V16.3753H71.3773V16.3008H71.4145V16.2639H71.4517V16.2266H71.5257V16.1893H71.5629V16.1521H71.6369V16.1148H71.7113V16.0779H71.7857V16.0407H71.971V16.0034H72.4166V16.0407H72.6762V16.0779H72.7507V16.1148H72.8619V16.1521H72.9731V16.0407H73.0103V15.8547H73.0475V15.7433H73.0847V15.5573H73.1219V15.4455H73.1587V15.2596H73.1959V15.1482H73.1587V15.1113H73.1219V15.074H72.9363V15.0367H72.7507V14.9995H72.1198V15.0367Z" fill="white"/>
<path fill-rule="evenodd" clip-rule="evenodd" d="M102.815 10.3145H102.852V10.2772H102.889V10.2404H102.926V10.2772H102.963V10.3145H103V10.3518H102.815V10.3145ZM102.704 10.0544H102.74V10.0171H102.778V10.2772H102.74V10.2404H102.704V10.0544ZM102.889 10.0544H102.926V10.0913H102.963V10.1285H102.889V10.0544ZM102.815 9.94264H103.038V9.97991H103.074V10.0544H103.112V10.2404H103.074V10.2772H103.038V10.2404H103V10.2031H103.038V10.1285H103.074V10.0913H103.038V10.0171H103V9.97991H102.815V9.94264ZM102.889 9.83121H102.778V9.86849H102.704V9.90577H102.666V9.94264H102.629V10.0171H102.592V10.1285H102.555V10.2031H102.592V10.2772H102.629V10.3518H102.666V10.389H102.704V10.4259H102.778V10.4632H103.038V10.4259H103.112V10.389H103.149V10.3518H103.186V10.3145H103.223V9.97991H103.186V9.94264H103.149V9.90577H103.112V9.86849H103.038V9.83121H102.926V9.79395H102.889V9.83121Z" fill="white"/>
<path fill-rule="evenodd" clip-rule="evenodd" d="M101.961 19.498H102.072V19.6098H102.035V19.6839H102.072V19.7585H102.147V19.498H102.258V19.7212H102.295V19.7585H102.332V19.7212H102.406V19.6839H102.518V19.7212H102.555V19.7585H102.592V19.7212H102.629V19.4238H102.481V19.5352H102.406V19.4238H101.961V19.498Z" fill="white"/>
</g>
<path d="M23.4539 2.53662H13.5469V20.3409H23.4539V2.53662Z" fill="#838282"/>
<path d="M14.1775 11.4394C14.1762 9.725 14.5648 8.03275 15.314 6.49073C16.0633 4.94871 17.1534 3.59731 18.502 2.53881C16.8317 1.22612 14.8258 0.409827 12.7135 0.183243C10.6012 -0.0433411 8.46779 0.328916 6.55706 1.25747C4.64632 2.18603 3.03537 3.63341 1.90832 5.43421C0.781274 7.23501 0.183594 9.31656 0.183594 11.441C0.183594 13.5654 0.781274 15.6469 1.90832 17.4477C3.03537 19.2485 4.64632 20.6959 6.55706 21.6245C8.46779 22.553 10.6012 22.9253 12.7135 22.6987C14.8258 22.4721 16.8317 21.6558 18.502 20.3431C17.153 19.2843 16.0626 17.9324 15.3134 16.3898C14.5641 14.8472 14.1757 13.1543 14.1775 11.4394Z" fill="#999999"/>
<path d="M36.8201 11.4429C36.8201 13.5674 36.2222 15.6491 35.095 17.45C33.9677 19.2508 32.3566 20.6982 30.4456 21.6266C28.5346 22.555 26.401 22.9271 24.2885 22.7002C22.1761 22.4732 20.1702 21.6566 18.5 20.3435C19.8481 19.284 20.9379 17.9323 21.6873 16.3901C22.4367 14.848 22.8261 13.1559 22.8261 11.4413C22.8261 9.72674 22.4367 8.03457 21.6873 6.49246C20.9379 4.95035 19.8481 3.59858 18.5 2.53913C20.1704 1.22587 22.1766 0.409151 24.2893 0.182359C26.402 -0.0444323 28.5359 0.327856 30.447 1.25666C32.3581 2.18546 33.9692 3.63329 35.0963 5.43461C36.2233 7.23593 36.8207 9.31804 36.8201 11.4429Z" fill="#D2D2D2"/>
<path d="M35.7339 18.452V18.0872H35.8817V18.0148H35.5137V18.0903H35.6616V18.4552L35.7339 18.452ZM36.4604 18.452V18.0117H36.3629L36.2308 18.3262L36.0987 18.0117H35.9824V18.452H36.0484V18.1218L36.1711 18.408H36.256L36.3786 18.1218V18.4552L36.4604 18.452Z" fill="#979797"/>
</g>
<defs>
<clipPath id="clip0_354_114">
<rect width="104" height="23" fill="white"/>
</clipPath>
</defs>
</svg>
