<svg width="45" height="29" viewBox="0 0 45 29" fill="none" xmlns="http://www.w3.org/2000/svg">
<g clip-path="url(#clip0_354_151)">
<path d="M41.2003 0.830078L41.6637 0.830965C41.7892 0.831853 41.9148 0.833211 42.041 0.836649C42.2606 0.842582 42.5175 0.854476 42.7569 0.897395C42.965 0.934879 43.1396 0.991882 43.3071 1.07716C43.4725 1.1612 43.624 1.27132 43.7563 1.40343C43.8891 1.53643 43.9994 1.6882 44.0845 1.85541C44.1693 2.02162 44.226 2.19534 44.2632 2.405C44.306 2.64183 44.3179 2.89939 44.3239 3.12033C44.3273 3.24504 44.3289 3.36975 44.3295 3.49742C44.3307 3.65182 44.3307 3.80614 44.3307 3.96085V25.12C44.3307 25.2747 44.3307 25.4287 44.3295 25.5864C44.3289 25.7111 44.3273 25.8358 44.3239 25.9608C44.3179 26.1814 44.306 26.4388 44.2627 26.6784C44.226 26.8852 44.1693 27.0589 44.0841 27.226C43.9992 27.3928 43.8891 27.5444 43.7568 27.6765C43.6238 27.8096 43.4728 27.9194 43.3054 28.0042C43.1392 28.0891 42.9649 28.146 42.7588 28.1831C42.5145 28.2267 42.2469 28.2386 42.0454 28.2441C41.9185 28.247 41.7923 28.2487 41.6631 28.2493C41.509 28.2505 41.3544 28.2505 41.2003 28.2505H3.5289C3.52685 28.2505 3.52485 28.2505 3.52277 28.2505C3.37045 28.2505 3.21782 28.2505 3.06273 28.2493C2.93628 28.2487 2.8101 28.247 2.68811 28.2442C2.48195 28.2386 2.21415 28.2267 1.97186 28.1834C1.76401 28.146 1.58975 28.0891 1.4213 28.0031C1.25553 27.9191 1.10462 27.8094 0.971514 27.6761C0.839431 27.5442 0.729668 27.3931 0.644802 27.226C0.559852 27.0591 0.503017 26.8849 0.465646 26.6756C0.422448 26.4365 0.410581 26.1801 0.404651 25.961C0.401266 25.8355 0.399852 25.7101 0.399048 25.5854L0.398438 25.2172L0.398466 25.12V3.96085L0.398438 3.86364L0.39902 3.49626C0.399852 3.3708 0.401266 3.24537 0.404651 3.12003C0.410581 2.9007 0.422448 2.64418 0.466004 2.40303C0.503044 2.19568 0.559853 2.0214 0.645246 1.85369C0.729447 1.68792 0.839405 1.5366 0.972183 1.40385C1.10443 1.27154 1.25583 1.16156 1.42265 1.07672C1.58931 0.991854 1.76389 0.934879 1.97175 0.897478C2.21124 0.854448 2.46828 0.842582 2.68841 0.836621C2.8139 0.833211 2.93938 0.831853 3.06392 0.830993L3.5289 0.830078H41.2003Z" fill="none"/>
<path d="M11.9497 9.73294C12.3426 9.24147 12.6092 8.58157 12.5389 7.90723C11.9637 7.93583 11.2618 8.2867 10.8554 8.77856C10.4906 9.19976 10.1676 9.88729 10.2518 10.5334C10.8975 10.5894 11.5426 10.2106 11.9497 9.73294Z" fill="#E8473A"/>
<path d="M12.5302 10.659C11.5925 10.6032 10.7952 11.1912 10.3474 11.1912C9.8994 11.1912 9.21368 10.6872 8.47202 10.7007C7.50669 10.7149 6.61099 11.2607 6.12113 12.1288C5.11357 13.8654 5.85523 16.4414 6.83503 17.8557C7.31084 18.5554 7.88428 19.3259 8.63986 19.2982C9.35377 19.2702 9.63359 18.8359 10.5014 18.8359C11.3685 18.8359 11.6206 19.2982 12.3763 19.2842C13.16 19.2702 13.6499 18.5841 14.1257 17.8837C14.6716 17.0861 14.895 16.3159 14.9091 16.2736C14.895 16.2596 13.3979 15.6853 13.384 13.9631C13.3699 12.5211 14.5594 11.8352 14.6154 11.7927C13.9436 10.7992 12.8941 10.6872 12.5302 10.659Z" fill="#E8473A"/>
<path d="M20.6958 8.70703C22.7338 8.70703 24.153 10.1119 24.153 12.1572C24.153 14.2099 22.7046 15.6221 20.6447 15.6221H18.3881V19.2106H16.7578V8.70703H20.6958ZM18.3881 14.2536H20.2588C21.6783 14.2536 22.4862 13.4894 22.4862 12.1645C22.4862 10.8399 21.6783 10.0828 20.2661 10.0828H18.3881V14.2536Z" fill="#E8473A"/>
<path d="M24.5781 17.0344C24.5781 15.695 25.6044 14.8726 27.4243 14.7706L29.5205 14.6469V14.0574C29.5205 13.2057 28.9454 12.6962 27.9848 12.6962C27.0747 12.6962 26.5069 13.1328 26.3688 13.8172H24.8839C24.9712 12.4341 26.1503 11.415 28.0429 11.415C29.899 11.415 31.0854 12.3977 31.0854 13.9335V19.2108H29.5786V17.9515H29.5424C29.0985 18.8032 28.1303 19.3418 27.1258 19.3418C25.6263 19.3418 24.5781 18.4101 24.5781 17.0344ZM29.5205 16.343V15.7388L27.6352 15.8552C26.6962 15.9208 26.1649 16.3357 26.1649 16.9908C26.1649 17.6603 26.7181 18.0971 27.5625 18.0971C28.6615 18.0971 29.5205 17.3401 29.5205 16.343Z" fill="#E8473A"/>
<path d="M32.507 22.0282V20.7543C32.6233 20.7834 32.8853 20.7834 33.0164 20.7834C33.7442 20.7834 34.1374 20.4777 34.3775 19.6916C34.3775 19.677 34.5159 19.2258 34.5159 19.2185L31.75 11.5537H33.453L35.3895 17.7846H35.4184L37.3548 11.5537H39.0143L36.1462 19.6115C35.4914 21.4677 34.7343 22.0645 33.1475 22.0645C33.0164 22.0645 32.6233 22.0499 32.507 22.0282Z" fill="#E8473A"/>
</g>
<defs>
<clipPath id="clip0_354_151">
<rect width="45" height="29" fill="none"/>
</clipPath>
</defs>
</svg>
