<svg width="53" height="18" viewBox="0 0 53 18" fill="none" xmlns="http://www.w3.org/2000/svg">
<path d="M19.8141 1.04908L12.9815 17.2403H8.52384L5.16311 4.31756C4.95774 3.52084 4.78138 3.23047 4.16045 2.8945C3.14813 2.34735 1.47379 1.83621 0 1.51704L0.101478 1.04668H7.27715C8.19042 1.04668 9.01429 1.65142 9.22207 2.69772L10.9979 12.0688L15.3854 1.04908H19.8141ZM37.2797 11.9536C37.2966 7.67964 31.329 7.44446 31.37 5.53665C31.3821 4.9559 31.9402 4.33916 33.1579 4.18077C33.7619 4.10158 35.4266 4.04159 37.316 4.90551L38.0553 1.47144C37.0405 1.10428 35.7358 0.753906 34.1098 0.753906C29.9422 0.753906 27.0091 2.95449 26.9825 6.10779C26.9559 8.43796 29.0772 9.73864 30.6742 10.5138C32.3171 11.3081 32.868 11.8168 32.8607 12.5248C32.8511 13.6119 31.5512 14.0894 30.3384 14.1086C28.2171 14.1422 26.9873 13.5399 26.0064 13.0863L25.2429 16.6332C26.2287 17.0819 28.0456 17.4731 29.9325 17.4923C34.3684 17.4923 37.2652 15.3181 37.2797 11.9536ZM48.2848 17.2403H52.1843L48.7801 1.04908H45.1802C44.3708 1.04908 43.6895 1.51704 43.3851 2.23697L37.0599 17.2403H41.4885L42.3679 14.8213H47.7775L48.2848 17.2403ZM43.5808 11.5025L45.8011 5.42146L47.0792 11.5025H43.5808ZM25.8397 1.04908L22.3533 17.2403H18.1373L21.6261 1.04908H25.8397Z" fill="white"/>
</svg>
