<svg width="49" height="25" viewBox="0 0 49 25" fill="none" xmlns="http://www.w3.org/2000/svg">
<mask id="mask0_354_96" style="mask-type:luminance" maskUnits="userSpaceOnUse" x="0" y="0" width="49" height="25">
<path d="M48.1836 0.441406H0.183594V24.4414H48.1836V0.441406Z" fill="white"/>
</mask>
<g mask="url(#mask0_354_96)">
<path d="M2.74738 8.85115L0.183594 0.991211H1.28061L2.50292 4.86465C2.84058 5.92507 3.1324 6.88158 3.34172 7.80296H3.36617C3.58771 6.88617 3.91468 5.90062 4.26304 4.87534L5.5923 0.99274H6.67557L3.86273 8.85115H2.74738Z" fill="white"/>
<path d="M7.22334 6.21391C7.24779 7.60284 8.13244 8.17278 9.15917 8.17278C9.69515 8.18957 10.2283 8.09 10.7221 7.88093L10.8902 8.62201C10.2958 8.86922 9.65604 8.98844 9.01249 8.97191C7.27376 8.97191 6.23633 7.82746 6.23633 6.12529C6.23633 4.42311 7.24015 3.08154 8.88262 3.08154C10.7267 3.08154 11.2172 4.70426 11.2172 5.74024C11.215 5.90027 11.2027 6.06 11.1805 6.21849L7.22334 6.21391ZM10.2317 5.47895C10.2454 4.8265 9.96437 3.81039 8.80929 3.81039C7.77185 3.81039 7.31654 4.76691 7.23404 5.47895H10.2317Z" fill="white"/>
<path d="M12.0224 4.96587C12.0224 4.30273 12.0102 3.72973 11.9766 3.20411H12.878L12.9116 4.31189H12.9575C13.2141 3.5479 13.8314 3.07576 14.522 3.07576C14.6199 3.07459 14.7175 3.08641 14.8123 3.1109V4.07964C14.6974 4.05437 14.58 4.04258 14.4624 4.0445C13.7397 4.0445 13.2279 4.59304 13.0873 5.36162C13.0578 5.51989 13.0419 5.68041 13.04 5.8414V8.85153H12.0224V4.96587Z" fill="white"/>
<path d="M16.5604 1.61942C16.5604 1.788 16.4934 1.94968 16.3742 2.06889C16.255 2.18809 16.0934 2.25506 15.9248 2.25506C15.7562 2.25506 15.5946 2.18809 15.4754 2.06889C15.3562 1.94968 15.2892 1.788 15.2892 1.61942C15.2875 1.53463 15.3031 1.45038 15.335 1.3718C15.3669 1.29322 15.4144 1.22196 15.4747 1.16235C15.5351 1.10274 15.6069 1.05603 15.6858 1.02507C15.7648 0.994107 15.8492 0.979541 15.934 0.982253C16.0182 0.979626 16.1022 0.994471 16.1804 1.02586C16.2587 1.05724 16.3296 1.10449 16.3888 1.16462C16.4479 1.22476 16.4939 1.29648 16.524 1.37528C16.5541 1.45407 16.5675 1.53824 16.5634 1.62248M15.4191 3.20852H16.4473V8.85288H15.4191V3.20852Z" fill="white"/>
<path d="M17.7832 8.85135V3.98625H16.9902V3.20545H17.7832V2.93653C17.7832 2.14351 17.9589 1.42078 18.4356 0.965438C18.8085 0.618781 19.3017 0.43082 19.8107 0.441337C20.1097 0.440351 20.4062 0.495821 20.6846 0.604832L20.5456 1.39785C20.3394 1.30847 20.1163 1.26519 19.8917 1.27103C19.0177 1.27103 18.7977 2.03502 18.7977 2.90444V3.21004H20.1606V3.99084H18.7977V8.85135H17.7832Z" fill="white"/>
<path d="M22.3143 1.61952C22.3143 1.7881 22.2473 1.94978 22.1281 2.06899C22.0089 2.18819 21.8473 2.25516 21.6787 2.25516C21.5101 2.25516 21.3484 2.18819 21.2292 2.06899C21.1101 1.94978 21.0431 1.7881 21.0431 1.61952C21.0412 1.5348 21.0565 1.45058 21.0881 1.37195C21.1197 1.29332 21.1669 1.22192 21.2269 1.16207C21.2869 1.10222 21.3584 1.05516 21.4371 1.02375C21.5158 0.992333 21.6001 0.977213 21.6848 0.979301C21.7691 0.976674 21.853 0.991519 21.9313 1.0229C22.0096 1.05429 22.0805 1.10153 22.1396 1.16167C22.1987 1.2218 22.2448 1.29353 22.2748 1.37232C22.3049 1.45112 22.3183 1.53528 22.3143 1.61952ZM21.173 3.20556H22.1966V8.84993H21.173V3.20556Z" fill="white"/>
<path d="M24.0087 6.21391C24.0331 7.60284 24.9178 8.17278 25.9445 8.17278C26.4805 8.18967 27.0137 8.09009 27.5075 7.88093L27.6832 8.62201C27.0888 8.86922 26.449 8.98844 25.8055 8.97191C24.0667 8.97191 23.0293 7.82746 23.0293 6.12529C23.0293 4.42311 24.0331 3.08154 25.6741 3.08154C27.5182 3.08154 28.0071 4.70426 28.0071 5.74024C28.0056 5.90029 27.9933 6.06006 27.9705 6.21849L24.0087 6.21391ZM27.0171 5.47895C27.0278 4.8265 26.7482 3.81039 25.5946 3.81039C24.5572 3.81039 24.1034 4.76691 24.0194 5.47895H27.0171Z" fill="white"/>
<path d="M33.6893 0.571289V7.3922C33.6893 7.8949 33.7 8.46178 33.7352 8.85142H32.8185L32.7711 7.87198H32.7405C32.4258 8.50151 31.7398 8.97824 30.8169 8.97824C29.4525 8.97824 28.4044 7.82308 28.4044 6.10869C28.3922 4.2308 29.5595 3.07717 30.9346 3.07717C31.7963 3.07717 32.3799 3.48667 32.6351 3.94048H32.6595V0.571289H33.6893ZM32.6611 5.50361C32.6631 5.35816 32.6477 5.21298 32.6152 5.07119C32.5418 4.73351 32.3547 4.43124 32.0853 4.21488C31.8158 3.99853 31.4803 3.88117 31.1347 3.88242C30.0652 3.88242 29.4434 4.81449 29.4434 6.06438C29.4434 7.20731 30.001 8.1516 31.1118 8.1516C31.4644 8.15051 31.806 8.02858 32.0795 7.80614C32.3531 7.5837 32.5422 7.27419 32.6152 6.92922C32.649 6.78454 32.6644 6.63617 32.6611 6.48763V5.50361Z" fill="white"/>
<path d="M37.4863 8.85142C37.5107 8.46484 37.5321 7.8949 37.5321 7.3922V0.571289H38.5451V4.1162H38.568C38.9301 3.48668 39.5825 3.0787 40.4932 3.0787C41.8927 3.0787 42.8828 4.24608 42.8736 5.95895C42.8736 7.97588 41.6009 8.97977 40.3419 8.97977C39.5245 8.97977 38.8721 8.665 38.4519 7.91935H38.4183L38.3694 8.85142H37.4863ZM38.5558 6.58848C38.5589 6.71404 38.5748 6.83895 38.6032 6.9613C38.6877 7.30379 38.8843 7.60818 39.1617 7.82607C39.4391 8.04397 39.7814 8.16285 40.1341 8.16383C41.2036 8.16383 41.8484 7.28982 41.8484 5.99409C41.8484 4.86338 41.2647 3.89465 40.1677 3.89465C39.8045 3.90141 39.4538 4.02878 39.1708 4.25671C38.8878 4.48464 38.6887 4.80019 38.6047 5.1537C38.5702 5.2887 38.5502 5.42701 38.5451 5.56626L38.5558 6.58848Z" fill="white"/>
<path d="M43.997 3.20557L45.233 6.54269C45.3614 6.91552 45.5019 7.35863 45.5936 7.69784H45.6165C45.7235 7.36016 45.8381 6.93385 45.9801 6.51977L47.1016 3.20557H48.1879L46.6433 7.22875C45.9099 9.1647 45.4072 10.1564 44.7074 10.763C44.352 11.0896 43.9184 11.319 43.4485 11.4292L43.1918 10.5659C43.5207 10.4574 43.8256 10.2867 44.0902 10.0632C44.4626 9.75424 44.7581 9.36297 44.9534 8.92023C44.9945 8.84411 45.0219 8.76136 45.0344 8.67575C45.0255 8.58293 45.0017 8.49214 44.9641 8.40682L42.877 3.21169L43.997 3.20557Z" fill="white"/>
<path d="M17.2057 12.7017L14.0995 20.5693L12.8405 13.8798C12.7898 13.5515 12.6232 13.2523 12.371 13.0362C12.1188 12.8201 11.7976 12.7015 11.4654 12.7017H6.37149L6.30273 13.0363C7.34628 13.2655 8.53191 13.6307 9.25154 14.0188C9.69158 14.2603 9.81686 14.4696 9.95896 15.038L12.3455 24.2609H15.5067L20.3501 12.7017H17.2057Z" fill="white"/>
<path d="M21.6303 12.7002L19.1582 24.2594H22.1498L24.6158 12.7002H21.6303Z" fill="white"/>
<path d="M28.5404 15.9062C28.5496 15.4921 28.9453 15.052 29.8086 14.9344C30.8201 14.8408 31.8383 15.0197 32.7574 15.4524L33.2814 13.0076C32.3875 12.6709 31.4406 12.4965 30.4854 12.4927C27.529 12.4927 25.4526 14.0665 25.4312 16.3126C25.4159 17.9735 26.9178 18.9102 28.0484 19.4572C29.2142 20.0225 29.6069 20.3847 29.5992 20.895C29.5992 21.6712 28.6703 22.0105 27.8131 22.0227C26.3082 22.0471 25.4373 21.6178 24.7406 21.2954L24.2012 23.8272C24.8964 24.1466 26.1875 24.4262 27.5274 24.4384C30.6626 24.4384 32.7222 22.8845 32.7222 20.484C32.7345 17.428 28.5053 17.2645 28.5343 15.9001" fill="white"/>
<path d="M37.1957 20.1679L38.7847 15.8269L39.6785 20.1679H37.1957ZM38.3309 12.7022C38.058 12.6995 37.7906 12.779 37.5633 12.9302C37.3361 13.0814 37.1596 13.2974 37.0567 13.5502L32.5723 24.2599H35.7136L36.337 22.5332H40.1567L40.5158 24.2599H43.2874L40.884 12.7022H38.3309Z" fill="white"/>
</g>
</svg>
