<svg width="92" height="21" viewBox="0 0 92 21" fill="none" xmlns="http://www.w3.org/2000/svg">
<mask id="mask0_354_145" style="mask-type:luminance" maskUnits="userSpaceOnUse" x="0" y="0" width="92" height="21">
<path d="M91.2266 0.441406H0.226562V20.4414H91.2266V0.441406Z" fill="white"/>
</mask>
<g mask="url(#mask0_354_145)">
<path d="M8.15991 6.02628C8.6459 4.39628 8.97858 2.71961 9.49718 1.09961C9.85596 2.75628 10.3224 4.38628 10.7546 6.02461C9.89021 6.02128 9.02425 6.01794 8.15991 6.02628ZM51.111 3.36461C51.6867 3.23794 52.2852 3.31628 52.8706 3.24294C52.6635 4.79128 52.4303 6.33794 52.1335 7.87128C52.9147 7.12461 53.9258 6.57794 55.0233 6.63294C56.2986 6.55294 57.5234 7.32794 58.1056 8.47628C59.2993 10.7629 58.4839 13.8879 56.3932 15.3296C54.7542 16.4163 52.3781 16.1463 51.0979 14.6046C51.062 14.9846 51.0229 15.3629 50.9805 15.7413C50.1586 15.7396 49.3383 15.7396 48.5163 15.7413C49.0904 11.9979 49.6775 8.25628 50.245 4.51128C50.3102 4.00628 50.656 3.56461 51.111 3.36461ZM53.1283 9.01628C52.5037 9.31794 51.791 9.81128 51.7535 10.5896C51.6752 11.2446 51.5073 11.8896 51.491 12.5513C52.1156 13.6013 53.5442 14.1196 54.6482 13.5696C56.0458 12.9546 56.5775 10.9729 55.7768 9.68128C55.2125 8.81461 54.0236 8.62128 53.1283 9.01628ZM3.91976 4.78628C5.37609 5.59961 6.78512 6.50128 8.23819 7.32128C7.63967 7.95461 7.01833 8.56628 6.42145 9.20294C5.59136 7.72794 4.78084 6.24294 3.91976 4.78628ZM10.6747 7.31128C12.1359 6.49961 13.5629 5.62128 14.9947 4.75628C14.163 6.24461 13.3215 7.72794 12.4865 9.21461C11.9157 8.54794 11.2748 7.94961 10.6747 7.31128ZM40.84 7.43461C41.9311 6.65461 43.3482 6.48461 44.6333 6.73961C45.9413 7.01461 47.029 8.11294 47.3454 9.43294C47.5509 10.2729 47.4465 11.1496 47.3095 11.9929C45.209 12.0046 43.1053 11.9629 41.0048 12.0129C41.1385 12.6379 41.5005 13.2263 42.0893 13.4929C43.5146 14.1513 45.1894 13.8296 46.5349 13.1146C46.4582 13.8013 46.3261 14.4813 46.256 15.1696C45.2025 15.9013 43.8717 16.0563 42.6307 15.9646C41.1075 15.8479 39.6088 14.9163 39.0086 13.4463C38.1883 11.3313 38.9646 8.68628 40.84 7.43461ZM42.3714 8.85794C41.7631 9.13961 41.4288 9.76294 41.1841 10.3646C42.5084 10.3929 43.8359 10.4063 45.1601 10.3563C45.0704 9.89628 45.0003 9.38128 44.6415 9.04628C44.0348 8.48128 43.0759 8.51461 42.3714 8.85794ZM63.3601 7.86961C64.1462 7.11794 65.167 6.57294 66.2711 6.63294C67.5432 6.56128 68.7614 7.34128 69.3354 8.48794C70.5178 10.7729 69.7073 13.8763 67.6312 15.3246C65.9988 16.4046 63.5786 16.1746 62.3376 14.5813C62.2071 15.7696 61.9902 16.9463 61.8141 18.1279C61.7358 18.7513 61.1895 19.2713 60.5779 19.3113C60.1115 19.3413 59.6434 19.3196 59.177 19.3229C59.831 15.1696 60.4703 11.0146 61.1063 6.85794C61.9315 6.84794 62.7567 6.85294 63.5835 6.85461C63.5069 7.19294 63.4302 7.53128 63.3601 7.86961ZM64.7137 8.89128C63.9244 9.12961 63.0307 9.71461 62.9687 10.6346C62.9018 11.2813 62.7192 11.9179 62.729 12.5679C63.3634 13.6213 64.8083 14.1246 65.9091 13.5513C67.2692 12.9146 67.7992 10.9796 67.0099 9.69794C66.5272 8.93461 65.547 8.67628 64.7137 8.89128ZM72.584 7.20461C73.8691 6.63628 75.3124 6.54128 76.6905 6.70628C77.801 6.89294 79.0144 7.49628 79.3813 8.66628C79.8461 10.2513 79.0796 11.8446 79.0551 13.4346C79.166 13.9346 79.7222 13.8863 80.1005 13.8146C79.9896 14.4113 79.8967 15.0129 79.8233 15.6163C78.7828 16.1146 77.1177 16.1063 76.6301 14.8313C75.3467 16.1313 73.1108 16.4213 71.6333 15.3079C70.2291 14.2279 70.3889 11.7613 71.8551 10.8129C73.3864 9.72128 75.4559 9.95461 77.0623 10.7529C77.1683 10.0846 77.0851 9.23461 76.3822 8.94628C75.0498 8.42794 73.5218 8.68961 72.2579 9.29628C72.3965 8.60461 72.5009 7.90461 72.584 7.20461ZM74.0289 11.8329C73.5951 11.9596 73.2054 12.2963 73.1157 12.7629C72.9689 13.2613 73.3114 13.7879 73.7762 13.9429C74.7286 14.2513 75.8489 13.9913 76.5469 13.2513C76.71 12.9379 76.728 12.5713 76.8177 12.2329C75.9876 11.7363 74.9585 11.5446 74.0289 11.8329ZM20.7287 6.87294C22.1051 6.81961 23.4848 6.86961 24.8629 6.85294C26.1055 6.79294 27.3107 7.69294 27.6434 8.91628C27.9076 9.98628 27.9679 11.0996 28.2435 12.1679C28.9122 10.6679 29.633 9.19294 30.3294 7.70628C30.5055 7.30128 30.8398 6.95128 31.2753 6.86128C31.7482 6.79628 32.2277 6.83461 32.7022 6.83128C32.9827 8.60294 33.3252 10.3629 33.5845 12.1379C34.2124 11.0929 34.6478 9.92628 35.2121 8.83794C35.5953 8.12961 35.8041 7.12461 36.6814 6.89628C37.3321 6.80128 37.9943 6.86961 38.6498 6.85461C37.1625 9.82794 35.747 12.8379 34.2906 15.8263C33.5878 15.8329 32.8849 15.8313 32.182 15.8263C31.877 14.0263 31.4775 12.2429 31.2117 10.4346C30.2984 12.2129 29.4634 14.0329 28.5795 15.8263C27.8799 15.8313 27.1819 15.8363 26.4823 15.8213C26.1952 13.9679 25.8511 12.1229 25.5429 10.2729C25.4173 9.47961 24.809 8.89461 24.1958 8.45461C23.157 7.69128 21.9323 7.27128 20.7287 6.87294ZM87.9497 7.59294C88.1698 7.16294 88.6183 6.86128 89.0978 6.85961C89.711 6.83961 90.3258 6.86294 90.9406 6.85628C89.0863 10.1846 87.3039 13.5546 85.4675 16.8946C85.0223 17.6813 84.4222 18.3979 83.6557 18.8713C82.5565 19.5429 81.154 19.5796 79.9815 19.0913C80.0222 18.3429 80.1886 17.6113 80.2734 16.8679C80.8605 17.2163 81.5943 17.3746 82.2402 17.1013C82.9642 16.7863 83.4388 16.1029 83.853 15.4496C82.9512 12.5946 82.1407 9.70961 81.2372 6.85628C82.0869 6.85128 82.9365 6.86794 83.7845 6.84128C84.3374 8.79294 84.8544 10.7546 85.3501 12.7213C86.2422 11.0263 87.0674 9.29294 87.9497 7.59294ZM0.371094 10.4729C1.95136 9.98628 3.55935 9.58294 5.15267 9.13794C5.14288 10.0146 5.14452 10.8913 5.14941 11.7679C3.55772 11.3346 1.9693 10.8829 0.371094 10.4729ZM13.7472 9.14794C15.6699 9.50294 17.5649 9.99794 19.4877 10.3529C19.6018 10.3763 19.7078 10.4229 19.804 10.4913C17.7786 10.8679 15.7759 11.3663 13.752 11.7546C13.8059 10.8879 13.8108 10.0163 13.7472 9.14794ZM3.96706 16.1196C4.74008 14.6263 5.61257 13.1879 6.42145 11.7129C7.01997 12.3413 7.63805 12.9496 8.23493 13.5796C6.81286 14.4263 5.37772 15.2513 3.96706 16.1196ZM10.6828 13.5796C11.2879 12.9529 11.9125 12.3446 12.4979 11.6979C13.3248 13.1879 14.1646 14.6729 15.0061 16.1546C13.5775 15.2729 12.1294 14.4296 10.6828 13.5796ZM8.16154 14.8813C9.02588 14.8879 9.89021 14.8863 10.753 14.8813C10.3273 16.4763 9.89348 18.0679 9.51676 19.6746C9.39688 19.5117 9.31489 19.3231 9.27703 19.1229C8.90683 17.7096 8.56273 16.2863 8.16154 14.8813Z" fill="white"/>
</g>
</svg>
