<svg width="110" height="109" viewBox="0 0 110 109" fill="none" xmlns="http://www.w3.org/2000/svg">
<path d="M22.3125 86.6875L2.3125 75.75L8.875 69.1875L24.5 71.375L48.875 47L0.125 20.4375L8.875 11.6875L68.5625 27L93.0937 2.78125C94.8646 1.01042 97.0792 0.125 99.7375 0.125C102.396 0.125 104.608 1.01042 106.375 2.78125C108.142 4.55208 109.027 6.76667 109.031 9.425C109.035 12.0833 108.15 14.2958 106.375 16.0625L82 40.4375L97.3125 100.125L88.5625 108.875L62 60.125L37.625 84.5L39.8125 100.125L33.25 106.688L22.3125 86.6875Z" fill="#222222"/>
</svg>
