<svg width="118" height="111" viewBox="0 0 118 111" fill="none" xmlns="http://www.w3.org/2000/svg">
<path fill-rule="evenodd" clip-rule="evenodd" d="M66.0123 0.600045C69.0373 1.18129 73.4561 2.69379 75.5873 6.95629C80.2561 16.2938 76.3998 25.1688 72.2623 30.6875C69.5623 34.2875 66.0873 37.675 62.0436 39.75C61.1998 40.1875 59.4811 41 57.4998 41C53.8061 41 50.1873 39.3188 47.2186 37.2188C46.6561 39.1313 46.1123 41.2313 45.6436 43.4563C44.7165 47.7254 44.214 52.0757 44.1436 56.4438C50.7248 54.3188 57.4561 54.5438 63.2561 57.8188C67.6118 54.3908 72.6262 51.8953 77.9873 50.4875C86.1123 48.3563 95.8623 48.65 104.719 54.55C111.062 58.7813 115.869 66.75 116.837 75.4688C117.85 84.5563 114.694 94.4938 105.15 102.131C98.4123 107.519 88.1436 109.6 78.6936 110.356C68.9123 111.144 58.5811 110.606 50.5623 109.713C35.6998 108.063 24.2873 103.913 16.3123 99.6313C11.0811 96.8188 3.92482 92.9313 1.65607 86.975C0.124817 82.9375 0.524816 78.0375 0.899816 73.8375C1.39982 68.3313 2.62482 61.4563 4.91857 54.0063C9.49357 39.1375 18.4498 21.5438 34.7686 8.05629C39.7873 3.9063 48.1873 1.3313 55.2186 0.468795C58.8436 0.0250452 62.6561 -0.0374554 66.0123 0.600045Z" fill="#222222"/>
</svg>
