<svg width="123" height="118" viewBox="0 0 123 118" fill="none" xmlns="http://www.w3.org/2000/svg">
<path d="M119.232 19.5527L62.9824 0.802716C62.0202 0.48194 60.9798 0.48194 60.0176 0.802716L3.76758 19.5527C2.83421 19.8639 2.02241 20.4608 1.44717 21.259C0.871932 22.0572 0.562427 23.0161 0.5625 24V70.875C0.5625 72.1182 1.05636 73.3105 1.93544 74.1895C2.81451 75.0686 4.0068 75.5625 5.25 75.5625C6.4932 75.5625 7.68548 75.0686 8.56456 74.1895C9.44364 73.3105 9.9375 72.1182 9.9375 70.875V30.5039L29.6191 37.0605C24.39 45.5086 22.7271 55.6865 24.9957 65.3596C27.2643 75.0326 33.2788 83.41 41.7187 88.6523C31.1719 92.789 22.0547 100.271 15.3867 110.502C15.0399 111.017 14.7991 111.597 14.6781 112.206C14.5571 112.815 14.5585 113.442 14.6821 114.051C14.8057 114.66 15.049 115.238 15.3981 115.752C15.7471 116.266 16.1947 116.705 16.7151 117.045C17.2354 117.384 17.818 117.617 18.429 117.729C19.0399 117.841 19.6672 117.831 20.2741 117.699C20.8811 117.566 21.4557 117.315 21.9646 116.958C22.4734 116.602 22.9064 116.148 23.2383 115.623C32.0684 102.076 46.0137 94.3125 61.5 94.3125C76.9863 94.3125 90.9316 102.076 99.7617 115.623C100.449 116.645 101.511 117.355 102.718 117.6C103.925 117.845 105.18 117.605 106.212 116.932C107.243 116.26 107.969 115.208 108.231 114.005C108.493 112.801 108.271 111.543 107.613 110.502C100.945 100.271 91.793 92.789 81.2812 88.6523C89.7131 83.4102 95.7219 75.0383 97.9901 65.3723C100.258 55.7064 98.6007 45.5354 93.3809 37.0898L119.232 28.4765C120.166 28.1656 120.978 27.5687 121.553 26.7705C122.129 25.9723 122.439 25.0133 122.439 24.0293C122.439 23.0453 122.129 22.0862 121.553 21.288C120.978 20.4898 120.166 19.893 119.232 19.582V19.5527ZM89.625 56.8125C89.6263 61.2589 88.5733 65.6423 86.5524 69.6029C84.5316 73.5636 81.6005 76.9887 77.9996 79.5972C74.3987 82.2057 70.2307 83.9233 65.8374 84.609C61.4442 85.2947 56.951 84.9291 52.7264 83.542C48.5019 82.1549 44.6664 79.786 41.5347 76.6296C38.403 73.4732 36.0642 69.6192 34.7104 65.3839C33.3566 61.1486 33.0262 56.6527 33.7464 52.265C34.4666 47.8773 36.2168 43.7229 38.8535 40.1426L60.0176 47.1738C60.9798 47.4946 62.0202 47.4946 62.9824 47.1738L84.1465 40.1426C87.7077 44.9707 89.6278 50.8131 89.625 56.8125Z" fill="#222222"/>
</svg>
