<svg width="151" height="151" viewBox="0 0 151 151" fill="none" xmlns="http://www.w3.org/2000/svg">
<path d="M136.888 46.9438C136.313 46.113 135.545 45.4339 134.65 44.9648C133.755 44.4956 132.76 44.2504 131.75 44.25H46.3313L39.1187 26.9375C38.1731 24.6577 36.5717 22.71 34.5177 21.3413C32.4636 19.9727 30.0495 19.2449 27.5813 19.25H13V31.75H27.5813L57.2312 102.906C57.7062 104.045 58.5074 105.017 59.5339 105.701C60.5604 106.385 61.7664 106.75 63 106.75H113C115.606 106.75 117.938 105.131 118.856 102.7L137.606 52.7C137.961 51.7539 138.08 50.736 137.955 49.7335C137.83 48.7309 137.464 47.7737 136.888 46.9438Z" fill="#222222"/>
<path d="M66.125 131.75C71.3027 131.75 75.5 127.553 75.5 122.375C75.5 117.197 71.3027 113 66.125 113C60.9473 113 56.75 117.197 56.75 122.375C56.75 127.553 60.9473 131.75 66.125 131.75Z" fill="#222222"/>
<path d="M109.875 131.75C115.053 131.75 119.25 127.553 119.25 122.375C119.25 117.197 115.053 113 109.875 113C104.697 113 100.5 117.197 100.5 122.375C100.5 127.553 104.697 131.75 109.875 131.75Z" fill="#222222"/>
</svg>
