<svg width="151" height="119" viewBox="0 0 151 119" fill="none" xmlns="http://www.w3.org/2000/svg">
<path d="M93.75 50.2676V118.25H63.5V75V74.5H63H31.75H31.25V75V118.25H1V50.2676L47.375 19.3509L93.75 50.2676ZM63.5 13.9195V0.5H150V118.25H107.25V43.3125V43.0434L107.025 42.8952L101 38.9184V25V24.5H100.5H88H87.5V25V29.8795L63.5 13.9195ZM132.25 75V74.5H131.75H119.25H118.75V75V87.5V88H119.25H131.75H132.25V87.5V75ZM132.25 50V49.5H131.75H119.25H118.75V50V62.5V63H119.25H131.75H132.25V62.5V50ZM132.25 25V24.5H131.75H119.25H118.75V25V37.5V38H119.25H131.75H132.25V37.5V25Z" fill="#222222" stroke="black"/>
</svg>
