<svg width="139" height="125" viewBox="0 0 139 125" fill="none" xmlns="http://www.w3.org/2000/svg">
<path d="M100.75 125C98.9792 125 97.4958 124.4 96.3 123.2C95.1042 122 94.5042 120.517 94.5 118.75C94.4958 116.983 95.0958 115.5 96.3 114.3C97.5042 113.1 98.9875 112.5 100.75 112.5H119.5V100H100.75C98.9792 100 97.4958 99.4 96.3 98.2C95.1042 97 94.5042 95.5167 94.5 93.75C94.4958 91.9833 95.0958 90.5 96.3 89.3C97.5042 88.1 98.9875 87.5 100.75 87.5H119.5V75H100.75C98.9792 75 97.4958 74.4 96.3 73.2C95.1042 72 94.5042 70.5167 94.5 68.75C94.4958 66.9833 95.0958 65.5 96.3 64.3C97.5042 63.1 98.9875 62.5 100.75 62.5H119.5V50H100.75C98.9792 50 97.4958 49.4 96.3 48.2C95.1042 47 94.5042 45.5167 94.5 43.75C94.4958 41.9833 95.0958 40.5 96.3 39.3C97.5042 38.1 98.9875 37.5 100.75 37.5H119.5V25H100.75C98.9792 25 97.4958 24.4 96.3 23.2C95.1042 22 94.5042 20.5167 94.5 18.75C94.4958 16.9833 95.0958 15.5 96.3 14.3C97.5042 13.1 98.9875 12.5 100.75 12.5H125.75C129.187 12.5 132.131 13.725 134.581 16.175C137.031 18.625 138.254 21.5667 138.25 25V112.5C138.25 115.938 137.027 118.881 134.581 121.331C132.135 123.781 129.192 125.004 125.75 125H100.75ZM25.75 125L0.75 56.25L32 37.5V0H57V37.5L88.25 56.25L63.25 125H25.75Z" fill="#222222"/>
</svg>
