<svg width="127" height="113" viewBox="0 0 127 113" fill="none" xmlns="http://www.w3.org/2000/svg">
<path d="M51.0005 0.25L38.5005 12.75V25.25H19.7505C12.563 25.25 8.00054 31.5 7.25054 37.75L1.00054 100.25C0.250544 106.5 4.37554 112.75 13.5005 112.75H113.501C122.626 112.75 126.751 106.5 126.001 100.25L119.751 37.75C119.001 31.5 113.876 25.25 107.251 25.25H88.5005V12.75L76.0005 0.25H51.0005ZM51.0005 12.75H76.0005V25.25H51.0005V12.75ZM57.2505 44H69.7505V62.75H88.5005V75.25H69.7505V94H57.2505V75.25H38.5005V62.75H57.2505V44Z" fill="#222222"/>
</svg>
