<svg width="123" height="125" viewBox="0 0 123 125" fill="none" xmlns="http://www.w3.org/2000/svg">
<path d="M71.1875 105.625C65.1875 111.875 58.3125 118.312 50.5 125C17.1875 96.5625 0.5 72 0.5 51.25C0.5 20.125 24.25 0 50.5 0C75.5 0 98.25 18.25 100.312 46.875H122.375L94.25 75L66.125 46.875H87.8125C85.8125 26.5 70.0625 12.5 50.5 12.5C29.5625 12.5 13 28.5625 13 51.25C13 65.875 25.1875 85.25 50.5 108.375C54.5 104.688 58.1875 101.125 61.5625 97.6875C60.4627 95.5174 59.8849 93.1204 59.875 90.6875C59.875 86.5435 61.5212 82.5692 64.4515 79.639C67.3817 76.7087 71.356 75.0625 75.5 75.0625C79.644 75.0625 83.6183 76.7087 86.5485 79.639C89.4788 82.5692 91.125 86.5435 91.125 90.6875C91.1228 93.1044 90.5582 95.4876 89.4758 97.6486C88.3934 99.8095 86.823 101.689 84.8888 103.138C82.9545 104.587 80.7096 105.566 78.3315 105.998C75.9535 106.43 73.5076 106.302 71.1875 105.625Z" fill="#222222"/>
</svg>
