<svg width="116" height="109" viewBox="0 0 116 109" fill="none" xmlns="http://www.w3.org/2000/svg">
<path d="M96.0632 106.188L68.4069 78.5313L81.5319 65.4063L109.188 93.0625C110.959 94.8334 111.844 97.0208 111.844 99.625C111.844 102.229 110.959 104.417 109.188 106.188C107.417 107.958 105.23 108.844 102.626 108.844C100.021 108.844 97.834 107.958 96.0632 106.188ZM9.81315 106.188C8.04232 104.417 7.1569 102.229 7.1569 99.625C7.1569 97.0208 8.04232 94.8334 9.81315 93.0625L46.3756 56.5L35.7506 45.875C34.6048 47.0208 33.1465 47.5938 31.3756 47.5938C29.6048 47.5938 28.1465 47.0208 27.0007 45.875L23.4069 42.2813V56.3438C23.4069 57.8021 22.7819 58.7917 21.5319 59.3125C20.2819 59.8333 19.1361 59.5729 18.0944 58.5313L1.06315 41.5C0.0214844 40.4583 -0.238932 39.3125 0.281901 38.0625C0.802734 36.8125 1.79232 36.1875 3.25065 36.1875H17.3132L13.8756 32.75C12.6256 31.5 12.0007 30.0417 12.0007 28.375C12.0007 26.7083 12.6256 25.25 13.8756 24L31.6882 6.18751C33.7715 4.10417 36.0111 2.59376 38.4069 1.65626C40.8027 0.718756 43.2507 0.250007 45.7507 0.250007C47.834 0.250007 49.7881 0.562507 51.6131 1.18751C53.4381 1.81251 55.234 2.75001 57.0007 4.00001C57.834 4.52084 58.2777 5.25001 58.3319 6.18751C58.3861 7.12501 58.0465 7.95834 57.3131 8.68751L45.4381 20.5625L48.8757 24C50.0215 25.1458 50.5944 26.6042 50.5944 28.375C50.5944 30.1458 50.0215 31.6042 48.8757 32.75L59.5006 43.375L73.5631 29.3125C73.1465 28.1667 72.809 26.9688 72.5507 25.7188C72.2923 24.4688 72.1611 23.2188 72.1569 21.9688C72.1569 15.8229 74.2673 10.6396 78.4882 6.41876C82.709 2.19792 87.8902 0.0895895 94.0319 0.0937562C94.8652 0.0937562 95.6465 0.12084 96.3756 0.175006C97.1048 0.229173 97.834 0.35834 98.5631 0.562506C99.5006 0.875007 100.101 1.52709 100.363 2.51876C100.626 3.51042 100.39 4.36876 99.6569 5.09376L89.5006 15.25C88.8756 15.875 88.5631 16.6042 88.5631 17.4375C88.5631 18.2708 88.8756 19 89.5006 19.625L96.3756 26.5C97.0006 27.125 97.7298 27.4375 98.5631 27.4375C99.3965 27.4375 100.126 27.125 100.751 26.5L110.907 16.3438C111.636 15.6146 112.496 15.3542 113.488 15.5625C114.48 15.7708 115.13 16.3958 115.438 17.4375C115.646 18.1667 115.778 18.8958 115.832 19.625C115.886 20.3542 115.911 21.1354 115.907 21.9688C115.907 28.1146 113.799 33.2958 109.582 37.5125C105.365 41.7292 100.182 43.8396 94.0319 43.8438C92.7819 43.8438 91.5319 43.7396 90.2819 43.5313C89.0319 43.3229 87.834 42.9583 86.6882 42.4375L22.9382 106.188C21.1673 107.958 18.9798 108.844 16.3757 108.844C13.7715 108.844 11.584 107.958 9.81315 106.188Z" fill="#222222"/>
</svg>
