<svg width="113" height="113" viewBox="0 0 113 113" fill="none" xmlns="http://www.w3.org/2000/svg">
<path fill-rule="evenodd" clip-rule="evenodd" d="M31.5 81.5V112.75H81.5V81.5H112.75V31.5H81.5V0.25H31.5V31.5H0.25V81.5H31.5ZM64.3125 33.0719H56.0938C55.8031 33.0581 55.5129 33.1083 55.2437 33.2187C52.6344 34.4906 50.9969 36.7375 49.9937 39.4C49.8062 39.8906 49.6469 40.3875 49.5062 40.8844H43.075C43.3313 39.675 43.6781 38.425 44.1469 37.1906C45.5281 33.5312 48.05 29.775 52.5031 27.6C53.6267 27.0715 54.8553 26.8044 56.0969 26.8187H64.3156C65.1444 26.8187 65.9393 27.148 66.5253 27.734C67.1114 28.3201 67.4406 29.1149 67.4406 29.9437C67.4406 30.7726 67.1114 31.5674 66.5253 32.1535C65.9393 32.7395 65.1444 33.0688 64.3156 33.0688M37.7531 44.0063C36.0281 44.0063 34.5875 45.4312 35.0563 47.0937C36.8594 53.5281 44.2 58.5344 53.3781 59.4719V64.3406C51.2062 64.3938 48.95 64.5688 47.0344 65.125C45.5406 65.5625 43.9562 66.3062 42.7437 67.6687C41.475 69.0937 40.8781 70.8938 40.8781 72.9031C40.8781 74.9125 41.4719 76.7156 42.7406 78.1438C43.9531 79.5094 45.5375 80.2594 47.0344 80.6969C48.0344 80.9875 49.1281 81.175 50.2531 81.2938V75.0031C49.7569 74.9358 49.2661 74.8334 48.7844 74.6969C47.9406 74.4469 47.5688 74.1719 47.4156 73.9969C47.3156 73.8844 47.1281 73.6313 47.1281 72.9031C47.1281 72.1844 47.3156 71.9344 47.4094 71.825C47.5656 71.65 47.9344 71.3719 48.7844 71.125C49.9813 70.7781 51.525 70.6469 53.3781 70.5969V87.7562H44.0031V94.0062H69.0031V87.7562H59.6281V70.4531C63.0719 70.1844 65.8625 69.4281 67.9625 68.075C70.9156 66.1688 72.1281 63.3344 72.1281 60.325C72.1529 58.7178 71.7541 57.1324 70.9719 55.7281C74.4844 53.5094 76.9938 50.5031 77.95 47.0937C78.4188 45.4312 76.9812 44.0063 75.2531 44.0063H37.7531ZM59.6281 64.1781C62.1562 63.9344 63.6906 63.3906 64.575 62.8219C65.5281 62.2063 65.8781 61.4844 65.8781 60.325C65.8781 59.4469 65.6781 58.85 65.1625 58.3562C63.3599 58.9089 61.5072 59.2825 59.6313 59.4719L59.6281 64.1781Z" fill="#222222"/>
</svg>
