<svg width="139" height="101" viewBox="0 0 139 101" fill="none" xmlns="http://www.w3.org/2000/svg">
<path d="M0.75 81.75V56.75H52L13.25 26.125V44.25H0.75V6.75H7L75.75 44.5625V0.5H107L138.25 38V81.75H122.625C122.625 86.9583 120.802 91.3854 117.156 95.0312C113.51 98.6771 109.083 100.5 103.875 100.5C98.6667 100.5 94.2396 98.6771 90.5938 95.0312C86.9479 91.3854 85.125 86.9583 85.125 81.75H50.75C50.75 86.9583 48.9271 91.3854 45.2812 95.0312C41.6354 98.6771 37.2083 100.5 32 100.5C26.7917 100.5 22.3646 98.6771 18.7188 95.0312C15.0729 91.3854 13.25 86.9583 13.25 81.75H0.75ZM32 91.125C34.7083 91.125 36.9479 90.2396 38.7188 88.4688C40.4896 86.6979 41.375 84.4583 41.375 81.75C41.375 79.0417 40.4896 76.8021 38.7188 75.0312C36.9479 73.2604 34.7083 72.375 32 72.375C29.2917 72.375 27.0521 73.2604 25.2813 75.0312C23.5104 76.8021 22.625 79.0417 22.625 81.75C22.625 84.4583 23.5104 86.6979 25.2813 88.4688C27.0521 90.2396 29.2917 91.125 32 91.125ZM103.875 91.125C106.583 91.125 108.823 90.2396 110.594 88.4688C112.365 86.6979 113.25 84.4583 113.25 81.75C113.25 79.0417 112.365 76.8021 110.594 75.0312C108.823 73.2604 106.583 72.375 103.875 72.375C101.167 72.375 98.9271 73.2604 97.1562 75.0312C95.3854 76.8021 94.5 79.0417 94.5 81.75C94.5 84.4583 95.3854 86.6979 97.1562 88.4688C98.9271 90.2396 101.167 91.125 103.875 91.125ZM88.25 38H122L101.062 13H88.25V38Z" fill="#222222"/>
</svg>
